<svg width="798" height="772" viewBox="0 0 798 772" fill="none" xmlns="http://www.w3.org/2000/svg">
<path d="M263.976 374.126C208.208 491.281 259.657 627.736 378.891 678.908C498.124 730.081 639.99 676.591 695.758 559.437C751.525 442.283 700.076 305.827 580.843 254.655C461.61 203.483 319.744 256.972 263.976 374.126Z" fill="url(#paint0_radial_229_2)"/>
<path d="M164.844 597.351L164.845 597.351C193.249 622.933 223.27 641.464 227.241 643.915C227.433 644.034 227.564 644.115 227.631 644.157L227.857 644.273L696.408 444.469L696.662 444.362L696.679 444.09L696.68 444.071L696.683 444.052L696.683 444.047L696.685 444.031L696.691 443.976C696.697 443.93 696.704 443.866 696.713 443.784C696.731 443.621 696.756 443.389 696.787 443.09C696.85 442.491 696.94 441.624 697.053 440.508C697.277 438.274 697.593 435.04 697.968 430.944C698.72 422.753 699.711 411.118 700.697 397.156C702.671 369.23 704.625 331.998 704.602 294.394L704.602 294.393C704.633 250.202 701.839 214.151 696.49 187.178C696.489 187.177 696.489 187.177 696.489 187.177L696.98 187.08C690.188 153.047 679.139 133.393 664.062 128.656C639.848 121.031 616.016 128.07 591.209 150.067C569.48 169.341 549.87 197.245 530.928 224.229L530.906 224.26C513.282 249.333 496.58 273.094 479.645 287.854L164.844 597.351ZM164.844 597.351C147.019 581.317 133.258 565.692 124.012 550.914L124.012 550.913C112.386 532.363 107.887 515.153 110.474 499.727L164.844 597.351ZM111.415 499.94L111.416 499.938C112.417 494.207 114.707 490.341 118.525 488.196C118.946 487.942 119.389 487.753 119.796 487.58L119.811 487.574C125.243 485.261 132.81 486.144 141.432 488.577C150.081 491.017 159.926 495.058 169.982 499.208M111.415 499.94L169.791 499.671M111.415 499.94C108.835 515.168 113.389 532.159 124.83 550.383L125.194 550.154L124.83 550.383C134.064 565.084 147.699 580.65 165.434 596.571C193.74 622.055 223.689 640.613 227.666 642.961L227.884 643.09L228.117 642.991L695.448 443.706L695.72 443.59L695.75 443.297C696.475 436.207 703.635 365.928 703.572 294.269C703.523 244.713 700.065 205.739 693.379 178.129C690.037 164.325 685.881 153.337 680.924 145.283C675.967 137.228 670.184 132.07 663.576 130.003C639.884 122.558 616.497 129.499 592.187 151.112C570.619 170.272 551.01 198.143 532.171 225.003L111.415 499.94ZM169.982 499.208L169.791 499.671M169.982 499.208C169.981 499.208 169.981 499.208 169.98 499.208L169.791 499.671M169.982 499.208C181.574 503.953 193.317 508.756 204.092 511.555C214.882 514.358 224.598 515.121 232.18 511.894C233.466 511.347 234.702 510.682 235.89 509.901M169.791 499.671C192.96 509.153 216.896 518.944 232.376 512.354C233.691 511.794 234.955 511.115 236.168 510.316M235.89 509.901C235.889 509.901 235.888 509.902 235.886 509.903L236.168 510.316M235.89 509.901C244.205 504.227 248.241 492.714 247.962 474.521L247.962 474.52C247.641 451.141 240.094 427.4 229.346 404.16C218.646 381.022 204.791 358.416 191.779 337.187L191.609 336.909M235.89 509.901C235.891 509.9 235.892 509.899 235.893 509.898L236.168 510.316M236.168 510.316L191.609 336.909M191.609 336.909L192.035 336.647M191.609 336.909L248.462 474.513C247.819 427.663 218.285 379.477 192.213 336.938L192.035 336.647M191.609 336.909L191.608 336.908M191.609 336.909C191.609 336.909 191.608 336.908 191.608 336.908M192.035 336.647C177.057 312.241 162.903 289.108 155.047 268.166C146.37 244.961 146.626 227.485 155.881 213.237L192.035 336.647ZM191.608 336.908C176.638 312.515 162.455 289.338 154.579 268.342L154.579 268.341C145.873 245.06 146.086 227.398 155.462 212.965L155.463 212.963C165.707 197.306 179.266 187.679 195.97 184.416L195.97 184.416C222.027 179.331 253.501 189.715 285.783 206.442C317.894 223.08 350.916 246.054 380.368 266.544L380.893 266.909L380.893 266.909L381.583 267.39C398.192 278.959 413.897 289.899 427.408 298.269L427.154 298.679L427.408 298.27C439.348 305.672 450.835 305.858 462.05 301.084C473.894 296.042 485.501 285.465 497.127 271.895C508.71 258.374 520.266 241.936 532.061 225.16L532.171 225.004L191.608 336.908Z" fill="url(#paint1_linear_229_2)" stroke="url(#paint2_linear_229_2)"/>
<path d="M160.223 224.053L160.224 224.053C174.265 202.409 193.442 193.971 215.536 194.199C237.671 194.426 262.747 203.354 288.498 216.508C314.241 229.657 340.607 247.002 365.312 264.01C372.19 268.744 378.94 273.453 385.512 278.039C402.537 289.916 418.368 300.961 432.127 309.454C441.763 315.401 451.124 316.704 460.311 314.463C469.475 312.228 478.423 306.477 487.281 298.399C503.737 283.392 520.02 260.219 536.923 236.164C538.207 234.336 539.494 232.504 540.786 230.67C559.101 204.656 578.216 178.244 599.178 160.345C620.127 142.457 642.836 133.139 668.386 141.137C676.253 143.604 682.711 150.278 687.969 160.199C693.224 170.115 697.245 183.211 700.271 198.399C706.321 228.772 708.366 267.404 708.4 305.432C708.433 343.455 706.456 380.851 704.471 408.742C703.478 422.687 702.483 434.256 701.736 442.337C701.363 446.378 701.052 449.547 700.834 451.706C700.725 452.785 700.639 453.611 700.581 454.168C700.557 454.399 700.537 454.583 700.523 454.72L232.705 654.282C232.662 654.256 232.613 654.226 232.558 654.193C232.317 654.046 231.958 653.828 231.491 653.539C230.556 652.963 229.186 652.108 227.445 650.996C223.964 648.773 219.003 645.52 213.084 641.406C201.245 633.179 185.582 621.511 170.275 607.747C154.965 593.981 140.03 578.133 129.632 561.548C119.232 544.959 113.406 527.689 116.212 511.051C117.345 504.346 120.285 500.552 124.492 498.731C128.747 496.89 134.4 497.019 141.043 498.426C147.673 499.83 155.205 502.486 163.171 505.608C166.974 507.099 170.871 508.694 174.81 510.306L175.36 510.531C179.486 512.22 183.656 513.923 187.806 515.539C196.103 518.77 204.339 521.66 212.013 523.396C219.682 525.13 226.834 525.722 232.948 524.317C239.086 522.907 244.159 519.489 247.636 513.265C251.101 507.063 252.964 498.112 252.789 485.655C252.439 460.725 244.015 435.619 232.219 411.072C221.848 389.489 208.853 368.303 196.416 348.026C194.708 345.242 193.011 342.475 191.332 339.726C177.418 316.941 164.8 295.437 158.086 275.89C151.374 256.35 150.599 238.87 160.223 224.053Z" fill="url(#paint3_linear_229_2)" stroke="url(#paint4_linear_229_2)"/>
<path d="M638.171 231.343C621.009 231.343 607 217.379 607 200.171C607 183.009 620.964 169 638.171 169C655.379 169 669.343 182.964 669.343 200.171C669.343 217.379 655.379 231.343 638.171 231.343ZM638.171 170.396C621.775 170.396 608.396 183.73 608.396 200.171C608.396 216.568 621.73 229.946 638.171 229.946C654.613 229.946 667.946 216.613 667.946 200.171C667.946 183.775 654.613 170.396 638.171 170.396Z" fill="#242B36"/>
<path d="M638.171 183.459C637.946 183.459 637.811 183.279 637.811 183.099V176.973C637.811 176.747 637.991 176.612 638.171 176.612C638.397 176.612 638.532 176.792 638.532 176.973V183.099C638.577 183.324 638.397 183.459 638.171 183.459Z" fill="#242B36"/>
<path d="M638.171 223.865C637.946 223.865 637.811 223.685 637.811 223.505V217.379C637.811 217.154 637.991 217.019 638.171 217.019C638.397 217.019 638.532 217.199 638.532 217.379V223.505C638.577 223.73 638.397 223.865 638.171 223.865Z" fill="#242B36"/>
<path d="M661.46 200.352H655.334C655.108 200.352 654.973 200.171 654.973 199.991C654.973 199.766 655.153 199.631 655.334 199.631H661.46C661.685 199.631 661.82 199.811 661.82 199.991C661.82 200.216 661.64 200.352 661.46 200.352Z" fill="#242B36"/>
<path d="M621.054 200.352H614.928C614.703 200.352 614.568 200.171 614.568 199.991C614.568 199.766 614.748 199.631 614.928 199.631H621.054C621.28 199.631 621.415 199.811 621.415 199.991C621.415 200.216 621.235 200.352 621.054 200.352Z" fill="#242B36"/>
<path d="M637.541 200.937V185.892C637.541 185.622 637.766 185.396 638.037 185.396C638.307 185.396 638.532 185.622 638.532 185.892V198.865L644.343 194.406C644.568 194.225 644.883 194.27 645.064 194.496C645.244 194.721 645.199 195.036 644.973 195.216L637.541 200.937Z" fill="#242B36"/>
<path d="M218.686 404.487H209.362V363.991H218.686V404.487ZM210.308 403.586H217.74V364.937H210.308V403.586V403.586Z" fill="#304359"/>
<path d="M286.155 404.494V396.566H241.965V404.494H286.155Z" fill="#E69160"/>
<path d="M279.182 396.604H239.632V387.73H279.182V396.604ZM240.578 395.658H278.281V388.676H240.578V395.658Z" fill="#242B36"/>
<path d="M225.983 366.276L218.646 369.279L233.286 405.049L240.623 402.046L225.983 366.276Z" fill="#59A492"/>
<path d="M321.164 407.055L207.02 406.829V382.144C207.02 381.379 207.65 380.748 208.416 380.748C209.182 380.748 209.812 381.379 209.812 382.144V404.036L321.164 404.262C321.93 404.262 322.561 404.892 322.561 405.658C322.561 406.424 321.975 407.055 321.164 407.055Z" fill="#242B36"/>
<path d="M321.164 361.47L207.02 361.244V336.559C207.02 335.794 207.65 335.163 208.416 335.163C209.182 335.163 209.812 335.794 209.812 336.559V358.452L321.164 358.677C321.93 358.677 322.561 359.307 322.561 360.073C322.561 360.839 321.975 361.47 321.164 361.47Z" fill="#242B36"/>
<path d="M261.525 319.803H222.425V358.902H261.525V319.803Z" fill="#242B36"/>
<path d="M261.975 359.352H221.93V319.307H261.975V359.352ZM222.876 358.406H261.029V320.253H222.876V358.406Z" fill="#242B36"/>
<path d="M223.822 327.73C223.822 327.73 229.858 323.09 240.128 324.487C250.353 325.883 259.678 335.207 259.678 335.207V340.793C259.678 340.793 256.029 332.415 244.768 332.415C236.84 332.415 235.443 342.189 223.822 339.397V327.73V327.73Z" fill="#59A492"/>
<path d="M223.822 344.487C223.822 344.487 226.435 352.28 239.633 344.037C247.065 339.397 257.786 344.487 259.633 355.208V357.551H244.723H223.777V344.487H223.822Z" fill="#304359"/>
<path d="M282.921 332.819H253.596V358.901H282.921V332.819Z" fill="#242B36"/>
<path d="M283.371 359.352H253.146V332.37H283.416V359.352H283.371ZM254.047 358.406H282.425V333.271H254.047V358.406Z" fill="#242B36"/>
<path d="M254.993 352.145C254.993 352.145 257.695 346.334 264.903 346.784C272.11 347.235 277.921 351.739 279.723 334.262H281.524V347.19C281.524 347.19 281.524 352.55 274.317 353.451C267.11 354.352 266.659 357.46 266.659 357.46H254.993V352.145Z" fill="#E69160"/>
<path d="M570.174 333.135H502.426V287.324H570.174V333.135ZM503.823 331.739H568.778V288.721H503.823V331.739Z" fill="#242B36"/>
<path d="M639.904 373.316H580.354V323H639.904V373.316ZM581.751 371.919H638.508V324.396H581.751V371.919Z" fill="#242B36"/>
<path d="M567.472 305.027L561.706 297.505L551.481 308.676L545.309 303.856L528.868 321.604L520.805 313.496L513.012 322.1L505.129 317.82L505.219 330.478H567.336L567.472 305.027Z" fill="#936E4C"/>
<path d="M583.283 347.459L591.526 346.559L597.652 347.595L605.085 346.559L612.517 350.387L618.869 349.126L624.995 351.378L627.382 349.847L629.499 351.378L636.797 351.243V353.045L583.283 351.649V347.459Z" fill="#743F0E"/>
<path d="M516.885 302.549C519.174 302.549 521.03 300.694 521.03 298.405C521.03 296.116 519.174 294.261 516.885 294.261C514.597 294.261 512.741 296.116 512.741 298.405C512.741 300.694 514.597 302.549 516.885 302.549Z" fill="#FFCE74"/>
<path d="M583.283 351.648L636.797 353.045V354.892L583.283 363.27V351.648Z" fill="#6284A9"/>
<path d="M583.283 363.271V370.253H636.797V354.893L583.283 363.271Z" fill="#639F91"/>
<path d="M443.507 353.091C443.507 353.091 451.345 342.145 456.84 345.118C462.336 348.091 455.759 379.623 455.759 379.623C455.759 379.623 456.93 342.326 447.966 360.704C445.714 365.209 443.507 353.091 443.507 353.091Z" fill="#212122"/>
<path d="M393.011 406.335C392.876 406.335 392.696 406.29 392.561 406.2C371.164 392.146 372.561 368.542 373.507 361.65C374.723 352.596 378.282 345.434 382.155 344.218C382.741 344.037 383.507 343.947 384.318 344.172C383.101 340.614 382.966 338.091 383.912 336.335C385.083 334.082 387.606 333.452 390.264 332.821C393.101 332.145 396.029 331.425 397.516 328.677C399.948 324.172 403.282 321.47 407.201 320.794C410.894 320.163 414.723 321.47 418.057 324.488C420.849 327.055 422.516 325.704 425.444 322.866C428.057 320.389 431.3 317.28 436.255 319.443C449.813 325.389 448.822 350.344 448.777 351.425C448.777 351.875 448.372 352.191 447.967 352.191C447.516 352.191 447.201 351.785 447.201 351.38C447.201 351.109 448.192 326.425 435.579 320.929C431.57 319.172 429.093 321.56 426.48 324.037C423.867 326.515 420.939 329.308 416.93 325.659C414.002 322.956 410.624 321.785 407.426 322.326C404.002 322.911 401.029 325.344 398.867 329.398C397.065 332.776 393.642 333.587 390.624 334.308C388.192 334.893 386.119 335.389 385.309 337.01C384.453 338.677 384.903 341.515 386.615 345.749L388.237 349.668L385.309 346.56C384.498 345.659 383.597 345.389 382.651 345.704C379.948 346.56 376.345 352.551 375.083 361.875C374.182 368.542 372.786 391.335 393.462 404.894C393.822 405.119 393.912 405.614 393.687 405.975C393.507 406.2 393.282 406.335 393.011 406.335Z" fill="#212122"/>
<path d="M464.048 439.804C464.048 439.804 472.877 441.335 495.309 498.993L471.57 541.201L464.048 439.804Z" fill="url(#paint5_linear_229_2)"/>
<path d="M449.408 469.444C455.985 468.272 462.336 466.831 468.642 465.209C465.534 446.335 464.048 439.804 464.048 439.804C464.048 439.804 443.687 434.308 429.723 433.903L379.363 432.281C379.363 432.281 359.678 435.389 337.02 443.047C337.02 443.047 338.371 451.966 340.714 464.353C375.894 472.236 412.201 476.11 449.408 469.444Z" fill="#464646"/>
<path d="M471.931 552.822C472.111 548.858 472.291 544.849 472.516 540.885C473.012 531.921 473.507 523.138 473.777 515.345C473.823 513.903 473.868 512.462 473.913 511.065C433.912 518.903 392.155 517.552 351.66 512.372C351.66 512.912 351.66 513.633 351.705 514.444C351.75 519.489 351.885 529.129 352.02 539.624C352.11 545.255 352.155 551.111 352.245 556.651C352.245 556.831 352.245 556.967 352.245 557.147C352.245 557.372 352.245 557.597 352.245 557.822C390.804 561.651 433.011 564.579 471.75 557.552C471.75 557.462 471.75 557.417 471.75 557.327C471.795 555.886 471.886 554.354 471.931 552.822Z" fill="url(#paint6_linear_229_2)"/>
<path d="M352.471 572.417V572.372C352.426 568.227 352.336 563.227 352.246 557.867C355.038 558.137 357.831 558.408 360.669 558.678C396.886 562.056 435.85 564.128 471.751 557.597C471.571 562.732 471.481 567.687 471.526 572.372C471.616 577.327 352.516 576.426 352.471 572.417Z" fill="url(#paint7_linear_229_2)"/>
<path d="M351.659 510.75C351.659 510.75 351.659 511.336 351.659 512.372C351.659 512.372 351.659 512.372 351.659 512.417C392.155 517.597 433.867 518.948 473.912 511.111C473.957 509.759 473.957 508.453 473.957 507.237C473.957 502.462 473.777 498.318 473.327 495.21C471.57 483.318 470.038 473.723 468.822 466.11C468.777 465.795 468.732 465.525 468.687 465.254C462.426 466.876 456.029 468.318 449.453 469.489C412.245 476.11 375.939 472.281 340.713 464.354C341.029 466.155 341.389 468.002 341.794 469.894C344.272 482.687 347.65 497.912 351.659 510.75Z" fill="#979797"/>
<path d="M473.823 526.606H473.778C473.282 526.561 472.922 526.156 472.967 525.66C474.769 494.489 466.66 458.588 466.57 458.227C466.48 457.732 466.751 457.281 467.246 457.146C467.742 457.056 468.192 457.326 468.327 457.822C468.417 458.182 476.57 494.354 474.724 525.75C474.679 526.246 474.273 526.606 473.823 526.606Z" fill="#7C73FF"/>
<path d="M358.912 580.345C358.912 580.345 358.867 580.345 358.912 580.345C358.417 580.345 358.011 579.94 358.011 579.444C358.957 537.777 357.606 516.921 356.3 506.741C355.038 496.921 353.597 495.074 353.597 495.074C353.192 494.804 353.056 494.264 353.327 493.858C353.597 493.453 354.137 493.318 354.543 493.588C355.264 494.083 361.57 500.57 359.768 579.489C359.768 579.94 359.363 580.345 358.912 580.345Z" fill="#7C73FF"/>
<path d="M447.922 360.704C448.913 344.848 445.219 333.452 441.48 327.821C430.804 311.605 429.273 330.253 419.138 326.154C401.3 318.992 402.516 329.578 395.624 331.92C382.561 336.335 384.273 343.767 384.903 345.569C402.516 353.677 414.453 367.866 429.543 380.614C438.282 373.587 447.651 364.938 447.922 360.704Z" fill="#212122"/>
<path d="M384.948 345.614C383.101 344.623 384.948 345.614 384.948 345.614C384.948 345.614 374.678 346.2 375.759 371.335C377.02 401.065 393.822 405.434 393.822 405.434C393.822 405.434 413.597 393.542 429.588 380.614C414.498 367.912 402.516 353.722 384.948 345.614Z" fill="#212122"/>
<path d="M429.723 433.857C429.723 433.857 429.859 448.497 415.399 449.263C392.786 450.434 379.363 432.281 379.363 432.281C385.129 425.344 391.885 405.118 391.615 399.353C391.57 398.136 391.525 397.416 391.525 397.416C413.327 385.343 426.075 420.164 426.075 420.164C426.03 420.254 425.985 420.344 425.94 420.434C425.129 422.416 424.678 424.218 424.453 425.839C424.363 426.515 424.318 427.146 424.273 427.686C424.093 430.569 429.723 433.857 429.723 433.857Z" fill="#C57862"/>
<path opacity="0.9" d="M426.075 420.209C426.03 420.299 425.985 420.389 425.94 420.479C425.129 422.461 424.678 424.263 424.453 425.885C424.363 426.56 424.318 427.191 424.273 427.731C414.318 424.758 400.714 416.785 398.777 414.713C395.984 411.74 391.525 397.416 391.525 397.416C413.327 385.344 426.075 420.209 426.075 420.209Z" fill="#515151"/>
<path d="M447.696 382.776C447.291 386.876 446.345 392.506 444.948 398.497C444.813 399.128 444.633 399.758 444.498 400.389C444.453 400.614 444.363 400.84 444.318 401.065C444.318 401.11 444.318 401.11 444.318 401.155C444.003 402.416 443.687 403.677 443.327 404.894C442.831 406.831 442.246 408.722 441.66 410.614C441.03 412.236 440.444 413.768 439.813 415.164C438.462 418.182 437.02 420.524 434.903 421.56C433.237 422.371 429.588 423.092 424.903 422.281C414.858 420.524 402.831 414.578 400.714 412.777C397.291 409.849 394.543 402.912 392.876 399.443C392.606 398.903 392.381 398.452 392.2 398.092C391.93 397.641 391.705 397.371 391.525 397.326C380.354 396.335 378.912 384.758 383.056 380.524C387.516 375.93 393.146 380.884 394.543 381.425C394.633 381.47 394.723 381.47 394.813 381.47C394.858 381.47 394.858 381.47 394.903 381.47C395.309 381.425 395.714 381.11 396.119 380.614C396.39 380.299 396.66 379.893 396.93 379.443C397.291 378.857 397.606 378.137 397.966 377.371C400.579 371.425 403.687 357.371 403.687 357.371C404.137 356.965 404.768 356.515 405.489 356.11C411.39 352.821 425.624 349.983 432.246 354.488C439.768 359.533 444.994 362.416 447.921 360.569C448.192 362.281 448.462 363.497 448.597 365.074C448.867 368.092 448.732 372.191 447.696 382.776Z" fill="#C57862"/>
<path opacity="0.9" d="M447.922 360.704C444.994 362.506 439.723 359.623 432.246 354.623C425.579 350.164 411.345 353.001 405.489 356.29C405.174 356.47 404.903 356.65 404.633 356.83C404.588 356.83 404.588 356.875 404.543 356.875C404.408 356.965 404.273 357.056 404.183 357.146C404.138 357.191 404.138 357.191 404.092 357.236C403.957 357.371 403.822 357.461 403.687 357.551C403.687 357.551 400.579 371.605 397.966 377.551C403.417 365.749 403.642 359.398 407.651 357.956C420.219 353.497 422.876 355.389 432.741 362.101C439.768 366.875 445.759 365.794 448.597 365.209C448.462 363.632 448.237 362.416 447.922 360.704Z" fill="#515151"/>
<path d="M352.471 507.732C352.245 509.939 352.11 511.246 352.11 511.246L351.57 512.056L329.542 544.939L327.651 547.777C318.281 548.408 302.2 554.084 295.443 560.435C286.93 568.363 287.29 578.723 287.29 578.723C260.173 573.408 277.2 557.102 277.2 557.102C277.2 557.102 282.47 541.201 304.497 495.209C326.524 449.218 336.975 443.002 336.975 443.002C349.813 449.534 353.822 470.795 354.137 487.822C354.317 496.246 352.876 503.588 352.471 507.732Z" fill="#979797"/>
<path d="M277.785 558.318C277.605 558.318 277.38 558.273 277.245 558.138C276.839 557.823 276.794 557.282 277.11 556.877C285.173 546.651 298.912 543.408 299.497 543.273C299.993 543.183 300.443 543.453 300.578 543.949C300.668 544.444 300.398 544.895 299.903 545.03C299.768 545.075 286.164 548.273 278.506 558.003C278.326 558.228 278.056 558.318 277.785 558.318Z" fill="#7C73FF"/>
<path d="M405.083 547.462C405.083 547.462 340.579 550.075 327.56 547.777C327.56 547.777 277.47 545.66 287.29 578.723C287.29 578.723 348.732 586.741 402.606 566.066C402.606 566.066 414.138 556.156 405.083 547.462Z" fill="#C57862"/>
<path d="M405.083 547.462C405.083 547.462 414.092 543.543 418.822 541.831C423.552 540.119 431.66 535.254 436.255 537.236C440.849 539.263 459.813 559.444 459.813 559.444C459.813 559.444 459.498 569.714 453.867 570.48C448.237 571.246 435.489 560.57 432.696 561.381C429.858 562.236 421.21 570.345 410.984 569.083C403.327 568.137 402.696 566.02 402.696 566.02C402.696 566.02 400.804 549.669 405.083 547.462Z" fill="#C57862"/>
<path d="M458.327 563.228C458.192 563.228 458.102 563.183 458.012 563.093C457.966 563.048 456.48 561.471 445.759 551.967C435.354 542.687 431.57 544.039 431.525 544.039C431.3 544.129 431.029 544.039 430.939 543.814C430.849 543.588 430.939 543.318 431.165 543.228C431.345 543.138 435.354 541.471 446.345 551.246C457.111 560.841 458.597 562.372 458.642 562.462C458.822 562.643 458.822 562.958 458.597 563.093C458.552 563.183 458.417 563.228 458.327 563.228Z" fill="#B75E48"/>
<path d="M456.21 568.273C456.075 568.273 455.985 568.228 455.895 568.138C455.805 568.048 448.192 560.345 441.03 555.525C434.138 550.885 431.39 552.417 431.345 552.417C431.12 552.552 430.85 552.462 430.714 552.237C430.579 552.012 430.669 551.741 430.85 551.606C430.985 551.516 434.048 549.714 441.525 554.759C448.778 559.624 456.48 567.417 456.525 567.507C456.706 567.687 456.706 567.958 456.525 568.138C456.435 568.228 456.3 568.273 456.21 568.273Z" fill="#B75E48"/>
<path d="M444.948 398.542C444.813 399.173 444.678 399.804 444.498 400.434C444.453 400.66 444.408 400.885 444.318 401.11C444.318 401.155 444.318 401.155 444.318 401.155C444.002 402.416 443.687 403.678 443.327 404.894C442.786 406.831 442.246 408.723 441.66 410.615C441.029 412.236 440.444 413.768 439.813 415.164C438.462 418.182 437.02 420.525 434.903 421.561C433.237 422.371 429.588 423.092 424.903 422.281C414.858 420.525 402.831 414.579 400.714 412.777C397.29 409.849 394.588 402.912 392.876 399.443L394.813 381.515C394.813 381.515 395.038 379.488 396.93 379.488C397.155 396.876 406.75 404.443 412.966 407.416C415.354 408.588 418.282 407.597 419.543 405.254L421.885 400.164C422.876 398.362 424.813 397.326 426.84 397.551L444.948 398.542Z" fill="#212122"/>
<path d="M438.417 409.804L425.399 409.624C424.228 409.533 423.507 409.083 424.002 407.912L425.219 404.759C425.984 402.822 427.786 401.651 429.678 401.831L440.219 402.056C441.3 402.191 441.975 403.362 441.66 404.488L440.264 408.452C439.993 409.308 439.228 409.849 438.417 409.804Z" fill="url(#paint8_linear_229_2)"/>
<path d="M352.471 507.732C352.155 509.308 351.84 510.795 351.525 512.056L329.498 544.939C329.498 544.939 331.164 512.236 354.137 485.569C354.768 487.461 353.777 501.155 352.471 507.732Z" fill="url(#paint9_linear_229_2)"/>
<path d="M352.2 512.011C352.155 512.011 352.11 512.011 352.065 512.011C351.57 511.966 351.254 511.516 351.299 511.02C354.543 487.327 353.642 472.236 348.146 459.038C347.966 458.588 348.191 458.047 348.642 457.867C349.092 457.687 349.633 457.912 349.813 458.362C355.444 471.876 356.389 487.236 353.056 511.246C353.011 511.651 352.651 512.011 352.2 512.011Z" fill="#7C73FF"/>
<path d="M346.66 454.894C346.345 454.894 346.029 454.714 345.894 454.443C341.57 446.56 337.2 444.668 337.155 444.623C336.705 444.443 336.48 443.903 336.66 443.452C336.84 443.002 337.381 442.777 337.831 442.957C338.011 443.047 342.831 445.074 347.471 453.542C347.696 453.993 347.561 454.488 347.11 454.759C346.93 454.849 346.795 454.894 346.66 454.894Z" fill="#7C73FF"/>
<path d="M413.237 454.173C410.984 454.173 408.552 453.947 405.939 453.542C384.002 450.074 375.083 434.983 374.723 434.308C374.453 433.812 374.588 433.182 375.083 432.911C375.579 432.641 376.209 432.776 376.48 433.272C376.57 433.407 385.308 448.182 406.255 451.47C415.579 452.956 422.426 451.695 426.66 447.731C430.489 444.173 431.705 438.947 432.336 434.803C432.426 434.263 432.966 433.857 433.507 433.947C434.047 434.037 434.453 434.578 434.363 435.118C433.642 439.578 432.291 445.254 428.056 449.218C424.633 452.551 419.633 454.173 413.237 454.173Z" fill="white"/>
<path d="M390.669 388.857C390.444 388.857 390.264 388.677 390.219 388.452C390.219 388.407 389.498 383.902 387.065 382.641C386.164 382.145 385.083 382.19 383.912 382.731C383.687 382.821 383.417 382.731 383.282 382.506C383.192 382.281 383.282 382.01 383.507 381.875C384.993 381.199 386.345 381.154 387.516 381.785C390.354 383.317 391.119 388.091 391.165 388.272C391.21 388.542 391.029 388.767 390.759 388.812C390.714 388.857 390.669 388.857 390.669 388.857Z" fill="#B75942"/>
<path d="M386.975 388.723C386.975 388.723 386.93 388.723 386.975 388.723C386.705 388.723 386.48 388.497 386.525 388.227C386.525 388.092 386.795 385.074 387.651 383.587C387.786 383.362 388.056 383.272 388.282 383.407C388.507 383.542 388.597 383.813 388.462 384.038C387.696 385.344 387.471 388.272 387.471 388.272C387.426 388.542 387.2 388.723 386.975 388.723Z" fill="#B75942"/>
<path d="M327.966 545.84C327.786 545.84 327.651 545.795 327.47 545.705C327.425 545.66 323.236 543.092 311.93 543.588C311.434 543.633 311.029 543.228 310.984 542.732C310.984 542.237 311.344 541.831 311.84 541.786C323.867 541.246 328.281 544.038 328.461 544.174C328.867 544.444 329.002 544.984 328.732 545.39C328.552 545.705 328.281 545.84 327.966 545.84Z" fill="#7C73FF"/>
<path d="M404.903 358.542C404.813 358.542 404.723 358.542 404.633 358.497C397.921 355.929 394.948 353.046 394.813 352.911C394.498 352.596 394.498 352.146 394.813 351.83C395.128 351.515 395.579 351.515 395.894 351.83C395.939 351.875 398.822 354.623 405.219 357.056C405.624 357.191 405.804 357.641 405.669 358.046C405.489 358.362 405.174 358.542 404.903 358.542Z" fill="#B2523B"/>
<path d="M417.561 379.037H417.516L392.786 378.001C391.975 377.956 391.344 377.281 391.389 376.515C391.435 375.704 392.11 375.073 392.876 375.118L417.606 376.155C418.417 376.2 419.047 376.875 419.002 377.641C418.957 378.452 418.327 379.037 417.561 379.037Z" fill="#212122"/>
<path d="M426.209 390.299C426.119 390.299 426.029 390.299 425.939 390.299C419.903 390.028 417.47 382.01 416.57 377.281C416.389 376.245 416.66 375.209 417.335 374.443C418.011 373.677 419.002 373.227 420.038 373.272L434.002 373.857C435.083 373.902 436.074 374.443 436.66 375.344C437.245 376.245 437.426 377.326 437.065 378.362C435.489 382.821 431.975 390.299 426.209 390.299ZM419.903 376.155C419.723 376.155 419.588 376.245 419.543 376.335C419.498 376.38 419.407 376.515 419.452 376.74C419.903 379.218 421.75 387.236 426.074 387.416C430.308 387.596 433.281 380.434 434.362 377.371C434.453 377.191 434.362 377.01 434.317 376.965C434.272 376.875 434.137 376.785 433.957 376.74L419.903 376.155Z" fill="#212122"/>
<path d="M446.615 391.065C446.57 391.065 446.525 391.065 446.48 391.065C443.372 390.93 441.525 386.56 440.985 378.002C440.94 376.966 441.255 375.975 441.931 375.299C442.471 374.759 443.147 374.488 443.868 374.488L451.751 374.804C452.516 374.849 453.237 375.254 453.733 375.885C454.363 376.696 454.543 377.822 454.273 378.903C452.111 386.966 449.543 391.065 446.615 391.065ZM443.778 377.056C443.687 377.101 443.507 377.416 443.507 377.822C444.003 385.569 445.624 388.452 446.57 388.497C446.57 388.497 446.57 388.497 446.615 388.497C447.787 388.497 449.904 385.299 451.751 378.272C451.886 377.822 451.66 377.416 451.57 377.371L443.778 377.056Z" fill="#212122"/>
<path d="M441.75 379.127C441.705 379.127 441.705 379.127 441.66 379.127L435.804 378.812C434.994 378.767 434.408 378.091 434.453 377.281C434.498 376.47 435.174 375.884 435.985 375.929L441.841 376.245C442.651 376.29 443.237 376.965 443.192 377.776C443.147 378.542 442.516 379.127 441.75 379.127Z" fill="#212122"/>
<path d="M574.634 568.722L573.058 572.415H453.462L454.904 568.722H574.634Z" fill="#7A7A7A"/>
<path d="M606.616 494.217L574.679 568.767H454.904L465.85 540.704L484.454 493.001C485.174 491.154 486.751 489.712 488.688 488.992C489.589 488.631 490.58 488.451 491.616 488.451H602.112C605.49 488.451 607.788 491.424 606.616 494.217Z" fill="#242B36"/>
<path d="M457.787 572.415H404.003C403.102 572.415 402.336 571.695 402.336 570.749C402.336 569.803 403.057 569.082 404.003 569.082H457.787C458.688 569.082 459.453 569.803 459.453 570.749C459.453 571.695 458.733 572.415 457.787 572.415Z" fill="#7A7A7A"/>
<path d="M556.616 510.343H531.346C528.778 510.343 527.022 507.776 527.923 505.388C528.463 503.992 529.814 503.046 531.346 503.046H556.616C559.229 503.046 561.031 505.749 559.95 508.181C559.364 509.442 558.058 510.343 556.616 510.343Z" fill="#7A7A7A"/>
<path d="M673.374 568.543C672.653 568.543 671.932 568.363 671.256 567.957C669.274 566.786 668.599 564.219 669.815 562.237L739.185 445.389L678.284 427.371C676.076 426.695 674.815 424.398 675.446 422.146C676.121 419.938 678.419 418.677 680.671 419.308L751.933 440.389L677.067 566.471C676.166 567.777 674.77 568.543 673.374 568.543Z" fill="#304359" fill-opacity="0.88"/>
<path d="M750.324 447.728C752.874 445.177 752.874 441.042 750.324 438.491C747.773 435.94 743.637 435.94 741.087 438.491C738.536 441.042 738.536 445.177 741.087 447.728C743.637 450.279 747.773 450.279 750.324 447.728Z" fill="#E69160"/>
<path d="M673.824 426.11H653.328C651.932 426.11 650.761 424.984 650.761 423.542C650.761 422.146 651.887 420.975 653.328 420.975H673.824C675.22 420.975 676.392 422.101 676.392 423.542C676.392 424.984 675.265 426.11 673.824 426.11Z" fill="#304359" fill-opacity="0.88"/>
<path d="M698.284 572.462H635.445C635.445 567.327 639.635 563.138 644.77 563.138H688.959C694.094 563.183 698.284 567.372 698.284 572.462Z" fill="#E69160"/>
<path d="M626.211 435.615C621.031 430.84 620.715 422.732 625.49 417.597L636.887 405.209C641.662 400.029 649.77 399.714 654.905 404.488C660.085 409.263 660.4 417.371 655.626 422.506L644.229 434.894C639.499 440.074 631.391 440.389 626.211 435.615Z" fill="#E69160"/>
<path d="M671.481 428.362V418.272C671.481 416.2 673.734 414.893 675.536 415.929L684.274 420.974C686.076 422.011 686.076 424.623 684.274 425.659L675.536 430.704C673.734 431.74 671.481 430.479 671.481 428.362Z" fill="#E69160"/>
<path d="M607.472 445.119L621.796 455.975L620.896 457.191C617.923 461.11 612.247 461.921 608.328 458.948C604.409 455.975 603.598 450.299 606.571 446.38L607.472 445.119Z" fill="#FFCE74"/>
<path d="M639.184 472.867L586.481 433.002L589.859 428.543C600.805 414.038 621.661 411.155 636.166 422.146C650.671 433.092 653.553 453.948 642.562 468.453L639.184 472.867Z" fill="#304359"/>
<path d="M218.326 562.147C216.569 562.147 215.038 561.967 214.137 561.606C209.993 560.165 210.398 548.453 210.398 548.318C210.623 542.462 212.335 538.949 215.308 538.183C221.209 536.651 228.371 540.886 228.686 541.066L229.677 541.651V557.597L229.317 558.093C227.425 561.111 222.29 562.147 218.326 562.147ZM215.804 557.823C218.011 558.363 223.777 557.868 225.623 556.246V544.039C223.416 542.958 219.362 541.381 216.389 542.147C216.119 542.237 215.623 542.777 215.218 544.039C213.731 548.633 214.813 556.201 215.804 557.823Z" fill="#E69160"/>
<path opacity="0.55" d="M248.461 519.804C250.488 517.281 252.921 515.119 254.677 512.417C256.434 509.714 257.47 506.245 256.254 503.227C254.858 499.714 250.939 497.957 247.29 496.786C243.641 495.615 239.677 494.534 237.38 491.516C234.767 488.137 235.128 483.452 235.173 479.173C235.218 474.894 234.497 469.939 230.848 467.732C228.191 466.11 222.74 466.56 220.173 468.272C217.56 469.984 215.848 472.732 214.722 475.66C212.2 482.056 212.29 490.795 217.065 495.75C220.803 499.624 225.984 501.245 226.389 506.11C226.749 510.435 221.074 518.047 222.65 522.101C224.902 527.732 233.011 529.354 234.902 535.119C235.443 536.741 235.398 538.498 235.578 540.165C235.758 541.876 236.254 543.633 237.56 544.714C239.362 546.201 241.885 545.525 241.975 543.183C242.065 540.435 241.569 537.777 241.93 534.984C242.695 529.534 244.948 524.173 248.461 519.804Z" fill="#E8E8E8"/>
<path d="M252.47 533.903L252.11 561.877C252.02 567.192 247.966 571.606 242.651 572.057C241.074 572.192 239.227 572.282 237.11 572.282C234.993 572.282 233.191 572.192 231.569 572.057C226.299 571.561 222.2 567.192 222.11 561.877L222.065 557.687L221.84 542.642L221.795 538.363L221.75 533.858C229.092 534.084 245.398 534.084 252.47 533.903Z" fill="#304359"/>
<path d="M249.227 568.047H225.038C224.768 568.047 224.587 567.822 224.587 567.597C224.587 567.327 224.813 567.146 225.038 567.146H249.227C249.497 567.146 249.678 567.372 249.678 567.597C249.678 567.867 249.497 568.047 249.227 568.047Z" fill="#F2B02A"/>
<path d="M221.885 542.687C221.614 542.687 221.434 542.462 221.434 542.237L221.389 538.633C221.389 538.363 221.569 538.183 221.84 538.183C222.11 538.183 222.29 538.408 222.29 538.633L222.335 542.237C222.38 542.462 222.155 542.687 221.885 542.687Z" fill="#F2B02A"/>
<path d="M222.11 561.561C221.839 561.561 221.659 561.336 221.659 561.111V558.138C221.659 557.868 221.884 557.688 222.11 557.688C222.335 557.688 222.56 557.913 222.56 558.138V561.111C222.56 561.336 222.38 561.561 222.11 561.561Z" fill="#F2B02A"/>
<path d="M726.593 582H196.408C193.979 582 192 579.98 192 577.5C192 575.02 193.979 573 196.408 573H726.593C729.022 573 731 575.02 731 577.5C731 579.98 729.022 582 726.593 582Z" fill="#242B36"/>
<defs>
<radialGradient id="paint0_radial_229_2" cx="0" cy="0" r="1" gradientUnits="userSpaceOnUse" gradientTransform="translate(479.867 466.782) rotate(-156.022) scale(288.1 315.534)">
<stop offset="0.223958" stop-color="white" stop-opacity="0.57"/>
<stop offset="0.53125" stop-color="#354660" stop-opacity="0"/>
</radialGradient>
<linearGradient id="paint1_linear_229_2" x1="310.812" y1="132.305" x2="482.783" y2="536.301" gradientUnits="userSpaceOnUse">
<stop stop-color="white"/>
<stop offset="1" stop-color="#304359" stop-opacity="0"/>
</linearGradient>
<linearGradient id="paint2_linear_229_2" x1="310.812" y1="132.305" x2="482.783" y2="536.301" gradientUnits="userSpaceOnUse">
<stop stop-color="#E69160"/>
<stop offset="1" stop-color="#E69160" stop-opacity="0"/>
</linearGradient>
<linearGradient id="paint3_linear_229_2" x1="221.5" y1="197.5" x2="738.5" y2="1034.5" gradientUnits="userSpaceOnUse">
<stop stop-color="#356394" stop-opacity="0.74"/>
<stop offset="0.524919" stop-color="white" stop-opacity="0"/>
</linearGradient>
<linearGradient id="paint4_linear_229_2" x1="316.008" y1="144.392" x2="487.177" y2="546.503" gradientUnits="userSpaceOnUse">
<stop stop-color="#E69160"/>
<stop offset="1" stop-color="#E69160" stop-opacity="0"/>
</linearGradient>
<linearGradient id="paint5_linear_229_2" x1="479.174" y1="485.094" x2="455.588" y2="496.303" gradientUnits="userSpaceOnUse">
<stop stop-color="#DDE8DA"/>
<stop offset="1" stop-color="#BACBB5"/>
</linearGradient>
<linearGradient id="paint6_linear_229_2" x1="424.186" y1="523.866" x2="352.086" y2="528.272" gradientUnits="userSpaceOnUse">
<stop stop-color="#DDE8DA"/>
<stop offset="1" stop-color="#DDE8DA"/>
</linearGradient>
<linearGradient id="paint7_linear_229_2" x1="440.732" y1="539.497" x2="391.059" y2="583.737" gradientUnits="userSpaceOnUse">
<stop stop-color="#DDE8DA"/>
<stop offset="1" stop-color="#BACBB5"/>
</linearGradient>
<linearGradient id="paint8_linear_229_2" x1="432.598" y1="408.054" x2="433.268" y2="401.762" gradientUnits="userSpaceOnUse">
<stop stop-color="#C57862"/>
<stop offset="1" stop-color="#AA5138"/>
</linearGradient>
<linearGradient id="paint9_linear_229_2" x1="337.468" y1="513.397" x2="350.973" y2="519.239" gradientUnits="userSpaceOnUse">
<stop stop-color="#DDE8DA"/>
<stop offset="1" stop-color="#BACBB5"/>
</linearGradient>
</defs>
</svg>
