<svg width="1251" height="749" viewBox="0 0 1251 749" fill="none" xmlns="http://www.w3.org/2000/svg">
<path d="M172.6 713.6L172.1 713C171.8 712.5 137.8 665.7 111.3 608.7C95.6999 575.2 85.5999 544.7 81.3999 518.1C76.0999 484.7 80.0998 457.4 93.1998 436.9C98.3998 428.8 104.7 424.3 112.1 423.5C131.5 421.4 155.2 445.4 180.3 470.8C209.2 500 239.1 530.2 265.1 525C279.6 522.1 291.6 508.6 301.8 483.6C328.8 417.5 316 331.7 304.8 255.9C298.3 212.1 292.1 170.7 293.6 136C295.3 96.8 306.7 71.4 329.2 56.2C353.6 39.7 379.3 34.2 405.5 39.8C486.2 57 559.9 174.7 619.1 269.4C635.9 296.2 651.7 321.5 666 341.8C683.1 366 708 371.7 744.5 359.8C777.4 349.1 815.4 325.5 855.5 300.6C898.6 273.8 943.2 246.1 985.6 231.9C1034 215.7 1072 220.1 1101.7 245.5C1120.2 261.3 1124 295.8 1113.1 348.1C1104.4 389.6 1086.6 442.4 1059.9 505C1014.6 611.6 959 711.3 958.4 712.3L958 713.1H957.1L172.6 713.6ZM114.4 426.5C113.7 426.5 113 426.5 112.3 426.6C105.9 427.3 100.5 431.2 95.6998 438.6C82.9998 458.4 79.1999 485 84.3999 517.6C88.5999 543.9 98.4998 574.1 114 607.3C138.7 660.4 169.9 704.7 174.1 710.4L956.2 709.9C961.5 700.3 1014 605.1 1057.1 503.6C1116.7 363.2 1131.4 274.7 1099.7 247.7C1070.9 223.1 1033.9 218.8 986.6 234.7C944.6 248.8 900.1 276.4 857.2 303.1C803.4 336.5 751.6 368.7 711.6 368.7C692.6 368.7 676.2 361.4 663.6 343.5C649.3 323.2 633.4 297.8 616.6 271C557.6 177 484.3 59.9 404.9 43C379.5 37.6 354.7 43 330.9 58.9C309.2 73.5 298.3 98.1 296.6 136.2C295.1 170.6 301.2 211.9 307.7 255.5C319 331.6 331.9 417.9 304.5 484.8C293.9 510.8 281.1 525 265.5 528.1C263.3 528.5 261.1 528.7 258.9 528.7C233 528.7 205 500.4 177.9 473C154.4 449.1 132 426.5 114.4 426.5Z" fill="#F7F2FF"/>
<path d="M173.4 730.7C173.4 730.7 37.8998 544.8 94.4998 456.4C140.5 384.6 245.3 644.4 303.2 502.9C361.1 361.4 238.7 137.7 330.1 76.2C462.8 -13.2 585.2 248.7 664.8 361.3C744.4 473.9 974.2 157.3 1100.8 265.2C1179.8 332.6 957.2 730.1 957.2 730.1L173.4 730.7Z" fill="#F7F2FF"/>
<path d="M394.3 138.4C356.2 138.4 325.1 107.4 325.1 69.2C325.1 31.1 356.1 0 394.3 0C432.5 0 463.5 31 463.5 69.2C463.5 107.4 432.5 138.4 394.3 138.4ZM394.3 3.10001C357.9 3.10001 328.2 32.7 328.2 69.2C328.2 105.6 357.8 135.3 394.3 135.3C430.8 135.3 460.4 105.7 460.4 69.2C460.4 32.8 430.8 3.10001 394.3 3.10001Z" fill="#8A70BA"/>
<path d="M394.299 32.1C393.799 32.1 393.5 31.7 393.5 31.3V17.7C393.5 17.2 393.899 16.9 394.299 16.9C394.799 16.9 395.1 17.3 395.1 17.7V31.3C395.2 31.8 394.799 32.1 394.299 32.1Z" fill="#B0AEFF"/>
<path d="M394.299 121.8C393.799 121.8 393.5 121.4 393.5 121V107.4C393.5 106.9 393.899 106.6 394.299 106.6C394.799 106.6 395.1 107 395.1 107.4V121C395.2 121.5 394.799 121.8 394.299 121.8Z" fill="#B0AEFF"/>
<path d="M446 69.6H432.4C431.9 69.6 431.6 69.2 431.6 68.8C431.6 68.3 432 68 432.4 68H446C446.5 68 446.8 68.4 446.8 68.8C446.8 69.3 446.4 69.6 446 69.6Z" fill="#B0AEFF"/>
<path d="M356.299 69.6H342.699C342.199 69.6 341.899 69.2 341.899 68.8C341.899 68.3 342.299 68 342.699 68H356.299C356.799 68 357.099 68.4 357.099 68.8C357.099 69.3 356.699 69.6 356.299 69.6Z" fill="#B0AEFF"/>
<path d="M392.899 70.9V37.5C392.899 36.9 393.399 36.4 393.999 36.4C394.599 36.4 395.099 36.9 395.099 37.5V66.3L407.999 56.4C408.499 56 409.199 56.1 409.599 56.6C409.999 57.1 409.899 57.8 409.399 58.2L392.899 70.9Z" fill="#B0AEFF"/>
<path d="M59.7 356.2H39V266.3H59.7V356.2ZM41.1 354.2H57.6V268.4H41.1V354.2V354.2Z" fill="#8A70BA"/>
<path d="M209.479 356.217V338.617H111.379V356.217H209.479Z" fill="#B0AEFF"/>
<path d="M194 338.7H106.2V319H194V338.7ZM108.3 336.6H192V321.1H108.3V336.6Z" fill="#8A70BA"/>
<path d="M75.8982 271.371L59.6094 278.038L92.1104 357.446L108.399 350.779L75.8982 271.371Z" fill="#FFC459"/>
<path d="M287.2 361.9L33.7998 361.4V306.6C33.7998 304.9 35.1998 303.5 36.8998 303.5C38.5998 303.5 39.9998 304.9 39.9998 306.6V355.2L287.2 355.7C288.9 355.7 290.3 357.1 290.3 358.8C290.3 360.5 289 361.9 287.2 361.9Z" fill="#8A70BA"/>
<path d="M287.2 260.7L33.7998 260.2V205.4C33.7998 203.7 35.1998 202.3 36.8998 202.3C38.5998 202.3 39.9998 203.7 39.9998 205.4V254L287.2 254.5C288.9 254.5 290.3 255.9 290.3 257.6C290.3 259.3 289 260.7 287.2 260.7Z" fill="#8A70BA"/>
<path d="M154.8 168.2H68V255H154.8V168.2Z" fill="white"/>
<path d="M155.8 256H66.8999V167.1H155.8V256ZM68.9999 253.9H153.7V169.2H68.9999V253.9Z" fill="#8A70BA"/>
<path d="M71.1001 185.8C71.1001 185.8 84.5001 175.5 107.3 178.6C130 181.7 150.7 202.4 150.7 202.4V214.8C150.7 214.8 142.6 196.2 117.6 196.2C100 196.2 96.9001 217.9 71.1001 211.7V185.8V185.8Z" fill="#F0E9FF"/>
<path d="M71.1 223C71.1 223 76.9 240.3 106.2 222C122.7 211.7 146.5 223 150.6 246.8V252H117.5H71V223H71.1Z" fill="#F0E9FF"/>
<path d="M202.3 197.1H137.2V255H202.3V197.1Z" fill="white"/>
<path d="M203.3 256H136.2V196.1H203.4V256H203.3ZM138.2 253.9H201.2V198.1H138.2V253.9Z" fill="#8A70BA"/>
<path d="M140.3 240C140.3 240 146.3 227.1 162.3 228.1C178.3 229.1 191.2 239.1 195.2 200.3H199.2V229C199.2 229 199.2 240.9 183.2 242.9C167.2 244.9 166.2 251.8 166.2 251.8H140.3V240Z" fill="#F0E9FF"/>
<path d="M840 197.8H689.6V96.1H840V197.8ZM692.7 194.7H836.9V99.2H692.7V194.7Z" fill="#8A70BA"/>
<path d="M994.8 287H862.6V175.3H994.8V287ZM865.7 283.9H991.7V178.4H865.7V283.9Z" fill="#8A70BA"/>
<path d="M834 135.4L821.2 118.7L798.5 143.5L784.8 132.8L748.3 172.2L730.4 154.2L713.1 173.3L695.6 163.8L695.8 191.9H833.7L834 135.4Z" fill="#F0E9FF"/>
<path d="M869.1 229.6L887.4 227.6L901 229.9L917.5 227.6L934 236.1L948.1 233.3L961.7 238.3L967 234.9L971.7 238.3L987.9 238V242L869.1 238.9V229.6Z" fill="#E2D8FF"/>
<path d="M721.7 129.9C726.781 129.9 730.9 125.781 730.9 120.7C730.9 115.619 726.781 111.5 721.7 111.5C716.619 111.5 712.5 115.619 712.5 120.7C712.5 125.781 716.619 129.9 721.7 129.9Z" fill="#FFC459"/>
<path d="M869.1 238.9L987.9 242V246.1L869.1 264.7V238.9Z" fill="#F0E9FF"/>
<path d="M869.1 264.7V280.2H987.9V246.1L869.1 264.7Z" fill="#E2D8FF"/>
<path d="M558.8 242.1C558.8 242.1 576.2 217.8 588.4 224.4C600.6 231 586 301 586 301C586 301 588.6 218.2 568.7 259C563.7 269 558.8 242.1 558.8 242.1Z" fill="#1F0A69"/>
<path d="M446.7 360.3C446.4 360.3 446 360.2 445.7 360C398.2 328.8 401.3 276.4 403.4 261.1C406.1 241 414 225.1 422.6 222.4C423.9 222 425.6 221.8 427.4 222.3C424.7 214.4 424.4 208.8 426.5 204.9C429.1 199.9 434.7 198.5 440.6 197.1C446.9 195.6 453.4 194 456.7 187.9C462.1 177.9 469.5 171.9 478.2 170.4C486.4 169 494.9 171.9 502.3 178.6C508.5 184.3 512.2 181.3 518.7 175C524.5 169.5 531.7 162.6 542.7 167.4C572.8 180.6 570.6 236 570.5 238.4C570.5 239.4 569.6 240.1 568.7 240.1C567.7 240.1 567 239.2 567 238.3C567 237.7 569.2 182.9 541.2 170.7C532.3 166.8 526.8 172.1 521 177.6C515.2 183.1 508.7 189.3 499.8 181.2C493.3 175.2 485.8 172.6 478.7 173.8C471.1 175.1 464.5 180.5 459.7 189.5C455.7 197 448.1 198.8 441.4 200.4C436 201.7 431.4 202.8 429.6 206.4C427.7 210.1 428.7 216.4 432.5 225.8L436.1 234.5L429.6 227.6C427.8 225.6 425.8 225 423.7 225.7C417.7 227.6 409.7 240.9 406.9 261.6C404.9 276.4 401.8 327 447.7 357.1C448.5 357.6 448.7 358.7 448.2 359.5C447.8 360 447.3 360.3 446.7 360.3Z" fill="#1F0A69"/>
<path d="M604.4 434.6C604.4 434.6 624 438 673.8 566L621.1 659.7L604.4 434.6Z" fill="url(#paint0_linear_74:941)"/>
<path d="M571.9 500.4C586.5 497.8 600.6 494.6 614.6 491C607.7 449.1 604.4 434.6 604.4 434.6C604.4 434.6 559.2 422.4 528.2 421.5L416.4 417.9C416.4 417.9 372.7 424.8 322.4 441.8C322.4 441.8 325.4 461.6 330.6 489.1C408.7 506.6 489.3 515.2 571.9 500.4Z" fill="url(#paint1_linear_74:941)"/>
<path d="M621.9 685.5C622.3 676.7 622.7 667.8 623.2 659C624.3 639.1 625.4 619.6 626 602.3C626.1 599.1 626.2 595.9 626.3 592.8C537.5 610.2 444.8 607.2 354.9 595.7C354.9 596.9 354.9 598.5 355 600.3C355.1 611.5 355.4 632.9 355.7 656.2C355.9 668.7 356 681.7 356.2 694C356.2 694.4 356.2 694.7 356.2 695.1C356.2 695.6 356.2 696.1 356.2 696.6C441.8 705.1 535.5 711.6 621.5 696C621.5 695.8 621.5 695.7 621.5 695.5C621.6 692.3 621.8 688.9 621.9 685.5Z" fill="url(#paint2_linear_74:941)"/>
<path d="M356.7 729V728.9C356.6 719.7 356.4 708.6 356.2 696.7C362.4 697.3 368.6 697.9 374.9 698.5C455.3 706 541.8 710.6 621.5 696.1C621.1 707.5 620.9 718.5 621 728.9C621.2 739.9 356.8 737.9 356.7 729Z" fill="url(#paint3_linear_74:941)"/>
<path d="M354.9 592.1C354.9 592.1 354.9 593.4 354.9 595.7C354.9 595.7 354.9 595.7 354.9 595.8C444.8 607.3 537.4 610.3 626.3 592.9C626.4 589.9 626.4 587 626.4 584.3C626.4 573.7 626 564.5 625 557.6C621.1 531.2 617.7 509.9 615 493C614.9 492.3 614.8 491.7 614.7 491.1C600.8 494.7 586.6 497.9 572 500.5C489.4 515.2 408.8 506.7 330.6 489.1C331.3 493.1 332.1 497.2 333 501.4C338.5 529.8 346 563.6 354.9 592.1Z" fill="url(#paint4_linear_74:941)"/>
<path d="M626.1 627.3H626C624.9 627.2 624.1 626.3 624.2 625.2C628.2 556 610.2 476.3 610 475.5C609.8 474.4 610.4 473.4 611.5 473.1C612.6 472.9 613.6 473.5 613.9 474.6C614.1 475.4 632.2 555.7 628.1 625.4C628 626.5 627.1 627.3 626.1 627.3Z" fill="#7C73FF"/>
<path d="M371 746.6C371 746.6 370.9 746.6 371 746.6C369.9 746.6 369 745.7 369 744.6C371.1 652.1 368.1 605.8 365.2 583.2C362.4 561.4 359.2 557.3 359.2 557.3C358.3 556.7 358 555.5 358.6 554.6C359.2 553.7 360.4 553.4 361.3 554C362.9 555.1 376.9 569.5 372.9 744.7C372.9 745.7 372 746.6 371 746.6Z" fill="#7C73FF"/>
<path d="M568.6 259C570.8 223.8 562.6 198.5 554.3 186C530.6 150 527.2 191.4 504.7 182.3C465.1 166.4 467.8 189.9 452.5 195.1C423.5 204.9 427.3 221.4 428.7 225.4C467.8 243.4 494.3 274.9 527.8 303.2C547.2 287.6 568 268.4 568.6 259Z" fill="#1F0A69"/>
<path d="M428.8 225.5C424.7 223.3 428.8 225.5 428.8 225.5C428.8 225.5 406 226.8 408.4 282.6C411.2 348.6 448.5 358.3 448.5 358.3C448.5 358.3 492.4 331.9 527.9 303.2C494.4 275 467.8 243.5 428.8 225.5Z" fill="#1F0A69"/>
<path d="M528.2 421.4C528.2 421.4 528.5 453.9 496.4 455.6C446.2 458.2 416.4 417.9 416.4 417.9C429.2 402.5 444.2 357.6 443.6 344.8C443.5 342.1 443.4 340.5 443.4 340.5C491.8 313.7 520.1 391 520.1 391C520 391.2 519.9 391.4 519.8 391.6C518 396 517 400 516.5 403.6C516.3 405.1 516.2 406.5 516.1 407.7C515.7 414.1 528.2 421.4 528.2 421.4Z" fill="#C57862"/>
<path opacity="0.9" d="M520.1 391.1C520 391.3 519.9 391.5 519.8 391.7C518 396.1 517 400.1 516.5 403.7C516.3 405.2 516.2 406.6 516.1 407.8C494 401.2 463.8 383.5 459.5 378.9C453.3 372.3 443.4 340.5 443.4 340.5C491.8 313.7 520.1 391.1 520.1 391.1Z" fill="#515151"/>
<path d="M568.1 308C567.2 317.1 565.1 329.6 562 342.9C561.7 344.3 561.3 345.7 561 347.1C560.9 347.6 560.7 348.1 560.6 348.6C560.6 348.7 560.6 348.7 560.6 348.8C559.9 351.6 559.2 354.4 558.4 357.1C557.3 361.4 556 365.6 554.7 369.8C553.3 373.4 552 376.8 550.6 379.9C547.6 386.6 544.4 391.8 539.7 394.1C536 395.9 527.9 397.5 517.5 395.7C495.2 391.8 468.5 378.6 463.8 374.6C456.2 368.1 450.1 352.7 446.4 345C445.8 343.8 445.3 342.8 444.9 342C444.3 341 443.8 340.4 443.4 340.3C418.6 338.1 415.4 312.4 424.6 303C434.5 292.8 447 303.8 450.1 305C450.3 305.1 450.5 305.1 450.7 305.1C450.8 305.1 450.8 305.1 450.9 305.1C451.8 305 452.7 304.3 453.6 303.2C454.2 302.5 454.8 301.6 455.4 300.6C456.2 299.3 456.9 297.7 457.7 296C463.5 282.8 470.4 251.6 470.4 251.6C471.4 250.7 472.8 249.7 474.4 248.8C487.5 241.5 519.1 235.2 533.8 245.2C550.5 256.4 562.1 262.8 568.6 258.7C569.2 262.5 569.8 265.2 570.1 268.7C570.7 275.4 570.4 284.5 568.1 308Z" fill="#C57862"/>
<path opacity="0.9" d="M568.6 259C562.1 263 550.4 256.6 533.8 245.5C519 235.6 487.4 241.9 474.4 249.2C473.7 249.6 473.1 250 472.5 250.4C472.4 250.4 472.4 250.5 472.3 250.5C472 250.7 471.7 250.9 471.5 251.1C471.4 251.2 471.4 251.2 471.3 251.3C471 251.6 470.7 251.8 470.4 252C470.4 252 463.5 283.2 457.7 296.4C469.8 270.2 470.3 256.1 479.2 252.9C507.1 243 513 247.2 534.9 262.1C550.5 272.7 563.8 270.3 570.1 269C569.8 265.5 569.3 262.8 568.6 259Z" fill="#515151"/>
<path d="M356.7 585.4C356.2 590.3 355.9 593.2 355.9 593.2L354.7 595L305.8 668L301.6 674.3C280.8 675.7 245.1 688.3 230.1 702.4C211.2 720 212 743 212 743C151.8 731.2 189.6 695 189.6 695C189.6 695 201.3 659.7 250.2 557.6C299.1 455.5 322.3 441.7 322.3 441.7C350.8 456.2 359.7 503.4 360.4 541.2C360.8 559.9 357.6 576.2 356.7 585.4Z" fill="#DDE8DA"/>
<path d="M190.9 697.7C190.5 697.7 190 697.6 189.7 697.3C188.8 696.6 188.7 695.4 189.4 694.5C207.3 671.8 237.8 664.6 239.1 664.3C240.2 664.1 241.2 664.7 241.5 665.8C241.7 666.9 241.1 667.9 240 668.2C239.7 668.3 209.5 675.4 192.5 697C192.1 697.5 191.5 697.7 190.9 697.7Z" fill="#7C73FF"/>
<path d="M473.5 673.6C473.5 673.6 330.3 679.4 301.4 674.3C301.4 674.3 190.2 669.6 212 743C212 743 348.4 760.8 468 714.9C468 714.9 493.6 692.9 473.5 673.6Z" fill="#C57862"/>
<path d="M473.5 673.6C473.5 673.6 493.5 664.9 504 661.1C514.5 657.3 532.5 646.5 542.7 650.9C552.9 655.4 595 700.2 595 700.2C595 700.2 594.3 723 581.8 724.7C569.3 726.4 541 702.7 534.8 704.5C528.5 706.4 509.3 724.4 486.6 721.6C469.6 719.5 468.2 714.8 468.2 714.8C468.2 714.8 464 678.5 473.5 673.6Z" fill="#C57862"/>
<path d="M591.7 708.6C591.4 708.6 591.2 708.5 591 708.3C590.9 708.2 587.6 704.7 563.8 683.6C540.7 663 532.3 666 532.2 666C531.7 666.2 531.1 666 530.9 665.5C530.7 665 530.9 664.4 531.4 664.2C531.8 664 540.7 660.3 565.1 682C589 703.3 592.3 706.7 592.4 706.9C592.8 707.3 592.8 708 592.3 708.3C592.2 708.5 591.9 708.6 591.7 708.6Z" fill="#B75E48"/>
<path d="M587 719.8C586.7 719.8 586.5 719.7 586.3 719.5C586.1 719.3 569.2 702.2 553.3 691.5C538 681.2 531.9 684.6 531.8 684.6C531.3 684.9 530.7 684.7 530.4 684.2C530.1 683.7 530.3 683.1 530.7 682.8C531 682.6 537.8 678.6 554.4 689.8C570.5 700.6 587.6 717.9 587.7 718.1C588.1 718.5 588.1 719.1 587.7 719.5C587.5 719.7 587.2 719.8 587 719.8Z" fill="#B75E48"/>
<path d="M562 343C561.7 344.4 561.4 345.8 561 347.2C560.9 347.7 560.8 348.2 560.6 348.7C560.6 348.8 560.6 348.8 560.6 348.8C559.9 351.6 559.2 354.4 558.4 357.1C557.2 361.4 556 365.6 554.7 369.8C553.3 373.4 552 376.8 550.6 379.9C547.6 386.6 544.4 391.8 539.7 394.1C536 395.9 527.9 397.5 517.5 395.7C495.2 391.8 468.5 378.6 463.8 374.6C456.2 368.1 450.2 352.7 446.4 345L450.7 305.2C450.7 305.2 451.2 300.7 455.4 300.7C455.9 339.3 477.2 356.1 491 362.7C496.3 365.3 502.8 363.1 505.6 357.9L510.8 346.6C513 342.6 517.3 340.3 521.8 340.8L562 343Z" fill="#1F0A69"/>
<path d="M547.5 368L518.6 367.6C516 367.4 514.4 366.4 515.5 363.8L518.2 356.8C519.9 352.5 523.9 349.9 528.1 350.3L551.5 350.8C553.9 351.1 555.4 353.7 554.7 356.2L551.6 365C551 366.9 549.3 368.1 547.5 368Z" fill="url(#paint5_linear_74:941)"/>
<path d="M356.7 585.4C356 588.9 355.3 592.2 354.6 595L305.7 668C305.7 668 309.4 595.4 360.4 536.2C361.8 540.4 359.6 570.8 356.7 585.4Z" fill="url(#paint6_linear_74:941)"/>
<path d="M356.1 594.9C356 594.9 355.9 594.9 355.8 594.9C354.7 594.8 354 593.8 354.1 592.7C361.3 540.1 359.3 506.6 347.1 477.3C346.7 476.3 347.2 475.1 348.2 474.7C349.2 474.3 350.4 474.8 350.8 475.8C363.3 505.8 365.4 539.9 358 593.2C357.9 594.1 357.1 594.9 356.1 594.9Z" fill="#7C73FF"/>
<path d="M343.8 468.1C343.1 468.1 342.4 467.7 342.1 467.1C332.5 449.6 322.8 445.4 322.7 445.3C321.7 444.9 321.2 443.7 321.6 442.7C322 441.7 323.2 441.2 324.2 441.6C324.6 441.8 335.3 446.3 345.6 465.1C346.1 466.1 345.8 467.2 344.8 467.8C344.4 468 344.1 468.1 343.8 468.1Z" fill="#7C73FF"/>
<path d="M491.6 466.5C486.6 466.5 481.2 466 475.4 465.1C426.7 457.4 406.9 423.9 406.1 422.4C405.5 421.3 405.8 419.9 406.9 419.3C408 418.7 409.4 419 410 420.1C410.2 420.4 429.6 453.2 476.1 460.5C496.8 463.8 512 461 521.4 452.2C529.9 444.3 532.6 432.7 534 423.5C534.2 422.3 535.4 421.4 536.6 421.6C537.8 421.8 538.7 423 538.5 424.2C536.9 434.1 533.9 446.7 524.5 455.5C516.9 462.9 505.8 466.5 491.6 466.5Z" fill="white"/>
<path d="M441.5 321.5C441 321.5 440.6 321.1 440.5 320.6C440.5 320.5 438.9 310.5 433.5 307.7C431.5 306.6 429.1 306.7 426.5 307.9C426 308.1 425.4 307.9 425.1 307.4C424.9 306.9 425.1 306.3 425.6 306C428.9 304.5 431.9 304.4 434.5 305.8C440.8 309.2 442.5 319.8 442.6 320.2C442.7 320.8 442.3 321.3 441.7 321.4C441.6 321.5 441.5 321.5 441.5 321.5Z" fill="#B75942"/>
<path d="M433.3 321.2C433.3 321.2 433.2 321.2 433.3 321.2C432.7 321.2 432.2 320.7 432.3 320.1C432.3 319.8 432.9 313.1 434.8 309.8C435.1 309.3 435.7 309.1 436.2 309.4C436.7 309.7 436.9 310.3 436.6 310.8C434.9 313.7 434.4 320.2 434.4 320.2C434.3 320.8 433.8 321.2 433.3 321.2Z" fill="#B75942"/>
<path d="M302.3 670C301.9 670 301.6 669.9 301.2 669.7C301.1 669.6 291.8 663.9 266.7 665C265.6 665.1 264.7 664.2 264.6 663.1C264.6 662 265.4 661.1 266.5 661C293.2 659.8 303 666 303.4 666.3C304.3 666.9 304.6 668.1 304 669C303.6 669.7 303 670 302.3 670Z" fill="#7C73FF"/>
<path d="M473.1 254.2C472.9 254.2 472.7 254.2 472.5 254.1C457.6 248.4 451 242 450.7 241.7C450 241 450 240 450.7 239.3C451.4 238.6 452.4 238.6 453.1 239.3C453.2 239.4 459.6 245.5 473.8 250.9C474.7 251.2 475.1 252.2 474.8 253.1C474.4 253.8 473.7 254.2 473.1 254.2Z" fill="#B2523B"/>
<path d="M501.2 299.7H501.1L446.2 297.4C444.4 297.3 443 295.8 443.1 294.1C443.2 292.3 444.7 290.9 446.4 291L501.3 293.3C503.1 293.4 504.5 294.9 504.4 296.6C504.3 298.4 502.9 299.7 501.2 299.7Z" fill="#1F0A69"/>
<path d="M520.4 324.7C520.2 324.7 520 324.7 519.8 324.7C506.4 324.1 501 306.3 499 295.8C498.6 293.5 499.2 291.2 500.7 289.5C502.2 287.8 504.4 286.8 506.7 286.9L537.7 288.2C540.1 288.3 542.3 289.5 543.6 291.5C544.9 293.5 545.3 295.9 544.5 298.2C541 308.1 533.2 324.7 520.4 324.7ZM506.4 293.3C506 293.3 505.7 293.5 505.6 293.7C505.5 293.8 505.3 294.1 505.4 294.6C506.4 300.1 510.5 317.9 520.1 318.3C529.5 318.7 536.1 302.8 538.5 296C538.7 295.6 538.5 295.2 538.4 295.1C538.3 294.9 538 294.7 537.6 294.6L506.4 293.3Z" fill="#1F0A69"/>
<path d="M565.7 326.4C565.6 326.4 565.5 326.4 565.4 326.4C558.5 326.1 554.4 316.4 553.2 297.4C553.1 295.1 553.8 292.9 555.3 291.4C556.5 290.2 558 289.6 559.6 289.6L577.1 290.3C578.8 290.4 580.4 291.3 581.5 292.7C582.9 294.5 583.3 297 582.7 299.4C577.9 317.3 572.2 326.4 565.7 326.4ZM559.4 295.3C559.2 295.4 558.8 296.1 558.8 297C559.9 314.2 563.5 320.6 565.6 320.7C565.6 320.7 565.6 320.7 565.7 320.7C568.3 320.7 573 313.6 577.1 298C577.4 297 576.9 296.1 576.7 296L559.4 295.3Z" fill="#1F0A69"/>
<path d="M554.9 299.9C554.8 299.9 554.8 299.9 554.7 299.9L541.7 299.2C539.9 299.1 538.6 297.6 538.7 295.8C538.8 294 540.3 292.7 542.1 292.8L555.1 293.5C556.9 293.6 558.2 295.1 558.1 296.9C558 298.6 556.6 299.9 554.9 299.9Z" fill="#1F0A69"/>
<path d="M849.9 720.8L846.4 729H580.9L584.1 720.8H849.9Z" fill="#9A878E"/>
<path d="M920.9 555.4L850 720.9H584.1L608.4 658.6L649.7 552.7C651.3 548.6 654.8 545.4 659.1 543.8C661.1 543 663.3 542.6 665.6 542.6H910.9C918.4 542.6 923.5 549.2 920.9 555.4Z" fill="#242B36"/>
<path d="M590.5 729H471.1C469.1 729 467.4 727.4 467.4 725.3C467.4 723.2 469 721.6 471.1 721.6H590.5C592.5 721.6 594.2 723.2 594.2 725.3C594.2 727.4 592.6 729 590.5 729Z" fill="#9A878E"/>
<path d="M809.9 591.2H753.8C748.1 591.2 744.2 585.5 746.2 580.2C747.4 577.1 750.4 575 753.8 575H809.9C815.7 575 819.7 581 817.3 586.4C816 589.2 813.1 591.2 809.9 591.2Z" fill="#9A878E"/>
<path d="M1069.1 720.4C1067.5 720.4 1065.9 720 1064.4 719.1C1060 716.5 1058.5 710.8 1061.2 706.4L1215.2 447L1080 407C1075.1 405.5 1072.3 400.4 1073.7 395.4C1075.2 390.5 1080.3 387.7 1085.3 389.1L1243.5 435.9L1077.3 715.8C1075.3 718.7 1072.2 720.4 1069.1 720.4Z" fill="#E2D8FF"/>
<path d="M1239.93 452.191C1245.59 446.529 1245.59 437.348 1239.93 431.685C1234.27 426.023 1225.09 426.023 1219.42 431.685C1213.76 437.348 1213.76 446.529 1219.42 452.191C1225.09 457.854 1234.27 457.854 1239.93 452.191Z" fill="#D9D2FC"/>
<path d="M1070.1 404.2H1024.6C1021.5 404.2 1018.9 401.7 1018.9 398.5C1018.9 395.4 1021.4 392.8 1024.6 392.8H1070.1C1073.2 392.8 1075.8 395.3 1075.8 398.5C1075.8 401.7 1073.3 404.2 1070.1 404.2Z" fill="#D9D2FC"/>
<path d="M1124.4 729.1H984.9C984.9 717.7 994.2 708.4 1005.6 708.4H1103.7C1115.1 708.5 1124.4 717.8 1124.4 729.1Z" fill="#B0AEFF"/>
<path d="M964.4 425.3C952.9 414.7 952.2 396.7 962.8 385.3L988.1 357.8C998.7 346.3 1016.7 345.6 1028.1 356.2C1039.6 366.8 1040.3 384.8 1029.7 396.2L1004.4 423.7C993.9 435.2 975.9 435.9 964.4 425.3Z" fill="#D9D2FC"/>
<path d="M1064.9 409.2V386.8C1064.9 382.2 1069.9 379.3 1073.9 381.6L1093.3 392.8C1097.3 395.1 1097.3 400.9 1093.3 403.2L1073.9 414.4C1069.9 416.7 1064.9 413.9 1064.9 409.2Z" fill="#D9D2FC"/>
<path d="M922.8 446.4L954.6 470.5L952.6 473.2C946 481.9 933.4 483.7 924.7 477.1C916 470.5 914.2 457.9 920.8 449.2L922.8 446.4Z" fill="#FFC459"/>
<path d="M993.2 508L876.2 419.5L883.7 409.6C908 377.4 954.3 371 986.5 395.4C1018.7 419.7 1025.1 466 1000.7 498.2L993.2 508Z" fill="#7C73FF"/>
<path d="M58.9 706.2C55 706.2 51.6 705.8 49.6 705C40.4 701.8 41.3 675.8 41.3 675.5C41.8 662.5 45.6 654.7 52.2 653C65.3 649.6 81.2 659 81.9 659.4L84.1 660.7V696.1L83.3 697.2C79.1 703.9 67.7 706.2 58.9 706.2ZM53.3 696.6C58.2 697.8 71 696.7 75.1 693.1V666C70.2 663.6 61.2 660.1 54.6 661.8C54 662 52.9 663.2 52 666C48.7 676.2 51.1 693 53.3 696.6Z" fill="#FFC459"/>
<path opacity="0.55" d="M125.8 612.2C130.3 606.6 135.7 601.8 139.6 595.8C143.5 589.8 145.8 582.1 143.1 575.4C140 567.6 131.3 563.7 123.2 561.1C115.1 558.5 106.3 556.1 101.2 549.4C95.3999 541.9 96.1999 531.5 96.2999 522C96.3999 512.5 94.7999 501.5 86.6999 496.6C80.7999 493 68.6999 494 62.9999 497.8C57.1999 501.6 53.3999 507.7 50.8999 514.2C45.2999 528.4 45.4999 547.8 56.0999 558.8C64.3999 567.4 75.8999 571 76.7999 581.8C77.5999 591.4 64.9999 608.3 68.4999 617.3C73.4999 629.8 91.4999 633.4 95.6999 646.2C96.8999 649.8 96.7999 653.7 97.1999 657.4C97.5999 661.2 98.6999 665.1 101.6 667.5C105.6 670.8 111.2 669.3 111.4 664.1C111.6 658 110.5 652.1 111.3 645.9C113 633.8 118 621.9 125.8 612.2Z" fill="#E2D8FF"/>
<path d="M134.7 643.5L133.9 705.6C133.7 717.4 124.7 727.2 112.9 728.2C109.4 728.5 105.3 728.7 100.6 728.7C95.9 728.7 91.9 728.5 88.3 728.2C76.6 727.1 67.5 717.4 67.3 705.6L67.2 696.3L66.7 662.9L66.6 653.4L66.5 643.4C82.8 643.9 119 643.9 134.7 643.5Z" fill="#FFC459"/>
<path d="M127.5 719.3H73.7998C73.1998 719.3 72.7998 718.8 72.7998 718.3C72.7998 717.7 73.2998 717.3 73.7998 717.3H127.5C128.1 717.3 128.5 717.8 128.5 718.3C128.5 718.9 128.1 719.3 127.5 719.3Z" fill="#F2B02A"/>
<path d="M66.8002 663C66.2002 663 65.8002 662.5 65.8002 662L65.7002 654C65.7002 653.4 66.1002 653 66.7002 653C67.3002 653 67.7002 653.5 67.7002 654L67.8002 662C67.9002 662.5 67.4002 663 66.8002 663Z" fill="#F2B02A"/>
<path d="M67.2998 704.9C66.6998 704.9 66.2998 704.4 66.2998 703.9V697.3C66.2998 696.7 66.7998 696.3 67.2998 696.3C67.7998 696.3 68.2998 696.8 68.2998 697.3V703.9C68.2998 704.4 67.8998 704.9 67.2998 704.9Z" fill="#F2B02A"/>
<path d="M1188.6 748.3H9.8C4.4 748.3 0 743.9 0 738.5C0 733.1 4.4 728.7 9.8 728.7H1188.6C1194 728.7 1198.4 733.1 1198.4 738.5C1198.4 743.9 1194 748.3 1188.6 748.3Z" fill="#1F0A69"/>
<defs>
<linearGradient id="paint0_linear_74:941" x1="637.979" y1="535.145" x2="585.618" y2="560.027" gradientUnits="userSpaceOnUse">
<stop stop-color="#DDE8DA"/>
<stop offset="1" stop-color="#BACBB5"/>
</linearGradient>
<linearGradient id="paint1_linear_74:941" x1="418.033" y1="511.324" x2="288.343" y2="626.829" gradientUnits="userSpaceOnUse">
<stop stop-color="#C7CCFF"/>
<stop offset="1" stop-color="#A7AEEF"/>
</linearGradient>
<linearGradient id="paint2_linear_74:941" x1="515.907" y1="621.218" x2="386.217" y2="736.723" gradientUnits="userSpaceOnUse">
<stop stop-color="#C7CCFF"/>
<stop offset="1" stop-color="#A7AEEF"/>
</linearGradient>
<linearGradient id="paint3_linear_74:941" x1="552.64" y1="655.919" x2="442.366" y2="754.132" gradientUnits="userSpaceOnUse">
<stop stop-color="#DDE8DA"/>
<stop offset="1" stop-color="#BACBB5"/>
</linearGradient>
<linearGradient id="paint4_linear_74:941" x1="459.457" y1="557.835" x2="329.767" y2="673.341" gradientUnits="userSpaceOnUse">
<stop stop-color="#DDE8DA"/>
<stop offset="1" stop-color="#BACBB5"/>
</linearGradient>
<linearGradient id="paint5_linear_74:941" x1="534.582" y1="364.116" x2="536.069" y2="350.147" gradientUnits="userSpaceOnUse">
<stop stop-color="#C57862"/>
<stop offset="1" stop-color="#AA5138"/>
</linearGradient>
<linearGradient id="paint6_linear_74:941" x1="323.395" y1="597.977" x2="353.376" y2="610.945" gradientUnits="userSpaceOnUse">
<stop stop-color="#DDE8DA"/>
<stop offset="1" stop-color="#BACBB5"/>
</linearGradient>
</defs>
</svg>
