<svg width="36" height="36" viewBox="0 0 36 36" fill="none" xmlns="http://www.w3.org/2000/svg">
<path d="M17.9001 0.750061C17.8867 0.67364 17.8467 0.604405 17.7873 0.55452C17.7278 0.504634 17.6527 0.477295 17.5751 0.477295C17.4975 0.477295 17.4224 0.504634 17.363 0.55452C17.3035 0.604405 17.2636 0.67364 17.2501 0.750061C17.2418 0.797512 17.2439 0.846224 17.2564 0.892761C17.2689 0.939299 17.2914 0.982534 17.3223 1.01944C17.3533 1.05635 17.392 1.08602 17.4357 1.10638C17.4794 1.12674 17.5269 1.13728 17.5751 1.13728C17.6233 1.13728 17.6709 1.12674 17.7146 1.10638C17.7582 1.08602 17.7969 1.05635 17.8279 1.01944C17.8589 0.982534 17.8814 0.939299 17.8938 0.892761C17.9063 0.846224 17.9085 0.797512 17.9001 0.750061V0.750061Z" fill="white"/>
<path d="M17.9001 3.75006C17.8867 3.67364 17.8467 3.60441 17.7873 3.55452C17.7278 3.50463 17.6527 3.47729 17.5751 3.47729C17.4975 3.47729 17.4224 3.50463 17.363 3.55452C17.3035 3.60441 17.2636 3.67364 17.2501 3.75006C17.2418 3.79751 17.2439 3.84622 17.2564 3.89276C17.2689 3.9393 17.2914 3.98253 17.3223 4.01944C17.3533 4.05635 17.392 4.08602 17.4357 4.10638C17.4794 4.12674 17.5269 4.13728 17.5751 4.13728C17.6233 4.13728 17.6709 4.12674 17.7146 4.10638C17.7582 4.08602 17.7969 4.05635 17.8279 4.01944C17.8589 3.98253 17.8814 3.9393 17.8938 3.89276C17.9063 3.84622 17.9085 3.79751 17.9001 3.75006V3.75006Z" fill="white"/>
<path d="M17.0002 3.75998C16.9961 3.69687 16.9734 3.63639 16.935 3.58616C16.8966 3.53593 16.8442 3.49822 16.7843 3.47777C16.7245 3.45732 16.6599 3.45505 16.5988 3.47127C16.5377 3.48748 16.4827 3.52143 16.4409 3.56885C16.3991 3.61626 16.3722 3.67502 16.3637 3.73768C16.3553 3.80035 16.3655 3.86411 16.3933 3.92094C16.421 3.97777 16.465 4.02511 16.5196 4.05697C16.5742 4.08884 16.6371 4.10381 16.7002 4.09999C16.7422 4.09744 16.7834 4.08661 16.8212 4.06813C16.8591 4.04965 16.8929 4.02388 16.9208 3.99229C16.9487 3.9607 16.97 3.92391 16.9837 3.88405C16.9973 3.84418 17.0029 3.80202 17.0002 3.75998V3.75998Z" fill="white"/>
<path d="M16.11 3.82003C16.098 3.73516 16.0529 3.6585 15.9844 3.60693C15.916 3.55535 15.8298 3.53309 15.745 3.54502C15.6601 3.55695 15.5834 3.60212 15.5319 3.67057C15.4803 3.73902 15.458 3.82516 15.4699 3.91003C15.4748 3.95186 15.4881 3.99225 15.5091 4.02877C15.53 4.06529 15.5582 4.09716 15.5919 4.12243C15.6256 4.14769 15.6641 4.16582 15.705 4.17573C15.7459 4.18563 15.7885 4.18708 15.83 4.18001C15.914 4.16758 15.99 4.12323 16.0422 4.05617C16.0943 3.98912 16.1186 3.90454 16.11 3.82003V3.82003Z" fill="white"/>
<path d="M15.2001 3.93999C15.1829 3.85644 15.1332 3.78317 15.0619 3.73628C14.9906 3.6894 14.9037 3.67275 14.8201 3.68999C14.7366 3.70723 14.6633 3.75694 14.6164 3.8282C14.5695 3.89947 14.5529 3.98645 14.5701 4.06999C14.5773 4.11106 14.5926 4.15026 14.6153 4.18526C14.6379 4.22025 14.6674 4.25031 14.702 4.27365C14.7365 4.29699 14.7754 4.31313 14.8163 4.32109C14.8573 4.32905 14.8993 4.32868 14.9401 4.31999C14.9825 4.31282 15.023 4.29718 15.0592 4.27402C15.0954 4.25086 15.1265 4.22064 15.1508 4.18518C15.175 4.14972 15.1919 4.10972 15.2004 4.0676C15.2089 4.02547 15.2088 3.98208 15.2001 3.93999Z" fill="white"/>
<path d="M14.3403 4.12001C14.3244 4.05875 14.2908 4.00357 14.2436 3.96142C14.1964 3.91928 14.1377 3.89208 14.0751 3.88325C14.0124 3.87443 13.9486 3.88438 13.8916 3.91185C13.8346 3.93932 13.787 3.98306 13.7548 4.03757C13.7227 4.09207 13.7074 4.15488 13.711 4.21806C13.7145 4.28124 13.7367 4.34195 13.7748 4.39252C13.8128 4.44308 13.865 4.48122 13.9247 4.50213C13.9844 4.52305 14.049 4.52579 14.1103 4.51001C14.151 4.49952 14.1893 4.48112 14.2229 4.45584C14.2565 4.43056 14.2847 4.3989 14.3061 4.36268C14.3275 4.32646 14.3415 4.28639 14.3473 4.24475C14.3532 4.20311 14.3508 4.16072 14.3403 4.12001V4.12001Z" fill="white"/>
<path d="M13.4803 4.35005C13.461 4.28734 13.4234 4.23182 13.3723 4.19058C13.3212 4.14935 13.259 4.12427 13.1937 4.11856C13.1283 4.11285 13.0627 4.12676 13.0052 4.15852C12.9478 4.19029 12.9012 4.23846 12.8712 4.29687C12.8413 4.35529 12.8295 4.42128 12.8373 4.48645C12.8451 4.55162 12.8721 4.61298 12.9149 4.6627C12.9578 4.71243 13.0145 4.74824 13.0778 4.76558C13.1411 4.78292 13.2081 4.78099 13.2703 4.76004C13.3519 4.73257 13.4194 4.67434 13.4587 4.59775C13.4979 4.52116 13.5057 4.43228 13.4803 4.35005V4.35005Z" fill="white"/>
<path d="M12.6304 4.62997C12.5972 4.55157 12.5349 4.48907 12.4566 4.45552C12.3783 4.42197 12.2901 4.41998 12.2104 4.44997C12.132 4.48322 12.0695 4.5455 12.036 4.62378C12.0024 4.70205 12.0004 4.79026 12.0304 4.86996C12.0446 4.91051 12.0671 4.94766 12.0965 4.97905C12.1258 5.01044 12.1613 5.0354 12.2008 5.05232C12.2403 5.06925 12.2829 5.07778 12.3259 5.07738C12.3688 5.07697 12.4112 5.06764 12.4504 5.04997C12.5288 5.01672 12.5913 4.95443 12.6249 4.87616C12.6584 4.79788 12.6604 4.70968 12.6304 4.62997V4.62997Z" fill="white"/>
<path d="M11.8 4.99997C11.7818 4.9617 11.7562 4.92742 11.7247 4.89912C11.6932 4.87083 11.6564 4.84907 11.6164 4.83511C11.5764 4.82116 11.534 4.81529 11.4917 4.81784C11.4494 4.82039 11.408 4.83132 11.37 4.84998C11.3319 4.86836 11.2978 4.89405 11.2697 4.92561C11.2415 4.95717 11.2199 4.99398 11.206 5.03391C11.192 5.07383 11.1861 5.11612 11.1885 5.15834C11.1909 5.20056 11.2016 5.24189 11.22 5.27997C11.2384 5.31805 11.2641 5.35215 11.2957 5.3803C11.3272 5.40844 11.364 5.4301 11.404 5.44403C11.4439 5.45796 11.4862 5.46388 11.5284 5.46147C11.5706 5.45906 11.6119 5.44835 11.65 5.42996C11.6883 5.41179 11.7226 5.3862 11.7509 5.35468C11.7792 5.32315 11.8009 5.28631 11.8149 5.24631C11.8288 5.20631 11.8347 5.16395 11.8321 5.12166C11.8296 5.07937 11.8187 5.038 11.8 4.99997V4.99997Z" fill="white"/>
<path d="M10.9902 5.35999C10.9698 5.32322 10.9424 5.29082 10.9095 5.26464C10.8767 5.23846 10.839 5.21901 10.7986 5.2074C10.7582 5.1958 10.7159 5.19225 10.6741 5.19698C10.6324 5.20172 10.5919 5.21464 10.5552 5.23499C10.5184 5.25535 10.486 5.28274 10.4598 5.31562C10.4336 5.34849 10.4142 5.3862 10.4026 5.4266C10.391 5.46699 10.3874 5.50929 10.3922 5.55105C10.3969 5.59281 10.4098 5.63322 10.4302 5.66999C10.4505 5.70676 10.4779 5.73916 10.5108 5.76534C10.5437 5.79152 10.5814 5.81097 10.6218 5.82258C10.6622 5.83418 10.7045 5.83773 10.7462 5.833C10.788 5.82826 10.8284 5.81534 10.8652 5.79499C10.9019 5.77463 10.9343 5.74724 10.9605 5.71436C10.9867 5.68148 11.0062 5.64378 11.0178 5.60338C11.0294 5.56299 11.0329 5.52069 11.0282 5.47893C11.0234 5.43717 11.0105 5.39676 10.9902 5.35999V5.35999Z" fill="white"/>
<path d="M10.2002 5.79995C10.1666 5.74623 10.1178 5.70368 10.06 5.67773C10.0022 5.65177 9.93793 5.64357 9.87545 5.65415C9.81297 5.66473 9.75504 5.69362 9.709 5.73716C9.66296 5.7807 9.63089 5.83694 9.61685 5.89874C9.6028 5.96053 9.60741 6.0251 9.63011 6.08427C9.65281 6.14343 9.69257 6.19453 9.74434 6.23107C9.7961 6.26762 9.85756 6.28798 9.92091 6.28956C9.98426 6.29114 10.0466 6.27387 10.1002 6.23995C10.1366 6.21851 10.1682 6.18984 10.1932 6.15572C10.2181 6.1216 10.2358 6.08273 10.2451 6.04153C10.2545 6.00032 10.2554 5.95764 10.2476 5.9161C10.2399 5.87456 10.2237 5.83503 10.2002 5.79995V5.79995Z" fill="white"/>
<path d="M9.46027 6.27998C9.40862 6.21274 9.33308 6.16796 9.24929 6.15492C9.1655 6.14189 9.07991 6.16161 9.01028 6.20999C8.97591 6.23477 8.94681 6.26612 8.92466 6.30223C8.90251 6.33834 8.88776 6.3785 8.88125 6.42037C8.87474 6.46223 8.87659 6.50496 8.88673 6.5461C8.89686 6.58723 8.91507 6.62594 8.94028 6.65999C8.96414 6.6955 8.99508 6.72567 9.03117 6.74864C9.06725 6.77161 9.1077 6.78687 9.14997 6.79344C9.19224 6.80002 9.2354 6.79777 9.27676 6.78685C9.31811 6.77593 9.35677 6.75657 9.39028 6.72998C9.42464 6.7052 9.45375 6.67385 9.4759 6.63774C9.49805 6.60163 9.5128 6.56147 9.51931 6.51961C9.52582 6.47775 9.52397 6.43501 9.51383 6.39388C9.5037 6.35274 9.48549 6.31403 9.46027 6.27998V6.27998Z" fill="white"/>
<path d="M8.74 6.81003C8.67891 6.75309 8.59852 6.72144 8.51501 6.72144C8.4315 6.72144 8.35109 6.75309 8.29 6.81003C8.22301 6.86483 8.18023 6.94376 8.17088 7.0298C8.16153 7.11584 8.18635 7.20212 8.24 7.27003C8.29922 7.32264 8.3754 7.35218 8.4546 7.35327C8.53381 7.35437 8.61076 7.32693 8.67141 7.27599C8.73207 7.22504 8.77238 7.15398 8.78497 7.07578C8.79756 6.99757 8.78159 6.91745 8.74 6.85004V6.81003Z" fill="white"/>
<path d="M8.05998 7.39C7.99845 7.34176 7.92178 7.31694 7.84366 7.31995C7.76553 7.32296 7.69101 7.3536 7.63337 7.40643C7.57574 7.45927 7.53874 7.53084 7.52896 7.60841C7.51918 7.68599 7.53727 7.76452 7.57998 7.83C7.60615 7.87011 7.64073 7.90404 7.68133 7.92944C7.72193 7.95485 7.76758 7.97112 7.81509 7.97711C7.86261 7.9831 7.91086 7.97867 7.9565 7.96414C8.00213 7.94961 8.04405 7.92532 8.07936 7.89296C8.11466 7.8606 8.1425 7.82094 8.16093 7.77673C8.17937 7.73253 8.18797 7.68485 8.18612 7.63699C8.18428 7.58914 8.17203 7.54226 8.15025 7.4996C8.12847 7.45695 8.09767 7.41955 8.05998 7.39V7.39Z" fill="white"/>
<path d="M7.41006 7.99997C7.34847 7.9401 7.26595 7.90662 7.18005 7.90662C7.09416 7.90662 7.01165 7.9401 6.95006 7.99997C6.91921 8.02981 6.89468 8.06554 6.87793 8.10506C6.86118 8.14457 6.85254 8.18705 6.85254 8.22997C6.85254 8.27288 6.86118 8.31536 6.87793 8.35487C6.89468 8.39439 6.91921 8.43014 6.95006 8.45998C7.00996 8.51921 7.09082 8.55243 7.17506 8.55243C7.25931 8.55243 7.34015 8.51921 7.40005 8.45998C7.46128 8.39969 7.49658 8.3179 7.49844 8.23199C7.50031 8.14609 7.46861 8.06286 7.41006 7.99997V7.99997Z" fill="white"/>
<path d="M6.8002 8.67C6.77123 8.63944 6.73635 8.6151 6.69766 8.59846C6.65898 8.58183 6.6173 8.57324 6.57519 8.57324C6.53309 8.57324 6.49141 8.58183 6.45273 8.59846C6.41404 8.6151 6.37916 8.63944 6.35019 8.67C6.3203 8.70174 6.29723 8.73926 6.28236 8.78024C6.2675 8.82123 6.26116 8.86482 6.26375 8.90834C6.26634 8.95186 6.27779 8.9944 6.29741 9.03334C6.31703 9.07228 6.3444 9.10679 6.37784 9.13477C6.41128 9.16274 6.45008 9.1836 6.49187 9.19604C6.53365 9.20849 6.57754 9.21225 6.62083 9.20712C6.66413 9.20199 6.70591 9.18807 6.74364 9.16621C6.78136 9.14435 6.81422 9.11502 6.84019 9.08C6.8849 9.01862 6.90552 8.94298 6.89815 8.8674C6.89077 8.79183 6.85592 8.72158 6.8002 8.67V8.67Z" fill="white"/>
<path d="M6.20001 9.36002C6.13037 9.31164 6.04478 9.29191 5.961 9.30495C5.87721 9.31798 5.80166 9.36276 5.75001 9.43001C5.72506 9.46415 5.70708 9.50288 5.69709 9.54398C5.68711 9.58507 5.68531 9.62772 5.69182 9.66951C5.69832 9.7113 5.71297 9.7514 5.73497 9.78752C5.75696 9.82364 5.78586 9.85507 5.82 9.88002C5.85415 9.90497 5.89288 9.92295 5.93397 9.93294C5.97507 9.94292 6.01772 9.94472 6.05951 9.93822C6.10129 9.93172 6.14138 9.91705 6.1775 9.89505C6.21362 9.87305 6.24507 9.84416 6.27002 9.81001C6.3184 9.74038 6.3381 9.65479 6.32507 9.571C6.31204 9.48721 6.26726 9.41167 6.20001 9.36002V9.36002Z" fill="white"/>
<path d="M5.72017 10.09C5.64695 10.0446 5.55889 10.0297 5.47481 10.0484C5.39073 10.0671 5.31729 10.1179 5.27017 10.19C5.22482 10.2632 5.20988 10.3513 5.22856 10.4353C5.24724 10.5194 5.29806 10.5929 5.37016 10.64C5.44224 10.6713 5.52315 10.6759 5.59831 10.6529C5.67347 10.6299 5.73794 10.5808 5.78013 10.5145C5.82233 10.4482 5.83949 10.369 5.82849 10.2912C5.81749 10.2134 5.77908 10.142 5.72017 10.09V10.09Z" fill="white"/>
<path d="M5.20013 10.85C5.1627 10.8296 5.12163 10.8168 5.07926 10.8123C5.03689 10.8079 4.99407 10.8118 4.95321 10.8238C4.87069 10.8482 4.80123 10.9044 4.76012 10.98C4.71901 11.0556 4.70962 11.1444 4.734 11.2269C4.75838 11.3094 4.81454 11.3789 4.89013 11.42C4.96601 11.4596 5.05432 11.4682 5.13642 11.4439C5.21852 11.4197 5.28798 11.3645 5.33013 11.29C5.35109 11.2527 5.36435 11.2116 5.36915 11.1691C5.37394 11.1266 5.37017 11.0835 5.35805 11.0425C5.34594 11.0015 5.32572 10.9633 5.29859 10.9303C5.27147 10.8972 5.23798 10.8699 5.20013 10.85V10.85Z" fill="white"/>
<path d="M4.82041 11.64C4.78238 11.6214 4.74103 11.6104 4.69874 11.6079C4.65645 11.6053 4.61408 11.6112 4.57408 11.6252C4.53408 11.6391 4.49724 11.6609 4.46571 11.6892C4.43418 11.7175 4.4086 11.7517 4.39042 11.79C4.35329 11.8669 4.34824 11.9554 4.37637 12.0361C4.4045 12.1167 4.4635 12.1829 4.54042 12.22C4.61733 12.2571 4.70584 12.2622 4.78648 12.2341C4.86712 12.2059 4.93329 12.1469 4.97042 12.07C4.98908 12.032 5.00001 11.9906 5.00256 11.9483C5.00511 11.906 4.99922 11.8637 4.98527 11.8237C4.97132 11.7837 4.94956 11.7468 4.92126 11.7153C4.89296 11.6838 4.85868 11.6582 4.82041 11.64V11.64Z" fill="white"/>
<path d="M4.44035 12.45C4.36205 12.4204 4.27527 12.4227 4.19862 12.4563C4.12198 12.49 4.06157 12.5523 4.03035 12.63C4.01268 12.6691 4.00335 12.7116 4.00294 12.7545C4.00254 12.7975 4.01107 12.8401 4.028 12.8796C4.04492 12.919 4.06986 12.9546 4.10126 12.9839C4.13265 13.0133 4.16979 13.0358 4.21034 13.05C4.24969 13.0662 4.29188 13.0743 4.33443 13.074C4.37697 13.0737 4.41903 13.0649 4.45814 13.0482C4.49725 13.0314 4.53262 13.007 4.56219 12.9764C4.59176 12.9458 4.61492 12.9096 4.63034 12.87C4.65974 12.789 4.65633 12.6998 4.62083 12.6213C4.58533 12.5428 4.52057 12.4813 4.44035 12.45Z" fill="white"/>
<path d="M4.12011 13.29C4.08011 13.2761 4.0377 13.2706 3.99549 13.2738C3.95328 13.277 3.91218 13.2888 3.8747 13.3085C3.83723 13.3282 3.80418 13.3553 3.7776 13.3882C3.75101 13.4212 3.73145 13.4592 3.72012 13.5C3.70611 13.5393 3.70018 13.5811 3.70272 13.6228C3.70526 13.6645 3.71621 13.7052 3.73489 13.7426C3.75357 13.78 3.77959 13.8132 3.81142 13.8402C3.84325 13.8672 3.88023 13.8876 3.92011 13.9C3.96017 13.9131 4.00241 13.9182 4.04444 13.915C4.08647 13.9118 4.12745 13.9004 4.16506 13.8814C4.20267 13.8623 4.23617 13.8361 4.26363 13.8041C4.29109 13.7721 4.31198 13.735 4.32511 13.695C4.33824 13.6549 4.34335 13.6127 4.34016 13.5706C4.33696 13.5286 4.32553 13.4876 4.3065 13.45C4.28746 13.4124 4.2612 13.3789 4.22923 13.3515C4.19725 13.324 4.16016 13.3031 4.12011 13.29V13.29Z" fill="white"/>
<path d="M3.85003 14.14C3.78655 14.1216 3.71901 14.1227 3.65615 14.1431C3.5933 14.1636 3.53803 14.2024 3.49751 14.2546C3.45699 14.3069 3.43309 14.37 3.42889 14.436C3.42469 14.502 3.44039 14.5677 3.47396 14.6246C3.50754 14.6815 3.55744 14.7271 3.6172 14.7553C3.67695 14.7836 3.74382 14.7932 3.80912 14.783C3.87443 14.7728 3.93515 14.7433 3.98345 14.6981C4.03176 14.653 4.06542 14.5944 4.08004 14.53C4.09057 14.4893 4.09297 14.4469 4.08711 14.4052C4.08124 14.3636 4.06722 14.3235 4.04586 14.2873C4.0245 14.2511 3.99621 14.2195 3.96261 14.1942C3.92901 14.1689 3.89075 14.1505 3.85003 14.14V14.14Z" fill="white"/>
<path d="M3.64013 15C3.59804 14.9913 3.55463 14.9912 3.51251 14.9997C3.47038 15.0082 3.4304 15.025 3.39494 15.0493C3.35947 15.0736 3.32926 15.1047 3.3061 15.1409C3.28294 15.1771 3.2673 15.2176 3.26012 15.26C3.2451 15.3433 3.26267 15.4292 3.3092 15.4999C3.35573 15.5707 3.42766 15.6208 3.51012 15.64C3.59486 15.6547 3.68199 15.6358 3.75297 15.5872C3.82394 15.5386 3.87316 15.4643 3.89013 15.38C3.89889 15.3386 3.89935 15.2959 3.8915 15.2543C3.88365 15.2128 3.86765 15.1732 3.8444 15.1378C3.82115 15.1025 3.79113 15.0721 3.75607 15.0484C3.721 15.0248 3.6816 15.0083 3.64013 15V15Z" fill="white"/>
<path d="M3.47996 15.89C3.39545 15.8814 3.31087 15.9057 3.24381 15.9578C3.17676 16.01 3.13239 16.086 3.11996 16.17C3.1129 16.2123 3.11468 16.2556 3.12519 16.2971C3.1357 16.3387 3.15471 16.3776 3.18102 16.4114C3.20734 16.4452 3.24037 16.4732 3.27805 16.4937C3.31574 16.5141 3.35725 16.5265 3.39996 16.53C3.44203 16.5356 3.4848 16.5328 3.52577 16.5217C3.56673 16.5106 3.60509 16.4915 3.63859 16.4654C3.67209 16.4393 3.70007 16.4069 3.72091 16.3699C3.74175 16.3329 3.75502 16.2922 3.75996 16.25C3.7662 16.166 3.74101 16.0826 3.68928 16.0161C3.63754 15.9496 3.56294 15.9047 3.47996 15.89V15.89Z" fill="white"/>
<path d="M3.37026 16.78C3.32822 16.7773 3.28606 16.7829 3.2462 16.7965C3.20633 16.8101 3.16955 16.8315 3.13797 16.8594C3.10638 16.8872 3.08059 16.9211 3.06211 16.9589C3.04363 16.9968 3.03281 17.0379 3.03027 17.08C3.02616 17.1228 3.03074 17.166 3.04373 17.2071C3.05671 17.2481 3.07784 17.2861 3.10585 17.3187C3.13385 17.3514 3.16816 17.3781 3.20672 17.3972C3.24528 17.4163 3.28731 17.4275 3.33027 17.43C3.40669 17.4165 3.47593 17.3766 3.52581 17.3171C3.5757 17.2577 3.60304 17.1826 3.60304 17.105C3.60304 17.0274 3.5757 16.9523 3.52581 16.8928C3.47593 16.8334 3.40669 16.7934 3.33027 16.78H3.37026Z" fill="white"/>
<path d="M3.31999 17.6799C3.23512 17.6799 3.15373 17.7137 3.09372 17.7737C3.03371 17.8337 3 17.9151 3 17.9999C3 18.0848 3.03371 18.1662 3.09372 18.2262C3.15373 18.2862 3.23512 18.3199 3.31999 18.3199C3.40486 18.3199 3.48625 18.2862 3.54626 18.2262C3.60628 18.1662 3.64 18.0848 3.64 17.9999C3.64 17.9151 3.60628 17.8337 3.54626 17.7737C3.48625 17.7137 3.40486 17.6799 3.31999 17.6799V17.6799Z" fill="white"/>
<path d="M3.33038 18.57C3.26436 18.5723 3.20054 18.5943 3.14718 18.6332C3.09382 18.6722 3.05339 18.7262 3.03109 18.7884C3.00879 18.8506 3.00566 18.918 3.02212 18.982C3.03857 19.046 3.07386 19.1035 3.12339 19.1472C3.17292 19.1909 3.23443 19.2188 3.29995 19.2271C3.36547 19.2355 3.432 19.224 3.49091 19.1941C3.54983 19.1643 3.59843 19.1174 3.63043 19.0596C3.66242 19.0018 3.67634 18.9358 3.67037 18.87C3.66783 18.8279 3.65701 18.7868 3.63853 18.749C3.62005 18.7111 3.59427 18.6772 3.56268 18.6494C3.53109 18.6215 3.49431 18.6001 3.45445 18.5865C3.41458 18.5729 3.37242 18.5673 3.33038 18.57Z" fill="white"/>
<path d="M3.39021 19.46C3.30535 19.4747 3.22926 19.5211 3.17728 19.5898C3.12531 19.6585 3.10134 19.7443 3.11021 19.83C3.12495 19.9148 3.17134 19.9909 3.24001 20.0429C3.30869 20.0949 3.39453 20.1189 3.4802 20.11C3.55917 20.0902 3.62806 20.042 3.67362 19.9746C3.71919 19.9071 3.73822 19.8252 3.72706 19.7446C3.71589 19.6639 3.67533 19.5903 3.61315 19.5377C3.55097 19.4852 3.47157 19.4575 3.39021 19.46V19.46Z" fill="white"/>
<path d="M3.51035 20.35C3.46888 20.3583 3.42948 20.3748 3.39442 20.3984C3.35935 20.4221 3.32933 20.4525 3.30608 20.4878C3.28283 20.5232 3.26683 20.5627 3.25898 20.6043C3.25113 20.6459 3.25159 20.6886 3.26035 20.73C3.27733 20.8143 3.32654 20.8886 3.39751 20.9372C3.46849 20.9857 3.55563 21.0047 3.64036 20.99C3.72282 20.9708 3.79475 20.9206 3.84128 20.8499C3.88782 20.7792 3.90539 20.6933 3.89036 20.61C3.87338 20.5257 3.82417 20.4513 3.7532 20.4027C3.68222 20.3542 3.59508 20.3352 3.51035 20.35V20.35Z" fill="white"/>
<path d="M3.6904 21.23C3.64968 21.2405 3.61142 21.2589 3.57782 21.2842C3.54422 21.3095 3.51593 21.3412 3.49457 21.3774C3.47321 21.4136 3.45919 21.4537 3.45332 21.4953C3.44746 21.537 3.44986 21.5793 3.46039 21.62C3.47089 21.6607 3.48932 21.699 3.5146 21.7326C3.53989 21.7662 3.57154 21.7945 3.60776 21.8158C3.64397 21.8372 3.68404 21.8512 3.72568 21.8571C3.76731 21.8629 3.80968 21.8606 3.85039 21.8501C3.8911 21.8395 3.92934 21.8211 3.96293 21.7958C3.99653 21.7706 4.0248 21.7389 4.04616 21.7027C4.06751 21.6665 4.08154 21.6264 4.08742 21.5848C4.09329 21.5431 4.0909 21.5008 4.0804 21.4601C4.06991 21.4193 4.05149 21.3811 4.02621 21.3475C4.00093 21.3139 3.96928 21.2856 3.93306 21.2642C3.89684 21.2429 3.85676 21.2288 3.81512 21.223C3.77348 21.2171 3.73111 21.2195 3.6904 21.23V21.23Z" fill="white"/>
<path d="M3.92013 22.1C3.85956 22.1194 3.80613 22.1564 3.76669 22.2063C3.72725 22.2562 3.70358 22.3168 3.6987 22.3802C3.69382 22.4436 3.70795 22.507 3.73929 22.5624C3.77063 22.6178 3.81775 22.6625 3.87465 22.691C3.93154 22.7194 3.99563 22.7302 4.05871 22.7221C4.1218 22.714 4.18102 22.6872 4.22883 22.6453C4.27664 22.6033 4.31087 22.548 4.32713 22.4865C4.34339 22.425 4.34095 22.3601 4.32013 22.3C4.30773 22.2601 4.2874 22.2231 4.26036 22.1913C4.23331 22.1595 4.20011 22.1334 4.16275 22.1148C4.12539 22.0961 4.08464 22.0851 4.04295 22.0826C4.00126 22.0801 3.95948 22.086 3.92013 22.1V22.1Z" fill="white"/>
<path d="M4.20016 23C4.12249 23.0312 4.06015 23.0916 4.0265 23.1682C3.99285 23.2449 3.99058 23.3317 4.02017 23.41C4.03438 23.4505 4.05687 23.4876 4.08621 23.519C4.11554 23.5504 4.15108 23.5754 4.19058 23.5923C4.23007 23.6092 4.27266 23.6178 4.31562 23.6174C4.35859 23.6169 4.401 23.6076 4.44016 23.5899C4.47946 23.5756 4.51545 23.5535 4.54595 23.5248C4.57646 23.4962 4.60087 23.4617 4.61769 23.4234C4.6345 23.3851 4.64338 23.3438 4.64381 23.3019C4.64424 23.2601 4.63619 23.2186 4.62016 23.1799C4.60594 23.1394 4.58346 23.1023 4.55412 23.0709C4.52478 23.0395 4.48922 23.0145 4.44973 22.9976C4.41024 22.9807 4.36767 22.9721 4.3247 22.9725C4.28174 22.973 4.23933 22.9823 4.20016 23V23Z" fill="white"/>
<path d="M4.54011 23.78C4.50219 23.7972 4.46812 23.8218 4.43992 23.8524C4.41172 23.883 4.38997 23.919 4.37597 23.9582C4.36197 23.9974 4.35601 24.039 4.35844 24.0806C4.36087 24.1221 4.37165 24.1627 4.39012 24.2C4.4062 24.2401 4.43048 24.2764 4.4614 24.3066C4.49233 24.3367 4.52923 24.3601 4.56971 24.3752C4.6102 24.3902 4.65339 24.3966 4.69651 24.394C4.73963 24.3914 4.78173 24.3799 4.82011 24.36C4.89557 24.3214 4.95325 24.2551 4.98118 24.175C5.00911 24.095 5.00515 24.0072 4.97012 23.93C4.95194 23.8918 4.92634 23.8575 4.89482 23.8292C4.86329 23.8009 4.82646 23.7791 4.78646 23.7652C4.74646 23.7512 4.70409 23.7453 4.6618 23.7479C4.61951 23.7504 4.57814 23.7614 4.54011 23.78Z" fill="white"/>
<path d="M4.9303 24.58C4.87546 24.6108 4.83092 24.6571 4.80225 24.7131C4.77358 24.7691 4.76205 24.8323 4.76911 24.8948C4.77616 24.9573 4.80149 25.0164 4.84192 25.0646C4.88235 25.1128 4.93609 25.148 4.99642 25.1658C5.05675 25.1836 5.12101 25.1833 5.18114 25.1648C5.24127 25.1463 5.29461 25.1105 5.33451 25.0619C5.3744 25.0132 5.39908 24.9539 5.40545 24.8913C5.41181 24.8287 5.39959 24.7657 5.3703 24.71C5.35039 24.6721 5.3231 24.6386 5.29003 24.6115C5.25696 24.5844 5.21879 24.5642 5.17777 24.5521C5.13675 24.5399 5.09372 24.5362 5.05121 24.541C5.00871 24.5458 4.96759 24.559 4.9303 24.58V24.58Z" fill="white"/>
<path d="M5.36021 25.36C5.28976 25.4087 5.24098 25.4828 5.22418 25.5668C5.20739 25.6508 5.2239 25.738 5.27022 25.81C5.31547 25.8814 5.38715 25.932 5.46959 25.9507C5.55203 25.9695 5.63853 25.9548 5.7102 25.91C5.7823 25.8629 5.83312 25.7894 5.85181 25.7054C5.87049 25.6213 5.85556 25.5332 5.81021 25.46C5.76309 25.3879 5.68964 25.3371 5.60556 25.3184C5.52148 25.2997 5.43344 25.3146 5.36021 25.36V25.36Z" fill="white"/>
<path d="M5.85029 26.12C5.78373 26.1699 5.73921 26.2437 5.72614 26.3258C5.71308 26.408 5.7325 26.4919 5.7803 26.56C5.80415 26.5955 5.83509 26.6257 5.87118 26.6487C5.90726 26.6716 5.94772 26.6869 5.98998 26.6935C6.03225 26.7 6.07541 26.6978 6.11677 26.6869C6.15813 26.676 6.19678 26.6566 6.23029 26.63C6.26551 26.6071 6.29553 26.5771 6.31841 26.5419C6.3413 26.5067 6.35654 26.467 6.36314 26.4256C6.36973 26.3841 6.36755 26.3417 6.35673 26.3011C6.3459 26.2605 6.32668 26.2227 6.3003 26.19C6.27645 26.1545 6.24551 26.1243 6.20942 26.1013C6.17333 26.0784 6.13288 26.0631 6.09061 26.0565C6.04835 26.05 6.00517 26.0522 5.96381 26.0631C5.92246 26.0741 5.8838 26.0934 5.85029 26.12Z" fill="white"/>
<path d="M6.38013 26.83C6.3225 26.8927 6.29053 26.9748 6.29053 27.06C6.29053 27.1452 6.3225 27.2273 6.38013 27.29C6.40997 27.3208 6.44572 27.3454 6.48523 27.3621C6.52474 27.3789 6.56722 27.3875 6.61014 27.3875C6.65306 27.3875 6.69553 27.3789 6.73505 27.3621C6.77456 27.3454 6.81029 27.3208 6.84013 27.29C6.89274 27.2308 6.92229 27.1546 6.92339 27.0754C6.92448 26.9962 6.89705 26.9193 6.8461 26.8586C6.79515 26.7979 6.72408 26.7576 6.64587 26.745C6.56767 26.7324 6.48755 26.7484 6.42014 26.79L6.38013 26.83Z" fill="white"/>
<path d="M6.96002 27.52C6.92946 27.549 6.90512 27.5839 6.88849 27.6226C6.87185 27.6612 6.86328 27.7029 6.86328 27.745C6.86328 27.7871 6.87185 27.8288 6.88849 27.8675C6.90512 27.9062 6.92946 27.9411 6.96002 27.97C6.98986 28.0009 7.02561 28.0254 7.06512 28.0421C7.10464 28.0589 7.14712 28.0675 7.19003 28.0675C7.23295 28.0675 7.27543 28.0589 7.31494 28.0421C7.35445 28.0254 7.39019 28.0009 7.42003 27.97C7.45977 27.9431 7.49316 27.9078 7.51787 27.8666C7.54257 27.8255 7.55801 27.7794 7.56308 27.7317C7.56815 27.6839 7.56273 27.6357 7.54723 27.5902C7.53172 27.5448 7.50648 27.5033 7.47328 27.4686C7.44008 27.4339 7.39972 27.4069 7.355 27.3894C7.31028 27.372 7.26227 27.3645 7.21436 27.3675C7.16644 27.3705 7.11976 27.3839 7.07756 27.4068C7.03536 27.4296 6.99866 27.4615 6.97003 27.5L6.96002 27.52Z" fill="white"/>
<path d="M7.58007 28.17C7.55118 28.2009 7.52865 28.2371 7.51377 28.2767C7.49889 28.3163 7.49195 28.3584 7.49334 28.4006C7.49473 28.4429 7.50443 28.4844 7.52189 28.5229C7.53934 28.5614 7.56421 28.5961 7.59507 28.625C7.62593 28.6539 7.66218 28.6764 7.70174 28.6913C7.74131 28.7062 7.78342 28.7131 7.82568 28.7118C7.86793 28.7104 7.90949 28.7007 7.94799 28.6832C7.98649 28.6657 8.02118 28.6409 8.05007 28.61C8.1077 28.5473 8.13967 28.4652 8.13967 28.38C8.13967 28.2948 8.1077 28.2128 8.05007 28.15C8.01806 28.1201 7.98042 28.097 7.93935 28.0818C7.89829 28.0666 7.85462 28.0597 7.81087 28.0616C7.76713 28.0634 7.7242 28.074 7.68458 28.0926C7.64495 28.1112 7.60942 28.1375 7.58007 28.17Z" fill="white"/>
<path d="M8.20027 28.78C8.16971 28.809 8.14537 28.8439 8.12874 28.8826C8.1121 28.9212 8.10352 28.9629 8.10352 29.005C8.10352 29.0471 8.1121 29.0888 8.12874 29.1275C8.14537 29.1662 8.16971 29.201 8.20027 29.23C8.26187 29.2899 8.34437 29.3234 8.43027 29.3234C8.51616 29.3234 8.59868 29.2899 8.66028 29.23C8.71951 29.1701 8.75273 29.0893 8.75273 29.005C8.75273 28.9208 8.71951 28.8399 8.66028 28.78C8.63121 28.7479 8.59572 28.7221 8.55611 28.7045C8.51649 28.6869 8.47362 28.6779 8.43027 28.6779C8.38692 28.6779 8.34406 28.6869 8.30444 28.7045C8.26483 28.7221 8.22934 28.7479 8.20027 28.78V28.78Z" fill="white"/>
<path d="M8.93007 29.34C8.88169 29.4097 8.86198 29.4952 8.87502 29.579C8.88805 29.6628 8.93283 29.7384 9.00008 29.79C9.07129 29.839 9.15848 29.859 9.24393 29.846C9.32938 29.833 9.40666 29.788 9.46007 29.72C9.48478 29.6854 9.50234 29.6461 9.51171 29.6046C9.52107 29.5631 9.52204 29.5201 9.51459 29.4782C9.50714 29.4363 9.49141 29.3963 9.46831 29.3606C9.44521 29.3248 9.41521 29.294 9.38007 29.27C9.34656 29.2434 9.30792 29.2241 9.26656 29.2132C9.2252 29.2022 9.18203 29.2 9.13976 29.2066C9.09749 29.2131 9.05704 29.2284 9.02095 29.2514C8.98487 29.2743 8.95392 29.3045 8.93007 29.34V29.34Z" fill="white"/>
<path d="M9.66004 29.86C9.61521 29.9317 9.60055 30.0182 9.61929 30.1007C9.63802 30.1831 9.68862 30.2548 9.76003 30.3C9.7959 30.3238 9.8362 30.3401 9.87852 30.348C9.92083 30.3558 9.96428 30.3551 10.0063 30.3457C10.0483 30.3364 10.088 30.3187 10.123 30.2936C10.158 30.2686 10.1876 30.2368 10.21 30.2C10.2549 30.1284 10.2695 30.0419 10.2508 29.9594C10.232 29.877 10.1815 29.8053 10.11 29.76C10.0368 29.7147 9.94876 29.6997 9.86468 29.7184C9.7806 29.7371 9.70716 29.7879 9.66004 29.86V29.86Z" fill="white"/>
<path d="M10.4204 30.33C10.3995 30.3673 10.3862 30.4084 10.3814 30.4509C10.3766 30.4934 10.3804 30.5365 10.3925 30.5775C10.4046 30.6185 10.4248 30.6567 10.452 30.6898C10.4791 30.7228 10.5126 30.7501 10.5504 30.77C10.5877 30.791 10.6288 30.8043 10.6713 30.8091C10.7138 30.8139 10.7569 30.8101 10.7979 30.798C10.8389 30.7858 10.8771 30.7656 10.9101 30.7385C10.9432 30.7114 10.9705 30.6779 10.9904 30.64C11.0296 30.5657 11.0379 30.4789 11.0136 30.3984C10.9892 30.3179 10.9342 30.2503 10.8604 30.21C10.8237 30.1887 10.7832 30.1749 10.7411 30.1693C10.699 30.1638 10.6562 30.1667 10.6153 30.1779C10.5744 30.1891 10.536 30.2083 10.5026 30.2344C10.4691 30.2605 10.4412 30.293 10.4204 30.33Z" fill="white"/>
<path d="M11.2002 30.76C11.1815 30.798 11.1706 30.8394 11.1681 30.8817C11.1655 30.924 11.1714 30.9663 11.1853 31.0063C11.1993 31.0463 11.221 31.0832 11.2493 31.1147C11.2776 31.1462 11.3119 31.1718 11.3502 31.19C11.4303 31.2224 11.5197 31.2239 11.6009 31.1944C11.6821 31.1649 11.7496 31.1063 11.7902 31.03C11.8245 30.9516 11.827 30.8629 11.7972 30.7826C11.7673 30.7024 11.7074 30.6369 11.6302 30.6C11.5915 30.5817 11.5496 30.5713 11.5069 30.5694C11.4642 30.5675 11.4215 30.5743 11.3814 30.5892C11.3413 30.6041 11.3046 30.6269 11.2735 30.6562C11.2424 30.6856 11.2175 30.7209 11.2002 30.76V30.76Z" fill="white"/>
<path d="M12.0202 31.13C11.9902 31.2097 11.9922 31.2979 12.0257 31.3762C12.0592 31.4544 12.1218 31.5167 12.2002 31.55C12.2813 31.5804 12.3709 31.5787 12.4509 31.5453C12.5308 31.5118 12.5949 31.4491 12.6301 31.37C12.6596 31.289 12.6561 31.1998 12.6206 31.1213C12.5851 31.0428 12.5204 30.9813 12.4402 30.95C12.4008 30.9338 12.3586 30.9256 12.3161 30.9259C12.2735 30.9262 12.2315 30.935 12.1924 30.9518C12.1532 30.9685 12.1179 30.9929 12.0883 31.0235C12.0587 31.0541 12.0356 31.0903 12.0202 31.13Z" fill="white"/>
<path d="M12.8601 31.45C12.8461 31.4906 12.8405 31.5337 12.8436 31.5766C12.8467 31.6195 12.8584 31.6613 12.878 31.6996C12.8976 31.7379 12.9247 31.7718 12.9577 31.7993C12.9907 31.8269 13.0289 31.8475 13.07 31.86C13.1509 31.8865 13.2391 31.8798 13.315 31.8414C13.391 31.8029 13.4485 31.7359 13.475 31.655C13.5016 31.5741 13.4949 31.486 13.4564 31.41C13.418 31.3341 13.351 31.2765 13.2701 31.25C13.23 31.2358 13.1876 31.2298 13.1452 31.2322C13.1028 31.2346 13.0613 31.2455 13.0232 31.2641C12.985 31.2827 12.9509 31.3087 12.9229 31.3406C12.8949 31.3726 12.8736 31.4097 12.8601 31.45V31.45Z" fill="white"/>
<path d="M13.7102 31.7199C13.6905 31.7639 13.6805 31.8116 13.6812 31.8598C13.6818 31.908 13.693 31.9554 13.7139 31.9988C13.7349 32.0422 13.7651 32.0805 13.8024 32.111C13.8397 32.1414 13.8832 32.1634 13.9299 32.1752C13.9766 32.1871 14.0253 32.1886 14.0727 32.1796C14.12 32.1706 14.1648 32.1514 14.2039 32.1232C14.243 32.0951 14.2755 32.0587 14.299 32.0167C14.3226 31.9747 14.3367 31.928 14.3402 31.8799C14.3508 31.8392 14.3532 31.7968 14.3473 31.7552C14.3414 31.7136 14.3274 31.6735 14.3061 31.6373C14.2847 31.601 14.2564 31.5694 14.2228 31.5441C14.1892 31.5188 14.1509 31.5004 14.1102 31.4899C14.0267 31.4684 13.9381 31.4804 13.8633 31.5234C13.7886 31.5664 13.7336 31.6369 13.7102 31.7199V31.7199Z" fill="white"/>
<path d="M14.5802 31.94C14.5716 31.9815 14.5716 32.0243 14.5802 32.0658C14.5887 32.1073 14.6057 32.1466 14.6301 32.1813C14.6544 32.216 14.6857 32.2453 14.7218 32.2674C14.758 32.2895 14.7983 32.304 14.8402 32.31C14.9235 32.325 15.0094 32.3074 15.0802 32.2609C15.1509 32.2144 15.201 32.1424 15.2202 32.06C15.2219 31.9818 15.1957 31.9056 15.1465 31.8449C15.0972 31.7842 15.0279 31.743 14.9511 31.7286C14.8742 31.7141 14.7948 31.7275 14.7268 31.7662C14.6589 31.8049 14.607 31.8665 14.5802 31.94Z" fill="white"/>
<path d="M15.4602 32.1001C15.4516 32.1846 15.4758 32.2691 15.528 32.3362C15.5801 32.4033 15.6562 32.4476 15.7402 32.4601C15.7823 32.4656 15.825 32.4628 15.866 32.4517C15.907 32.4406 15.9453 32.4215 15.9788 32.3954C16.0123 32.3694 16.0403 32.3369 16.0612 32.2999C16.082 32.2629 16.0953 32.2222 16.1002 32.18C16.1073 32.1378 16.1055 32.0945 16.095 32.0529C16.0845 32.0114 16.0654 31.9725 16.0391 31.9386C16.0128 31.9048 15.9798 31.8768 15.9421 31.8564C15.9044 31.836 15.8629 31.8236 15.8202 31.8201C15.7781 31.8145 15.7354 31.8173 15.6944 31.8284C15.6534 31.8395 15.6151 31.8586 15.5816 31.8847C15.5481 31.9107 15.5201 31.9432 15.4992 31.9802C15.4784 32.0171 15.4651 32.0579 15.4602 32.1001V32.1001Z" fill="white"/>
<path d="M16.3503 32.2C16.3637 32.2764 16.4037 32.3456 16.4631 32.3955C16.5226 32.4454 16.5977 32.4728 16.6753 32.4728C16.7529 32.4728 16.828 32.4454 16.8874 32.3955C16.9469 32.3456 16.9868 32.2764 17.0003 32.2C17.0032 32.1157 16.9737 32.0335 16.9179 31.9703C16.8621 31.9071 16.7843 31.8676 16.7003 31.86C16.6544 31.8572 16.6085 31.864 16.5654 31.8799C16.5224 31.8959 16.4831 31.9207 16.4502 31.9527C16.4172 31.9847 16.3913 32.0232 16.3741 32.0658C16.3569 32.1084 16.3488 32.1541 16.3503 32.2V32.2Z" fill="white"/>
<path d="M17.2002 32.2501C17.2002 32.2929 17.2088 32.3354 17.2255 32.3749C17.2422 32.4144 17.2666 32.4501 17.2974 32.4799C17.3282 32.5098 17.3647 32.5331 17.4047 32.5486C17.4446 32.5641 17.4873 32.5714 17.5302 32.5701C17.5726 32.5715 17.6148 32.5641 17.6543 32.5485C17.6937 32.5329 17.7296 32.5094 17.7596 32.4794C17.7895 32.4494 17.8131 32.4136 17.8287 32.3741C17.8443 32.3347 17.8516 32.2925 17.8502 32.2501C17.8367 32.1736 17.7968 32.1044 17.7373 32.0545C17.6779 32.0046 17.6028 31.9773 17.5252 31.9773C17.4476 31.9773 17.3725 32.0046 17.313 32.0545C17.2536 32.1044 17.2137 32.1736 17.2002 32.2501V32.2501Z" fill="white"/>
<path d="M18.1401 32.24C18.1536 32.3164 18.1936 32.3856 18.253 32.4355C18.3124 32.4854 18.3876 32.5127 18.4651 32.5127C18.5427 32.5127 18.6178 32.4854 18.6773 32.4355C18.7367 32.3856 18.7767 32.3164 18.7901 32.24C18.7803 32.1569 18.7402 32.0803 18.6775 32.025C18.6147 31.9696 18.5338 31.9394 18.4501 31.9399C18.3704 31.9423 18.2943 31.9744 18.237 32.0299C18.1796 32.0854 18.1451 32.1603 18.1401 32.24Z" fill="white"/>
<path d="M19.0304 32.18C19.0353 32.2222 19.0486 32.2629 19.0695 32.2999C19.0903 32.3369 19.1183 32.3693 19.1518 32.3954C19.1853 32.4215 19.2236 32.4406 19.2646 32.4517C19.3055 32.4628 19.3483 32.4656 19.3904 32.46C19.4324 32.4554 19.4731 32.4426 19.5102 32.4223C19.5473 32.4019 19.58 32.3745 19.6064 32.3415C19.6329 32.3086 19.6526 32.2707 19.6645 32.2301C19.6763 32.1896 19.68 32.147 19.6754 32.105C19.6708 32.063 19.658 32.0223 19.6377 31.9852C19.6173 31.9482 19.5899 31.9155 19.5569 31.889C19.524 31.8625 19.4861 31.8428 19.4455 31.831C19.4049 31.8191 19.3624 31.8154 19.3204 31.82C19.2345 31.8301 19.1561 31.8734 19.1018 31.9408C19.0476 32.0081 19.0219 32.094 19.0304 32.18Z" fill="white"/>
<path d="M19.92 32.06C19.921 32.1079 19.9325 32.1549 19.9535 32.198C19.9746 32.241 20.0047 32.2789 20.0419 32.3091C20.0791 32.3393 20.1224 32.361 20.1688 32.3728C20.2152 32.3845 20.2637 32.3861 20.3107 32.3772C20.3578 32.3684 20.4024 32.3495 20.4414 32.3217C20.4804 32.2939 20.5129 32.2579 20.5366 32.2163C20.5603 32.1747 20.5747 32.1284 20.5788 32.0807C20.5828 32.033 20.5764 31.985 20.56 31.94C20.5332 31.8665 20.4813 31.8049 20.4133 31.7662C20.3454 31.7275 20.2659 31.7141 20.1891 31.7286C20.1123 31.743 20.043 31.7842 19.9937 31.8449C19.9444 31.9056 19.9183 31.9818 19.92 32.06V32.06Z" fill="white"/>
<path d="M20.8002 31.88C20.8096 31.9217 20.8272 31.961 20.852 31.9957C20.8768 32.0304 20.9083 32.0598 20.9447 32.0822C20.981 32.1045 21.0215 32.1194 21.0636 32.1259C21.1058 32.1324 21.1488 32.1304 21.1902 32.12C21.232 32.1096 21.2713 32.0909 21.3057 32.065C21.3401 32.039 21.3689 32.0064 21.3904 31.969C21.4119 31.9317 21.4256 31.8904 21.4307 31.8476C21.4359 31.8048 21.4323 31.7614 21.4202 31.72C21.4097 31.6793 21.3913 31.6411 21.3661 31.6075C21.3408 31.5739 21.3091 31.5456 21.2729 31.5242C21.2367 31.5029 21.1966 31.4888 21.155 31.483C21.1133 31.4771 21.0709 31.4795 21.0302 31.49C20.9895 31.5005 20.9513 31.5189 20.9177 31.5442C20.8841 31.5695 20.8558 31.6012 20.8344 31.6374C20.8131 31.6736 20.799 31.7137 20.7932 31.7553C20.7873 31.7969 20.7897 31.8393 20.8002 31.88Z" fill="white"/>
<path d="M21.6602 31.65C21.6727 31.6912 21.6933 31.7294 21.7208 31.7624C21.7484 31.7954 21.7823 31.8225 21.8206 31.8421C21.8589 31.8617 21.9007 31.8734 21.9436 31.8765C21.9865 31.8796 22.0295 31.874 22.0702 31.86C22.1296 31.8397 22.1817 31.8023 22.2201 31.7525C22.2584 31.7028 22.2812 31.6428 22.2857 31.5802C22.2902 31.5176 22.2761 31.455 22.2453 31.4003C22.2145 31.3456 22.1682 31.3011 22.1124 31.2725C22.0565 31.2439 21.9934 31.2323 21.931 31.2393C21.8686 31.2462 21.8096 31.2714 21.7614 31.3117C21.7132 31.3519 21.6779 31.4055 21.6599 31.4656C21.6419 31.5258 21.642 31.5899 21.6602 31.65Z" fill="white"/>
<path d="M22.5101 31.37C22.5255 31.4096 22.5486 31.4458 22.5782 31.4764C22.6078 31.507 22.6432 31.5314 22.6823 31.5482C22.7214 31.5649 22.7634 31.5737 22.806 31.574C22.8485 31.5743 22.8907 31.5662 22.9301 31.55C22.9706 31.5358 23.0077 31.5133 23.0391 31.4839C23.0705 31.4546 23.0955 31.419 23.1124 31.3796C23.1293 31.3401 23.1379 31.2975 23.1375 31.2545C23.1371 31.2116 23.1277 31.1691 23.1101 31.13C23.0788 31.0523 23.0184 30.99 22.9418 30.9563C22.8651 30.9227 22.7784 30.9204 22.7001 30.95C22.6198 30.9813 22.5551 31.0428 22.5196 31.1213C22.4841 31.1998 22.4807 31.289 22.5101 31.37V31.37Z" fill="white"/>
<path d="M23.34 31C23.3573 31.0391 23.3822 31.0744 23.4133 31.1037C23.4444 31.1331 23.4811 31.1558 23.5212 31.1708C23.5613 31.1857 23.6039 31.1924 23.6467 31.1906C23.6894 31.1887 23.7313 31.1783 23.77 31.16C23.8472 31.123 23.9071 31.0575 23.9369 30.9773C23.9668 30.8971 23.9643 30.8084 23.93 30.73C23.9123 30.6912 23.8871 30.6563 23.8559 30.6273C23.8247 30.5983 23.788 30.5758 23.7481 30.5609C23.7082 30.546 23.6657 30.5392 23.6231 30.5407C23.5806 30.5423 23.5387 30.5522 23.5 30.57C23.4612 30.5877 23.4264 30.6129 23.3974 30.6441C23.3684 30.6753 23.3458 30.7119 23.3309 30.7518C23.3161 30.7917 23.3092 30.8342 23.3108 30.8768C23.3123 30.9194 23.3223 30.9612 23.34 31Z" fill="white"/>
<path d="M24.2004 30.65C24.2442 30.7228 24.3144 30.7759 24.3964 30.7982C24.4783 30.8206 24.5658 30.8105 24.6404 30.77C24.715 30.7278 24.7701 30.6584 24.7944 30.5763C24.8187 30.4942 24.8101 30.4059 24.7704 30.33C24.7223 30.2666 24.6528 30.2228 24.5748 30.2066C24.4968 30.1904 24.4156 30.203 24.3462 30.2419C24.2768 30.2809 24.2237 30.3437 24.197 30.4187C24.1702 30.4937 24.1714 30.5758 24.2004 30.65V30.65Z" fill="white"/>
<path d="M24.9303 30.21C24.9649 30.2657 25.0152 30.3099 25.075 30.3369C25.1348 30.3639 25.2013 30.3725 25.266 30.3615C25.3307 30.3506 25.3906 30.3206 25.4382 30.2754C25.4857 30.2302 25.5187 30.1718 25.533 30.1078C25.5472 30.0437 25.542 29.9769 25.5181 29.9158C25.4942 29.8547 25.4526 29.8021 25.3986 29.7648C25.3447 29.7275 25.2808 29.7071 25.2152 29.7062C25.1496 29.7053 25.0852 29.7241 25.0303 29.7599C24.9582 29.8071 24.9074 29.8805 24.8887 29.9646C24.87 30.0487 24.885 30.1367 24.9303 30.21V30.21Z" fill="white"/>
<path d="M25.6801 29.72C25.7305 29.789 25.8062 29.8351 25.8906 29.8482C25.975 29.8614 26.0612 29.8404 26.1301 29.79C26.1991 29.7396 26.2452 29.6639 26.2583 29.5795C26.2715 29.4951 26.2505 29.409 26.2001 29.34C26.1503 29.2735 26.0765 29.229 25.9943 29.2159C25.9122 29.2028 25.8282 29.2222 25.7601 29.27C25.6913 29.3202 25.6445 29.3951 25.6296 29.479C25.6147 29.5628 25.6328 29.6492 25.6801 29.72Z" fill="white"/>
<path d="M26.4001 29.1901C26.4617 29.2499 26.5442 29.2834 26.6301 29.2834C26.7159 29.2834 26.7985 29.2499 26.8601 29.1901C26.9193 29.1302 26.9525 29.0493 26.9525 28.9651C26.9525 28.8808 26.9193 28.8 26.8601 28.7401C26.8311 28.7095 26.7962 28.6852 26.7575 28.6685C26.7188 28.6519 26.6772 28.6433 26.6351 28.6433C26.5929 28.6433 26.5513 28.6519 26.5126 28.6685C26.4739 28.6852 26.439 28.7095 26.4101 28.7401C26.3495 28.7986 26.3145 28.8788 26.3126 28.963C26.3107 29.0473 26.3421 29.1289 26.4001 29.1901V29.1901Z" fill="white"/>
<path d="M27.0903 28.61C27.1184 28.6419 27.153 28.6675 27.1918 28.685C27.2306 28.7025 27.2727 28.7116 27.3152 28.7116C27.3578 28.7116 27.3999 28.7025 27.4387 28.685C27.4775 28.6675 27.5121 28.6419 27.5402 28.61C27.5995 28.5501 27.6327 28.4692 27.6327 28.385C27.6327 28.3007 27.5995 28.2199 27.5402 28.16C27.4786 28.1001 27.3961 28.0667 27.3102 28.0667C27.2243 28.0667 27.1418 28.1001 27.0802 28.16C27.0223 28.2212 26.9909 28.3028 26.9928 28.3871C26.9946 28.4713 27.0297 28.5514 27.0903 28.61V28.61Z" fill="white"/>
<path d="M27.7402 28C27.7692 28.0306 27.8041 28.0549 27.8428 28.0716C27.8815 28.0882 27.9231 28.0968 27.9653 28.0968C28.0074 28.0968 28.049 28.0882 28.0877 28.0716C28.1264 28.0549 28.1613 28.0306 28.1902 28C28.2191 27.9692 28.2417 27.9329 28.2565 27.8934C28.2714 27.8538 28.2784 27.8117 28.277 27.7694C28.2756 27.7272 28.2659 27.6856 28.2484 27.6471C28.231 27.6086 28.2061 27.5739 28.1752 27.545C28.1444 27.5161 28.1081 27.4936 28.0686 27.4787C28.029 27.4639 27.9869 27.4569 27.9446 27.4583C27.9024 27.4597 27.8608 27.4694 27.8223 27.4869C27.7838 27.5043 27.7491 27.5292 27.7202 27.56C27.6925 27.5901 27.671 27.6255 27.6569 27.6639C27.6429 27.7024 27.6366 27.7433 27.6385 27.7842C27.6404 27.8251 27.6503 27.8653 27.6678 27.9023C27.6852 27.9394 27.7099 27.9726 27.7402 28Z" fill="white"/>
<path d="M28.3402 27.34C28.4081 27.3937 28.4944 27.4185 28.5804 27.4092C28.6664 27.3998 28.7454 27.357 28.8002 27.29C28.8546 27.2237 28.8803 27.1385 28.8719 27.0532C28.8635 26.9679 28.8215 26.8894 28.7552 26.835C28.6889 26.7807 28.6037 26.7548 28.5184 26.7633C28.433 26.7717 28.3546 26.8137 28.3002 26.88C28.2454 26.9467 28.2189 27.0322 28.2263 27.1182C28.2338 27.2042 28.2747 27.2838 28.3402 27.34Z" fill="white"/>
<path d="M28.9102 26.64C28.9442 26.6652 28.9829 26.6834 29.0241 26.6935C29.0652 26.7036 29.1079 26.7055 29.1498 26.699C29.1917 26.6925 29.2318 26.6777 29.2679 26.6556C29.304 26.6334 29.3354 26.6043 29.3602 26.57C29.3849 26.5353 29.4024 26.4961 29.4118 26.4545C29.4212 26.413 29.4221 26.3701 29.4147 26.3282C29.4072 26.2863 29.3915 26.2462 29.3684 26.2105C29.3453 26.1748 29.3153 26.144 29.2802 26.12C29.2469 26.095 29.209 26.077 29.1687 26.067C29.1283 26.057 29.0864 26.0552 29.0453 26.0617C29.0043 26.0682 28.965 26.083 28.9297 26.105C28.8945 26.127 28.864 26.1559 28.8402 26.19C28.815 26.224 28.7968 26.2627 28.7866 26.3039C28.7765 26.345 28.7746 26.3877 28.7811 26.4296C28.7877 26.4714 28.8024 26.5116 28.8246 26.5477C28.8467 26.5838 28.8758 26.6152 28.9102 26.64V26.64Z" fill="white"/>
<path d="M29.43 25.9101C29.465 25.9336 29.5046 25.9498 29.5461 25.9575C29.5877 25.9652 29.6303 25.9644 29.6715 25.955C29.7127 25.9457 29.7516 25.928 29.7857 25.903C29.8199 25.8781 29.8485 25.8465 29.87 25.8101C29.8935 25.775 29.9096 25.7355 29.9174 25.6939C29.9251 25.6524 29.9243 25.6097 29.9149 25.5685C29.9055 25.5273 29.8879 25.4884 29.8629 25.4543C29.838 25.4202 29.8064 25.3915 29.77 25.3701C29.7349 25.3465 29.6953 25.3304 29.6538 25.3226C29.6123 25.3149 29.5696 25.3157 29.5283 25.3251C29.4871 25.3345 29.4483 25.3521 29.4142 25.3771C29.3801 25.402 29.3514 25.4337 29.33 25.4701C29.2851 25.5417 29.2705 25.6283 29.2892 25.7107C29.3079 25.7931 29.3585 25.8648 29.43 25.9101Z" fill="white"/>
<path d="M29.9003 25.15C29.9376 25.171 29.9787 25.1843 30.0212 25.1891C30.0637 25.1939 30.1067 25.1901 30.1478 25.178C30.1888 25.1659 30.227 25.1456 30.26 25.1185C30.2931 25.0914 30.3204 25.0579 30.3403 25.02C30.3613 24.9828 30.3745 24.9416 30.3793 24.8991C30.3841 24.8566 30.3804 24.8136 30.3682 24.7726C30.3561 24.7316 30.3359 24.6934 30.3088 24.6603C30.2816 24.6272 30.2482 24.5999 30.2103 24.58C30.1359 24.5409 30.0491 24.5326 29.9686 24.5569C29.8882 24.5812 29.8205 24.6362 29.7803 24.71C29.7575 24.7463 29.7425 24.787 29.7363 24.8294C29.73 24.8718 29.7325 24.915 29.7438 24.9564C29.7551 24.9977 29.7748 25.0362 29.8018 25.0696C29.8287 25.1029 29.8623 25.1303 29.9003 25.15V25.15Z" fill="white"/>
<path d="M30.3301 24.36C30.3674 24.3785 30.408 24.3893 30.4496 24.3917C30.4911 24.3941 30.5327 24.3882 30.5719 24.3742C30.6111 24.3602 30.6471 24.3384 30.6777 24.3102C30.7083 24.282 30.7329 24.248 30.7501 24.21C30.7702 24.1723 30.7823 24.1308 30.7856 24.0881C30.7889 24.0455 30.7833 24.0026 30.7692 23.9622C30.7551 23.9218 30.7328 23.8848 30.7037 23.8535C30.6746 23.8221 30.6393 23.7971 30.6001 23.78C30.5614 23.7617 30.5195 23.7513 30.4768 23.7494C30.4341 23.7476 30.3914 23.7543 30.3513 23.7692C30.3112 23.7841 30.2745 23.8069 30.2434 23.8363C30.2123 23.8656 30.1874 23.9009 30.1701 23.94C30.1519 23.978 30.1417 24.0192 30.1399 24.0612C30.1382 24.1032 30.145 24.1451 30.16 24.1844C30.1749 24.2237 30.1977 24.2595 30.227 24.2897C30.2562 24.3199 30.2913 24.3438 30.3301 24.36Z" fill="white"/>
<path d="M30.7001 23.55C30.7589 23.5729 30.8231 23.5778 30.8846 23.5643C30.9462 23.5508 31.0024 23.5195 31.0462 23.4741C31.09 23.4288 31.1194 23.3716 31.1308 23.3096C31.1422 23.2476 31.135 23.1836 31.1102 23.1257C31.0854 23.0678 31.044 23.0185 30.9913 22.984C30.9385 22.9495 30.8768 22.9313 30.8137 22.9318C30.7507 22.9322 30.6892 22.9513 30.637 22.9866C30.5848 23.0218 30.5441 23.0717 30.5202 23.13C30.504 23.1694 30.4958 23.2116 30.4961 23.2541C30.4964 23.2966 30.5052 23.3387 30.522 23.3778C30.5387 23.4169 30.5631 23.4523 30.5937 23.4819C30.6243 23.5114 30.6605 23.5346 30.7001 23.55V23.55Z" fill="white"/>
<path d="M31.0203 22.71C31.0603 22.7241 31.1028 22.7301 31.1451 22.7277C31.1875 22.7253 31.229 22.7144 31.2672 22.6958C31.3053 22.6772 31.3394 22.6512 31.3674 22.6193C31.3954 22.5874 31.4168 22.5502 31.4303 22.51C31.4442 22.4693 31.4498 22.4262 31.4468 22.3833C31.4437 22.3404 31.432 22.2986 31.4124 22.2603C31.3928 22.2221 31.3657 22.1882 31.3327 22.1606C31.2997 22.133 31.2614 22.1124 31.2203 22.1C31.1394 22.0734 31.0513 22.0801 30.9753 22.1186C30.8994 22.157 30.8418 22.2241 30.8153 22.3049C30.7888 22.3858 30.7955 22.474 30.8339 22.5499C30.8724 22.6259 30.9394 22.6834 31.0203 22.71V22.71Z" fill="white"/>
<path d="M31.29 21.86C31.3307 21.872 31.3735 21.8755 31.4156 21.8702C31.4577 21.865 31.4983 21.8512 31.5349 21.8296C31.5715 21.8081 31.6032 21.7792 31.6282 21.7449C31.6531 21.7105 31.6708 21.6715 31.68 21.63C31.6921 21.5887 31.6956 21.5453 31.6905 21.5025C31.6854 21.4597 31.6716 21.4184 31.6502 21.3811C31.6287 21.3437 31.5999 21.3111 31.5655 21.2851C31.5311 21.2592 31.4918 21.2404 31.45 21.23C31.3666 21.2118 31.2793 21.2266 31.2066 21.2714C31.1339 21.3161 31.0813 21.3873 31.06 21.47C31.0495 21.5107 31.0471 21.5531 31.0529 21.5948C31.0588 21.6364 31.0728 21.6765 31.0942 21.7127C31.1155 21.7489 31.1438 21.7806 31.1774 21.8058C31.211 21.8311 31.2493 21.8495 31.29 21.86V21.86Z" fill="white"/>
<path d="M31.5102 21C31.5517 21.0087 31.5945 21.0087 31.636 21.0001C31.6775 20.9915 31.7168 20.9745 31.7515 20.9502C31.7861 20.9258 31.8155 20.8946 31.8376 20.8584C31.8597 20.8223 31.8742 20.782 31.8802 20.7401C31.8904 20.6992 31.8919 20.6566 31.8846 20.6151C31.8773 20.5737 31.8613 20.5342 31.8377 20.4993C31.8141 20.4644 31.7835 20.4348 31.7477 20.4126C31.712 20.3903 31.6719 20.3758 31.6302 20.37C31.5888 20.3622 31.5463 20.3625 31.5051 20.3711C31.4638 20.3796 31.4247 20.3962 31.3899 20.4199C31.355 20.4436 31.3252 20.4739 31.3021 20.5091C31.279 20.5443 31.263 20.5837 31.2552 20.625C31.2473 20.6664 31.2477 20.7089 31.2562 20.7502C31.2648 20.7914 31.2813 20.8305 31.305 20.8654C31.3287 20.9002 31.359 20.93 31.3942 20.9531C31.4294 20.9762 31.4688 20.9922 31.5102 21V21Z" fill="white"/>
<path d="M31.6704 20.11C31.733 20.1173 31.7964 20.106 31.8527 20.0774C31.9089 20.0488 31.9554 20.0042 31.9864 19.9493C32.0173 19.8943 32.0314 19.8314 32.0267 19.7685C32.022 19.7056 31.9989 19.6455 31.9602 19.5957C31.9215 19.5459 31.8689 19.5087 31.8091 19.4887C31.7492 19.4687 31.6848 19.4668 31.624 19.4833C31.5631 19.4998 31.5084 19.5339 31.4669 19.5813C31.4253 19.6288 31.3987 19.6875 31.3904 19.75C31.3817 19.8345 31.406 19.9191 31.4582 19.9862C31.5103 20.0532 31.5863 20.0976 31.6704 20.11V20.11Z" fill="white"/>
<path d="M31.7702 19.22C31.8123 19.2227 31.8544 19.2171 31.8943 19.2034C31.9342 19.1898 31.9709 19.1684 32.0025 19.1406C32.0341 19.1127 32.0599 19.0789 32.0784 19.041C32.0969 19.0031 32.1077 18.962 32.1102 18.92C32.1144 18.8776 32.1097 18.8349 32.0966 18.7944C32.0836 18.754 32.0623 18.7166 32.0341 18.6847C32.006 18.6528 31.9716 18.6271 31.9331 18.6091C31.8946 18.591 31.8527 18.5811 31.8102 18.58C31.7682 18.58 31.7266 18.5882 31.6878 18.6043C31.649 18.6204 31.6137 18.644 31.584 18.6737C31.5542 18.7034 31.5307 18.7387 31.5146 18.7775C31.4985 18.8163 31.4902 18.8579 31.4902 18.8999C31.4902 18.942 31.4985 18.9836 31.5146 19.0224C31.5307 19.0612 31.5542 19.0965 31.584 19.1262C31.6137 19.156 31.649 19.1795 31.6878 19.1956C31.7266 19.2117 31.7682 19.22 31.8102 19.22H31.7702Z" fill="white"/>
<path d="M31.8201 18.3299C31.863 18.33 31.9055 18.3214 31.9449 18.3047C31.9844 18.288 32.0202 18.2635 32.05 18.2327C32.0799 18.2019 32.1032 18.1655 32.1187 18.1255C32.1342 18.0855 32.1415 18.0428 32.1401 17.9999C32.1401 17.9151 32.1064 17.8337 32.0464 17.7737C31.9864 17.7137 31.905 17.6799 31.8201 17.6799C31.7437 17.6934 31.6745 17.7333 31.6246 17.7928C31.5747 17.8522 31.5474 17.9273 31.5474 18.0049C31.5474 18.0825 31.5747 18.1576 31.6246 18.2171C31.6745 18.2765 31.7437 18.3165 31.8201 18.3299Z" fill="white"/>
<path d="M31.8102 17.43C31.8522 17.4275 31.8934 17.4167 31.9312 17.3982C31.9691 17.3797 32.0029 17.3539 32.0308 17.3223C32.0587 17.2908 32.08 17.254 32.0937 17.2141C32.1073 17.1742 32.1129 17.1321 32.1102 17.09C32.109 17.0475 32.0991 17.0057 32.0811 16.9672C32.0631 16.9287 32.0373 16.8943 32.0054 16.8661C31.9735 16.838 31.9362 16.8167 31.8957 16.8036C31.8553 16.7905 31.8125 16.7859 31.7702 16.79C31.6853 16.79 31.6039 16.8238 31.5439 16.8838C31.4839 16.9438 31.4502 17.0252 31.4502 17.11C31.4502 17.1949 31.4839 17.2763 31.5439 17.3363C31.6039 17.3963 31.6853 17.43 31.7702 17.43H31.8102Z" fill="white"/>
<path d="M31.7502 16.54C31.7923 16.5351 31.8331 16.5218 31.8701 16.501C31.907 16.4801 31.9395 16.4521 31.9656 16.4186C31.9916 16.3851 32.0107 16.3468 32.0218 16.3058C32.0329 16.2648 32.0358 16.2221 32.0302 16.18C32.0252 16.1379 32.012 16.0971 31.9911 16.0601C31.9703 16.0232 31.9423 15.9907 31.9088 15.9646C31.8753 15.9386 31.8369 15.9194 31.796 15.9083C31.755 15.8972 31.7123 15.8944 31.6702 15.9C31.6282 15.9053 31.5876 15.9187 31.5508 15.9397C31.514 15.9606 31.4816 15.9886 31.4556 16.022C31.4296 16.0554 31.4105 16.0937 31.3992 16.1345C31.388 16.1753 31.3849 16.218 31.3902 16.26C31.3954 16.302 31.4089 16.3426 31.4299 16.3794C31.4508 16.4162 31.4788 16.4486 31.5122 16.4746C31.5456 16.5006 31.5838 16.5197 31.6247 16.531C31.6655 16.5422 31.7081 16.5453 31.7502 16.54V16.54Z" fill="white"/>
<path d="M31.63 15.6501C31.7135 15.6341 31.7873 15.5857 31.8352 15.5154C31.883 15.4451 31.9009 15.3586 31.885 15.2751C31.8691 15.1915 31.8206 15.1177 31.7503 15.0699C31.68 15.0221 31.5935 15.0042 31.51 15.0201C31.4257 15.037 31.3513 15.0863 31.3028 15.1572C31.2542 15.2282 31.2353 15.3153 31.25 15.4001C31.2583 15.4415 31.2748 15.4809 31.2985 15.516C31.3221 15.5511 31.3525 15.5811 31.3878 15.6043C31.4232 15.6276 31.4628 15.6436 31.5044 15.6514C31.5459 15.6593 31.5886 15.6588 31.63 15.6501V15.6501Z" fill="white"/>
<path d="M31.45 14.7701C31.5322 14.7488 31.6026 14.6958 31.6458 14.6227C31.6889 14.5495 31.7012 14.4623 31.68 14.3801C31.6588 14.2978 31.6058 14.2274 31.5326 14.1843C31.4595 14.1412 31.3722 14.1288 31.29 14.15C31.2493 14.1605 31.211 14.179 31.1774 14.2042C31.1438 14.2295 31.1155 14.2612 31.0942 14.2974C31.0728 14.3336 31.0588 14.3737 31.0529 14.4153C31.0471 14.457 31.0495 14.4993 31.06 14.54C31.0705 14.5808 31.0889 14.619 31.1142 14.6526C31.1395 14.6862 31.1711 14.7145 31.2073 14.7359C31.2435 14.7572 31.2836 14.7713 31.3253 14.7771C31.3669 14.783 31.4093 14.7806 31.45 14.7701V14.7701Z" fill="white"/>
<path d="M31.2003 13.91C31.2415 13.8975 31.2797 13.8769 31.3127 13.8493C31.3457 13.8218 31.3728 13.7878 31.3924 13.7496C31.412 13.7113 31.4237 13.6695 31.4268 13.6266C31.4299 13.5837 31.4242 13.5406 31.4103 13.5C31.3899 13.4406 31.3526 13.3885 31.3028 13.3501C31.2531 13.3118 31.1931 13.289 31.1305 13.2845C31.0678 13.28 31.0053 13.2941 30.9506 13.3249C30.8958 13.3557 30.8514 13.4019 30.8228 13.4578C30.7941 13.5137 30.7826 13.5768 30.7896 13.6392C30.7965 13.7016 30.8217 13.7606 30.862 13.8088C30.9022 13.857 30.9558 13.8923 31.0159 13.9103C31.0761 13.9283 31.1402 13.9282 31.2003 13.91V13.91Z" fill="white"/>
<path d="M30.9401 13.06C30.9798 13.0446 31.016 13.0214 31.0466 12.9919C31.0772 12.9623 31.1016 12.9269 31.1183 12.8878C31.1351 12.8487 31.1439 12.8067 31.1442 12.7641C31.1445 12.7216 31.1363 12.6794 31.1202 12.64C31.1059 12.5995 31.0834 12.5623 31.0541 12.5309C31.0248 12.4996 30.9892 12.4746 30.9497 12.4577C30.9102 12.4407 30.8677 12.4322 30.8247 12.4326C30.7817 12.433 30.7393 12.4424 30.7001 12.46C30.6217 12.4933 30.5593 12.5556 30.5257 12.6338C30.4922 12.7121 30.4902 12.8003 30.5202 12.88C30.5534 12.9584 30.6157 13.0209 30.694 13.0545C30.7722 13.088 30.8604 13.09 30.9401 13.06V13.06Z" fill="white"/>
<path d="M30.6002 12.23C30.6394 12.2129 30.6747 12.1879 30.7038 12.1566C30.7329 12.1252 30.7552 12.0882 30.7693 12.0478C30.7834 12.0074 30.789 11.9646 30.7857 11.9219C30.7824 11.8793 30.7703 11.8377 30.7502 11.8C30.7068 11.7383 30.643 11.6939 30.57 11.6746C30.497 11.6554 30.4197 11.6626 30.3515 11.6949C30.2833 11.7272 30.2287 11.7825 30.1974 11.8512C30.166 11.9198 30.16 11.9973 30.1802 12.07C30.1964 12.1088 30.2204 12.1439 30.2506 12.1731C30.2807 12.2024 30.3166 12.2252 30.3559 12.2401C30.3952 12.2551 30.4371 12.2619 30.4791 12.2602C30.5211 12.2584 30.5623 12.2481 30.6002 12.23V12.23Z" fill="white"/>
<path d="M30.2003 11.4201C30.2382 11.4001 30.2717 11.3729 30.2988 11.3398C30.3259 11.3067 30.3461 11.2685 30.3583 11.2275C30.3704 11.1865 30.3742 11.1435 30.3694 11.101C30.3646 11.0585 30.3513 11.0173 30.3303 10.9801C30.3096 10.943 30.2816 10.9105 30.2482 10.8844C30.2147 10.8583 30.1764 10.8391 30.1355 10.8279C30.0945 10.8168 30.0517 10.8138 30.0097 10.8194C29.9676 10.8249 29.927 10.8387 29.8903 10.8601C29.8537 10.8798 29.8213 10.9068 29.7953 10.9394C29.7693 10.9719 29.7501 11.0094 29.7389 11.0496C29.7277 11.0897 29.7248 11.1317 29.7301 11.173C29.7355 11.2143 29.7492 11.2541 29.7703 11.2901C29.7892 11.3276 29.8156 11.3609 29.8477 11.3879C29.8799 11.4149 29.9172 11.4351 29.9574 11.4473C29.9977 11.4594 30.0399 11.4633 30.0817 11.4586C30.1234 11.4539 30.1638 11.4408 30.2003 11.4201V11.4201Z" fill="white"/>
<path d="M29.7799 10.64C29.8515 10.5936 29.9018 10.5206 29.9196 10.4371C29.9374 10.3537 29.9214 10.2666 29.8749 10.195C29.8285 10.1234 29.7556 10.0731 29.6721 10.0553C29.5887 10.0375 29.5016 10.0536 29.43 10.1C29.3945 10.123 29.3639 10.1527 29.3399 10.1875C29.316 10.2223 29.2991 10.2615 29.2903 10.3028C29.2815 10.3441 29.2809 10.3868 29.2885 10.4283C29.2962 10.4699 29.312 10.5095 29.335 10.545C29.3579 10.5804 29.3877 10.611 29.4225 10.635C29.4573 10.6589 29.4965 10.6758 29.5378 10.6846C29.5791 10.6934 29.6217 10.694 29.6633 10.6864C29.7049 10.6787 29.7445 10.6629 29.7799 10.64Z" fill="white"/>
<path d="M29.2902 9.89001C29.3246 9.86523 29.3537 9.83388 29.3759 9.79777C29.398 9.76165 29.4128 9.72149 29.4193 9.67963C29.4258 9.63777 29.4239 9.59503 29.4138 9.5539C29.4037 9.51277 29.3855 9.47405 29.3602 9.44001C29.3364 9.4045 29.3054 9.37431 29.2694 9.35134C29.2333 9.32837 29.1928 9.31311 29.1506 9.30654C29.1083 9.29996 29.0651 9.30221 29.0238 9.31313C28.9824 9.32405 28.9437 9.34342 28.9102 9.37C28.843 9.42165 28.7982 9.49721 28.7852 9.581C28.7721 9.66479 28.7919 9.75038 28.8403 9.82001C28.865 9.85438 28.8964 9.88346 28.9325 9.90562C28.9686 9.92777 29.0088 9.94253 29.0506 9.94904C29.0925 9.95555 29.1352 9.95368 29.1763 9.94355C29.2175 9.93341 29.2562 9.91522 29.2902 9.89001V9.89001Z" fill="white"/>
<path d="M28.7604 9.16998C28.8267 9.11561 28.8687 9.03713 28.8772 8.9518C28.8856 8.86647 28.8598 8.78128 28.8055 8.71498C28.7511 8.64868 28.6726 8.60669 28.5872 8.59825C28.5019 8.58981 28.4167 8.61561 28.3504 8.66998C28.3196 8.69982 28.2951 8.73556 28.2783 8.77507C28.2616 8.81458 28.2529 8.85706 28.2529 8.89998C28.2529 8.9429 28.2616 8.98537 28.2783 9.02489C28.2951 9.0644 28.3196 9.10015 28.3504 9.12999C28.4041 9.18217 28.4739 9.21455 28.5484 9.22182C28.6229 9.22908 28.6977 9.2108 28.7604 9.16998V9.16998Z" fill="white"/>
<path d="M28.2004 8.48998C28.2312 8.46014 28.2558 8.42439 28.2725 8.38488C28.2893 8.34537 28.2979 8.30289 28.2979 8.25997C28.2979 8.21706 28.2893 8.17458 28.2725 8.13506C28.2558 8.09555 28.2312 8.05982 28.2004 8.02998C28.1729 7.99455 28.1383 7.96529 28.0988 7.94409C28.0593 7.92288 28.0158 7.9102 27.9711 7.90688C27.9265 7.90356 27.8816 7.90968 27.8394 7.92481C27.7972 7.93995 27.7586 7.96378 27.7262 7.99476C27.6939 8.02574 27.6684 8.06318 27.6514 8.10465C27.6344 8.14613 27.6263 8.19071 27.6276 8.23551C27.6289 8.28031 27.6396 8.32433 27.6591 8.36472C27.6785 8.40512 27.7062 8.44098 27.7404 8.46998C27.7688 8.50216 27.8035 8.52828 27.8423 8.54678C27.8811 8.56527 27.9232 8.57576 27.9661 8.57763C28.009 8.5795 28.0519 8.5727 28.0922 8.55764C28.1324 8.54258 28.1692 8.51957 28.2004 8.48998Z" fill="white"/>
<path d="M27.5601 7.84001C27.6052 7.7954 27.6361 7.7384 27.6487 7.67622C27.6614 7.61405 27.6552 7.54953 27.6311 7.49084C27.607 7.43216 27.566 7.38197 27.5133 7.34665C27.4606 7.31133 27.3986 7.29248 27.3351 7.29248C27.2717 7.29248 27.2097 7.31133 27.157 7.34665C27.1043 7.38197 27.0633 7.43216 27.0392 7.49084C27.015 7.54953 27.0089 7.61405 27.0215 7.67622C27.0342 7.7384 27.065 7.7954 27.1101 7.84001C27.17 7.89925 27.2509 7.93248 27.3351 7.93248C27.4194 7.93248 27.5002 7.89925 27.5601 7.84001V7.84001Z" fill="white"/>
<path d="M26.9101 7.22998C26.9694 7.17008 27.0026 7.08924 27.0026 7.00499C27.0026 6.92074 26.9694 6.83989 26.9101 6.77998C26.8812 6.74942 26.8463 6.72508 26.8076 6.70845C26.7689 6.69182 26.7272 6.68323 26.6851 6.68323C26.643 6.68323 26.6014 6.69182 26.5627 6.70845C26.524 6.72508 26.4891 6.74942 26.4601 6.77998C26.4009 6.83989 26.3677 6.92074 26.3677 7.00499C26.3677 7.08924 26.4009 7.17008 26.4601 7.22998C26.5212 7.28692 26.6016 7.31859 26.6851 7.31859C26.7686 7.31859 26.849 7.28692 26.9101 7.22998V7.22998Z" fill="white"/>
<path d="M26.2 6.66997C26.2484 6.60034 26.2681 6.51475 26.2551 6.43096C26.242 6.34717 26.1973 6.27163 26.13 6.21998C26.0965 6.19339 26.0579 6.17403 26.0165 6.16311C25.9751 6.15219 25.932 6.14994 25.8897 6.15652C25.8475 6.16309 25.807 6.17835 25.7709 6.20132C25.7348 6.22428 25.7039 6.25446 25.68 6.28997C25.6548 6.32401 25.6366 6.36274 25.6265 6.40388C25.6163 6.44501 25.6145 6.48775 25.621 6.52961C25.6275 6.57147 25.6423 6.61161 25.6644 6.64773C25.6866 6.68384 25.7157 6.7152 25.75 6.73998C25.8197 6.78836 25.9052 6.80807 25.989 6.79503C26.0728 6.782 26.1484 6.73722 26.2 6.66997V6.66997Z" fill="white"/>
<path d="M25.4802 6.15004C25.504 6.11417 25.5203 6.07388 25.5282 6.03157C25.536 5.98926 25.5353 5.94579 25.5259 5.90378C25.5166 5.86177 25.4989 5.82207 25.4738 5.78706C25.4488 5.75206 25.417 5.72246 25.3802 5.70004C25.3266 5.66734 25.2646 5.65112 25.2019 5.65341C25.1392 5.6557 25.0785 5.67639 25.0274 5.7129C24.9764 5.74942 24.9372 5.80015 24.9147 5.85878C24.8923 5.91741 24.8876 5.98133 24.9012 6.04262C24.9148 6.1039 24.9461 6.15983 24.9913 6.20343C25.0365 6.24703 25.0934 6.27637 25.1552 6.28783C25.2169 6.29928 25.2806 6.29232 25.3384 6.26782C25.3962 6.24332 25.4455 6.20236 25.4802 6.15004V6.15004Z" fill="white"/>
<path d="M24.7203 5.66994C24.741 5.63341 24.7542 5.59305 24.7589 5.5513C24.7635 5.50955 24.7597 5.46728 24.7475 5.42706C24.7353 5.38685 24.7151 5.34952 24.6881 5.31735C24.6611 5.28518 24.6278 5.25885 24.5903 5.23994C24.5536 5.2186 24.513 5.20477 24.4709 5.19925C24.4289 5.19373 24.3861 5.19664 24.3452 5.20781C24.3042 5.21898 24.2659 5.23818 24.2325 5.2643C24.199 5.29042 24.1711 5.32292 24.1503 5.35994C24.1107 5.43582 24.1021 5.52413 24.1263 5.60623C24.1506 5.68833 24.2058 5.75779 24.2803 5.79994C24.3176 5.8209 24.3587 5.83416 24.4012 5.83896C24.4437 5.84375 24.4867 5.83998 24.5277 5.82786C24.5688 5.81575 24.6069 5.79553 24.64 5.7684C24.6731 5.74128 24.7004 5.70779 24.7203 5.66994V5.66994Z" fill="white"/>
<path d="M23.9303 5.24999C23.9487 5.21191 23.9594 5.17058 23.9618 5.12836C23.9642 5.08614 23.9583 5.04386 23.9443 5.00393C23.9304 4.964 23.9088 4.92719 23.8806 4.89564C23.8525 4.86408 23.8183 4.83838 23.7803 4.82C23.7422 4.80161 23.7009 4.7909 23.6586 4.78849C23.6164 4.78608 23.5741 4.792 23.5342 4.80593C23.4943 4.81986 23.4575 4.84152 23.4259 4.86966C23.3944 4.89781 23.3687 4.93191 23.3503 4.96999C23.3152 5.04721 23.3113 5.13496 23.3392 5.21502C23.3671 5.29508 23.4248 5.36131 23.5003 5.39998C23.5383 5.41864 23.5797 5.42957 23.622 5.43212C23.6643 5.43467 23.7066 5.4288 23.7466 5.41485C23.7866 5.40089 23.8234 5.37914 23.855 5.35084C23.8865 5.32254 23.9121 5.28826 23.9303 5.24999Z" fill="white"/>
<path d="M23.1201 4.87999C23.1501 4.80028 23.1481 4.71206 23.1146 4.63379C23.081 4.55551 23.0185 4.49325 22.9401 4.45999C22.9006 4.43921 22.8571 4.42692 22.8126 4.42393C22.768 4.42095 22.7233 4.42732 22.6814 4.44264C22.6395 4.45796 22.6012 4.48189 22.569 4.51289C22.5369 4.54389 22.5116 4.58128 22.4948 4.62265C22.4779 4.66401 22.47 4.70843 22.4713 4.75307C22.4727 4.7977 22.4834 4.84155 22.5027 4.8818C22.5221 4.92206 22.5496 4.95782 22.5836 4.98679C22.6176 5.01575 22.6573 5.03728 22.7001 5.04999C22.7388 5.06646 22.7805 5.07512 22.8225 5.07548C22.8646 5.07585 22.9064 5.06791 22.9454 5.05212C22.9844 5.03633 23.0199 5.013 23.0499 4.98346C23.0799 4.95392 23.1037 4.91876 23.1201 4.87999V4.87999Z" fill="white"/>
<path d="M22.28 4.54996C22.294 4.51061 22.2999 4.46883 22.2974 4.42714C22.2949 4.38545 22.2839 4.3447 22.2652 4.30734C22.2466 4.26998 22.2205 4.23678 22.1887 4.20973C22.1569 4.18269 22.1199 4.16235 22.08 4.14995C22.0199 4.12913 21.955 4.1267 21.8935 4.14296C21.832 4.15922 21.7767 4.19343 21.7347 4.24124C21.6928 4.28905 21.666 4.34829 21.6579 4.41138C21.6498 4.47446 21.6606 4.53853 21.6891 4.59543C21.7175 4.65232 21.7622 4.69945 21.8176 4.73079C21.873 4.76213 21.9364 4.77626 21.9998 4.77138C22.0632 4.7665 22.1238 4.74282 22.1737 4.70338C22.2236 4.66394 22.2606 4.61053 22.28 4.54996V4.54996Z" fill="white"/>
<path d="M21.43 4.28004C21.4405 4.23933 21.4429 4.19694 21.437 4.1553C21.4312 4.11366 21.4172 4.0736 21.3958 4.03738C21.3744 4.00116 21.3462 3.9695 21.3126 3.94422C21.279 3.91894 21.2407 3.90053 21.2 3.89004C21.1178 3.86882 21.0305 3.88113 20.9573 3.92427C20.8842 3.9674 20.8312 4.03782 20.81 4.12004C20.7887 4.20225 20.8011 4.28954 20.8442 4.36268C20.8873 4.43582 20.9578 4.48882 21.04 4.51004C21.0807 4.52056 21.1231 4.52296 21.1647 4.5171C21.2063 4.51124 21.2464 4.49723 21.2826 4.47587C21.3189 4.45451 21.3505 4.42622 21.3758 4.39262C21.4011 4.35902 21.4195 4.32076 21.43 4.28004V4.28004Z" fill="white"/>
<path d="M20.5604 4.07003C20.5691 4.02795 20.5692 3.98453 20.5607 3.94241C20.5523 3.90028 20.5354 3.8603 20.5111 3.82484C20.4869 3.78938 20.4557 3.75916 20.4195 3.736C20.3833 3.71284 20.3428 3.6972 20.3005 3.69003C20.2185 3.67893 20.1353 3.70002 20.0685 3.74888C20.0018 3.79774 19.9565 3.87058 19.9423 3.9521C19.928 4.03361 19.946 4.11747 19.9922 4.18608C20.0385 4.25468 20.1095 4.30269 20.1904 4.32003C20.2725 4.3348 20.3571 4.31693 20.4262 4.27023C20.4954 4.22353 20.5435 4.15171 20.5604 4.07003V4.07003Z" fill="white"/>
<path d="M19.6801 3.91001C19.6887 3.8255 19.6644 3.74091 19.6123 3.67385C19.5601 3.6068 19.4841 3.56244 19.4001 3.55001C19.3578 3.54295 19.3145 3.54473 19.273 3.55525C19.2314 3.56576 19.1925 3.58477 19.1587 3.61108C19.1249 3.63739 19.0968 3.67042 19.0764 3.70811C19.056 3.74579 19.0436 3.7873 19.0401 3.83001C19.0348 3.87203 19.0379 3.91468 19.0491 3.95551C19.0604 3.99635 19.0795 4.03457 19.1055 4.068C19.1315 4.10143 19.1639 4.1294 19.2007 4.15034C19.2375 4.17127 19.2781 4.18476 19.3201 4.19001C19.3621 4.19526 19.4048 4.19219 19.4456 4.18096C19.4864 4.16973 19.5247 4.15057 19.5581 4.12457C19.5915 4.09857 19.6195 4.06624 19.6404 4.02943C19.6614 3.99261 19.6748 3.95203 19.6801 3.91001V3.91001Z" fill="white"/>
<path d="M18.7904 3.80001C18.7931 3.75797 18.7875 3.71581 18.7738 3.67594C18.7602 3.63608 18.7389 3.5993 18.711 3.56771C18.6831 3.53612 18.6493 3.51034 18.6114 3.49186C18.5736 3.47338 18.5324 3.46256 18.4904 3.46001C18.4483 3.4573 18.4062 3.46292 18.3663 3.47654C18.3264 3.49016 18.2897 3.51152 18.2581 3.53939C18.2265 3.56726 18.2007 3.60111 18.1822 3.63897C18.1637 3.67683 18.1529 3.71795 18.1504 3.76C18.1504 3.84487 18.1841 3.92626 18.2441 3.98627C18.3041 4.04629 18.3855 4.08001 18.4704 4.08001C18.5552 4.08001 18.6366 4.04629 18.6967 3.98627C18.7567 3.92626 18.7904 3.84487 18.7904 3.76V3.80001Z" fill="white"/>
<path d="M17.5704 12.1L14.9004 18L17.5704 23.9L20.2004 18L17.5704 12.1ZM17.5704 12.71L19.8504 17.71H15.2904L17.5704 12.71Z" fill="white"/>
<path d="M17.2002 35.2501C17.2002 35.2929 17.2088 35.3354 17.2255 35.3749C17.2422 35.4144 17.2666 35.4501 17.2974 35.4799C17.3282 35.5098 17.3647 35.5331 17.4047 35.5486C17.4446 35.5641 17.4873 35.5714 17.5302 35.5701C17.5726 35.5715 17.6148 35.5641 17.6543 35.5485C17.6937 35.5329 17.7296 35.5094 17.7596 35.4794C17.7895 35.4494 17.8131 35.4136 17.8287 35.3741C17.8443 35.3347 17.8516 35.2925 17.8502 35.2501C17.8367 35.1736 17.7968 35.1044 17.7373 35.0545C17.6779 35.0046 17.6028 34.9773 17.5252 34.9773C17.4476 34.9773 17.3725 35.0046 17.313 35.0545C17.2536 35.1044 17.2137 35.1736 17.2002 35.2501Z" fill="white"/>
<path d="M0.319992 17.6799C0.235123 17.6799 0.153731 17.7137 0.0937195 17.7737C0.0337078 17.8337 0 17.9151 0 17.9999C0 18.0848 0.0337078 18.1662 0.0937195 18.2262C0.153731 18.2862 0.235123 18.3199 0.319992 18.3199C0.404861 18.3199 0.486253 18.2862 0.546265 18.2262C0.606276 18.1662 0.639999 18.0848 0.639999 17.9999C0.639999 17.9151 0.606276 17.8337 0.546265 17.7737C0.486253 17.7137 0.404861 17.6799 0.319992 17.6799V17.6799Z" fill="white"/>
<path d="M34.8201 18.3299C34.863 18.33 34.9055 18.3214 34.9449 18.3047C34.9844 18.288 35.0202 18.2635 35.05 18.2327C35.0799 18.2019 35.1032 18.1655 35.1187 18.1255C35.1342 18.0855 35.1415 18.0428 35.1401 17.9999C35.1401 17.9151 35.1064 17.8337 35.0464 17.7737C34.9864 17.7137 34.905 17.6799 34.8201 17.6799C34.7437 17.6934 34.6745 17.7333 34.6246 17.7928C34.5747 17.8522 34.5474 17.9273 34.5474 18.0049C34.5474 18.0825 34.5747 18.1576 34.6246 18.2171C34.6745 18.2765 34.7437 18.3165 34.8201 18.3299Z" fill="white"/>
</svg>
