<svg width="140" height="100" viewBox="0 0 140 100" fill="none" xmlns="http://www.w3.org/2000/svg">
<path d="M139.17 36.4727H117.465V45.5636H139.17V36.4727Z" fill="#C9C9C9"/>
<path d="M46.1999 76.9839H15.3033V91.3861H46.1999V76.9839Z" fill="#C9C9C9"/>
<path d="M100.202 17.6349C99.1913 16.0136 97.871 14.651 96.3507 13.5867L96.7808 11.8461L92.5099 9.94639L91.4997 11.4184C89.6993 11.0007 87.7989 10.9311 85.8985 11.2593L84.9483 9.61816L80.5473 11.2891L80.9374 13.1392C79.307 14.1437 77.9368 15.4566 76.8665 16.9685L75.1162 16.5408L73.2057 20.7878L74.6861 21.7924C74.266 23.5827 74.196 25.4725 74.526 27.3623L72.8757 28.3072L74.556 32.6836L76.4164 32.2957C77.4266 33.9169 78.7469 35.2796 80.2673 36.3438L79.8372 38.0844L84.1081 39.9842L85.1183 38.5121C86.9187 38.9299 88.8191 38.9995 90.7195 38.6713L91.6697 40.3124L96.0706 38.6414L95.6806 36.7914C97.3109 35.7868 98.6812 34.4739 99.7514 32.9621L101.502 33.3898L103.412 29.1427L101.932 28.1381C102.352 26.3478 102.422 24.458 102.092 22.5682L103.742 21.6233L102.062 17.247L100.202 17.6349ZM90.3594 30.2865C87.4088 31.4105 84.1081 29.9384 82.9778 27.0043C81.8476 24.0701 83.3279 20.7878 86.2786 19.6639C89.2292 18.54 92.5299 20.012 93.6601 22.9462C94.7904 25.8803 93.31 29.1726 90.3594 30.2865Z" fill="#C9C9C9"/>
<path d="M70.5451 13.5965H56.7522C56.112 13.5965 55.5919 13.0793 55.5919 12.4427V6.88277C55.5919 6.24621 56.112 5.729 56.7522 5.729H70.5451C71.1853 5.729 71.7054 6.24621 71.7054 6.88277V12.4427C71.7054 13.0793 71.1853 13.5965 70.5451 13.5965Z" fill="black"/>
<path d="M63.6583 10.5533C64.1499 10.5506 64.547 10.1522 64.5451 9.66328C64.5432 9.17438 64.1431 8.78019 63.6515 8.78283C63.1598 8.78546 62.7628 9.18393 62.7647 9.67282C62.7666 10.1617 63.1667 10.5559 63.6583 10.5533Z" fill="white"/>
<path d="M66.5843 10.5527C67.0759 10.5527 67.4745 10.1563 67.4745 9.66745C67.4745 9.17856 67.0759 8.78223 66.5843 8.78223C66.0926 8.78223 65.6941 9.17856 65.6941 9.66745C65.6941 10.1563 66.0926 10.5527 66.5843 10.5527Z" fill="white"/>
<path d="M60.713 10.5507C61.2046 10.5507 61.6032 10.1544 61.6032 9.6655C61.6032 9.1766 61.2046 8.78027 60.713 8.78027C60.2214 8.78027 59.8228 9.1766 59.8228 9.6655C59.8228 10.1544 60.2214 10.5507 60.713 10.5507Z" fill="white"/>
<path d="M121.686 25.9097H116.325V26.7651H121.686V25.9097Z" fill="#161616"/>
<path d="M122.696 27.6504H115.315V27.899H122.696V27.6504Z" fill="black"/>
<path d="M121.256 28.1973H116.755V28.4459H121.256V28.1973Z" fill="#161616"/>
<path d="M137.799 6.21631H99.3313C98.7111 6.21631 98.211 6.71362 98.211 7.33029V9.23998H138.92V7.33029C138.92 6.71362 138.42 6.21631 137.799 6.21631Z" fill="#42434E"/>
<path d="M139.11 32.2258H98.021V7.3303C98.021 6.61417 98.6111 6.02734 99.3313 6.02734H137.8C138.52 6.02734 139.11 6.61417 139.11 7.3303V32.2258ZM98.4111 31.8379H138.73V7.3303C138.73 6.82304 138.31 6.4053 137.8 6.4053H99.3313C98.8212 6.4053 98.4011 6.82304 98.4011 7.3303V31.8379H98.4111Z" fill="#231F20"/>
<path d="M138.92 9.04102H98.211V9.42892H138.92V9.04102Z" fill="#231F20"/>
<path d="M100.161 8.22524C100.41 8.22524 100.611 8.02485 100.611 7.77766C100.611 7.53047 100.41 7.33008 100.161 7.33008C99.9128 7.33008 99.7113 7.53047 99.7113 7.77766C99.7113 8.02485 99.9128 8.22524 100.161 8.22524Z" fill="#0B0B0B"/>
<path d="M101.672 8.22524C101.92 8.22524 102.122 8.02485 102.122 7.77766C102.122 7.53047 101.92 7.33008 101.672 7.33008C101.423 7.33008 101.222 7.53047 101.222 7.77766C101.222 8.02485 101.423 8.22524 101.672 8.22524Z" fill="#0B0B0B"/>
<path d="M103.192 8.22524C103.441 8.22524 103.642 8.02485 103.642 7.77766C103.642 7.53047 103.441 7.33008 103.192 7.33008C102.944 7.33008 102.742 7.53047 102.742 7.77766C102.742 8.02485 102.944 8.22524 103.192 8.22524Z" fill="#0B0B0B"/>
<path d="M137.83 11.0503H137.439V30.356H137.83V11.0503Z" fill="#231F20"/>
<path d="M113.824 25.1937L113.514 25.0345C114.034 24.0598 115.335 23.8111 116.375 23.9106C116.685 23.9404 117.005 23.9902 117.315 24.0399C118.025 24.1493 118.695 24.2587 119.365 24.1294C120.436 23.9206 121.256 23.1547 122.116 22.349C123.006 21.5136 123.926 20.6582 125.137 20.4692C125.677 20.3896 126.227 20.4493 126.757 20.509C127.047 20.5388 127.357 20.5786 127.647 20.5885C128.357 20.6084 128.998 20.4095 129.368 20.0415L129.618 20.2802C129.188 20.7179 128.467 20.9466 127.647 20.9267C127.337 20.9168 127.027 20.877 126.727 20.8472C126.197 20.7875 125.697 20.7278 125.197 20.7974C124.086 20.9665 123.246 21.7523 122.356 22.5878C121.496 23.3934 120.606 24.2289 119.436 24.4577C118.705 24.5969 117.975 24.4775 117.265 24.3681C116.965 24.3184 116.655 24.2687 116.355 24.2388C115.415 24.1593 114.264 24.3681 113.824 25.1937Z" fill="black"/>
<path d="M109.383 18.3206L109.113 18.2211C109.753 16.4706 111.234 15.088 112.964 14.6007C113.374 14.4813 113.804 14.4117 114.214 14.3421C114.474 14.3023 114.735 14.2526 114.985 14.2028C115.785 14.0337 116.355 13.7851 116.765 13.4071C117.175 13.0391 117.415 12.502 117.395 12.0246L117.685 12.0146C117.715 12.5816 117.435 13.1983 116.965 13.6259C116.515 14.0337 115.905 14.3122 115.045 14.4913C114.785 14.551 114.514 14.5907 114.254 14.6305C113.854 14.7001 113.434 14.7698 113.034 14.8792C111.394 15.3367 109.993 16.6596 109.383 18.3206Z" fill="black"/>
<path d="M108.683 23.6217L108.343 23.4924C108.653 22.7165 109.223 22.0601 109.953 21.6324C111.064 20.9859 112.514 20.8765 113.734 21.3539C113.974 21.4434 114.214 21.5628 114.434 21.6722C114.835 21.8711 115.215 22.0601 115.635 22.1297C116.545 22.2889 117.585 21.8711 118.415 20.9958C118.795 20.598 119.115 20.1305 119.436 19.6929C119.716 19.295 120.006 18.8773 120.346 18.4993C121.236 17.5047 122.326 16.9875 123.366 17.077C123.756 17.1068 124.117 17.2262 124.477 17.3456C124.667 17.4052 124.867 17.4649 125.057 17.5146C126.237 17.8031 127.547 17.5544 128.487 16.8681C128.818 16.6195 129.108 16.3211 129.338 15.9829L129.638 16.1818C129.388 16.5598 129.068 16.888 128.698 17.1566C127.677 17.9025 126.247 18.1711 124.967 17.8628C124.757 17.813 124.557 17.7434 124.357 17.6837C124.007 17.5743 123.676 17.4649 123.326 17.4351C122.026 17.3157 120.996 18.3103 120.616 18.738C120.296 19.106 120.006 19.5138 119.726 19.9017C119.406 20.3593 119.075 20.8268 118.675 21.2445C117.765 22.1993 116.605 22.6668 115.565 22.4878C115.095 22.4082 114.674 22.1993 114.264 22.0004C114.044 21.891 113.814 21.7816 113.594 21.6921C112.474 21.2544 111.144 21.3539 110.134 21.9407C109.483 22.3286 108.963 22.9254 108.683 23.6217Z" fill="black"/>
<path d="M108.063 21.2749L107.693 21.2252C107.883 19.8526 109.263 18.9773 110.464 18.7486C111.424 18.5695 112.414 18.659 113.364 18.7585C113.664 18.7883 113.954 18.8182 114.244 18.8381C115.815 18.9475 116.915 18.7187 117.695 18.112C118.035 17.8434 118.315 17.5152 118.605 17.1671C118.905 16.7991 119.215 16.4311 119.616 16.1327C120.466 15.4961 121.526 15.3569 122.556 15.2276C123.176 15.148 123.826 15.0585 124.407 14.8695C125.797 14.412 126.917 13.2582 127.347 11.8657L127.697 11.9751C127.237 13.477 126.017 14.7203 124.527 15.2176C123.906 15.4265 123.246 15.5061 122.606 15.5956C121.586 15.7249 120.616 15.8542 119.846 16.4311C119.486 16.6996 119.205 17.0378 118.905 17.4058C118.615 17.7539 118.315 18.1219 117.935 18.4104C117.075 19.0768 115.895 19.3254 114.224 19.216C113.924 19.1961 113.624 19.1663 113.334 19.1365C112.404 19.0469 111.454 18.9574 110.544 19.1265C109.463 19.3155 108.233 20.0814 108.063 21.2749Z" fill="black"/>
<path d="M115.485 16.5701C115.065 16.5701 114.644 16.4806 114.254 16.2618L114.424 15.9634C115.445 16.5204 116.735 16.0728 117.535 15.5257C118.125 15.108 118.645 14.5709 119.145 14.0537C119.435 13.7453 119.736 13.437 120.056 13.1486C120.816 12.4523 122.006 11.6467 123.316 11.776L123.276 12.1241C122.096 12.0048 120.996 12.7507 120.286 13.4072C119.976 13.6857 119.676 14.0039 119.385 14.3023C118.875 14.8394 118.345 15.3865 117.725 15.8142C117.115 16.222 116.295 16.5701 115.485 16.5701Z" fill="black"/>
<path d="M110.734 20.1609L113.384 13.9346H114.975V20.1609H115.665V21.4739H114.975V23.1448H113.514V21.4739H110.734V20.1609ZM113.514 20.1609V16.7494L112.074 20.1609H113.514Z" fill="#272B27"/>
<path d="M116.255 16.1427C116.255 14.6706 117.035 13.8252 118.465 13.8252C119.896 13.8252 120.676 14.6706 120.676 16.1427V20.9368C120.676 22.4088 119.896 23.2543 118.465 23.2543C117.035 23.2543 116.255 22.4088 116.255 20.9368V16.1427ZM117.715 21.0363C117.715 21.6927 118.005 21.9414 118.465 21.9414C118.925 21.9414 119.216 21.6927 119.216 21.0363V16.0631C119.216 15.4067 118.925 15.158 118.465 15.158C118.005 15.158 117.715 15.4067 117.715 16.0631V21.0363Z" fill="#272B27"/>
<path d="M121.017 20.3841L123.667 14.1577H125.258V20.3841H125.948V21.697H125.258V23.368H123.798V21.697H121.017V20.3841ZM123.798 20.3841V16.9725L122.357 20.3841H123.798Z" fill="#272B27"/>
<path d="M76.7565 78.1177H59.8228V90.9882H76.7565V78.1177Z" fill="black"/>
<path d="M76.9565 91.1778H59.6328V77.9194H76.9565V91.1778ZM60.0128 90.7999H76.5564V78.3173H60.0128V90.7999Z" fill="#231F20"/>
<path d="M75.1761 78.1177H58.2425V90.9882H75.1761V78.1177Z" fill="white"/>
<path d="M75.1761 80.6147L58.2425 89.7156V80.6147H75.1761Z" fill="black"/>
<path d="M81.8876 93.4853H54.6918V92.7692C54.6918 91.7845 55.4919 90.9888 56.4821 90.9888H80.0972C81.0874 90.9888 81.8876 91.7845 81.8876 92.7692V93.4853Z" fill="black"/>
<path d="M82.0876 93.6842H54.5016V92.7692C54.5016 91.685 55.3918 90.7998 56.4821 90.7998H80.0971C81.1874 90.7998 82.0776 91.685 82.0776 92.7692V93.6842H82.0876ZM54.8917 93.2963H81.6975V92.7692C81.6975 91.8939 80.9773 91.1778 80.0971 91.1778H56.4821C55.6019 91.1778 54.8817 91.8939 54.8817 92.7692V93.2963H54.8917Z" fill="#231F20"/>
<path d="M111.404 80.6146H26.1456C24.6753 80.6146 23.485 79.431 23.485 77.9689V27.6208C23.485 26.1587 24.6753 24.9751 26.1456 24.9751H111.404C112.874 24.9751 114.064 26.1587 114.064 27.6208V77.9788C114.054 79.431 112.864 80.6146 111.404 80.6146Z" fill="#42434E"/>
<path d="M111.404 80.8135H26.1456C24.5753 80.8135 23.295 79.5404 23.295 77.9789V27.6208C23.295 26.0593 24.5753 24.7861 26.1456 24.7861H111.404C112.974 24.7861 114.254 26.0593 114.254 27.6208V77.9789C114.254 79.5404 112.974 80.8135 111.404 80.8135ZM26.1456 25.174C24.7853 25.174 23.6851 26.2681 23.6851 27.6208V77.9789C23.6851 79.3316 24.7853 80.4256 26.1456 80.4256H111.404C112.764 80.4256 113.864 79.3316 113.864 77.9789V27.6208C113.864 26.2681 112.764 25.174 111.404 25.174H26.1456Z" fill="#231F20"/>
<path d="M113.414 84.3247H92.4698V85.0309H113.414V84.3247Z" fill="#42434E"/>
<path d="M113.414 85.9756H92.4698V86.6818H113.414V85.9756Z" fill="#42434E"/>
<path d="M113.414 87.627H92.4698V88.3331H113.414V87.627Z" fill="#42434E"/>
<path d="M98.7711 89.2881H92.4698V89.9943H98.7711V89.2881Z" fill="#42434E"/>
<path d="M140 84.3247H119.055V85.0309H140V84.3247Z" fill="#42434E"/>
<path d="M140 85.9756H119.055V86.6818H140V85.9756Z" fill="#42434E"/>
<path d="M131.658 87.627H119.055V88.3331H131.658V87.627Z" fill="#42434E"/>
<path d="M80.3072 93.4853H53.1114V92.7692C53.1114 91.7845 53.9116 90.9888 54.9018 90.9888H78.5168C79.507 90.9888 80.3072 91.7845 80.3072 92.7692V93.4853Z" fill="white"/>
<path d="M75.3761 91.1778H58.0524V77.9194H75.3761V91.1778ZM58.4425 90.7999H74.9861V78.3173H58.4425V90.7999Z" fill="#231F20"/>
<path d="M80.5072 93.6842H52.9213V92.7692C52.9213 91.685 53.8115 90.7998 54.9018 90.7998H78.5168C79.607 90.7998 80.4972 91.685 80.4972 92.7692V93.6842H80.5072ZM53.3114 93.2963H80.1172V92.7692C80.1172 91.8939 79.397 91.1778 78.5168 91.1778H54.9018C54.0216 91.1778 53.3014 91.8939 53.3014 92.7692V93.2963H53.3114Z" fill="#231F20"/>
<path d="M109.343 80.6146H24.0851C22.6148 80.6146 21.4246 79.431 21.4246 77.9689V27.6208C21.4246 26.1587 22.6148 24.9751 24.0851 24.9751H109.343C110.814 24.9751 112.004 26.1587 112.004 27.6208V77.9788C111.994 79.431 110.804 80.6146 109.343 80.6146Z" fill="white"/>
<path d="M109.934 27.0737H23.4951V73.493H109.934V27.0737Z" fill="black"/>
<path d="M109.343 80.8135H24.0852C22.5148 80.8135 21.2346 79.5404 21.2346 77.9789V27.6208C21.2346 26.0593 22.5148 24.7861 24.0852 24.7861H109.343C110.914 24.7861 112.194 26.0593 112.194 27.6208V77.9789C112.194 79.5404 110.914 80.8135 109.343 80.8135ZM24.0852 25.174C22.7249 25.174 21.6246 26.2681 21.6246 27.6208V77.9789C21.6246 79.3316 22.7249 80.4256 24.0852 80.4256H109.343C110.704 80.4256 111.804 79.3316 111.804 77.9789V27.6208C111.804 26.2681 110.704 25.174 109.343 25.174H24.0852Z" fill="#231F20"/>
<path d="M110.124 73.682H23.305V26.8848H110.124V73.682ZM23.6851 73.2941H109.734V27.2727H23.6851V73.2941Z" fill="#231F20"/>
<path d="M67.5316 77.1193C67.6052 76.6693 67.298 76.2451 66.8455 76.1719C66.393 76.0987 65.9664 76.4041 65.8928 76.8541C65.8192 77.3041 66.1263 77.7283 66.5789 77.8015C67.0314 77.8748 67.4579 77.5693 67.5316 77.1193Z" fill="#231F20"/>
<path d="M34.1874 13.2285H25.8856V15.4465H34.1874V13.2285Z" fill="black"/>
<path d="M46.0299 3.50098H36.4979V15.4465H46.0299V3.50098Z" fill="white"/>
<path d="M35.5577 3.48145H25.9556V3.8793H35.5577V3.48145Z" fill="#42434E"/>
<path d="M35.5577 4.22705H25.9556V4.6249H35.5577V4.22705Z" fill="#42434E"/>
<path d="M35.5577 5.71924H25.9556V6.11709H35.5577V5.71924Z" fill="#42434E"/>
<path d="M35.5577 6.4751H25.9556V6.87295H35.5577V6.4751Z" fill="#42434E"/>
<path d="M30.7567 7.2207H25.9556V7.61855H30.7567V7.2207Z" fill="#42434E"/>
<path d="M35.5577 8.72266H25.9556V9.12051H35.5577V8.72266Z" fill="#42434E"/>
<path d="M35.5577 9.46875H25.9556V9.8666H35.5577V9.46875Z" fill="#42434E"/>
<path d="M35.5577 10.2251H25.9556V10.6229H35.5577V10.2251Z" fill="#42434E"/>
<path d="M34.0874 10.9707H25.9556V11.3686H34.0874V10.9707Z" fill="#42434E"/>
<path d="M47.2002 9.19023H44.3996V6.40527H47.2002V9.19023ZM44.7797 8.80233H46.8101V6.78323H44.7797V8.80233Z" fill="#231F20"/>
<path d="M23.5151 0.944897H22.5649V0H23.5151V0.944897ZM22.955 0.556996H23.125V0.387907H22.955V0.556996Z" fill="#231F20"/>
<path d="M48.9205 0.944897H47.9703V0H48.9205V0.944897ZM48.3604 0.556996H48.5305V0.387907H48.3604V0.556996Z" fill="#231F20"/>
<path d="M48.9205 19.0274H47.9703V18.0825H48.9205V19.0274ZM48.3604 18.6395H48.5305V18.4704H48.3604V18.6395Z" fill="#231F20"/>
<path d="M23.5151 19.0274H22.5649V18.0825H23.5151V19.0274ZM22.955 18.6395H23.125V18.4704H22.955V18.6395Z" fill="#231F20"/>
<path d="M48.1703 0.27832H23.415V0.666228H48.1703V0.27832Z" fill="#231F20"/>
<path d="M23.245 0.766113H22.8549V18.2716H23.245V0.766113Z" fill="#231F20"/>
<path d="M48.6405 0.766113H48.2504V18.2716H48.6405V0.766113Z" fill="#231F20"/>
<path d="M48.1704 18.3608H23.3251V18.7487H48.1704V18.3608Z" fill="#231F20"/>
<path d="M44.6996 19.1463L40.0486 14.6406L40.7688 21.056L42.1091 19.6635L43.2093 21.9014L43.8795 21.5831L42.7792 19.3452L44.6996 19.1463Z" fill="black"/>
<path d="M125.857 65.2173H134.329L130.098 58.2549L125.857 65.2173Z" fill="#42434E"/>
<path d="M123.957 65.217H125.157L127.767 60.9799L127.147 59.9653L123.957 65.217Z" fill="#42434E"/>
<path d="M135.829 69.0868H122.456V55.7886H133.819V56.1765H122.846V68.6989H135.439V57.7878H135.829V69.0868Z" fill="#231F20"/>
<path d="M136.519 55.6889H135.929V55.1021H135.339V55.6889H134.749V56.2757H135.339V56.8625H135.929V56.2757H136.519V55.6889Z" fill="black"/>
<path d="M81.1674 40.9684H69.3449V40.2721H81.1674V40.9684ZM93.7601 45.5735H86.4986V46.2697H93.7601V45.5735ZM71.1053 48.1695H69.3449V48.8657H71.1053V48.1695ZM71.1053 36.4727H69.3449V37.1689H71.1053V36.4727ZM77.3766 54.8037H72.5056V55.4999H77.3766V54.8037ZM89.1991 49.7112H87.4387V50.4074H89.1991V49.7112ZM72.4555 57.8273H69.3449V58.5236H72.4555V57.8273ZM99.8614 40.2721H95.5805V40.9684H99.8614V40.2721ZM78.1968 38.2928H73.9159V38.9891H78.1968V38.2928ZM82.2876 56.3453H75.3862V57.0416H82.2876V56.3453ZM84.7582 57.8273H73.3757V58.5236H84.7582V57.8273ZM99.8614 43.8528H78.9769V44.549H99.8614V43.8528ZM94.2702 51.591H85.1583V52.2872H94.2702V51.591ZM94.0302 40.2721H82.2076V40.9684H94.0302V40.2721ZM84.5781 45.5735H78.9869V46.2697H84.5781V45.5735ZM87.7988 38.2928H79.8971V38.9891H87.7988V38.2928ZM102.812 54.8037H93.6901V55.4999H102.812V54.8037ZM86.4986 59.3093H73.3857V60.0056H86.4986V59.3093ZM84.008 51.591H75.2561V52.2872H84.008V51.591ZM100.121 51.591H95.4905V52.2872H100.121V51.591ZM79.8971 53.1028H75.2661V53.7991H79.8971V53.1028ZM100.121 57.8273H91.4496V58.5236H100.121V57.8273ZM90.4394 57.8273H85.8084V58.5236H90.4394V57.8273ZM80.0172 60.6421H75.3862V61.3384H80.0172V60.6421ZM70.2251 63.8249H69.3449V64.5212H70.2251V63.8249ZM81.8075 48.1695H72.4555V48.8657H81.8075V48.1695ZM97.1408 56.3453H83.6379V57.0416H97.1408V56.3453ZM100.822 48.1695H83.1178V48.8657H100.822V48.1695ZM92.4698 54.8037H78.4468V55.4999H92.4698V54.8037ZM86.4885 49.7112H72.4655V50.4074H86.4885V49.7112ZM102.202 42.2813H73.3857V42.9775H102.202V42.2813ZM102.202 36.4727H72.5056V37.1689H102.202V36.4727ZM67.8345 36.4727H67.4545V64.5212H67.8345V36.4727Z" fill="#DCEDFF"/>
<path d="M60.873 37.2793H9.75208V65.0593H60.873V37.2793Z" fill="white"/>
<path d="M61.0631 65.248H9.55206V37.0801H61.0631V65.248ZM9.94215 64.8601H60.673V37.468H9.94215V64.8601Z" fill="#231F20"/>
<path d="M59.4627 33.4795H11.1524C10.3722 33.4795 9.74207 34.1061 9.74207 34.8819V37.279H60.863V34.8819C60.863 34.1061 60.2429 33.4795 59.4627 33.4795Z" fill="#42434E"/>
<path d="M61.0634 37.468H9.55231V34.8819C9.55231 34.0067 10.2725 33.2905 11.1527 33.2905H59.463C60.3432 33.2905 61.0634 34.0067 61.0634 34.8819V37.468ZM9.94239 37.0801H60.6733V34.8819C60.6733 34.2155 60.1332 33.6784 59.463 33.6784H11.1527C10.4825 33.6784 9.94239 34.2155 9.94239 34.8819V37.0801Z" fill="#231F20"/>
<path d="M12.1826 36.2051C11.7626 36.2051 11.4125 35.8669 11.4125 35.4392C11.4125 35.0215 11.7526 34.6733 12.1826 34.6733C12.6127 34.6733 12.9528 35.0115 12.9528 35.4392C12.9528 35.8669 12.6127 36.2051 12.1826 36.2051ZM12.1826 35.0712C11.9726 35.0712 11.8026 35.2403 11.8026 35.4491C11.8026 35.658 11.9726 35.8271 12.1826 35.8271C12.3927 35.8271 12.5627 35.658 12.5627 35.4491C12.5627 35.2403 12.3927 35.0712 12.1826 35.0712Z" fill="#231F20"/>
<path d="M14.093 36.2051C13.6729 36.2051 13.3228 35.8669 13.3228 35.4392C13.3228 35.0215 13.6629 34.6733 14.093 34.6733C14.5231 34.6733 14.8631 35.0115 14.8631 35.4392C14.8531 35.8669 14.5131 36.2051 14.093 36.2051ZM14.093 35.0712C13.8829 35.0712 13.7129 35.2403 13.7129 35.4491C13.7129 35.658 13.8829 35.8271 14.093 35.8271C14.303 35.8271 14.4731 35.658 14.4731 35.4491C14.4731 35.2403 14.303 35.0712 14.093 35.0712Z" fill="#231F20"/>
<path d="M15.9934 36.2051C15.5733 36.2051 15.2233 35.8669 15.2233 35.4392C15.2233 35.0215 15.5633 34.6733 15.9934 34.6733C16.4135 34.6733 16.7636 35.0115 16.7636 35.4392C16.7636 35.8669 16.4235 36.2051 15.9934 36.2051ZM15.9934 35.0712C15.7834 35.0712 15.6134 35.2403 15.6134 35.4491C15.6134 35.658 15.7834 35.8271 15.9934 35.8271C16.2035 35.8271 16.3735 35.658 16.3735 35.4491C16.3735 35.2403 16.2035 35.0712 15.9934 35.0712Z" fill="#231F20"/>
<path d="M53.5114 85.4186H52.2712C52.1311 85.4186 52.0111 85.2992 52.0111 85.16C52.0111 85.0207 52.1311 84.9014 52.2712 84.9014H53.5114C53.6515 84.9014 53.7715 85.0207 53.7715 85.16C53.7715 85.3092 53.6515 85.4186 53.5114 85.4186ZM50.7108 85.4186H49.4706C49.3305 85.4186 49.2105 85.2992 49.2105 85.16C49.2105 85.0207 49.3305 84.9014 49.4706 84.9014H50.7108C50.8509 84.9014 50.9709 85.0207 50.9709 85.16C50.9709 85.3092 50.8509 85.4186 50.7108 85.4186ZM47.9202 85.4186H46.68C46.5399 85.4186 46.4199 85.2992 46.4199 85.16C46.4199 85.0207 46.5399 84.9014 46.68 84.9014H47.9202C48.0603 84.9014 48.1803 85.0207 48.1803 85.16C48.1803 85.3092 48.0603 85.4186 47.9202 85.4186ZM45.1196 85.4186H43.8794C43.7393 85.4186 43.6193 85.2992 43.6193 85.16C43.6193 85.0207 43.7393 84.9014 43.8794 84.9014H45.1196C45.2597 84.9014 45.3797 85.0207 45.3797 85.16C45.3797 85.3092 45.2597 85.4186 45.1196 85.4186ZM42.329 85.4186H41.0888C40.9488 85.4186 40.8287 85.2992 40.8287 85.16C40.8287 85.0207 40.9488 84.9014 41.0888 84.9014H42.329C42.4691 84.9014 42.5891 85.0207 42.5891 85.16C42.5791 85.3092 42.4691 85.4186 42.329 85.4186ZM39.5284 85.4186H38.2882C38.1482 85.4186 38.0281 85.2992 38.0281 85.16C38.0281 85.0207 38.1482 84.9014 38.2882 84.9014H39.5284C39.6685 84.9014 39.7885 85.0207 39.7885 85.16C39.7885 85.3092 39.6685 85.4186 39.5284 85.4186ZM36.7278 85.4186H35.4876C35.3475 85.4186 35.2275 85.2992 35.2275 85.16C35.2275 85.0207 35.3475 84.9014 35.4876 84.9014H36.7278C36.8679 84.9014 36.9879 85.0207 36.9879 85.16C36.9879 85.3092 36.8779 85.4186 36.7278 85.4186ZM33.9372 85.4186H32.697C32.5569 85.4186 32.4369 85.2992 32.4369 85.16C32.4369 85.0207 32.5569 84.9014 32.697 84.9014H33.9372C34.0773 84.9014 34.1973 85.0207 34.1973 85.16C34.1973 85.3092 34.0773 85.4186 33.9372 85.4186ZM31.1366 85.4186H29.8964C29.7563 85.4186 29.6363 85.2992 29.6363 85.16C29.6363 85.0207 29.7563 84.9014 29.8964 84.9014H31.1366C31.2767 84.9014 31.3967 85.0207 31.3967 85.16C31.3967 85.3092 31.2867 85.4186 31.1366 85.4186ZM28.346 85.4186H27.1058C26.9657 85.4186 26.8457 85.2992 26.8457 85.16C26.8457 85.0207 26.9657 84.9014 27.1058 84.9014H28.346C28.4861 84.9014 28.6061 85.0207 28.6061 85.16C28.6061 85.3092 28.4861 85.4186 28.346 85.4186ZM25.5454 85.4186H24.3052C24.1651 85.4186 24.0451 85.2992 24.0451 85.16C24.0451 85.0207 24.1651 84.9014 24.3052 84.9014H25.5454C25.6855 84.9014 25.8055 85.0207 25.8055 85.16C25.8055 85.3092 25.6955 85.4186 25.5454 85.4186ZM22.7548 85.4186H21.5146C21.3745 85.4186 21.2545 85.2992 21.2545 85.16C21.2545 85.0207 21.3745 84.9014 21.5146 84.9014H22.7548C22.8949 84.9014 23.0149 85.0207 23.0149 85.16C23.0149 85.3092 22.8949 85.4186 22.7548 85.4186ZM19.9542 85.4186H18.714C18.5739 85.4186 18.4539 85.2992 18.4539 85.16C18.4539 85.0207 18.5739 84.9014 18.714 84.9014H19.9542C20.0943 84.9014 20.2143 85.0207 20.2143 85.16C20.2143 85.3092 20.1043 85.4186 19.9542 85.4186ZM17.1636 85.4186H15.9234C15.7833 85.4186 15.6633 85.2992 15.6633 85.16C15.6633 85.0207 15.7833 84.9014 15.9234 84.9014H17.1636C17.3037 84.9014 17.4237 85.0207 17.4237 85.16C17.4237 85.3092 17.3037 85.4186 17.1636 85.4186ZM14.363 85.4186H13.1228C12.9827 85.4186 12.8627 85.2992 12.8627 85.16C12.8627 85.0207 12.9827 84.9014 13.1228 84.9014H14.363C14.5031 84.9014 14.6231 85.0207 14.6231 85.16C14.6231 85.3092 14.5131 85.4186 14.363 85.4186ZM11.5724 85.4186H10.3322C10.1922 85.4186 10.0721 85.2992 10.0721 85.16C10.0721 85.0207 10.1922 84.9014 10.3322 84.9014H11.5724C11.7125 84.9014 11.8325 85.0207 11.8325 85.16C11.8325 85.3092 11.7125 85.4186 11.5724 85.4186ZM9.75206 84.4538C9.61203 84.4538 9.492 84.3344 9.492 84.1952V82.9619C9.492 82.8226 9.61203 82.7032 9.75206 82.7032C9.89209 82.7032 10.0121 82.8226 10.0121 82.9619V84.1952C10.0021 84.3344 9.89209 84.4538 9.75206 84.4538ZM9.75206 81.6688C9.61203 81.6688 9.492 81.5495 9.492 81.4102V80.1769C9.492 80.0376 9.61203 79.9183 9.75206 79.9183C9.89209 79.9183 10.0121 80.0376 10.0121 80.1769V81.4102C10.0021 81.5594 9.89209 81.6688 9.75206 81.6688ZM9.75206 78.8938C9.61203 78.8938 9.492 78.7745 9.492 78.6352V77.4019C9.492 77.2626 9.61203 77.1433 9.75206 77.1433C9.89209 77.1433 10.0121 77.2626 10.0121 77.4019V78.6352C10.0021 78.7745 9.89209 78.8938 9.75206 78.8938ZM9.75206 76.1089C9.61203 76.1089 9.492 75.9895 9.492 75.8503V74.6169C9.492 74.4777 9.61203 74.3583 9.75206 74.3583C9.89209 74.3583 10.0121 74.4777 10.0121 74.6169V75.8503C10.0021 75.9995 9.89209 76.1089 9.75206 76.1089ZM9.75206 73.3338C9.61203 73.3338 9.492 73.2145 9.492 73.0752V71.8419C9.492 71.7027 9.61203 71.5833 9.75206 71.5833C9.89209 71.5833 10.0121 71.7027 10.0121 71.8419V73.0752C10.0021 73.2145 9.89209 73.3338 9.75206 73.3338ZM9.75206 70.5489C9.61203 70.5489 9.492 70.4295 9.492 70.2903V69.0569C9.492 68.9177 9.61203 68.7983 9.75206 68.7983C9.89209 68.7983 10.0121 68.9177 10.0121 69.0569V70.2903C10.0021 70.4395 9.89209 70.5489 9.75206 70.5489Z" fill="#231F20"/>
<path d="M140 76.1587H138.35V77.7998H140V76.1587Z" fill="black"/>
<path d="M11.4024 26.2983H9.75208V27.9395H11.4024V26.2983Z" fill="#42434E"/>
<path d="M5.35116 63.4971H3.70081V65.1382H5.35116V63.4971Z" fill="#42434E"/>
<path d="M122.096 41.8042H120.446V43.4453H122.096V41.8042Z" fill="#42434E"/>
<path d="M55.1618 98.3589H53.5115V100H55.1618V98.3589Z" fill="#42434E"/>
<path d="M5.35116 67.1274H3.70081V68.7686H5.35116V67.1274Z" fill="#42434E"/>
<path d="M1.65035 63.4971H0V65.1382H1.65035V63.4971Z" fill="#42434E"/>
<path d="M1.65035 67.1274H0V68.7686H1.65035V67.1274Z" fill="#2D6935"/>
<path d="M49.1305 57.231H37.438V60.3541H49.1305V57.231Z" fill="black"/>
<path d="M55.9522 42.5405H37.6583V43.0975H55.9522V42.5405Z" fill="#42434E"/>
<path d="M55.9519 43.5947H37.658V44.1517H55.9519V43.5947Z" fill="#42434E"/>
<path d="M55.9519 45.6938H37.658V46.2508H55.9519V45.6938Z" fill="#42434E"/>
<path d="M55.9519 46.748H37.658V47.305H55.9519V46.748Z" fill="#42434E"/>
<path d="M46.8 47.8022H37.658V48.3592H46.8V47.8022Z" fill="#42434E"/>
<path d="M55.9519 49.9209H37.658V50.4779H55.9519V49.9209Z" fill="#42434E"/>
<path d="M55.9519 50.9751H37.658V51.5321H55.9519V50.9751Z" fill="#42434E"/>
<path d="M55.9519 52.0293H37.658V52.5863H55.9519V52.0293Z" fill="#42434E"/>
<path d="M53.1513 53.084H37.658V53.641H53.1513V53.084Z" fill="#42434E"/>
<path d="M27.2658 46.459L27.3758 48.7864H27.0958C27.0458 48.3786 26.9657 48.0802 26.8757 47.9111C26.7257 47.6326 26.5256 47.4238 26.2656 47.2845C26.0155 47.1552 25.6855 47.0856 25.2654 47.0856H23.8651V54.6647C23.8651 55.2714 23.9351 55.6593 24.0651 55.8085C24.2552 56.0174 24.5352 56.1168 24.9253 56.1168H25.2754V56.3854H21.0445V56.1168H21.3946C21.8146 56.1168 22.1147 55.9875 22.2947 55.7389C22.4048 55.5797 22.4548 55.2316 22.4548 54.6746V47.0955H21.2545C20.7844 47.0955 20.4543 47.1254 20.2643 47.195C20.0143 47.2845 19.7942 47.4636 19.6142 47.7321C19.4341 47.9907 19.3241 48.3488 19.2941 48.7964H19.014L19.1341 46.4689H27.2658V46.459Z" fill="#142445"/>
<path d="M15.3233 42.2124H14.4031V43.1275H15.3233V42.2124Z" fill="#142445"/>
<path d="M32.1568 42.2119H31.2366V43.127H32.1568V42.2119Z" fill="#142445"/>
<path d="M32.2369 59.3989H31.3167V60.314H32.2369V59.3989Z" fill="#142445"/>
<path d="M15.4032 59.3989H14.483V60.314H15.4032V59.3989Z" fill="#142445"/>
<path d="M16.4935 42.6696C16.4935 42.5602 16.5835 42.4707 16.6935 42.4707C16.8035 42.4707 16.8936 42.5602 16.8936 42.6696C16.8936 42.779 16.8035 42.8686 16.6935 42.8686C16.5835 42.8686 16.4935 42.779 16.4935 42.6696Z" fill="#142445"/>
<path d="M17.6738 42.6696C17.6738 42.5602 17.7638 42.4707 17.8738 42.4707C17.9838 42.4707 18.0739 42.5602 18.0739 42.6696C18.0739 42.779 17.9838 42.8686 17.8738 42.8686C17.7638 42.8686 17.6738 42.779 17.6738 42.6696Z" fill="#142445"/>
<path d="M18.8541 42.6696C18.8541 42.5602 18.9441 42.4707 19.0541 42.4707C19.1641 42.4707 19.2542 42.5602 19.2542 42.6696C19.2542 42.779 19.1641 42.8686 19.0541 42.8686C18.9441 42.8686 18.8541 42.779 18.8541 42.6696Z" fill="#142445"/>
<path d="M20.0443 42.6696C20.0443 42.5602 20.1343 42.4707 20.2444 42.4707C20.3544 42.4707 20.4444 42.5602 20.4444 42.6696C20.4444 42.779 20.3544 42.8686 20.2444 42.8686C20.1343 42.8686 20.0443 42.779 20.0443 42.6696Z" fill="#142445"/>
<path d="M21.2245 42.6696C21.2245 42.5602 21.3146 42.4707 21.4246 42.4707C21.5346 42.4707 21.6246 42.5602 21.6246 42.6696C21.6246 42.779 21.5346 42.8686 21.4246 42.8686C21.3146 42.8686 21.2245 42.779 21.2245 42.6696Z" fill="#142445"/>
<path d="M22.4148 42.6696C22.4148 42.5602 22.5048 42.4707 22.6148 42.4707C22.7249 42.4707 22.8149 42.5602 22.8149 42.6696C22.8149 42.779 22.7249 42.8686 22.6148 42.8686C22.5048 42.8686 22.4148 42.779 22.4148 42.6696Z" fill="#142445"/>
<path d="M23.595 42.6696C23.595 42.5602 23.6851 42.4707 23.7951 42.4707C23.9051 42.4707 23.9951 42.5602 23.9951 42.6696C23.9951 42.779 23.9051 42.8686 23.7951 42.8686C23.6851 42.8686 23.595 42.779 23.595 42.6696Z" fill="#142445"/>
<path d="M24.7753 42.6696C24.7753 42.5602 24.8653 42.4707 24.9753 42.4707C25.0853 42.4707 25.1754 42.5602 25.1754 42.6696C25.1754 42.779 25.0853 42.8686 24.9753 42.8686C24.8653 42.8686 24.7753 42.779 24.7753 42.6696Z" fill="#142445"/>
<path d="M25.9656 42.6696C25.9656 42.5602 26.0556 42.4707 26.1656 42.4707C26.2756 42.4707 26.3657 42.5602 26.3657 42.6696C26.3657 42.779 26.2756 42.8686 26.1656 42.8686C26.0556 42.8686 25.9656 42.779 25.9656 42.6696Z" fill="#142445"/>
<path d="M27.1458 42.6696C27.1458 42.5602 27.2358 42.4707 27.3459 42.4707C27.4559 42.4707 27.5459 42.5602 27.5459 42.6696C27.5459 42.779 27.4559 42.8686 27.3459 42.8686C27.2358 42.8686 27.1458 42.779 27.1458 42.6696Z" fill="#142445"/>
<path d="M28.3361 42.6696C28.3361 42.5602 28.4261 42.4707 28.5361 42.4707C28.6461 42.4707 28.7361 42.5602 28.7361 42.6696C28.7361 42.779 28.6461 42.8686 28.5361 42.8686C28.4261 42.8686 28.3361 42.779 28.3361 42.6696Z" fill="#142445"/>
<path d="M29.5063 42.6696C29.5063 42.5602 29.5964 42.4707 29.7064 42.4707C29.8164 42.4707 29.9064 42.5602 29.9064 42.6696C29.9064 42.779 29.8164 42.8686 29.7064 42.8686C29.5864 42.8686 29.5063 42.779 29.5063 42.6696Z" fill="#142445"/>
<path d="M31.7769 44.5991C31.8869 44.5991 31.9769 44.6886 31.9769 44.798C31.9769 44.9075 31.8869 44.997 31.7769 44.997C31.6669 44.997 31.5768 44.9075 31.5768 44.798C31.5868 44.6886 31.6769 44.5991 31.7769 44.5991Z" fill="#142445"/>
<path d="M31.7768 45.7725C31.8868 45.7725 31.9768 45.862 31.9768 45.9714C31.9768 46.0808 31.8868 46.1703 31.7768 46.1703C31.6667 46.1703 31.5767 46.0808 31.5767 45.9714C31.5767 45.862 31.6767 45.7725 31.7768 45.7725Z" fill="#142445"/>
<path d="M31.7768 46.9463C31.8868 46.9463 31.9768 47.0358 31.9768 47.1452C31.9768 47.2546 31.8868 47.3441 31.7768 47.3441C31.6667 47.3441 31.5767 47.2546 31.5767 47.1452C31.5767 47.0358 31.6767 46.9463 31.7768 46.9463Z" fill="#142445"/>
<path d="M31.7768 48.1299C31.8868 48.1299 31.9768 48.2194 31.9768 48.3288C31.9768 48.4382 31.8868 48.5277 31.7768 48.5277C31.6667 48.5277 31.5767 48.4382 31.5767 48.3288C31.5867 48.2194 31.6767 48.1299 31.7768 48.1299Z" fill="#142445"/>
<path d="M31.7768 49.3037C31.8868 49.3037 31.9768 49.3932 31.9768 49.5026C31.9768 49.612 31.8868 49.7016 31.7768 49.7016C31.6667 49.7016 31.5767 49.612 31.5767 49.5026C31.5767 49.3932 31.6767 49.3037 31.7768 49.3037Z" fill="#142445"/>
<path d="M31.7768 50.4873C31.8868 50.4873 31.9768 50.5768 31.9768 50.6862C31.9768 50.7956 31.8868 50.8852 31.7768 50.8852C31.6667 50.8852 31.5767 50.7956 31.5767 50.6862C31.5867 50.5669 31.6767 50.4873 31.7768 50.4873Z" fill="#142445"/>
<path d="M31.7768 51.6611C31.8868 51.6611 31.9768 51.7506 31.9768 51.8601C31.9768 51.9695 31.8868 52.059 31.7768 52.059C31.6667 52.059 31.5767 51.9695 31.5767 51.8601C31.5867 51.7506 31.6767 51.6611 31.7768 51.6611Z" fill="#142445"/>
<path d="M31.7768 52.8345C31.8868 52.8345 31.9768 52.924 31.9768 53.0334C31.9768 53.1428 31.8868 53.2323 31.7768 53.2323C31.6667 53.2323 31.5767 53.1428 31.5767 53.0334C31.5867 52.924 31.6767 52.8345 31.7768 52.8345Z" fill="#142445"/>
<path d="M31.7768 54.0181C31.8868 54.0181 31.9768 54.1076 31.9768 54.217C31.9768 54.3264 31.8868 54.4159 31.7768 54.4159C31.6667 54.4159 31.5767 54.3264 31.5767 54.217C31.5767 54.1076 31.6767 54.0181 31.7768 54.0181Z" fill="#142445"/>
<path d="M31.7768 55.1919C31.8868 55.1919 31.9768 55.2814 31.9768 55.3908C31.9768 55.5002 31.8868 55.5897 31.7768 55.5897C31.6667 55.5897 31.5767 55.5002 31.5767 55.3908C31.5867 55.2814 31.6767 55.1919 31.7768 55.1919Z" fill="#142445"/>
<path d="M31.7768 56.3755C31.8868 56.3755 31.9768 56.465 31.9768 56.5744C31.9768 56.6838 31.8868 56.7733 31.7768 56.7733C31.6667 56.7733 31.5767 56.6838 31.5767 56.5744C31.5867 56.4551 31.6767 56.3755 31.7768 56.3755Z" fill="#142445"/>
<path d="M31.7768 57.5391C31.8868 57.5391 31.9768 57.6286 31.9768 57.738C31.9768 57.8474 31.8868 57.9369 31.7768 57.9369C31.6667 57.9369 31.5767 57.8474 31.5767 57.738C31.5867 57.6186 31.6767 57.5391 31.7768 57.5391Z" fill="#142445"/>
<path d="M14.8733 44.5991C14.9833 44.5991 15.0733 44.6886 15.0733 44.798C15.0733 44.9075 14.9833 44.997 14.8733 44.997C14.7632 44.997 14.6732 44.9075 14.6732 44.798C14.6732 44.6886 14.7632 44.5991 14.8733 44.5991Z" fill="#142445"/>
<path d="M14.8731 45.7725C14.9832 45.7725 15.0732 45.862 15.0732 45.9714C15.0732 46.0808 14.9832 46.1703 14.8731 46.1703C14.7631 46.1703 14.6731 46.0808 14.6731 45.9714C14.6731 45.862 14.7631 45.7725 14.8731 45.7725Z" fill="#142445"/>
<path d="M14.8731 46.9463C14.9832 46.9463 15.0732 47.0358 15.0732 47.1452C15.0732 47.2546 14.9832 47.3441 14.8731 47.3441C14.7631 47.3441 14.6731 47.2546 14.6731 47.1452C14.6731 47.0358 14.7631 46.9463 14.8731 46.9463Z" fill="#142445"/>
<path d="M14.8731 48.1299C14.9832 48.1299 15.0732 48.2194 15.0732 48.3288C15.0732 48.4382 14.9832 48.5277 14.8731 48.5277C14.7631 48.5277 14.6731 48.4382 14.6731 48.3288C14.6731 48.2194 14.7631 48.1299 14.8731 48.1299Z" fill="#142445"/>
<path d="M14.8731 49.3037C14.9832 49.3037 15.0732 49.3932 15.0732 49.5026C15.0732 49.612 14.9832 49.7016 14.8731 49.7016C14.7631 49.7016 14.6731 49.612 14.6731 49.5026C14.6731 49.3932 14.7631 49.3037 14.8731 49.3037Z" fill="#142445"/>
<path d="M14.8731 50.4873C14.9832 50.4873 15.0732 50.5768 15.0732 50.6862C15.0732 50.7956 14.9832 50.8852 14.8731 50.8852C14.7631 50.8852 14.6731 50.7956 14.6731 50.6862C14.6731 50.5669 14.7631 50.4873 14.8731 50.4873Z" fill="#142445"/>
<path d="M14.8731 51.6611C14.9832 51.6611 15.0732 51.7506 15.0732 51.8601C15.0732 51.9695 14.9832 52.059 14.8731 52.059C14.7631 52.059 14.6731 51.9695 14.6731 51.8601C14.6731 51.7506 14.7631 51.6611 14.8731 51.6611Z" fill="#142445"/>
<path d="M14.8731 52.8345C14.9832 52.8345 15.0732 52.924 15.0732 53.0334C15.0732 53.1428 14.9832 53.2323 14.8731 53.2323C14.7631 53.2323 14.6731 53.1428 14.6731 53.0334C14.6731 52.924 14.7631 52.8345 14.8731 52.8345Z" fill="#142445"/>
<path d="M14.8731 54.0181C14.9832 54.0181 15.0732 54.1076 15.0732 54.217C15.0732 54.3264 14.9832 54.4159 14.8731 54.4159C14.7631 54.4159 14.6731 54.3264 14.6731 54.217C14.6731 54.1076 14.7631 54.0181 14.8731 54.0181Z" fill="#142445"/>
<path d="M14.8731 55.1919C14.9832 55.1919 15.0732 55.2814 15.0732 55.3908C15.0732 55.5002 14.9832 55.5897 14.8731 55.5897C14.7631 55.5897 14.6731 55.5002 14.6731 55.3908C14.6731 55.2814 14.7631 55.1919 14.8731 55.1919Z" fill="#142445"/>
<path d="M14.8731 56.3755C14.9832 56.3755 15.0732 56.465 15.0732 56.5744C15.0732 56.6838 14.9832 56.7733 14.8731 56.7733C14.7631 56.7733 14.6731 56.6838 14.6731 56.5744C14.6731 56.4551 14.7631 56.3755 14.8731 56.3755Z" fill="#142445"/>
<path d="M14.8731 57.5391C14.9832 57.5391 15.0732 57.6286 15.0732 57.738C15.0732 57.8474 14.9832 57.9369 14.8731 57.9369C14.7631 57.9369 14.6731 57.8474 14.6731 57.738C14.6731 57.6186 14.7631 57.5391 14.8731 57.5391Z" fill="#142445"/>
<path d="M16.4935 59.8566C16.4935 59.7472 16.5835 59.6577 16.6935 59.6577C16.8035 59.6577 16.8936 59.7472 16.8936 59.8566C16.8936 59.966 16.8035 60.0556 16.6935 60.0556C16.5835 60.0556 16.4935 59.966 16.4935 59.8566Z" fill="#142445"/>
<path d="M17.6738 59.8566C17.6738 59.7472 17.7638 59.6577 17.8738 59.6577C17.9838 59.6577 18.0739 59.7472 18.0739 59.8566C18.0739 59.966 17.9838 60.0556 17.8738 60.0556C17.7538 60.0556 17.6738 59.966 17.6738 59.8566Z" fill="#142445"/>
<path d="M18.8541 59.8566C18.8541 59.7472 18.9441 59.6577 19.0541 59.6577C19.1641 59.6577 19.2542 59.7472 19.2542 59.8566C19.2542 59.966 19.1641 60.0556 19.0541 60.0556C18.9441 60.0556 18.8541 59.966 18.8541 59.8566Z" fill="#142445"/>
<path d="M20.0342 59.8566C20.0342 59.7472 20.1243 59.6577 20.2343 59.6577C20.3443 59.6577 20.4343 59.7472 20.4343 59.8566C20.4343 59.966 20.3443 60.0556 20.2343 60.0556C20.1243 60.0556 20.0342 59.966 20.0342 59.8566Z" fill="#142445"/>
<path d="M21.2245 59.8566C21.2245 59.7472 21.3146 59.6577 21.4246 59.6577C21.5346 59.6577 21.6246 59.7472 21.6246 59.8566C21.6246 59.966 21.5346 60.0556 21.4246 60.0556C21.3046 60.0556 21.2245 59.966 21.2245 59.8566Z" fill="#142445"/>
<path d="M22.4048 59.8566C22.4048 59.7472 22.4948 59.6577 22.6048 59.6577C22.7149 59.6577 22.8049 59.7472 22.8049 59.8566C22.8049 59.966 22.7149 60.0556 22.6048 60.0556C22.4948 60.0556 22.4048 59.966 22.4048 59.8566Z" fill="#142445"/>
<path d="M23.585 59.8566C23.585 59.7472 23.675 59.6577 23.7851 59.6577C23.8951 59.6577 23.9851 59.7472 23.9851 59.8566C23.9851 59.966 23.8951 60.0556 23.7851 60.0556C23.675 60.0556 23.585 59.966 23.585 59.8566Z" fill="#142445"/>
<path d="M24.7753 59.8566C24.7753 59.7472 24.8653 59.6577 24.9753 59.6577C25.0853 59.6577 25.1754 59.7472 25.1754 59.8566C25.1754 59.966 25.0853 60.0556 24.9753 60.0556C24.8653 60.0556 24.7753 59.966 24.7753 59.8566Z" fill="#142445"/>
<path d="M25.9556 59.8566C25.9556 59.7472 26.0456 59.6577 26.1556 59.6577C26.2656 59.6577 26.3557 59.7472 26.3557 59.8566C26.3557 59.966 26.2656 60.0556 26.1556 60.0556C26.0456 60.0556 25.9556 59.966 25.9556 59.8566Z" fill="#142445"/>
<path d="M27.1458 59.8566C27.1458 59.7472 27.2358 59.6577 27.3459 59.6577C27.4559 59.6577 27.5459 59.7472 27.5459 59.8566C27.5459 59.966 27.4559 60.0556 27.3459 60.0556C27.2258 60.0556 27.1458 59.966 27.1458 59.8566Z" fill="#142445"/>
<path d="M28.326 59.8566C28.326 59.7472 28.4161 59.6577 28.5261 59.6577C28.6361 59.6577 28.7261 59.7472 28.7261 59.8566C28.7261 59.966 28.6361 60.0556 28.5261 60.0556C28.4161 60.0556 28.326 59.966 28.326 59.8566Z" fill="#142445"/>
<path d="M29.4963 59.8566C29.4963 59.7472 29.5864 59.6577 29.6964 59.6577C29.8064 59.6577 29.8964 59.7472 29.8964 59.8566C29.8964 59.966 29.8064 60.0556 29.6964 60.0556C29.5864 60.0556 29.4963 59.966 29.4963 59.8566Z" fill="#142445"/>
</svg>
