<svg width="60" height="60" viewBox="0 0 60 60" fill="none" xmlns="http://www.w3.org/2000/svg">
<path d="M52.6667 35.1062H20.6667C20.2985 35.1062 20 35.3919 20 35.7445V40.8509C20 41.2033 20.2985 41.4892 20.6667 41.4892H52.6667C53.0349 41.4892 53.3333 41.2033 53.3333 40.8509V35.7445C53.3333 35.3919 53.0349 35.1062 52.6667 35.1062ZM52 40.2126H21.3333V36.3828H24V37.6594C24 38.0118 24.2985 38.2977 24.6667 38.2977C25.0348 38.2977 25.3333 38.0118 25.3333 37.6594V36.3828H28V37.6594C28 38.0118 28.2985 38.2977 28.6667 38.2977C29.0348 38.2977 29.3333 38.0118 29.3333 37.6594V36.3828H32V37.6594C32 38.0118 32.2984 38.2977 32.6667 38.2977C33.0349 38.2977 33.3333 38.0118 33.3333 37.6594V36.3828H36V37.6594C36 38.0118 36.2984 38.2977 36.6667 38.2977C37.0349 38.2977 37.3333 38.0118 37.3333 37.6594V36.3828H40V37.6594C40 38.0118 40.2984 38.2977 40.6667 38.2977C41.0349 38.2977 41.3333 38.0118 41.3333 37.6594V36.3828H44V37.6594C44 38.0118 44.2984 38.2977 44.6667 38.2977C45.0349 38.2977 45.3333 38.0118 45.3333 37.6594V36.3828H48V37.6594C48 38.0118 48.2984 38.2977 48.6667 38.2977C49.0349 38.2977 49.3333 38.0118 49.3333 37.6594V36.3828H52V40.2126Z" fill="white"/>
<path d="M30.1341 48.6379C30.8705 48.6379 31.4674 48.0663 31.4674 47.3613C31.4674 46.6563 30.8705 46.0847 30.1341 46.0847C29.3977 46.0847 28.8008 46.6563 28.8008 47.3613C28.8008 48.0663 29.3977 48.6379 30.1341 48.6379Z" fill="white"/>
<path d="M58.332 5.10629C58.8843 5.10629 59.332 4.67763 59.332 4.14885C59.332 3.62007 58.8843 3.19141 58.332 3.19141C57.7797 3.19141 57.332 3.62007 57.332 4.14885C57.332 4.67763 57.7797 5.10629 58.332 5.10629Z" fill="white"/>
<path d="M16.332 8.93564C16.8843 8.93564 17.332 8.50698 17.332 7.97819C17.332 7.44941 16.8843 7.02075 16.332 7.02075C15.7797 7.02075 15.332 7.44941 15.332 7.97819C15.332 8.50698 15.7797 8.93564 16.332 8.93564Z" fill="white"/>
<path d="M1.66406 7.65903C2.21635 7.65903 2.66406 7.23036 2.66406 6.70158C2.66406 6.1728 2.21635 5.74414 1.66406 5.74414C1.11178 5.74414 0.664062 6.1728 0.664062 6.70158C0.664062 7.23036 1.11178 7.65903 1.66406 7.65903Z" fill="white"/>
<path d="M10.6693 7.02126C12.5073 7.02126 14.0026 5.58956 14.0026 3.82978C14.0026 2.07 12.5073 0.638306 10.6693 0.638306C8.83127 0.638306 7.33594 2.07 7.33594 3.82978C7.33594 5.58956 8.83127 7.02126 10.6693 7.02126ZM10.6693 1.91477C11.7721 1.91477 12.6693 2.77379 12.6693 3.82965C12.6693 4.88552 11.7721 5.74454 10.6693 5.74454C9.56647 5.74454 8.66927 4.88552 8.66927 3.82965C8.66927 2.77379 9.56647 1.91477 10.6693 1.91477Z" fill="white"/>
<path d="M49.3346 8.29777C50.805 8.29777 52.0013 7.15241 52.0013 5.74459C52.0013 4.33676 50.805 3.19141 49.3346 3.19141C47.8642 3.19141 46.668 4.33676 46.668 5.74459C46.668 7.15228 47.8642 8.29777 49.3346 8.29777ZM49.3346 4.46787C50.0698 4.46787 50.668 5.04055 50.668 5.74446C50.668 6.44837 50.0698 7.02105 49.3346 7.02105C48.5994 7.02105 48.0013 6.44837 48.0013 5.74446C48.0013 5.04055 48.5994 4.46787 49.3346 4.46787Z" fill="white"/>
<path d="M55.2667 9.57443H43.3981C43.7091 8.98975 43.8688 8.33792 43.8579 7.66337C43.8261 5.68172 41.2272 2.06731 40.0327 0.292594C39.8717 0.0532338 39.5644 -0.0546381 39.2803 0.0270637C38.9956 0.109021 38.802 0.361403 38.8056 0.645955C38.8213 1.90927 37.8069 3.3296 36.9117 4.5827C36.0564 5.78002 35.3177 6.81406 35.3335 7.78912C35.3515 8.90447 35.8451 9.91489 36.6256 10.6437L37.0312 13.4042H34V0.638295C34 0.285829 33.7016 0 33.3333 0H28.6667C28.2985 0 28 0.285829 28 0.638295V13.4042H26.4V6.89359C26.4 6.80461 26.3807 6.71997 26.3464 6.64299C26.2852 6.50589 23.5519 0.3997 23.5461 0.386935C23.316 -0.127021 22.5515 -0.128553 22.3207 0.386935L19.5207 6.64223C19.5075 6.68206 19.4668 6.75623 19.4668 6.89372V9.57456H4.73333C2.12333 9.57456 0 11.6075 0 14.1065V47.1703C0 49.6691 2.12333 51.7022 4.73333 51.7022H22.8V58.7234H20.9333C20.5652 58.7234 20.2667 59.0091 20.2667 59.3617C20.2667 59.7142 20.5652 60 20.9333 60C21.7681 60 25.9708 60 26.8 60C31.6577 60 35.1332 60 39.3333 60C39.7016 60 40 59.7142 40 59.3617C40 59.0091 39.7016 58.7234 39.3333 58.7234H37.4667V51.7022H55.2667C57.8767 51.7022 60 49.6691 60 47.1703V14.1062C60 11.6074 57.8767 9.57443 55.2667 9.57443ZM39.8064 2.30667C40.9583 4.02713 42.5055 6.47384 42.5249 7.68303C42.5497 9.23268 41.2597 10.5067 39.6408 10.5306L39.5944 10.531C38.0045 10.531 36.6913 9.29217 36.6667 7.76946C36.6492 6.68282 38.9729 4.46194 39.8064 2.30667ZM38.1048 11.5465C39.1327 11.9182 40.24 11.8815 41.2009 11.5081L40.9843 13.4042H38.3777L38.1048 11.5465ZM5.33333 37.6594C6.88427 37.6594 11.4933 37.6594 13.3333 37.6594C13.7015 37.6594 14 37.3736 14 37.0211C14 36.6685 13.7015 36.3828 13.3333 36.3828H9.63733L12.9356 28.1722C13.1072 28.1834 13.2261 28.1834 13.3977 28.1722L17.0445 37.2501C17.1769 37.5798 17.5633 37.743 17.906 37.6166C18.2496 37.4901 18.4211 37.1208 18.2889 36.7918L14.6892 27.8307C15.7824 27.2976 16.5335 26.2101 16.5335 24.9571C16.5335 23.3981 15.3716 22.0945 13.8335 21.7974V19.7869C13.8335 19.4344 13.5349 19.1486 13.1668 19.1486C12.7987 19.1486 12.5001 19.4344 12.5001 19.7869V21.7974C10.962 22.0945 9.80013 23.3981 9.80013 24.9571C9.80013 26.2101 10.5512 27.2976 11.6444 27.8307L8.20893 36.3827H5.33333V14.6807H16.2403C15.9203 15.1374 15.7333 15.6864 15.7333 16.2764C15.7333 17.8603 17.0791 19.1487 18.7333 19.1487H43.9333C45.5875 19.1487 46.9333 17.8603 46.9333 16.2764C46.9333 15.6864 46.7464 15.1374 46.4264 14.6807H54.6667V42.7658H5.33333V37.6594ZM11.1333 24.9572C11.1333 23.8837 12.0455 23.0104 13.1667 23.0104C14.2879 23.0104 15.2 23.8837 15.2 24.9572C15.2 25.667 14.8 26.2873 14.2057 26.6275C13.7552 25.5101 13.7945 25.5933 13.7485 25.5133C13.7183 25.4604 13.7263 25.4696 13.6785 25.4144C13.6325 25.361 13.6424 25.3711 13.5895 25.3291C13.5317 25.2836 13.5407 25.2905 13.4855 25.2617C13.4641 25.2504 13.4431 25.2392 13.4207 25.2303C13.4155 25.2282 13.4112 25.2252 13.4059 25.2231C13.3923 25.2181 13.3783 25.2165 13.3647 25.2123C13.3417 25.2054 13.3191 25.1986 13.2953 25.1941C13.2663 25.1887 13.1971 25.1821 13.1669 25.182C13.1351 25.182 13.0653 25.1889 13.0383 25.194C13.0144 25.1986 12.9915 25.2054 12.9683 25.2124C12.9547 25.2165 12.9408 25.2181 12.9272 25.2231C12.9219 25.225 12.9176 25.2281 12.9125 25.2303C12.8901 25.2391 12.8692 25.2504 12.848 25.2616C12.7905 25.2917 12.8025 25.2829 12.7443 25.3287C12.6904 25.3712 12.7009 25.3606 12.6551 25.4141C12.6079 25.4687 12.6149 25.4604 12.5849 25.5133C12.5732 25.5338 12.5613 25.5541 12.552 25.5759C12.5499 25.5807 12.5467 25.5848 12.5447 25.5898L12.1279 26.6275C11.5333 26.2874 11.1333 25.667 11.1333 24.9572ZM45.6 16.2764C45.6 17.1564 44.8524 17.8721 43.9333 17.8721H18.7333C17.8143 17.8721 17.0667 17.1564 17.0667 16.2764C17.0667 15.3964 17.8143 14.6807 18.7333 14.6807C19.8323 14.6807 38.8849 14.6808 37.7975 14.6808C49.0461 14.6807 39.6719 14.6808 43.9333 14.6807C44.8524 14.6807 45.6 15.3966 45.6 16.2764ZM20.8 7.53188H22.2667V13.4042H20.8V7.53188ZM29.3333 1.27646H32.6667V1.91476H31.3333C30.9651 1.91476 30.6667 2.20059 30.6667 2.55305C30.6667 2.90552 30.9651 3.19135 31.3333 3.19135H32.6667V3.82964H31.3333C30.9651 3.82964 30.6667 4.11547 30.6667 4.46794C30.6667 4.82041 30.9651 5.10623 31.3333 5.10623H32.6667V5.74453H31.3333C30.9651 5.74453 30.6667 6.03036 30.6667 6.38282C30.6667 6.73529 30.9651 7.02112 31.3333 7.02112H32.6667V7.65941H31.3333C30.9651 7.65941 30.6667 7.94524 30.6667 8.29771C30.6667 8.65018 30.9651 8.93601 31.3333 8.93601H32.6667V9.5743H31.3333C30.9651 9.5743 30.6667 9.86013 30.6667 10.2126C30.6667 10.5651 30.9651 10.8509 31.3333 10.8509H32.6667V11.4892H31.3333C30.9651 11.4892 30.6667 11.775 30.6667 12.1275C30.6667 12.4799 30.9651 12.7658 31.3333 12.7658H32.6667V13.4041H29.3333V1.27646ZM23.6 13.4041V7.53176H25.0667V13.4041H23.6ZM22.9333 2.25854L24.7223 6.25517H21.1443L22.9333 2.25854ZM24.1333 51.8296H26.1333V58.7232H24.1333V51.8296ZM27.4667 58.7232V51.8296H32.8V58.7232H27.4667ZM34.1333 58.7232V51.8296H36.1333V58.7232H34.1333ZM58.6667 47.17C58.6667 48.9649 57.1413 50.4253 55.2667 50.4253H4.73333C2.85853 50.4253 1.33333 48.9649 1.33333 47.17V14.1062C1.33333 12.3112 2.85853 10.8509 4.73333 10.8509H19.4667V13.4041C17.2463 13.4041 6.30133 13.4041 4.66667 13.4041C4.29853 13.4041 4 13.6899 4 14.0424V43.4041C4 43.7565 4.29853 44.0424 4.66667 44.0424H55.3333C55.7016 44.0424 56 43.7565 56 43.4041V14.0424C56 13.6899 55.7016 13.4041 55.3333 13.4041C51.8833 13.4041 45.5279 13.4041 42.3256 13.4041L42.6173 10.8509H55.2667C57.1413 10.8509 58.6667 12.3112 58.6667 14.1062V47.17Z" fill="white"/>
<path d="M27.9987 28.0848H29.9987C30.367 28.0848 30.6654 27.799 30.6654 27.4465C30.6654 27.0941 30.367 26.8082 29.9987 26.8082H27.9987C27.6306 26.8082 27.332 27.0941 27.332 27.4465C27.332 27.7991 27.6306 28.0848 27.9987 28.0848Z" fill="white"/>
<path d="M37.9987 27.4465C37.9987 27.0941 37.7003 26.8082 37.332 26.8082H31.9987C31.6304 26.8082 31.332 27.0941 31.332 27.4465C31.332 27.799 31.6304 28.0848 31.9987 28.0848H37.332C37.7003 28.0848 37.9987 27.7991 37.9987 27.4465Z" fill="white"/>
<path d="M27.9987 30.6382H30.6654C31.0336 30.6382 31.332 30.3523 31.332 29.9999C31.332 29.6473 31.0336 29.3615 30.6654 29.3615H27.9987C27.6306 29.3615 27.332 29.6473 27.332 29.9999C27.332 30.3523 27.6306 30.6382 27.9987 30.6382Z" fill="white"/>
<path d="M39.3333 29.9999C39.3333 29.6473 39.0349 29.3615 38.6667 29.3615H32.6667C32.2984 29.3615 32 29.6473 32 29.9999C32 30.3523 32.2984 30.6382 32.6667 30.6382H38.6667C39.0349 30.6382 39.3333 30.3523 39.3333 29.9999Z" fill="white"/>
<path d="M27.9987 33.1914H31.332C31.7003 33.1914 31.9987 32.9056 31.9987 32.5531C31.9987 32.2005 31.7003 31.9148 31.332 31.9148H27.9987C27.6306 31.9148 27.332 32.2005 27.332 32.5531C27.332 32.9056 27.6306 33.1914 27.9987 33.1914Z" fill="white"/>
<path d="M33.3346 31.9148C32.9664 31.9148 32.668 32.2005 32.668 32.5531C32.668 32.9056 32.9664 33.1914 33.3346 33.1914H36.668C37.0362 33.1914 37.3346 32.9056 37.3346 32.5531C37.3346 32.2005 37.0362 31.9148 36.668 31.9148H33.3346Z" fill="white"/>
<path d="M42 30.6382C42.3683 30.6382 42.6667 30.3523 42.6667 29.9999C42.6667 29.6473 42.3683 29.3615 42 29.3615H40.6667C40.2984 29.3615 40 29.6473 40 29.9999C40 30.3523 40.2984 30.6382 40.6667 30.6382H42Z" fill="white"/>
<path d="M39.3346 28.0848H42.668C43.0362 28.0848 43.3346 27.799 43.3346 27.4465C43.3346 27.0941 43.0362 26.8082 42.668 26.8082H39.3346C38.9664 26.8082 38.668 27.0941 38.668 27.4465C38.668 27.7991 38.9664 28.0848 39.3346 28.0848Z" fill="white"/>
<path d="M44.6667 28.0848H46C46.3683 28.0848 46.6667 27.799 46.6667 27.4465C46.6667 27.0941 46.3683 26.8082 46 26.8082H44.6667C44.2984 26.8082 44 27.0941 44 27.4465C44 27.7991 44.2984 28.0848 44.6667 28.0848Z" fill="white"/>
<path d="M38.6667 33.1914H40C40.3683 33.1914 40.6667 32.9056 40.6667 32.5531C40.6667 32.2005 40.3683 31.9148 40 31.9148H38.6667C38.2984 31.9148 38 32.2005 38 32.5531C38 32.9056 38.2984 33.1914 38.6667 33.1914Z" fill="white"/>
<path d="M27.9987 22.9785H31.332C31.7003 22.9785 31.9987 22.6927 31.9987 22.3402C31.9987 21.9877 31.7003 21.7019 31.332 21.7019H27.9987C27.6306 21.7019 27.332 21.9877 27.332 22.3402C27.332 22.6928 27.6306 22.9785 27.9987 22.9785Z" fill="white"/>
<path d="M33.3346 22.9785H36.668C37.0362 22.9785 37.3346 22.6927 37.3346 22.3402C37.3346 21.9877 37.0362 21.7019 36.668 21.7019H33.3346C32.9664 21.7019 32.668 21.9877 32.668 22.3402C32.668 22.6928 32.9664 22.9785 33.3346 22.9785Z" fill="white"/>
<path d="M27.9987 25.5317H34.6654C35.0336 25.5317 35.332 25.2459 35.332 24.8934C35.332 24.541 35.0336 24.2551 34.6654 24.2551H27.9987C27.6306 24.2551 27.332 24.541 27.332 24.8934C27.332 25.246 27.6306 25.5317 27.9987 25.5317Z" fill="white"/>
<path d="M36 24.8934C36 25.2459 36.2984 25.5317 36.6667 25.5317H38C38.3683 25.5317 38.6667 25.2459 38.6667 24.8934C38.6667 24.541 38.3683 24.2551 38 24.2551H36.6667C36.2984 24.2551 36 24.541 36 24.8934Z" fill="white"/>
<path d="M39.9987 25.5317H43.332C43.7003 25.5317 43.9987 25.2459 43.9987 24.8934C43.9987 24.541 43.7003 24.2551 43.332 24.2551H39.9987C39.6304 24.2551 39.332 24.541 39.332 24.8934C39.332 25.246 39.6304 25.5317 39.9987 25.5317Z" fill="white"/>
<path d="M24.0026 33.1914H25.3359C25.7041 33.1914 26.0026 32.9056 26.0026 32.5531C26.0026 32.2005 25.7041 31.9148 25.3359 31.9148H24.0026C23.6345 31.9148 23.3359 32.2005 23.3359 32.5531C23.3359 32.9056 23.6345 33.1914 24.0026 33.1914Z" fill="white"/>
<path d="M24.0026 30.6382H25.3359C25.7041 30.6382 26.0026 30.3523 26.0026 29.9999C26.0026 29.6473 25.7041 29.3615 25.3359 29.3615H24.0026C23.6345 29.3615 23.3359 29.6473 23.3359 29.9999C23.3359 30.3523 23.6345 30.6382 24.0026 30.6382Z" fill="white"/>
<path d="M24.0026 28.0848H25.3359C25.7041 28.0848 26.0026 27.799 26.0026 27.4465C26.0026 27.0941 25.7041 26.8082 25.3359 26.8082H24.0026C23.6345 26.8082 23.3359 27.0941 23.3359 27.4465C23.3359 27.7991 23.6345 28.0848 24.0026 28.0848Z" fill="white"/>
<path d="M24.0026 25.5317H25.3359C25.7041 25.5317 26.0026 25.2459 26.0026 24.8934C26.0026 24.541 25.7041 24.2551 25.3359 24.2551H24.0026C23.6345 24.2551 23.3359 24.541 23.3359 24.8934C23.3359 25.246 23.6345 25.5317 24.0026 25.5317Z" fill="white"/>
<path d="M24.0026 22.9785H25.3359C25.7041 22.9785 26.0026 22.6927 26.0026 22.3402C26.0026 21.9877 25.7041 21.7019 25.3359 21.7019H24.0026C23.6345 21.7019 23.3359 21.9877 23.3359 22.3402C23.3359 22.6928 23.6345 22.9785 24.0026 22.9785Z" fill="white"/>
</svg>
