<svg width="60" height="51" viewBox="0 0 60 51" fill="none" xmlns="http://www.w3.org/2000/svg">
<path d="M25.8766 35.62L39.0016 11.38C39.3745 10.6904 39.4754 9.87105 39.282 9.10215C39.0886 8.33325 38.6168 7.67779 37.9703 7.27997C37.3238 6.88214 36.5557 6.77454 35.8349 6.98083C35.114 7.18712 34.4995 7.69041 34.1266 8.37997L21.0016 32.63C20.8169 32.9714 20.6971 33.3483 20.649 33.7391C20.6008 34.13 20.6254 34.5271 20.7211 34.9078C20.8169 35.2885 20.982 35.6454 21.2071 35.958C21.4321 36.2707 21.7127 36.533 22.0328 36.73C22.3529 36.927 22.7062 37.0548 23.0726 37.1061C23.439 37.1574 23.8113 37.1313 24.1683 37.0291C24.8891 36.8228 25.5036 36.3195 25.8766 35.63V35.62ZM22.9703 35C22.8629 34.9346 22.7686 34.8473 22.693 34.7429C22.6174 34.6386 22.5618 34.5193 22.5296 34.392C22.4973 34.2646 22.489 34.1317 22.5051 34.001C22.5212 33.8702 22.5614 33.7441 22.6234 33.63L35.7484 9.38997C35.8728 9.15923 36.0779 8.99062 36.3188 8.92123C36.5596 8.85185 36.8165 8.88736 37.0328 9.01997C37.2491 9.15258 37.4072 9.37141 37.4723 9.62834C37.5373 9.88526 37.504 10.1592 37.3797 10.39L24.2547 34.63C24.1934 34.7446 24.1115 34.8451 24.0137 34.9258C23.9159 35.0065 23.8041 35.0657 23.6847 35.1001C23.5653 35.1345 23.4407 35.1433 23.3181 35.1262C23.1955 35.109 23.0773 35.0661 22.9703 35Z" fill="white"/>
<path d="M39.6939 29.87C39.8564 30.3547 40.1257 30.7906 40.4793 31.141C40.8328 31.4913 41.2601 31.7459 41.7252 31.8831C42.1903 32.0204 42.6795 32.0363 43.1516 31.9296C43.6237 31.8229 44.0648 31.5967 44.4377 31.27L52.4064 24.27C52.7282 23.9886 52.9875 23.6345 53.1655 23.2333C53.3435 22.8321 53.4358 22.3938 53.4358 21.95C53.4358 21.5061 53.3435 21.0678 53.1655 20.6666C52.9875 20.2654 52.7282 19.9114 52.4064 19.63L44.4377 12.68C44.1299 12.4127 43.7758 12.2128 43.3956 12.0915C43.0153 11.9702 42.6164 11.9301 42.2216 11.9732C41.8268 12.0164 41.4439 12.1421 41.0946 12.3432C40.7454 12.5442 40.4367 12.8167 40.1861 13.145C39.9356 13.4733 39.7481 13.851 39.6345 14.2566C39.5208 14.6622 39.4831 15.0877 39.5236 15.5088C39.5641 15.9299 39.6819 16.3384 39.8704 16.7109C40.0589 17.0834 40.3143 17.4127 40.6221 17.68L45.5439 22L40.6221 26.29C40.1374 26.7095 39.7876 27.2799 39.6212 27.9216C39.4549 28.5633 39.4803 29.2444 39.6939 29.87ZM41.8127 27.87L47.6158 22.8C47.722 22.7061 47.8074 22.5885 47.8661 22.4554C47.9247 22.3223 47.9552 22.177 47.9552 22.03C47.9552 21.8829 47.9247 21.7376 47.8661 21.6045C47.8074 21.4715 47.722 21.3538 47.6158 21.26L41.8127 16.16C41.6318 16.0003 41.5013 15.7852 41.439 15.5437C41.3767 15.3022 41.3856 15.0462 41.4644 14.8103C41.5432 14.5744 41.6882 14.3701 41.8797 14.2251C42.0711 14.0801 42.2998 14.0015 42.5346 14C42.7983 14.0017 43.0533 14.1007 43.2564 14.28L51.2158 21.28C51.322 21.3738 51.4074 21.4915 51.4661 21.6245C51.5247 21.7576 51.5552 21.9029 51.5552 22.05C51.5552 22.197 51.5247 22.3423 51.4661 22.4754C51.4074 22.6085 51.322 22.7261 51.2158 22.82L43.2564 29.82C43.0506 29.9929 42.7966 30.0879 42.5346 30.09C42.2998 30.0884 42.0711 30.0098 41.8797 29.8648C41.6882 29.7198 41.5432 29.5155 41.4644 29.2796C41.3856 29.0437 41.3767 28.7877 41.439 28.5462C41.5013 28.3048 41.6318 28.0896 41.8127 27.93V27.87Z" fill="white"/>
<path d="M19.3677 17.71C19.8465 17.2913 20.1931 16.7257 20.3604 16.0898C20.5277 15.454 20.5076 14.7786 20.303 14.1553C20.0983 13.532 19.7189 12.9909 19.2162 12.6053C18.7135 12.2198 18.1118 12.0085 17.4927 12C16.8085 12.0119 16.1481 12.269 15.6177 12.73L7.65828 19.73C7.33649 20.0114 7.07725 20.3655 6.89924 20.7666C6.72124 21.1678 6.62891 21.6061 6.62891 22.05C6.62891 22.4938 6.72124 22.9322 6.89924 23.3334C7.07725 23.7345 7.33649 24.0886 7.65828 24.37L15.6177 31.37C16.1481 31.831 16.8085 32.0881 17.4927 32.1C18.1118 32.0915 18.7135 31.8802 19.2162 31.4947C19.7189 31.1091 20.0983 30.568 20.303 29.9447C20.5076 29.3214 20.5277 28.646 20.3604 28.0102C20.1931 27.3743 19.8465 26.8087 19.3677 26.39L14.4458 22L19.3677 17.71ZM18.177 16.16L12.3739 21.23C12.2677 21.3238 12.1823 21.4415 12.1236 21.5746C12.065 21.7077 12.0346 21.8529 12.0346 22C12.0346 22.1471 12.065 22.2923 12.1236 22.4254C12.1823 22.5585 12.2677 22.6762 12.3739 22.77L18.177 27.84C18.3579 27.9996 18.4884 28.2148 18.5507 28.4563C18.613 28.6977 18.6042 28.9538 18.5253 29.1897C18.4465 29.4256 18.3015 29.6299 18.11 29.7749C17.9186 29.9198 17.6899 29.9984 17.4552 30C17.1915 29.9982 16.9365 29.8993 16.7333 29.72L8.76453 22.77C8.65837 22.6762 8.57292 22.5585 8.51426 22.4254C8.45561 22.2923 8.4252 22.1471 8.4252 22C8.4252 21.8529 8.45561 21.7077 8.51426 21.5746C8.57292 21.4415 8.65837 21.3238 8.76453 21.23L16.7333 14.23C16.9392 14.0571 17.1931 13.9621 17.4552 13.96C17.6899 13.9616 17.9186 14.0402 18.11 14.1851C18.3015 14.3301 18.4465 14.5344 18.5253 14.7703C18.6042 15.0062 18.613 15.2623 18.5507 15.5037C18.4884 15.7452 18.3579 15.9604 18.177 16.12V16.16Z" fill="white"/>
<path d="M59.0625 43H57.1875V3C57.1875 2.20435 56.8912 1.44129 56.3637 0.878679C55.8363 0.31607 55.1209 0 54.375 0H5.625C4.87908 0 4.16371 0.31607 3.63626 0.878679C3.10882 1.44129 2.8125 2.20435 2.8125 3V43H0.9375C0.68886 43 0.450403 43.1054 0.274587 43.2929C0.098772 43.4804 0 43.7348 0 44V46C0 47.3261 0.49386 48.5979 1.37294 49.5355C1.80821 49.9998 2.32496 50.3681 2.89367 50.6194C3.46238 50.8707 4.07193 51 4.6875 51H55.3125C56.5557 51 57.748 50.4732 58.6271 49.5355C59.5061 48.5979 60 47.3261 60 46V44C60 43.7348 59.9012 43.4804 59.7254 43.2929C59.5496 43.1054 59.3111 43 59.0625 43ZM4.6875 3C4.6875 2.73478 4.78627 2.48043 4.96209 2.29289C5.1379 2.10536 5.37636 2 5.625 2H54.375C54.6236 2 54.8621 2.10536 55.0379 2.29289C55.2137 2.48043 55.3125 2.73478 55.3125 3V43H34.6875C34.5153 42.9996 34.3464 43.0498 34.1992 43.1451C34.0521 43.2403 33.9323 43.377 33.8531 43.54L33.1688 45H26.8031L26.1562 43.57C26.0803 43.3998 25.9607 43.256 25.8115 43.1552C25.6622 43.0543 25.4892 43.0005 25.3125 43H4.6875V3ZM58.125 46C58.125 46.7956 57.8287 47.5587 57.3012 48.1213C56.7738 48.6839 56.0584 49 55.3125 49H4.6875C3.94158 49 3.22621 48.6839 2.69876 48.1213C2.17132 47.5587 1.875 46.7956 1.875 46V45H24.7219L25.3687 46.43C25.4474 46.6064 25.5727 46.7545 25.7294 46.8558C25.886 46.9571 26.067 47.0072 26.25 47H33.75C33.9222 47.0004 34.0911 46.9502 34.2383 46.8549C34.3854 46.7597 34.5052 46.623 34.5844 46.46L35.2875 45H58.125V46Z" fill="white"/>
</svg>
