<svg width="140" height="100" viewBox="0 0 140 100" fill="none" xmlns="http://www.w3.org/2000/svg">
<path d="M98.9571 12.3262H57.9142V30.0716H98.9571V12.3262Z" fill="#42434E"/>
<path d="M24.5429 87.2584C27.4513 84.2046 27.4513 79.2534 24.5429 76.1997C21.6344 73.1459 16.9189 73.1459 14.0105 76.1997C11.102 79.2534 11.102 84.2046 14.0105 87.2584C16.9189 90.3121 21.6344 90.3121 24.5429 87.2584Z" fill="white"/>
<path d="M26.9883 13.9054L26.745 13.2705H24.8278V17.7533H30.1591V13.9054H26.9883Z" fill="#42434E"/>
<path d="M24.9899 3.74669L24.7466 3.11182H22.822V7.59463H28.1533V3.74669H24.9899Z" fill="black"/>
<path d="M54.95 10.6381H19.4375V0.0698242H54.95V10.6381ZM19.7177 10.3362H54.6624V0.371775H19.7177V10.3362Z" fill="#231F20"/>
<path d="M54.95 20.8959H19.4375V10.4824H19.7177V20.6016H54.6624V10.4824H54.95V20.8959Z" fill="#231F20"/>
<path d="M44.6119 3.73145H29.6503V4.42051H44.6119V3.73145Z" fill="black"/>
<path d="M38.0786 5.35742H29.6503V6.04649H38.0786V5.35742Z" fill="black"/>
<path d="M46.8166 14.021H31.855V14.7101H46.8166V14.021Z" fill="#42434E"/>
<path d="M40.2833 15.6548H31.855V16.3439H40.2833V15.6548Z" fill="#42434E"/>
<path d="M116.728 24.9688H111.581V25.8359H116.728V24.9688Z" fill="white"/>
<path d="M117.694 26.7266H110.615V26.9743H117.694V26.7266Z" fill="white"/>
<path d="M116.308 27.2837H111.994V27.5314H116.308V27.2837Z" fill="white"/>
<path d="M132.176 5.0166H95.285C94.695 5.0166 94.2084 5.51985 94.2084 6.14698V8.07482H133.253V6.13924C133.253 5.51985 132.774 5.0166 132.176 5.0166Z" fill="#42434E"/>
<path d="M133.393 31.3174H94.0609V6.1393C94.0609 5.43475 94.6066 4.86182 95.2776 4.86182H132.176C132.847 4.86182 133.393 5.43475 133.393 6.1393V31.3174ZM94.3485 31.0154H133.105V6.1393C133.105 5.59734 132.685 5.16377 132.176 5.16377H95.285C94.7688 5.16377 94.3559 5.60508 94.3559 6.1393V31.0154H94.3485Z" fill="#231F20"/>
<path d="M133.253 7.91943H94.2084V8.22138H133.253V7.91943Z" fill="#231F20"/>
<path d="M96.5089 6.59645C96.5089 6.85194 96.3172 7.05324 96.0738 7.05324C95.8305 7.05324 95.6388 6.85194 95.6388 6.59645C95.6388 6.34095 95.8305 6.13965 96.0738 6.13965C96.3172 6.13965 96.5089 6.34095 96.5089 6.59645Z" fill="#010102"/>
<path d="M97.9617 6.59645C97.9617 6.85194 97.7699 7.05324 97.5266 7.05324C97.2833 7.05324 97.0916 6.85194 97.0916 6.59645C97.0916 6.34095 97.2833 6.13965 97.5266 6.13965C97.7699 6.13965 97.9617 6.34095 97.9617 6.59645Z" fill="#010102"/>
<path d="M99.4142 6.59645C99.4142 6.85194 99.2225 7.05324 98.9792 7.05324C98.7359 7.05324 98.5441 6.85194 98.5441 6.59645C98.5441 6.34095 98.7359 6.13965 98.9792 6.13965C99.2225 6.13965 99.4142 6.34095 99.4142 6.59645Z" fill="#010102"/>
<path d="M132.169 9.91748H131.881V29.4669H132.169V9.91748Z" fill="#231F20"/>
<path d="M109.148 24.2177L108.919 24.0938C109.413 23.1183 110.637 22.8783 111.618 22.9712C111.92 23.0022 112.223 23.0486 112.51 23.1028C113.196 23.2189 113.845 23.3273 114.486 23.1957C115.526 22.9789 116.345 22.166 117.148 21.3763C117.996 20.5401 118.874 19.673 120.024 19.4794C120.54 19.3942 121.064 19.4639 121.565 19.5259C121.845 19.5646 122.14 19.5955 122.428 19.6033C123.121 19.6265 123.748 19.4175 124.102 19.0381L124.286 19.2239C123.881 19.6575 123.195 19.8897 122.421 19.8665C122.126 19.8588 121.823 19.8201 121.536 19.7814C121.027 19.7194 120.548 19.6575 120.061 19.7349C118.984 19.913 118.173 20.7104 117.318 21.5621C116.492 22.375 115.644 23.2189 114.531 23.4512C113.837 23.5906 113.137 23.4744 112.459 23.3583C112.171 23.3119 111.869 23.2577 111.581 23.2267C110.696 23.157 109.575 23.3661 109.148 24.2177Z" fill="#010102"/>
<path d="M104.886 17.2728L104.687 17.1954C105.299 15.4379 106.707 14.0365 108.366 13.5488C108.757 13.4326 109.17 13.3629 109.561 13.2933C109.804 13.2468 110.062 13.2081 110.306 13.1539C111.08 12.9836 111.633 12.7203 112.031 12.341C112.437 11.9538 112.673 11.4119 112.643 10.9086L112.857 10.9009C112.886 11.4661 112.621 12.0777 112.171 12.5113C111.743 12.9216 111.161 13.1926 110.35 13.3784C110.099 13.4326 109.841 13.4791 109.598 13.5255C109.207 13.5952 108.809 13.6649 108.425 13.7733C106.832 14.2301 105.476 15.5772 104.886 17.2728Z" fill="#010102"/>
<path d="M104.215 22.6304L103.964 22.5298C104.259 21.7556 104.797 21.0975 105.498 20.6716C106.552 20.029 107.924 19.9206 109.089 20.3929C109.317 20.4858 109.546 20.602 109.76 20.7181C110.151 20.9194 110.512 21.113 110.917 21.1904C111.81 21.353 112.82 20.9194 113.616 20.029C113.985 19.6187 114.295 19.1541 114.597 18.7051C114.87 18.3025 115.143 17.8767 115.467 17.4973C116.308 16.4985 117.347 15.9798 118.328 16.0727C118.697 16.1037 119.043 16.2275 119.383 16.3359C119.567 16.3979 119.759 16.4598 119.943 16.5063C121.086 16.8005 122.362 16.545 123.269 15.8482C123.593 15.6004 123.873 15.2907 124.095 14.9346L124.316 15.0894C124.072 15.4688 123.777 15.8017 123.424 16.0727C122.45 16.8237 121.093 17.0947 119.877 16.7772C119.678 16.7231 119.486 16.6611 119.302 16.5992C118.962 16.483 118.645 16.3746 118.306 16.3437C117.038 16.2275 116.035 17.234 115.666 17.6754C115.357 18.047 115.076 18.4573 114.811 18.8599C114.509 19.3167 114.191 19.7968 113.808 20.2226C112.945 21.1826 111.847 21.6472 110.866 21.4691C110.423 21.3839 110.018 21.1749 109.634 20.9736C109.421 20.8652 109.207 20.7491 108.986 20.6639C107.894 20.2226 106.611 20.3155 105.63 20.9194C104.989 21.3065 104.487 21.9182 104.215 22.6304Z" fill="#010102"/>
<path d="M103.617 20.261L103.352 20.2223C103.529 18.8519 104.834 17.9848 105.977 17.7525C106.891 17.5667 107.835 17.6673 108.742 17.7602C109.022 17.7912 109.31 17.8222 109.59 17.8376C111.109 17.946 112.171 17.7138 112.931 17.0944C113.262 16.8234 113.543 16.4673 113.808 16.1266C114.096 15.7627 114.391 15.3833 114.767 15.0891C115.57 14.4543 116.588 14.3149 117.569 14.1833C118.166 14.0981 118.785 14.0129 119.353 13.8194C120.695 13.3471 121.787 12.1703 122.199 10.7534L122.458 10.8386C122.022 12.3483 120.865 13.5949 119.442 14.0904C118.852 14.2994 118.218 14.3846 117.606 14.4697C116.617 14.6091 115.681 14.733 114.936 15.3214C114.59 15.5924 114.317 15.9408 114.022 16.3124C113.742 16.6686 113.454 17.0325 113.1 17.3189C112.282 17.9848 111.161 18.2403 109.575 18.1241C109.288 18.1009 109.008 18.0777 108.72 18.0467C107.828 17.9538 106.906 17.8609 106.029 18.039C104.974 18.2403 103.772 19.03 103.617 20.261Z" fill="#010102"/>
<path d="M110.77 15.4612C110.372 15.4612 109.974 15.3683 109.605 15.1592L109.73 14.927C110.726 15.5076 111.979 15.0431 112.754 14.4779C113.329 14.0598 113.823 13.5101 114.302 12.9836C114.582 12.674 114.87 12.3565 115.172 12.0623C115.902 11.3578 117.03 10.5526 118.269 10.6842L118.24 10.9474C117.089 10.8235 116.028 11.59 115.342 12.2559C115.047 12.5423 114.759 12.8598 114.479 13.1617C113.992 13.6959 113.484 14.2534 112.886 14.6947C112.318 15.1128 111.544 15.4612 110.77 15.4612Z" fill="#010102"/>
<path d="M106.213 19.1464L108.75 12.8364H110.276V19.1464H110.94V20.4781H110.276V22.1737H108.882V20.4781H106.213V19.1464ZM108.882 19.1464V15.6933L107.496 19.1464H108.882Z" fill="#42434E"/>
<path d="M111.507 15.074C111.507 13.5797 112.26 12.728 113.631 12.728C115.003 12.728 115.755 13.5797 115.755 15.074V19.9284C115.755 21.4227 115.003 22.2743 113.631 22.2743C112.26 22.2743 111.507 21.4227 111.507 19.9284V15.074ZM112.908 20.0213C112.908 20.6871 113.189 20.9426 113.631 20.9426C114.073 20.9426 114.354 20.6871 114.354 20.0213V14.981C114.354 14.3152 114.073 14.0597 113.631 14.0597C113.189 14.0597 112.908 14.3152 112.908 14.981V20.0213Z" fill="#42434E"/>
<path d="M116.323 19.1464L118.859 12.8364H120.385V19.1464H121.049V20.4781H120.385V22.1737H118.992V20.4781H116.323V19.1464ZM118.992 19.1464V15.6933L117.606 19.1464H118.992Z" fill="#42434E"/>
<path d="M73.6279 77.8413H57.3833V90.8794H73.6279V77.8413Z" fill="#010102"/>
<path d="M73.768 91.0266H57.2358V77.6943H73.768V91.0266ZM57.5234 90.7247H73.4804V77.9885H57.5234V90.7247Z" fill="#231F20"/>
<path d="M72.1162 77.8413H55.8716V90.8794H72.1162V77.8413Z" fill="white"/>
<path d="M72.1162 80.3735L55.8643 89.5792V80.3735H72.1162Z" fill="#231F20"/>
<path d="M78.5463 93.4033H52.465V92.6755C52.465 91.6768 53.2318 90.8716 54.1831 90.8716H76.8355C77.7868 90.8716 78.5536 91.6768 78.5536 92.6755V93.4033H78.5463Z" fill="#010102"/>
<path d="M78.6864 93.5584H52.3175V92.6835C52.3175 91.6073 53.1507 90.7324 54.1757 90.7324H76.8282C77.8531 90.7324 78.6864 91.6073 78.6864 92.6835V93.5584ZM52.6051 93.2564H78.4062V92.6757C78.4062 91.7622 77.6983 91.0189 76.8282 91.0189H54.1757C53.3056 91.0189 52.5977 91.7622 52.5977 92.6757V93.2564H52.6051Z" fill="#231F20"/>
<path d="M106.855 80.3736H25.0785C23.6701 80.3736 22.5345 79.1735 22.5345 77.7025V26.696C22.5345 25.2172 23.6775 24.0249 25.0785 24.0249H106.855C108.263 24.0249 109.399 25.225 109.399 26.696V77.6947C109.399 79.1735 108.263 80.3736 106.855 80.3736Z" fill="#42434E"/>
<path d="M106.854 80.5203H25.0785C23.5963 80.5203 22.387 79.2505 22.387 77.6943V26.6956C22.387 25.1394 23.5963 23.8696 25.0785 23.8696H106.854C108.337 23.8696 109.546 25.1394 109.546 26.6956V77.6943C109.546 79.2505 108.337 80.5203 106.854 80.5203ZM25.0785 24.1716C23.7512 24.1716 22.6746 25.302 22.6746 26.6956V77.6943C22.6746 79.088 23.7512 80.2183 25.0785 80.2183H106.854C108.182 80.2183 109.258 79.088 109.258 77.6943V26.6956C109.258 25.302 108.182 24.1716 106.854 24.1716H25.0785Z" fill="#231F20"/>
<path d="M108.742 83.6099H99.053V93.7833H108.742V83.6099Z" fill="#010102"/>
<path d="M98.1018 83.6099H88.4125V93.7833H98.1018V83.6099Z" fill="#010102"/>
<path d="M125.938 37.4106H115.047V37.8829H125.938V37.4106Z" fill="#010102"/>
<path d="M125.938 38.5337H115.047V39.006H125.938V38.5337Z" fill="#010102"/>
<path d="M125.938 39.6484H115.047V40.1207H125.938V39.6484Z" fill="#010102"/>
<path d="M118.321 40.771H115.047V41.2433H118.321V40.771Z" fill="#010102"/>
<path d="M139.764 37.4106H128.873V37.8829H139.764V37.4106Z" fill="#010102"/>
<path d="M139.764 38.5337H128.873V39.006H139.764V38.5337Z" fill="#010102"/>
<path d="M135.428 39.6484H128.873V40.1207H135.428V39.6484Z" fill="#010102"/>
<path d="M77.0346 93.4033H50.9533V92.6755C50.9533 91.6768 51.7202 90.8716 52.6714 90.8716H75.3239C76.2751 90.8716 77.042 91.6768 77.042 92.6755V93.4033H77.0346Z" fill="white"/>
<path d="M72.2563 91.0266H55.7241V77.6943H72.2563V91.0266ZM56.0117 90.7247H71.9687V77.9885H56.0117V90.7247Z" fill="#231F20"/>
<path d="M77.1747 93.5584H50.8058V92.6835C50.8058 91.6073 51.639 90.7324 52.664 90.7324H75.3165C76.3414 90.7324 77.1747 91.6073 77.1747 92.6835V93.5584ZM51.0934 93.2564H76.8945V92.6757C76.8945 91.7622 76.1866 91.0189 75.3165 91.0189H52.664C51.7939 91.0189 51.086 91.7622 51.086 92.6757V93.2564H51.0934Z" fill="#231F20"/>
<path d="M104.878 80.3736H23.1022C21.6938 80.3736 20.5583 79.1735 20.5583 77.7025V26.696C20.5583 25.2172 21.7012 24.0249 23.1022 24.0249H104.878C106.287 24.0249 107.422 25.225 107.422 26.696V77.6947C107.43 79.1735 106.287 80.3736 104.878 80.3736Z" fill="white"/>
<path d="M105.445 73.1555L105.445 26.144L22.5335 26.144L22.5335 73.1555L105.445 73.1555Z" fill="black"/>
<g opacity="0.2">
<g opacity="0.2">
<path opacity="0.2" d="M22.5345 73.157L105.446 26.1455V73.157H22.5345Z" fill="#494949"/>
</g>
</g>
<path d="M104.878 80.5203H23.1023C21.6201 80.5203 20.4108 79.2505 20.4108 77.6943V26.6956C20.4108 25.1394 21.6201 23.8696 23.1023 23.8696H104.878C106.36 23.8696 107.57 25.1394 107.57 26.6956V77.6943C107.57 79.2505 106.36 80.5203 104.878 80.5203ZM23.1023 24.1716C21.775 24.1716 20.6984 25.302 20.6984 26.6956V77.6943C20.6984 79.088 21.775 80.2183 23.1023 80.2183H104.878C106.206 80.2183 107.282 79.088 107.282 77.6943V26.6956C107.282 25.302 106.206 24.1716 104.878 24.1716H23.1023Z" fill="#231F20"/>
<path d="M105.586 73.3042H22.3944V25.9985H105.586V73.3042ZM22.682 73.0022H105.306V26.2927H22.682V73.0022Z" fill="#231F20"/>
<path d="M63.9902 77.5162C64.426 77.5162 64.7792 77.1453 64.7792 76.6878C64.7792 76.2303 64.426 75.8594 63.9902 75.8594C63.5545 75.8594 63.2012 76.2303 63.2012 76.6878C63.2012 77.1453 63.5545 77.5162 63.9902 77.5162Z" fill="#231F20"/>
<path d="M125.908 58.7646H117.945V61.0099H125.908V58.7646Z" fill="#231F20"/>
<path d="M137.272 48.9087H128.128V61.0022H137.272V48.9087Z" fill="#42434E"/>
<path d="M127.221 48.8848H118.011V49.2874H127.221V48.8848Z" fill="#42434E"/>
<path d="M127.221 49.6436H118.011V50.0462H127.221V49.6436Z" fill="#42434E"/>
<path d="M127.221 51.1538H118.011V51.5564H127.221V51.1538Z" fill="#42434E"/>
<path d="M127.221 51.9121H118.011V52.3147H127.221V51.9121Z" fill="#42434E"/>
<path d="M122.612 52.6709H118.011V53.0735H122.612V52.6709Z" fill="#42434E"/>
<path d="M127.221 54.1963H118.011V54.5989H127.221V54.1963Z" fill="#42434E"/>
<path d="M127.221 54.9551H118.011V55.3577H127.221V54.9551Z" fill="#42434E"/>
<path d="M127.221 55.7061H118.011V56.1087H127.221V55.7061Z" fill="#42434E"/>
<path d="M125.813 56.4648H118.011V56.8674H125.813V56.4648Z" fill="#42434E"/>
<path d="M138.348 54.6144H135.745V51.8813H138.348V54.6144ZM136.025 54.3202H138.061V52.1833H136.025V54.3202Z" fill="#231F20"/>
<path d="M115.637 46.268H114.811V45.4009H115.637V46.268ZM115.099 45.9661H115.349V45.7028H115.099V45.9661Z" fill="#231F20"/>
<path d="M140 46.268H139.174V45.4009H140V46.268ZM139.462 45.9661H139.712V45.7028H139.462V45.9661Z" fill="#231F20"/>
<path d="M140 64.5786H139.174V63.7114H140V64.5786ZM139.462 64.2844H139.712V64.0211H139.462V64.2844Z" fill="#231F20"/>
<path d="M115.637 64.5786H114.811V63.7114H115.637V64.5786ZM115.098 64.2844H115.349V64.0211H115.098V64.2844Z" fill="#231F20"/>
<path d="M139.322 45.6875H115.57V45.9895H139.322V45.6875Z" fill="#231F20"/>
<path d="M115.364 46.1367H115.076V63.8667H115.364V46.1367Z" fill="#231F20"/>
<path d="M139.734 46.1367H139.447V63.8667H139.734V46.1367Z" fill="#231F20"/>
<path d="M139.322 63.998H115.489V64.3H139.322V63.998Z" fill="#231F20"/>
<path d="M135.996 64.7492L131.535 60.189L132.228 66.6848L133.511 65.2757L134.565 67.5442L135.207 67.219L134.145 64.9505L135.996 64.7492Z" fill="#231F20"/>
<path d="M116.809 79.2198H124.935L120.872 72.1665L116.809 79.2198Z" fill="#231F20"/>
<path d="M114.98 79.2194H116.131L118.638 74.9302L118.041 73.9082L114.98 79.2194Z" fill="#231F20"/>
<path d="M126.321 83.0912H113.587V69.7202H124.434V70.0222H113.874V82.7893H126.034V71.7023H126.321V83.0912Z" fill="#231F20"/>
<path d="M127.029 69.5727H126.461V68.9766H125.894V69.5727H125.333V70.1689H125.894V70.765H126.461V70.1689H127.029V69.5727Z" fill="#231F20"/>
<path d="M77.8531 40.2137H66.5121V39.5091H77.8531V40.2137ZM89.9388 44.8746H82.9705V45.5791H89.9388V44.8746ZM68.2007 47.507H66.5121V48.2115H68.2007V47.507ZM68.2007 35.6689H66.5121V36.3735H68.2007V35.6689ZM74.2178 54.2273H69.5501V54.9319H74.2178V54.2273ZM85.5588 49.0709H83.8701V49.7755H85.5588V49.0709ZM69.4985 57.2933H66.5121V57.9978H69.4985V57.2933ZM95.7863 39.5169H91.6791V40.2214H95.7863V39.5169ZM75.0068 37.5039H70.8995V38.2084H75.0068V37.5039ZM78.9297 55.7835H72.3079V56.4881H78.9297V55.7835ZM81.304 57.2933H70.3907V57.9978H81.304V57.2933ZM95.7863 43.1326H75.7589V43.8371H95.7863V43.1326ZM90.4255 50.9755H81.6801V51.6801H90.4255V50.9755ZM90.1969 39.5169H78.8559V40.2214H90.1969V39.5169ZM81.1271 44.8746H75.7589V45.5791H81.1271V44.8746ZM84.2093 37.5039H76.629V38.2084H84.2093V37.5039ZM98.6178 54.2273H89.8725V54.9319H98.6178V54.2273ZM82.9705 58.7876H70.3907V59.4921H82.9705V58.7876ZM80.574 50.9755H72.1826V51.6801H80.574V50.9755ZM96.037 50.9755H91.5906V51.6801H96.037V50.9755ZM76.629 52.5085H72.1826V53.2131H76.629V52.5085ZM96.037 57.2933H87.7119V57.9978H96.037V57.2933ZM86.7459 57.2933H82.2995V57.9978H86.7459V57.2933ZM76.7544 60.1425H72.3079V60.847H76.7544V60.1425ZM67.3601 63.371H66.5195V64.0756H67.3601V63.371ZM78.4725 47.507H69.5059V48.2115H78.4725V47.507ZM93.1833 55.7835H80.2348V56.4881H93.1833V55.7835ZM96.708 47.507H79.726V48.2115H96.7006V47.507H96.708ZM88.7 54.2273H75.2501V54.9319H88.7V54.2273ZM82.9558 49.0709H69.5059V49.7755H82.9558V49.0709ZM98.0353 41.5454H70.3907V42.2499H98.0353V41.5454ZM98.0353 35.6689H69.5501V36.3735H98.0353V35.6689ZM65.0668 35.6689H64.6981V64.0756H65.0668V35.6689Z" fill="#D4DAE0"/>
<path d="M65.9296 20.974C65.8264 20.974 65.7379 20.8811 65.7379 20.7727V19.8126C65.7379 19.7042 65.8264 19.6113 65.9296 19.6113C66.0329 19.6113 66.1214 19.7042 66.1214 19.8126V20.7727C66.1214 20.8811 66.0329 20.974 65.9296 20.974ZM65.9296 18.8139C65.8264 18.8139 65.7379 18.721 65.7379 18.6126V17.6525C65.7379 17.5441 65.8264 17.4512 65.9296 17.4512C66.0329 17.4512 66.1214 17.5441 66.1214 17.6525V18.6126C66.1214 18.7287 66.0329 18.8139 65.9296 18.8139ZM65.9296 16.6615C65.8264 16.6615 65.7379 16.5686 65.7379 16.4602V15.5079C65.7379 15.3995 65.8264 15.3066 65.9296 15.3066C66.0329 15.3066 66.1214 15.3995 66.1214 15.5079V16.4679C66.1214 16.5686 66.0329 16.6615 65.9296 16.6615ZM65.9296 14.5091C65.8264 14.5091 65.7379 14.4162 65.7379 14.3078V13.3478C65.7379 13.2394 65.8264 13.1465 65.9296 13.1465C66.0329 13.1465 66.1214 13.2394 66.1214 13.3478V14.3078C66.1214 14.4162 66.0329 14.5091 65.9296 14.5091ZM65.9296 12.349C65.8264 12.349 65.7379 12.2561 65.7379 12.1477V11.1877C65.7379 11.0793 65.8264 10.9864 65.9296 10.9864C66.0329 10.9864 66.1214 11.0793 66.1214 11.1877V12.1477C66.1214 12.2639 66.0329 12.349 65.9296 12.349ZM65.9296 10.1967C65.8264 10.1967 65.7379 10.1037 65.7379 9.99535V9.0353C65.7379 8.92691 65.8264 8.834 65.9296 8.834C66.0329 8.834 66.1214 8.92691 66.1214 9.0353V9.99535C66.1214 10.1115 66.0329 10.1967 65.9296 10.1967ZM65.9296 8.04428C65.8264 8.04428 65.7379 7.95138 65.7379 7.84298V6.88293C65.7379 6.77454 65.8264 6.68163 65.9296 6.68163C66.0329 6.68163 66.1214 6.77454 66.1214 6.88293V7.84298C66.1214 7.95138 66.0329 8.04428 65.9296 8.04428ZM65.9296 5.88417C65.8264 5.88417 65.7379 5.79127 65.7379 5.68287V4.72282C65.7379 4.61443 65.8264 4.52152 65.9296 4.52152C66.0329 4.52152 66.1214 4.61443 66.1214 4.72282V5.68287C66.1214 5.79901 66.0329 5.88417 65.9296 5.88417ZM65.9296 3.7318C65.8264 3.7318 65.7379 3.6389 65.7379 3.5305V2.5782C65.7379 2.4698 65.8264 2.3769 65.9296 2.3769C66.0329 2.3769 66.1214 2.4698 66.1214 2.5782V3.53825C66.1214 3.64664 66.0329 3.7318 65.9296 3.7318ZM65.9886 1.57944C65.9739 1.57944 65.9591 1.57944 65.9444 1.57169C65.8411 1.54847 65.7748 1.44007 65.7969 1.33168C65.878 0.952306 66.0255 0.627129 66.232 0.387117C66.3057 0.301951 66.4237 0.30195 66.4974 0.371631C66.5785 0.449054 66.5785 0.572932 66.5122 0.650356C66.3499 0.836172 66.232 1.10715 66.1656 1.41685C66.1508 1.5175 66.0697 1.57944 65.9886 1.57944ZM111.058 0.4026H110.519C110.416 0.4026 110.328 0.309691 110.328 0.201299C110.328 0.0929061 110.416 0 110.519 0H111.058C111.161 0 111.249 0.0929061 111.249 0.201299C111.249 0.309691 111.161 0.4026 111.058 0.4026ZM109.376 0.4026H108.462C108.359 0.4026 108.27 0.309691 108.27 0.201299C108.27 0.0929061 108.359 0 108.462 0H109.376C109.48 0 109.568 0.0929061 109.568 0.201299C109.568 0.309691 109.48 0.4026 109.376 0.4026ZM107.326 0.4026H106.412C106.309 0.4026 106.22 0.309691 106.22 0.201299C106.22 0.0929061 106.309 0 106.412 0H107.326C107.43 0 107.518 0.0929061 107.518 0.201299C107.518 0.309691 107.43 0.4026 107.326 0.4026ZM105.277 0.4026H104.362C104.259 0.4026 104.17 0.309691 104.17 0.201299C104.17 0.0929061 104.259 0 104.362 0H105.277C105.38 0 105.468 0.0929061 105.468 0.201299C105.461 0.309691 105.38 0.4026 105.277 0.4026ZM103.219 0.4026H102.305C102.202 0.4026 102.113 0.309691 102.113 0.201299C102.113 0.0929061 102.202 0 102.305 0H103.219C103.322 0 103.411 0.0929061 103.411 0.201299C103.411 0.309691 103.322 0.4026 103.219 0.4026ZM101.169 0.4026H100.255C100.152 0.4026 100.063 0.309691 100.063 0.201299C100.063 0.0929061 100.152 0 100.255 0H101.169C101.273 0 101.361 0.0929061 101.361 0.201299C101.361 0.309691 101.273 0.4026 101.169 0.4026ZM99.1193 0.4026H98.205C98.1018 0.4026 98.0133 0.309691 98.0133 0.201299C98.0133 0.0929061 98.1018 0 98.205 0H99.1193C99.2226 0 99.3111 0.0929061 99.3111 0.201299C99.3037 0.309691 99.2226 0.4026 99.1193 0.4026ZM97.062 0.4026H96.1477C96.0444 0.4026 95.956 0.309691 95.956 0.201299C95.956 0.0929061 96.0444 0 96.1477 0H97.062C97.1653 0 97.2538 0.0929061 97.2538 0.201299C97.2538 0.309691 97.1727 0.4026 97.062 0.4026ZM95.0121 0.4026H94.0977C93.9945 0.4026 93.906 0.309691 93.906 0.201299C93.906 0.0929061 93.9945 0 94.0977 0H95.0121C95.1153 0 95.2038 0.0929061 95.2038 0.201299C95.2038 0.309691 95.1153 0.4026 95.0121 0.4026ZM92.9622 0.4026H92.0478C91.9446 0.4026 91.8561 0.309691 91.8561 0.201299C91.8561 0.0929061 91.9446 0 92.0478 0H92.9622C93.0654 0 93.1539 0.0929061 93.1539 0.201299C93.1465 0.309691 93.0654 0.4026 92.9622 0.4026ZM90.9049 0.4026H89.9905C89.8873 0.4026 89.7988 0.309691 89.7988 0.201299C89.7988 0.0929061 89.8873 0 89.9905 0H90.9049C91.0081 0 91.0966 0.0929061 91.0966 0.201299C91.0966 0.309691 91.0155 0.4026 90.9049 0.4026ZM88.8549 0.4026H87.9406C87.8373 0.4026 87.7489 0.309691 87.7489 0.201299C87.7489 0.0929061 87.8373 0 87.9406 0H88.8549C88.9582 0 89.0467 0.0929061 89.0467 0.201299C89.0467 0.309691 88.9582 0.4026 88.8549 0.4026ZM86.805 0.4026H85.8906C85.7874 0.4026 85.6989 0.309691 85.6989 0.201299C85.6989 0.0929061 85.7874 0 85.8906 0H86.805C86.9082 0 86.9967 0.0929061 86.9967 0.201299C86.9967 0.309691 86.9082 0.4026 86.805 0.4026ZM84.7477 0.4026H83.8333C83.7301 0.4026 83.6416 0.309691 83.6416 0.201299C83.6416 0.0929061 83.7301 0 83.8333 0H84.7477C84.8509 0 84.9394 0.0929061 84.9394 0.201299C84.9394 0.309691 84.8583 0.4026 84.7477 0.4026ZM82.6978 0.4026H81.7834C81.6802 0.4026 81.5917 0.309691 81.5917 0.201299C81.5917 0.0929061 81.6802 0 81.7834 0H82.6978C82.801 0 82.8895 0.0929061 82.8895 0.201299C82.8895 0.309691 82.801 0.4026 82.6978 0.4026ZM80.6478 0.4026H79.7335C79.6302 0.4026 79.5418 0.309691 79.5418 0.201299C79.5418 0.0929061 79.6302 0 79.7335 0H80.6478C80.7511 0 80.8396 0.0929061 80.8396 0.201299C80.8396 0.309691 80.7511 0.4026 80.6478 0.4026ZM78.5905 0.4026H77.6762C77.5729 0.4026 77.4845 0.309691 77.4845 0.201299C77.4845 0.0929061 77.5729 0 77.6762 0H78.5905C78.6938 0 78.7823 0.0929061 78.7823 0.201299C78.7823 0.309691 78.7011 0.4026 78.5905 0.4026ZM76.5406 0.4026H75.6262C75.523 0.4026 75.4345 0.309691 75.4345 0.201299C75.4345 0.0929061 75.523 0 75.6262 0H76.5406C76.6438 0 76.7323 0.0929061 76.7323 0.201299C76.7323 0.309691 76.6438 0.4026 76.5406 0.4026ZM74.4907 0.4026H73.5763C73.4731 0.4026 73.3846 0.309691 73.3846 0.201299C73.3846 0.0929061 73.4731 0 73.5763 0H74.4907C74.5939 0 74.6824 0.0929061 74.6824 0.201299C74.6824 0.309691 74.5939 0.4026 74.4907 0.4026ZM72.4407 0.4026H71.5264C71.4232 0.4026 71.3347 0.309691 71.3347 0.201299C71.3347 0.0929061 71.4232 0 71.5264 0H72.4407C72.544 0 72.6325 0.0929061 72.6325 0.201299C72.6251 0.309691 72.544 0.4026 72.4407 0.4026ZM70.3834 0.4026H69.4765C69.3732 0.4026 69.2847 0.309691 69.2847 0.201299C69.2847 0.0929061 69.3732 0 69.4765 0H70.3908C70.494 0 70.5825 0.0929061 70.5825 0.201299C70.5752 0.309691 70.4867 0.4026 70.3834 0.4026ZM68.3335 0.4026H67.4191C67.3159 0.4026 67.2274 0.309691 67.2274 0.201299C67.2274 0.0929061 67.3159 0 67.4191 0H68.3335C68.4367 0 68.5252 0.0929061 68.5252 0.201299C68.5252 0.309691 68.4367 0.4026 68.3335 0.4026Z" fill="#231F20"/>
<path d="M58.3862 36.4741H9.3501V64.6098H58.3862V36.4741Z" fill="white"/>
<path d="M58.5263 64.7565H9.20996V36.3267H58.5263V64.7565ZM9.49017 64.4623H58.2387V36.6209H9.49017V64.4623Z" fill="#231F20"/>
<path d="M57.0368 32.6338H10.6995C9.95476 32.6338 9.3501 33.2687 9.3501 34.0506V36.474H58.3862V34.0506C58.3862 33.2687 57.7816 32.6338 57.0368 32.6338Z" fill="#42434E"/>
<path d="M58.5263 36.6212H9.21002V34.0508C9.21002 33.1836 9.88104 32.4868 10.6995 32.4868H57.0368C57.8627 32.4868 58.5263 33.1914 58.5263 34.0508V36.6212ZM9.49023 36.327H58.2388V34.0508C58.2388 33.354 57.7005 32.781 57.0294 32.781H10.6995C10.0359 32.781 9.49023 33.3462 9.49023 34.0508V36.327Z" fill="#231F20"/>
<path d="M11.6877 35.3433C11.3042 35.3433 10.9945 35.0181 10.9945 34.6155C10.9945 34.2129 11.3042 33.8877 11.6877 33.8877C12.0711 33.8877 12.3808 34.2129 12.3808 34.6155C12.3808 35.0181 12.0711 35.3433 11.6877 35.3433ZM11.6877 34.1974C11.4665 34.1974 11.2821 34.3909 11.2821 34.6232C11.2821 34.8555 11.4665 35.049 11.6877 35.049C11.9089 35.049 12.0932 34.8555 12.0932 34.6232C12.0932 34.3832 11.9163 34.1974 11.6877 34.1974Z" fill="#231F20"/>
<path d="M13.5163 35.3433C13.1329 35.3433 12.8232 35.0181 12.8232 34.6155C12.8232 34.2129 13.1329 33.8877 13.5163 33.8877C13.8998 33.8877 14.2095 34.2129 14.2095 34.6155C14.2095 35.0181 13.8998 35.3433 13.5163 35.3433ZM13.5163 34.1974C13.2951 34.1974 13.1108 34.3909 13.1108 34.6232C13.1108 34.8555 13.2951 35.049 13.5163 35.049C13.7375 35.049 13.9219 34.8555 13.9219 34.6232C13.9219 34.3832 13.7449 34.1974 13.5163 34.1974Z" fill="#231F20"/>
<path d="M15.3451 35.3433C14.9616 35.3433 14.6519 35.0181 14.6519 34.6155C14.6519 34.2129 14.9616 33.8877 15.3451 33.8877C15.7285 33.8877 16.0382 34.2129 16.0382 34.6155C16.0382 35.0181 15.7285 35.3433 15.3451 35.3433ZM15.3451 34.1974C15.1238 34.1974 14.9395 34.3909 14.9395 34.6232C14.9395 34.8555 15.1238 35.049 15.3451 35.049C15.5663 35.049 15.7506 34.8555 15.7506 34.6232C15.7506 34.3832 15.5663 34.1974 15.3451 34.1974Z" fill="#231F20"/>
<path d="M15.7063 44.0695L14.379 44.5805L15.7063 45.0838V45.6102L13.8039 44.8515V44.3095L15.6989 43.5508V44.0695H15.7063Z" fill="#010102"/>
<path d="M17.6088 42.521H18.1618L16.8493 46.4618H16.2962L17.6088 42.521Z" fill="#010102"/>
<path d="M20.6099 44.3095V44.8515L18.7148 45.6102V45.0838L20.0421 44.5805L18.7148 44.0695V43.5508L20.6099 44.3095Z" fill="#010102"/>
<path d="M34.2885 42.4277H27.3939V49.6668H34.2885V42.4277Z" fill="#010102"/>
<path d="M43.4247 42.4277H36.5302V49.6668H43.4247V42.4277Z" fill="#010102"/>
<path d="M52.5535 42.4277H45.659V49.6668H52.5535V42.4277Z" fill="#010102"/>
<path d="M52.561 51.9507H27.394V52.6475H52.561V51.9507Z" fill="#010102"/>
<path d="M52.5609 56.395H27.394V57.0918H52.5609V56.395Z" fill="#010102"/>
<path d="M32.4082 57.9668H27.394V58.6636H32.4082V57.9668Z" fill="#010102"/>
<path d="M52.5609 57.9668H33.1086V58.6636H52.5609V57.9668Z" fill="#010102"/>
<path d="M36.5302 53.6309H27.394V54.3277H36.5302V53.6309Z" fill="#010102"/>
<path d="M46.3299 53.6309H37.1937V54.3277H46.3299V53.6309Z" fill="#010102"/>
<path d="M51.322 85.1738H50.4077C50.3044 85.1738 50.2159 85.0809 50.2159 84.9725C50.2159 84.8641 50.3044 84.7712 50.4077 84.7712H51.322C51.4253 84.7712 51.5137 84.8641 51.5137 84.9725C51.5137 85.0809 51.4326 85.1738 51.322 85.1738ZM49.2721 85.1738H48.3577C48.2545 85.1738 48.166 85.0809 48.166 84.9725C48.166 84.8641 48.2545 84.7712 48.3577 84.7712H49.2721C49.3753 84.7712 49.4638 84.8641 49.4638 84.9725C49.4638 85.0809 49.3753 85.1738 49.2721 85.1738ZM47.2222 85.1738H46.3078C46.2046 85.1738 46.1161 85.0809 46.1161 84.9725C46.1161 84.8641 46.2046 84.7712 46.3078 84.7712H47.2222C47.3254 84.7712 47.4139 84.8641 47.4139 84.9725C47.4139 85.0809 47.3254 85.1738 47.2222 85.1738ZM45.1722 85.1738H44.2579C44.1546 85.1738 44.0661 85.0809 44.0661 84.9725C44.0661 84.8641 44.1546 84.7712 44.2579 84.7712H45.1722C45.2755 84.7712 45.3639 84.8641 45.3639 84.9725C45.3639 85.0809 45.2755 85.1738 45.1722 85.1738ZM43.1149 85.1738H42.2006C42.0973 85.1738 42.0088 85.0809 42.0088 84.9725C42.0088 84.8641 42.0973 84.7712 42.2006 84.7712H43.1149C43.2182 84.7712 43.3066 84.8641 43.3066 84.9725C43.3066 85.0809 43.2182 85.1738 43.1149 85.1738ZM41.065 85.1738H40.1506C40.0474 85.1738 39.9589 85.0809 39.9589 84.9725C39.9589 84.8641 40.0474 84.7712 40.1506 84.7712H41.065C41.1682 84.7712 41.2567 84.8641 41.2567 84.9725C41.2567 85.0809 41.1682 85.1738 41.065 85.1738ZM39.0151 85.1738H38.1007C37.9975 85.1738 37.909 85.0809 37.909 84.9725C37.909 84.8641 37.9975 84.7712 38.1007 84.7712H39.0151C39.1183 84.7712 39.2068 84.8641 39.2068 84.9725C39.2068 85.0809 39.1183 85.1738 39.0151 85.1738ZM36.9578 85.1738H36.0434C35.9402 85.1738 35.8517 85.0809 35.8517 84.9725C35.8517 84.8641 35.9402 84.7712 36.0434 84.7712H36.9578C37.061 84.7712 37.1495 84.8641 37.1495 84.9725C37.1495 85.0809 37.0684 85.1738 36.9578 85.1738ZM34.9078 85.1738H33.9935C33.8902 85.1738 33.8017 85.0809 33.8017 84.9725C33.8017 84.8641 33.8902 84.7712 33.9935 84.7712H34.9078C35.0111 84.7712 35.0995 84.8641 35.0995 84.9725C35.0995 85.0809 35.0111 85.1738 34.9078 85.1738ZM32.8579 85.1738H31.9435C31.8403 85.1738 31.7518 85.0809 31.7518 84.9725C31.7518 84.8641 31.8403 84.7712 31.9435 84.7712H32.8579C32.9611 84.7712 33.0496 84.8641 33.0496 84.9725C33.0496 85.0809 32.9611 85.1738 32.8579 85.1738ZM30.8006 85.1738H29.8862C29.783 85.1738 29.6945 85.0809 29.6945 84.9725C29.6945 84.8641 29.783 84.7712 29.8862 84.7712H30.8006C30.9038 84.7712 30.9923 84.8641 30.9923 84.9725C30.9923 85.0809 30.9112 85.1738 30.8006 85.1738ZM28.7506 85.1738H27.8363C27.7331 85.1738 27.6446 85.0809 27.6446 84.9725C27.6446 84.8641 27.7331 84.7712 27.8363 84.7712H28.7506C28.8539 84.7712 28.9424 84.8641 28.9424 84.9725C28.9424 85.0809 28.8539 85.1738 28.7506 85.1738ZM26.7007 85.1738H25.7864C25.6831 85.1738 25.5946 85.0809 25.5946 84.9725C25.5946 84.8641 25.6831 84.7712 25.7864 84.7712H26.7007C26.804 84.7712 26.8924 84.8641 26.8924 84.9725C26.8924 85.0809 26.804 85.1738 26.7007 85.1738ZM24.6434 85.1738H23.7291C23.6258 85.1738 23.5373 85.0809 23.5373 84.9725C23.5373 84.8641 23.6258 84.7712 23.7291 84.7712H24.6434C24.7467 84.7712 24.8351 84.8641 24.8351 84.9725C24.8351 85.0809 24.754 85.1738 24.6434 85.1738ZM22.5935 85.1738H21.6791C21.5759 85.1738 21.4874 85.0809 21.4874 84.9725C21.4874 84.8641 21.5759 84.7712 21.6791 84.7712H22.5935C22.6967 84.7712 22.7852 84.8641 22.7852 84.9725C22.7852 85.0809 22.6967 85.1738 22.5935 85.1738ZM20.5436 85.1738H19.6292C19.526 85.1738 19.4375 85.0809 19.4375 84.9725C19.4375 84.8641 19.526 84.7712 19.6292 84.7712H20.5436C20.6468 84.7712 20.7353 84.8641 20.7353 84.9725C20.7353 85.0809 20.6468 85.1738 20.5436 85.1738ZM18.4936 85.1738H17.5793C17.476 85.1738 17.3875 85.0809 17.3875 84.9725C17.3875 84.8641 17.476 84.7712 17.5793 84.7712H18.4936C18.5969 84.7712 18.6853 84.8641 18.6853 84.9725C18.6853 85.0809 18.5969 85.1738 18.4936 85.1738ZM16.4363 85.1738H15.522C15.4187 85.1738 15.3302 85.0809 15.3302 84.9725C15.3302 84.8641 15.4187 84.7712 15.522 84.7712H16.4363C16.5396 84.7712 16.628 84.8641 16.628 84.9725C16.628 85.0809 16.5396 85.1738 16.4363 85.1738ZM14.3864 85.1738H13.472C13.3688 85.1738 13.2803 85.0809 13.2803 84.9725C13.2803 84.8641 13.3688 84.7712 13.472 84.7712H14.3864C14.4896 84.7712 14.5781 84.8641 14.5781 84.9725C14.5781 85.0809 14.4896 85.1738 14.3864 85.1738ZM12.3365 85.1738H11.4221C11.3189 85.1738 11.2304 85.0809 11.2304 84.9725C11.2304 84.8641 11.3189 84.7712 11.4221 84.7712H12.3365C12.4397 84.7712 12.5282 84.8641 12.5282 84.9725C12.5282 85.0809 12.4397 85.1738 12.3365 85.1738ZM10.2792 85.1738H9.36479C9.26156 85.1738 9.17307 85.0809 9.17307 84.9725C9.17307 84.8641 9.26156 84.7712 9.36479 84.7712H10.2792C10.3824 84.7712 10.4709 84.8641 10.4709 84.9725C10.4709 85.0809 10.3898 85.1738 10.2792 85.1738ZM9.35004 83.997C9.24681 83.997 9.15833 83.9041 9.15833 83.7957V82.8356C9.15833 82.7272 9.24681 82.6343 9.35004 82.6343C9.45328 82.6343 9.54177 82.7272 9.54177 82.8356V83.7957C9.54177 83.9118 9.45328 83.997 9.35004 83.997ZM9.35004 81.8446C9.24681 81.8446 9.15833 81.7517 9.15833 81.6433V80.6832C9.15833 80.5749 9.24681 80.4819 9.35004 80.4819C9.45328 80.4819 9.54177 80.5749 9.54177 80.6832V81.6433C9.54177 81.7517 9.45328 81.8446 9.35004 81.8446ZM9.35004 79.6922C9.24681 79.6922 9.15833 79.5993 9.15833 79.4909V78.5309C9.15833 78.4225 9.24681 78.3296 9.35004 78.3296C9.45328 78.3296 9.54177 78.4225 9.54177 78.5309V79.4909C9.54177 79.5993 9.45328 79.6922 9.35004 79.6922ZM9.35004 77.5321C9.24681 77.5321 9.15833 77.4392 9.15833 77.3308V76.3708C9.15833 76.2624 9.24681 76.1695 9.35004 76.1695C9.45328 76.1695 9.54177 76.2624 9.54177 76.3708V77.3308C9.54177 77.4469 9.45328 77.5321 9.35004 77.5321ZM9.35004 75.3798C9.24681 75.3798 9.15833 75.2868 9.15833 75.1784V74.2184C9.15833 74.11 9.24681 74.0171 9.35004 74.0171C9.45328 74.0171 9.54177 74.11 9.54177 74.2184V75.1784C9.54177 75.2868 9.45328 75.3798 9.35004 75.3798ZM9.35004 73.2274C9.24681 73.2274 9.15833 73.1345 9.15833 73.0261V72.066C9.15833 71.9576 9.24681 71.8647 9.35004 71.8647C9.45328 71.8647 9.54177 71.9576 9.54177 72.066V73.0261C9.54177 73.1345 9.45328 73.2274 9.35004 73.2274ZM9.35004 71.0673C9.24681 71.0673 9.15833 70.9744 9.15833 70.866V69.9059C9.15833 69.7975 9.24681 69.7046 9.35004 69.7046C9.45328 69.7046 9.54177 69.7975 9.54177 69.9059V70.866C9.54177 70.9821 9.45328 71.0673 9.35004 71.0673ZM9.35004 68.9149C9.24681 68.9149 9.15833 68.822 9.15833 68.7136V67.7536C9.15833 67.6452 9.24681 67.5522 9.35004 67.5522C9.45328 67.5522 9.54177 67.6452 9.54177 67.7536V68.7136C9.54177 68.8297 9.45328 68.9149 9.35004 68.9149Z" fill="#231F20"/>
<path d="M134.285 75.8594H132.7V77.524H134.285V75.8594Z" fill="#FFF6ED"/>
<path d="M10.9354 25.3564H9.35007V27.021H10.9354V25.3564Z" fill="#313030"/>
<path d="M5.13225 63.0381H3.54688V64.7027H5.13225V63.0381Z" fill="#313030"/>
<path d="M89.4891 4.87012H87.9037V6.53472H89.4891V4.87012Z" fill="#FFF6ED"/>
<path d="M52.9074 98.3354H51.322V100H52.9074V98.3354Z" fill="#313030"/>
<path d="M5.13225 66.7158H3.54688V68.3804H5.13225V66.7158Z" fill="#313030"/>
<path d="M1.58538 63.0381H0V64.7027H1.58538V63.0381Z" fill="#FFF6ED"/>
<path d="M1.58538 66.7158H0V68.3804H1.58538V66.7158Z" fill="#313030"/>
</svg>
