<svg width="24" height="37" viewBox="0 0 24 37" fill="none" xmlns="http://www.w3.org/2000/svg">
<path fill-rule="evenodd" clip-rule="evenodd" d="M6.6 11.3C3.5 11.3 1 8.8 1 5.7C1 2.6 3.5 0.199997 6.5 0.199997H17.6C20.7 0.199997 23.1 2.7 23.1 5.7C23.1 8.8 20.6 11.2 17.6 11.2H6.6V11.3Z" fill="#003844"/>
<path fill-rule="evenodd" clip-rule="evenodd" d="M6.40002 24H12V12.9H6.40002C4.90002 12.9 3.50002 13.5 2.50002 14.5C1.50002 15.5 0.900024 16.9 0.900024 18.4C0.900024 21.5 3.40002 24 6.40002 24Z" fill="#003844"/>
<path fill-rule="evenodd" clip-rule="evenodd" d="M18.2 13C15.1 13 12.7 15.5 12.7 18.5C12.7 21.6 15.2 24 18.2 24C21.2 24 23.7 21.5 23.7 18.5C23.7 15.5 21.2 13 18.2 13Z" fill="#003844"/>
<path fill-rule="evenodd" clip-rule="evenodd" d="M12.1 25.6H6.3C3.3 25.7 1 28.1 1 31.1C1 34.2 3.5 36.6 6.5 36.6C9.5 36.6 11.9 34.3 12 31.3V31.2C12 31.1 12 31.1 12 31C12 30.9 12 30.9 12 30.8V25.6H12.1Z" fill="#003844"/>
</svg>
