<?xml version="1.0" encoding="utf-8"?>
<!-- Generator: Adobe Illustrator 25.2.3, SVG Export Plug-In . SVG Version: 6.00 Build 0)  -->
<svg version="1.1" id="Layer_1" xmlns="http://www.w3.org/2000/svg" xmlns:xlink="http://www.w3.org/1999/xlink" x="0px" y="0px"
	 viewBox="0 0 75 75" style="enable-background:new 0 0 75 75;" xml:space="preserve">
<style type="text/css">
	.st0{fill-rule:evenodd;clip-rule:evenodd;fill:#171719;}
	.st1{fill:#EEEEEE;}
</style>
<path class="st0" d="M37.4,0C16.7,0,0,17.1,0,38.4c0,17,10.7,31.3,25.6,36.5c1.8,0.4,2.6-0.8,2.6-1.8c0-0.9,0-4-0.1-7.1
	c-10.4,2.3-12.6-4.5-12.6-4.5c-1.7-4.4-4.1-5.6-4.1-5.6c-3.4-2.3,0.3-2.3,0.3-2.3c3.8,0.3,5.7,4,5.7,4c3.3,5.9,8.8,4.2,10.9,3.2
	c0.4-2.5,1.3-4.2,2.4-5.1c-8.4-1-17.1-4.2-17.1-19c0-4.2,1.5-7.6,3.9-10.3c-0.4-1-1.7-4.9,0.4-10.2c0,0,3.2-1,10.3,4
	c3-0.8,6.2-1.3,9.3-1.3c3.2,0,6.4,0.5,9.4,1.3c7.1-5,10.3-4,10.3-4c2,5.3,0.8,9.2,0.4,10.2c2.4,2.7,3.9,6.1,3.9,10.3
	c0,14.7-8.8,18-17.1,19c1.3,1.2,2.6,3.5,2.6,7.1c0,5.1,0,9.3,0,10.6c0,1,0.7,2.3,2.6,1.8C64.3,69.9,75,55.4,75,38.4
	C74.8,17.2,58.1,0,37.4,0z"/>
<path class="st1" d="M14.2,55.1c-0.1,0.2-0.4,0.3-0.6,0.1c-0.3-0.1-0.4-0.4-0.4-0.5c0.1-0.2,0.4-0.3,0.6-0.1
	C14.1,54.7,14.3,55,14.2,55.1z M15.7,56.9c-0.2,0.2-0.5,0.1-0.8-0.2c-0.3-0.3-0.3-0.6-0.1-0.8c0.2-0.2,0.5-0.1,0.8,0.2
	C15.8,56.3,15.8,56.7,15.7,56.9z M17.2,59.1c-0.3,0.2-0.6,0-0.9-0.4c-0.3-0.4-0.3-0.7,0-0.9c0.3-0.2,0.6,0,0.9,0.4
	C17.3,58.5,17.3,58.9,17.2,59.1z M19.2,61.2c-0.2,0.3-0.6,0.2-1-0.2c-0.4-0.3-0.4-0.7-0.2-1c0.2-0.3,0.6-0.2,1,0.2
	C19.3,60.6,19.4,61,19.2,61.2z M21.9,62.5c-0.1,0.3-0.5,0.5-1,0.3c-0.4-0.1-0.7-0.5-0.6-0.8c0.1-0.3,0.5-0.5,1-0.3
	C21.7,61.8,22,62.2,21.9,62.5z M25,62.7c0,0.3-0.4,0.5-0.8,0.5c-0.4,0-0.8-0.3-0.8-0.5c0-0.4,0.4-0.5,0.8-0.6
	C24.6,62.1,25,62.4,25,62.7z M27.9,62.2c0.1,0.3-0.3,0.6-0.7,0.7c-0.4,0.1-0.9-0.1-0.9-0.5c-0.1-0.3,0.3-0.6,0.7-0.7
	C27.4,61.7,27.8,61.9,27.9,62.2z"/>
</svg>
