<svg width="471" height="482" viewBox="0 0 471 482" fill="none" xmlns="http://www.w3.org/2000/svg">
<g clip-path="url(#clip0_2_2)">
<path fill-rule="evenodd" clip-rule="evenodd" d="M234.872 0C104.876 0 0 109.896 0 246.784C0 356.037 67.196 447.939 160.768 481.357C172.072 483.928 177.096 476.216 177.096 469.789C177.096 464.005 177.096 444.083 176.468 424.16C111.156 438.941 97.34 395.24 97.34 395.24C86.664 366.963 71.592 359.251 71.592 359.251C50.24 344.469 73.476 344.469 73.476 344.469C97.34 346.397 109.272 370.176 109.272 370.176C129.996 408.093 164.536 397.168 177.724 390.741C180.236 374.675 185.888 363.749 192.796 357.965C140.044 351.539 85.408 330.973 85.408 235.859C85.408 208.867 94.828 187.016 109.9 169.664C107.388 163.237 99.224 138.173 112.412 104.112C112.412 104.112 132.508 97.6853 177.096 129.819C195.936 124.677 216.032 121.464 235.5 121.464C255.596 121.464 275.692 124.677 294.532 129.819C339.12 97.6853 359.216 104.112 359.216 104.112C371.776 138.173 364.24 163.237 361.728 169.664C376.8 187.016 386.22 208.867 386.22 235.859C386.22 330.331 330.956 351.539 278.832 357.965C286.996 365.677 295.16 380.459 295.16 403.595C295.16 436.371 295.16 463.363 295.16 471.717C295.16 478.144 299.556 486.499 311.488 483.285C403.804 449.224 471 356.037 471 246.784C469.744 110.539 364.868 0 234.872 0Z" fill="white"/>
</g>
<defs>
<clipPath id="clip0_2_2">
<rect width="471" height="482" fill="white"/>
</clipPath>
</defs>
</svg>
