<svg width="75" height="75" viewBox="0 0 75 75" fill="none" xmlns="http://www.w3.org/2000/svg">
<path d="M37.5 0C16.8 0 0 16.8 0 37.5C0 58.2 16.8 75 37.5 75C58.2 75 75 58.2 75 37.5C75 16.725 58.2 0 37.5 0ZM37.425 16.875C38.25 15.975 39.3 15.525 40.5 15.525C41.475 15.525 42.3 15.9 42.9 16.5C43.5 17.175 43.875 18 43.875 18.975C43.875 20.175 43.425 21.3 42.6 22.2C41.7 23.175 40.725 23.625 39.6 23.625C38.7 23.625 37.8 23.25 37.2 22.575C36.6 21.9 36.225 21.075 36.225 20.025C36.225 18.9 36.6 17.775 37.425 16.875ZM43.725 52.2C40.65 55.125 38.4 56.925 36.975 57.75C35.4 58.65 34.125 59.1 33.075 59.1C32.025 59.1 31.125 58.725 30.45 58.05C29.85 57.375 29.475 56.475 29.475 55.35C29.475 52.5 31.125 45.825 34.425 34.95C34.5 34.8 34.5 34.575 34.575 34.425C34.425 34.5 34.275 34.575 34.125 34.65C33.825 34.8 33 35.475 30.6 37.875C30.225 38.25 29.625 38.25 29.25 37.95L27.825 36.825C27.6 36.675 27.45 36.375 27.45 36.075C27.45 35.775 27.525 35.475 27.75 35.25C30 32.775 32.1 30.975 33.975 29.925C35.925 28.8 37.65 28.275 39.075 28.275C40.05 28.275 40.8 28.5 41.325 28.95C41.925 29.475 42.225 30.15 42.225 30.975C42.225 31.5 42 32.925 40.05 39.375C37.35 48.525 36.675 51.9 36.6 53.025C37.125 52.725 38.325 51.825 40.95 49.425C41.325 49.05 42 49.05 42.375 49.425L43.65 50.7C43.875 50.925 43.95 51.15 43.95 51.45C43.95 51.75 43.875 52.05 43.725 52.2Z" fill="#EEEEEE"/>
</svg>
