<svg id="visual" viewBox="0 0 900 600" width="900" height="600" xmlns="http://www.w3.org/2000/svg" xmlns:xlink="http://www.w3.org/1999/xlink" version="1.1"><rect x="0" y="0" width="900" height="600" fill="#001220"></rect><path d="M0 115L21.5 117.8C43 120.7 86 126.3 128.8 114C171.7 101.7 214.3 71.3 257.2 57.8C300 44.3 343 47.7 385.8 58.8C428.7 70 471.3 89 514.2 96.2C557 103.3 600 98.7 642.8 103.7C685.7 108.7 728.3 123.3 771.2 125.7C814 128 857 118 878.5 113L900 108L900 0L878.5 0C857 0 814 0 771.2 0C728.3 0 685.7 0 642.8 0C600 0 557 0 514.2 0C471.3 0 428.7 0 385.8 0C343 0 300 0 257.2 0C214.3 0 171.7 0 128.8 0C86 0 43 0 21.5 0L0 0Z" fill="#962411"></path><path d="M0 72L21.5 67.5C43 63 86 54 128.8 52C171.7 50 214.3 55 257.2 62.8C300 70.7 343 81.3 385.8 86C428.7 90.7 471.3 89.3 514.2 82.5C557 75.7 600 63.3 642.8 60C685.7 56.7 728.3 62.3 771.2 60.3C814 58.3 857 48.7 878.5 43.8L900 39L900 0L878.5 0C857 0 814 0 771.2 0C728.3 0 685.7 0 642.8 0C600 0 557 0 514.2 0C471.3 0 428.7 0 385.8 0C343 0 300 0 257.2 0C214.3 0 171.7 0 128.8 0C86 0 43 0 21.5 0L0 0Z" fill="#e26b4b"></path></svg>