<svg id="visual" viewBox="0 0 900 600" width="900" height="600" xmlns="http://www.w3.org/2000/svg" xmlns:xlink="http://www.w3.org/1999/xlink" version="1.1"><rect x="0" y="0" width="900" height="600" fill="#000000"></rect><path d="M0 441L129 407L257 354L386 397L514 400L643 439L771 448L900 364L900 601L771 601L643 601L514 601L386 601L257 601L129 601L0 601Z" fill="#e26b4b"></path><path d="M0 440L129 441L257 423L386 464L514 419L643 444L771 449L900 469L900 601L771 601L643 601L514 601L386 601L257 601L129 601L0 601Z" fill="#d7512e"></path><path d="M0 493L129 459L257 493L386 490L514 495L643 443L771 485L900 509L900 601L771 601L643 601L514 601L386 601L257 601L129 601L0 601Z" fill="#cb330c"></path><path d="M0 487L129 533L257 533L386 504L514 509L643 516L771 521L900 488L900 601L771 601L643 601L514 601L386 601L257 601L129 601L0 601Z" fill="#b02b10"></path><path d="M0 544L129 539L257 551L386 559L514 573L643 533L771 538L900 527L900 601L771 601L643 601L514 601L386 601L257 601L129 601L0 601Z" fill="#962411"></path></svg>