<svg width="382" height="382" viewBox="0 0 382 382" fill="none" xmlns="http://www.w3.org/2000/svg">
<g clip-path="url(#clip0_2_5)">
<path d="M347.4 0H34.6C15.5 0 0 15.5 0 34.6V347.5C0 366.5 15.5 382 34.6 382H347.5C366.6 382 382.1 366.5 382.1 347.4V34.6C382 15.5 366.5 0 347.4 0ZM118.2 329.8C118.2 335.4 113.7 339.9 108.1 339.9H65.3C59.7 339.9 55.2 335.4 55.2 329.8V150.4C55.2 144.8 59.7 140.3 65.3 140.3H108.1C113.7 140.3 118.2 144.8 118.2 150.4V329.8ZM86.7 123.4C64.2 123.4 46 105.2 46 82.7C46 60.2 64.2 42 86.7 42C109.2 42 127.4 60.2 127.4 82.7C127.4 105.2 109.2 123.4 86.7 123.4ZM341.9 330.7C341.9 335.8 337.8 339.9 332.7 339.9H286.8C281.7 339.9 277.6 335.8 277.6 330.7V246.5C277.6 233.9 281.3 191.5 244.8 191.5C216.5 191.5 210.7 220.6 209.6 233.6V330.7C209.6 335.8 205.5 339.9 200.4 339.9H156C150.9 339.9 146.8 335.8 146.8 330.7V149.6C146.8 144.5 150.9 140.4 156 140.4H200.4C205.5 140.4 209.6 144.5 209.6 149.6V165.3C220.1 149.5 235.7 137.4 268.9 137.4C342.5 137.4 342 206.1 342 243.9L341.9 330.7Z" fill="#CB330C"/>
</g>
<defs>
<clipPath id="clip0_2_5">
<rect width="382" height="382" fill="white"/>
</clipPath>
</defs>
</svg>
