<svg width="106" height="201" viewBox="0 0 106 201" fill="none" xmlns="http://www.w3.org/2000/svg">
<path d="M25.4813 123.828C25.8073 123.832 26.1247 123.94 26.3934 124.14C26.6622 124.339 26.8702 124.621 26.9912 124.949C27.1121 125.276 27.1406 125.636 27.073 125.982C27.0054 126.328 26.8448 126.644 26.6114 126.891C26.3781 127.139 26.0824 127.305 25.7619 127.37C25.4415 127.436 25.1105 127.396 24.8109 127.258C24.5113 127.119 24.2566 126.887 24.0789 126.591C23.9012 126.295 23.8085 125.949 23.8126 125.595C23.8181 125.121 23.997 124.669 24.3099 124.338C24.6228 124.006 25.0442 123.823 25.4813 123.828Z" fill="#F05454"/>
<path d="M53.007 4.03291C52.64 4.03478 52.2805 3.91864 51.9739 3.69917C51.6674 3.47971 51.4275 3.16678 51.2847 2.79994C51.1419 2.43311 51.1026 2.02886 51.1717 1.6383C51.2408 1.24775 51.4153 0.888435 51.673 0.6058C51.9307 0.323165 52.26 0.129904 52.6195 0.0504533C52.9789 -0.0289977 53.3523 0.00892757 53.6923 0.159441C54.0323 0.309954 54.3238 0.56629 54.5298 0.896034C54.7358 1.22578 54.8471 1.61413 54.8497 2.01196C54.8531 2.54544 54.6609 3.05806 54.3153 3.43706C53.9698 3.81606 53.4991 4.0304 53.007 4.03291Z" fill="#F05454"/>
<path d="M71.1104 78.7947C71.1926 78.7815 71.2766 78.7877 71.3563 78.813C71.4361 78.8384 71.5098 78.8822 71.5724 78.9414C71.635 79.0006 71.6849 79.0739 71.7188 79.1562C71.7527 79.2384 71.7697 79.3277 71.7687 79.4179C71.7676 79.508 71.7486 79.5968 71.7128 79.6783C71.677 79.7597 71.6254 79.8318 71.5615 79.8896C71.4975 79.9473 71.4228 79.9894 71.3425 80.0128C71.2621 80.0363 71.1781 80.0406 71.0962 80.0254C70.9614 80.0005 70.8393 79.9242 70.7519 79.8104C70.6644 79.6966 70.6173 79.5526 70.619 79.4044C70.6207 79.2562 70.6712 79.1133 70.7612 79.0016C70.8513 78.8898 70.9751 78.8165 71.1104 78.7947V78.7947Z" fill="#F05454"/>
<path d="M64.9629 4.83641C64.591 4.79413 64.2394 4.63112 63.954 4.36874C63.6686 4.10636 63.4627 3.75684 63.3634 3.36595C63.2641 2.97507 63.2759 2.56104 63.3974 2.1781C63.5188 1.79517 63.7442 1.46118 64.0441 1.21989C64.3439 0.978596 64.7041 0.841245 65.0776 0.82583C65.4511 0.810416 65.8204 0.917659 66.1372 1.1335C66.454 1.34935 66.7035 1.66373 66.853 2.03548C67.0025 2.40723 67.0451 2.81902 66.9751 3.21689C66.8881 3.71133 66.6332 4.15201 66.2606 4.45186C65.888 4.75172 65.425 4.88894 64.9629 4.83641V4.83641Z" fill="white"/>
<path d="M20.1921 28.7513C19.9396 28.6909 19.7063 28.5362 19.5212 28.3066C19.336 28.077 19.2073 27.7825 19.1509 27.4598C19.0945 27.1371 19.1129 26.8003 19.204 26.4914C19.295 26.1825 19.4547 25.9151 19.663 25.7224C19.8713 25.5297 20.1191 25.4203 20.3756 25.4076C20.6322 25.395 20.8861 25.4798 21.1059 25.6514C21.3256 25.823 21.5015 26.074 21.6116 26.373C21.7217 26.672 21.7613 27.0059 21.7253 27.3331C21.7027 27.5593 21.6442 27.777 21.5536 27.9727C21.4629 28.1685 21.3419 28.3381 21.1982 28.471C21.0545 28.6039 20.8911 28.6974 20.718 28.7456C20.5449 28.7938 20.366 28.7958 20.1921 28.7513V28.7513Z" fill="white"/>
<path d="M78.2519 38.5251C77.9976 38.4828 77.7594 38.3517 77.5677 38.1484C77.376 37.945 77.2394 37.6787 77.1752 37.3833C77.1111 37.0878 77.1223 36.7766 77.2074 36.4891C77.2926 36.2016 77.4478 35.9509 77.6534 35.7689C77.859 35.5868 78.1057 35.4816 78.3621 35.4667C78.6185 35.4517 78.8729 35.5277 79.0932 35.6849C79.3134 35.8421 79.4896 36.0735 79.5991 36.3497C79.7086 36.6258 79.7465 36.9342 79.7082 37.2356C79.6849 37.4345 79.6286 37.6258 79.5427 37.7986C79.4567 37.9713 79.3426 38.122 79.2072 38.2419C79.0717 38.3618 78.9176 38.4486 78.7537 38.4972C78.5897 38.5458 78.4191 38.5553 78.2519 38.5251V38.5251Z" fill="white"/>
<path d="M61.8262 46.2166C62.0235 46.2159 62.2165 46.2789 62.3804 46.3978C62.5443 46.5166 62.6717 46.6859 62.7462 46.8838C62.8208 47.0817 62.8391 47.2994 62.7989 47.5089C62.7587 47.7184 62.6617 47.9103 62.5204 48.0599C62.3792 48.2095 62.2 48.3101 62.0058 48.3488C61.8117 48.3875 61.6114 48.3626 61.4306 48.2772C61.2498 48.1918 61.0967 48.0498 60.9909 47.8694C60.8851 47.689 60.8314 47.4784 60.8367 47.2645C60.8384 47.1254 60.8652 46.988 60.9158 46.86C60.9664 46.7321 61.0397 46.6161 61.1316 46.5188C61.2235 46.4215 61.3321 46.3447 61.4513 46.2929C61.5705 46.241 61.6979 46.2151 61.8262 46.2166V46.2166Z" fill="#A8CFE3"/>
<path d="M2.01744 28.0183C2.32619 28.0219 2.62684 28.1247 2.88142 28.3136C3.13599 28.5026 3.33303 28.7692 3.44762 29.0798C3.56221 29.3904 3.58918 29.731 3.52515 30.0586C3.46113 30.3862 3.30903 30.686 3.08797 30.9201C2.86691 31.1542 2.58689 31.3122 2.28331 31.374C1.97974 31.4357 1.6662 31.3985 1.38243 31.2671C1.09865 31.1356 0.857308 30.9159 0.688986 30.6356C0.520665 30.3552 0.432894 30.027 0.436759 29.6923C0.441941 29.2435 0.611395 28.815 0.907822 28.501C1.20425 28.1871 1.60341 28.0134 2.01744 28.0183V28.0183Z" fill="#F4F4F4"/>
<path d="M101.505 3.68458C101.835 3.68844 102.157 3.79838 102.429 4.00051C102.702 4.20263 102.912 4.48791 103.035 4.82016C103.158 5.15242 103.186 5.51678 103.118 5.86718C103.049 6.21758 102.887 6.53827 102.65 6.78871C102.414 7.03915 102.114 7.20807 101.789 7.27413C101.465 7.34018 101.129 7.30042 100.826 7.15984C100.522 7.01925 100.264 6.78417 100.084 6.48433C99.9041 6.18449 99.8102 5.83331 99.8143 5.47528C99.8198 4.99517 100.001 4.53681 100.318 4.20099C100.635 3.86516 101.062 3.6794 101.505 3.68458V3.68458Z" fill="#F4F4F4"/>
<path d="M81.883 68.0468C81.4822 68.0421 81.092 67.9087 80.7616 67.6634C80.4311 67.4181 80.1754 67.072 80.0267 66.6689C79.8779 66.2657 79.8429 65.8236 79.926 65.3984C80.0091 64.9732 80.2066 64.5841 80.4935 64.2802C80.7805 63.9763 81.1439 63.7713 81.538 63.6912C81.932 63.611 82.3389 63.6593 82.7072 63.8299C83.0756 64.0005 83.3888 64.2857 83.6073 64.6495C83.8257 65.0134 83.9397 65.4394 83.9346 65.8739C83.9279 66.4565 83.708 67.0127 83.3232 67.4201C82.9385 67.8276 82.4204 68.0531 81.883 68.0468V68.0468Z" fill="#F4F4F4"/>
<path d="M91.3276 98.3306C91.0426 98.3308 90.7642 98.2389 90.5278 98.0667C90.2915 97.8945 90.108 97.6497 90.0007 97.3637C89.8934 97.0777 89.8673 96.7633 89.9256 96.4608C89.9839 96.1583 90.124 95.8813 90.328 95.6652C90.532 95.4492 90.7907 95.3038 91.0711 95.2476C91.3514 95.1915 91.6407 95.2272 91.902 95.3501C92.1632 95.473 92.3847 95.6776 92.538 95.9378C92.6913 96.198 92.7695 96.5018 92.7627 96.8107C92.758 97.2182 92.6041 97.6073 92.335 97.8923C92.0659 98.1773 91.7035 98.335 91.3276 98.3306Z" fill="#F4F4F4"/>
<path d="M58.8878 176.424C58.9635 176.424 59.0386 176.439 59.1088 176.47C59.179 176.502 59.2428 176.547 59.2968 176.605C59.3507 176.663 59.3936 176.732 59.4231 176.807C59.4526 176.883 59.4681 176.964 59.4686 177.046C59.4466 177.192 59.3778 177.324 59.2743 177.42C59.1709 177.516 59.0395 177.569 58.9034 177.569C58.7672 177.57 58.6351 177.518 58.5304 177.424C58.4257 177.329 58.3552 177.198 58.3314 177.052C58.3303 176.889 58.3877 176.733 58.4916 176.615C58.5955 176.498 58.7377 176.429 58.8878 176.424Z" fill="#F4F4F4"/>
<path d="M69.0432 166.58C69.4507 166.578 69.8498 166.707 70.1902 166.951C70.5306 167.194 70.7969 167.542 70.9554 167.949C71.114 168.356 71.1577 168.805 71.081 169.239C71.0043 169.672 70.8106 170.071 70.5245 170.385C70.2384 170.699 69.8726 170.913 69.4736 171.002C69.0745 171.09 68.6599 171.048 68.2824 170.881C67.9049 170.714 67.5813 170.429 67.3526 170.063C67.1238 169.697 67.0002 169.266 66.9974 168.824C66.9936 168.232 67.207 167.662 67.5907 167.242C67.9744 166.821 68.4968 166.583 69.0432 166.58V166.58Z" fill="#F4F4F4"/>
<path d="M100.614 30.5903C101.021 30.588 101.42 30.7293 101.761 30.9963C102.101 31.2634 102.367 31.6441 102.526 32.0905C102.684 32.5368 102.728 33.0287 102.651 33.5039C102.575 33.9791 102.381 34.4163 102.095 34.7602C101.809 35.1041 101.443 35.3392 101.044 35.4359C100.645 35.5326 100.23 35.4864 99.8527 35.3033C99.4752 35.1201 99.1516 34.8082 98.9229 34.407C98.6942 34.0058 98.5705 33.5333 98.5677 33.0492C98.5658 32.7278 98.6172 32.4093 98.719 32.1118C98.8208 31.8143 98.971 31.5436 99.161 31.3153C99.351 31.0869 99.577 30.9054 99.8263 30.781C100.076 30.6566 100.343 30.5918 100.614 30.5903V30.5903Z" fill="#F4F4F4"/>
<path d="M91.9665 86.561C92.3003 86.5593 92.6215 86.7001 92.8607 86.9531C93.0998 87.206 93.2377 87.5506 93.2444 87.9124C93.2424 88.2758 93.1096 88.6237 92.8741 88.8819C92.6387 89.1402 92.3193 89.2882 91.9841 89.2946C91.6503 89.2916 91.3308 89.1462 91.0947 88.8899C90.8586 88.6336 90.7249 88.287 90.7226 87.9252C90.7203 87.5651 90.8501 87.2191 91.0834 86.9632C91.3166 86.7074 91.6343 86.5627 91.9665 86.561V86.561Z" fill="#F4F4F4"/>
<path d="M28.8779 177.452C29.1192 177.451 29.3555 177.527 29.557 177.671C29.7585 177.815 29.9161 178.021 30.0099 178.262C30.1038 178.503 30.1297 178.769 30.0842 179.026C30.0388 179.282 29.9242 179.519 29.7548 179.704C29.5854 179.89 29.3689 180.017 29.1326 180.069C28.8964 180.122 28.651 180.097 28.4275 179.998C28.204 179.899 28.0124 179.73 27.877 179.514C27.7416 179.297 27.6685 179.042 27.6668 178.78C27.6657 178.607 27.6962 178.434 27.7564 178.274C27.8167 178.113 27.9056 177.967 28.018 177.843C28.1305 177.72 28.2643 177.622 28.4118 177.555C28.5594 177.488 28.7178 177.453 28.8779 177.452V177.452Z" fill="#F4F4F4"/>
<path d="M96.7464 109.462C97.1245 109.46 97.495 109.58 97.8108 109.806C98.1267 110.032 98.3738 110.355 98.521 110.733C98.6681 111.111 98.7086 111.527 98.6374 111.93C98.5662 112.332 98.3865 112.702 98.121 112.994C97.8555 113.285 97.5161 113.484 97.1457 113.566C96.7754 113.648 96.3907 113.608 96.0403 113.453C95.69 113.298 95.3896 113.034 95.1774 112.694C94.9651 112.355 94.8504 111.955 94.8478 111.545C94.8443 110.995 95.0424 110.467 95.3984 110.076C95.7545 109.686 96.2394 109.465 96.7464 109.462Z" fill="#F4F4F4"/>
<path d="M69.3481 82.413C68.721 82.4165 68.2162 83.0167 68.2206 83.7535C68.2249 84.4904 68.7368 85.0849 69.3639 85.0815C69.9909 85.078 70.4957 84.4778 70.4914 83.741C70.487 83.0041 69.9751 82.4095 69.3481 82.413Z" fill="#F4F4F4"/>
<path d="M35.1337 5.14845C35.4234 5.14685 35.702 5.28054 35.9083 5.52012C36.1146 5.7597 36.2316 6.08551 36.2336 6.42593C36.2379 6.68452 36.1766 6.93862 36.0574 7.15571C35.9381 7.37281 35.7665 7.54306 35.5643 7.64469C35.3621 7.74633 35.1386 7.77473 34.9223 7.72628C34.706 7.67784 34.5068 7.55474 34.3501 7.37272C34.1934 7.1907 34.0863 6.95802 34.0426 6.70443C33.9988 6.45083 34.0204 6.18786 34.1045 5.94909C34.1886 5.71031 34.3315 5.50659 34.5148 5.36397C34.6982 5.22135 34.9136 5.14633 35.1337 5.14845V5.14845Z" fill="#F4F4F4"/>
<path d="M58.7304 19.2037C58.901 19.2027 59.0681 19.2612 59.2105 19.3718C59.353 19.4823 59.4645 19.64 59.5308 19.8248C59.5972 20.0096 59.6154 20.2133 59.5833 20.41C59.5512 20.6068 59.4702 20.7878 59.3504 20.9302C59.2307 21.0726 59.0776 21.1699 58.9105 21.21C58.7435 21.25 58.57 21.2309 58.4119 21.155C58.2539 21.0792 58.1186 20.9501 58.0228 20.784C57.9271 20.6179 57.8753 20.4222 57.8741 20.2218C57.8734 20.0887 57.8949 19.9568 57.9375 19.8336C57.9801 19.7105 58.0429 19.5984 58.1224 19.5038C58.202 19.4093 58.2966 19.3341 58.4009 19.2826C58.5052 19.2311 58.6172 19.2043 58.7304 19.2037V19.2037Z" fill="#F4F4F4"/>
<path d="M63.6222 56.9426C63.9064 56.9411 64.1849 57.0386 64.4223 57.2229C64.6598 57.4072 64.8455 57.6699 64.9561 57.9779C65.0667 58.2859 65.0972 58.6253 65.0437 58.9532C64.9902 59.2812 64.8551 59.5829 64.6555 59.8202C64.4559 60.0575 64.2008 60.2197 63.9224 60.2865C63.644 60.3532 63.3548 60.3213 63.0915 60.1949C62.8281 60.0686 62.6024 59.8533 62.4428 59.5764C62.2833 59.2996 62.197 58.9735 62.195 58.6395C62.1923 58.1916 62.3412 57.7612 62.6089 57.443C62.8765 57.1247 63.241 56.9448 63.6222 56.9426Z" fill="#F4F4F4"/>
<path d="M21.7651 14.9226C21.761 15.2846 21.6578 15.6373 21.4688 15.9362C21.2798 16.235 21.0134 16.4665 20.7033 16.6015C20.3932 16.7364 20.0533 16.7687 19.7266 16.6942C19.3999 16.6198 19.101 16.4419 18.8678 16.1831C18.6347 15.9244 18.4777 15.5964 18.4166 15.2406C18.3556 14.8847 18.3932 14.5171 18.5249 14.1841C18.6565 13.8512 18.8762 13.5678 19.1562 13.37C19.4362 13.1721 19.7639 13.0686 20.0979 13.0725C20.5457 13.0777 20.9729 13.2755 21.2855 13.6225C21.5982 13.9695 21.7708 14.4372 21.7651 14.9226V14.9226Z" fill="#295478"/>
<path d="M72.8643 152.387C73.6841 152.397 74.357 151.684 74.3673 150.795C74.3776 149.907 73.7212 149.178 72.9014 149.169C72.0817 149.159 71.4089 149.872 71.3987 150.76C71.3884 151.649 72.0445 152.377 72.8643 152.387Z" fill="#295478"/>
<path d="M95.4091 100.93C95.4085 101.306 95.3046 101.673 95.1107 101.985C94.9169 102.296 94.6419 102.539 94.3207 102.68C93.9996 102.822 93.647 102.857 93.3078 102.781C92.9686 102.705 92.6582 102.521 92.4162 102.252C92.1742 101.984 92.0117 101.643 91.9492 101.274C91.8868 100.904 91.9273 100.523 92.0656 100.178C92.2039 99.8333 92.4337 99.5409 92.7258 99.3381C93.0178 99.1353 93.3587 99.0313 93.7052 99.0393C94.1613 99.0499 94.5951 99.2537 94.9136 99.6071C95.2321 99.9606 95.41 100.436 95.4091 100.93Z" fill="#295478"/>
<path d="M23.9373 180.175C23.9315 179.779 24.0345 179.39 24.2333 179.057C24.432 178.725 24.7175 178.464 25.0535 178.308C25.3895 178.152 25.7609 178.108 26.1205 178.181C26.4801 178.255 26.8118 178.442 27.0734 178.72C27.335 178.998 27.5147 179.354 27.5898 179.742C27.6648 180.13 27.6319 180.533 27.495 180.901C27.3581 181.268 27.1235 181.583 26.8211 181.805C26.5186 182.028 26.1617 182.147 25.7959 182.149C25.3092 182.152 24.8408 181.946 24.4928 181.576C24.1447 181.206 23.9451 180.703 23.9373 180.175V180.175Z" fill="#F05454"/>
<path d="M91.0118 95.1798C91.0103 94.9293 91.0721 94.6841 91.1893 94.4751C91.3065 94.2662 91.4739 94.1029 91.6703 94.0059C91.8667 93.9089 92.0832 93.8826 92.2926 93.9304C92.502 93.9781 92.6948 94.0977 92.8466 94.274C92.9983 94.4503 93.1023 94.6754 93.1454 94.9209C93.1884 95.1664 93.1686 95.4212 93.0884 95.6531C93.0082 95.885 92.8712 96.0836 92.6947 96.2237C92.5183 96.3639 92.3103 96.4394 92.0972 96.4405C91.8113 96.4421 91.5363 96.3102 91.3328 96.0738C91.1293 95.8373 91.0138 95.5158 91.0118 95.1798V95.1798Z" fill="#F05454"/>
<path d="M66.7465 74.5228C66.7414 74.1413 66.8328 73.7669 67.0092 73.4471C67.1856 73.1272 67.439 72.8764 67.7373 72.7264C68.0355 72.5765 68.3651 72.5341 68.6843 72.6047C69.0034 72.6753 69.2978 72.8557 69.53 73.123C69.7621 73.3903 69.9216 73.7325 69.9882 74.106C70.0548 74.4796 70.0255 74.8678 69.904 75.2213C69.7826 75.5747 69.5743 75.8776 69.3058 76.0914C69.0374 76.3052 68.7208 76.4203 68.3961 76.4222C67.9641 76.4246 67.5483 76.2263 67.2394 75.8706C66.9304 75.5149 66.7533 75.0304 66.7465 74.5228V74.5228Z" fill="#F05454"/>
<path d="M65.715 182.087C65.7164 181.788 65.7994 181.495 65.9537 181.247C66.108 180.999 66.3267 180.806 66.5822 180.692C66.8377 180.579 67.1187 180.55 67.3898 180.609C67.6608 180.668 67.9098 180.813 68.1055 181.025C68.3011 181.237 68.4347 181.507 68.4893 181.801C68.5439 182.095 68.5171 182.399 68.4124 182.676C68.3077 182.953 68.1297 183.191 67.9007 183.358C67.6718 183.525 67.4021 183.615 67.1258 183.617C66.9404 183.617 66.7567 183.579 66.5851 183.502C66.4136 183.425 66.2576 183.313 66.1264 183.171C65.9951 183.028 65.8912 182.859 65.8206 182.673C65.75 182.487 65.7141 182.288 65.715 182.087V182.087Z" fill="#193C66"/>
<path d="M86.8548 91.3217C86.8531 91.0461 86.9267 90.7763 87.0665 90.5464C87.2063 90.3165 87.4059 90.1368 87.6402 90.0301C87.8744 89.9235 88.1326 89.8945 88.3823 89.947C88.6321 89.9995 88.862 90.1311 89.0431 90.3251C89.2241 90.519 89.3481 90.7668 89.3994 91.0368C89.4508 91.3069 89.4271 91.5872 89.3315 91.8424C89.2358 92.0975 89.0724 92.316 88.862 92.4702C88.6515 92.6244 88.4035 92.7074 88.1493 92.7087C87.8083 92.7105 87.4804 92.5653 87.2377 92.3052C86.9949 92.0451 86.8572 91.6913 86.8548 91.3217V91.3217Z" fill="#193C66"/>
<path d="M66.0753 53.0338C66.0764 53.1997 66.032 53.3623 65.9476 53.5008C65.8632 53.6394 65.7427 53.7476 65.6015 53.8117C65.4603 53.8758 65.3047 53.893 65.1546 53.8609C65.0045 53.8288 64.8667 53.749 64.7588 53.6316C64.6509 53.5143 64.5777 53.3646 64.5486 53.2018C64.5194 53.039 64.5357 52.8705 64.5953 52.7176C64.6549 52.5647 64.7551 52.4344 64.8832 52.3434C65.0113 52.2523 65.1614 52.2047 65.3144 52.2064C65.4148 52.2054 65.5144 52.2261 65.6073 52.2673C65.7002 52.3085 65.7846 52.3695 65.8555 52.4465C65.9263 52.5236 65.9823 52.6152 66.02 52.7161C66.0577 52.8169 66.0765 52.9249 66.0753 53.0338V53.0338Z" fill="#1A8BFF"/>
<path d="M84.0298 38.1096C83.9987 38.3422 83.8907 38.5548 83.7259 38.7077C83.5612 38.8607 83.3509 38.9436 83.1342 38.941C82.9174 38.9385 82.7091 38.8507 82.5479 38.6939C82.3867 38.5372 82.2837 38.3221 82.258 38.0889C82.2429 37.952 82.255 37.8131 82.2934 37.6815C82.3318 37.5499 82.3957 37.4287 82.4807 37.3259C82.5658 37.2232 82.6701 37.1413 82.7866 37.0857C82.9032 37.0301 83.0293 37.0021 83.1565 37.0036C83.2838 37.0051 83.4092 37.036 83.5244 37.0943C83.6397 37.1526 83.742 37.237 83.8247 37.3417C83.9074 37.4464 83.9684 37.5691 84.0038 37.7015C84.0392 37.834 84.048 37.9731 84.0298 38.1096V38.1096Z" fill="#1A8BFF"/>
<path d="M91.5881 28.299C91.5889 28.4225 91.5669 28.5451 91.5235 28.6594C91.4801 28.7737 91.4161 28.8775 91.3353 28.9647C91.2545 29.0519 91.1585 29.1208 91.0528 29.1674C90.9472 29.214 90.8341 29.2373 90.7202 29.2359C90.4886 29.2332 90.2675 29.1308 90.1058 28.9514C89.944 28.7719 89.8548 28.5299 89.8577 28.2788C89.8591 28.1553 89.8832 28.0333 89.9286 27.9199C89.974 27.8065 90.0398 27.704 90.1221 27.6185C90.2045 27.5329 90.3017 27.466 90.4081 27.4216C90.5145 27.3773 90.628 27.3563 90.7419 27.36C90.9692 27.3627 91.186 27.4631 91.3447 27.6392C91.5034 27.8153 91.591 28.0526 91.5881 28.299V28.299Z" fill="#1A8BFF"/>
<path d="M50.3105 8.80369C50.3088 8.9521 50.2665 9.09669 50.189 9.2192C50.1115 9.34171 50.0023 9.43662 49.8752 9.49194C49.7481 9.54725 49.6087 9.56047 49.4748 9.52995C49.3409 9.49943 49.2184 9.42655 49.1228 9.32047C49.0272 9.2144 48.9628 9.07991 48.9378 8.93404C48.9127 8.78817 48.9282 8.63744 48.9821 8.50094C49.0361 8.36445 49.1262 8.24832 49.241 8.1672C49.3558 8.08608 49.4901 8.04361 49.627 8.04521C49.8106 8.04736 49.9857 8.12847 50.1139 8.27071C50.2421 8.41295 50.3128 8.60468 50.3105 8.80369Z" fill="#1A8BFF"/>
<path d="M22.6708 8.90775C22.6687 9.09503 22.6153 9.27752 22.5175 9.43211C22.4198 9.5867 22.2819 9.70645 22.1215 9.77625C21.9611 9.84605 21.7852 9.86278 21.6162 9.82426C21.4472 9.78574 21.2926 9.69374 21.172 9.55989C21.0514 9.42603 20.9701 9.2563 20.9385 9.07223C20.9069 8.88816 20.9265 8.69798 20.9946 8.52574C21.0627 8.35349 21.1763 8.20692 21.3212 8.10456C21.466 8.00219 21.6355 7.94863 21.8083 7.95065C21.923 7.95199 22.0363 7.97781 22.1417 8.02664C22.2471 8.07546 22.3426 8.14635 22.4227 8.23523C22.5028 8.3241 22.5659 8.42923 22.6085 8.54462C22.6511 8.66002 22.6722 8.7834 22.6708 8.90775V8.90775Z" fill="#1A8BFF"/>
<path d="M23.0167 188.857C23.0138 189.104 22.9434 189.345 22.8143 189.549C22.6851 189.753 22.5031 189.912 22.2912 190.004C22.0793 190.096 21.8471 190.118 21.6238 190.067C21.4006 190.016 21.1964 189.895 21.0371 189.718C20.8778 189.541 20.7705 189.317 20.7288 189.074C20.6871 188.831 20.7128 188.58 20.8028 188.352C20.8927 188.125 21.0429 187.931 21.2342 187.796C21.4255 187.661 21.6493 187.59 21.8775 187.593C22.1835 187.596 22.4754 187.731 22.689 187.968C22.9027 188.206 23.0205 188.525 23.0167 188.857Z" fill="#1A8BFF"/>
<path d="M65.5132 182.758C65.5059 183.022 65.4044 183.273 65.2301 183.458C65.0558 183.642 64.8223 183.746 64.5788 183.748C64.334 183.745 64.1005 183.637 63.9295 183.447C63.7586 183.258 63.6643 183.002 63.6674 182.737C63.6705 182.471 63.7706 182.218 63.9459 182.033C64.1211 181.847 64.3571 181.744 64.6019 181.747C64.8453 181.755 65.0763 181.864 65.2463 182.053C65.4163 182.241 65.512 182.494 65.5132 182.758V182.758Z" fill="#1A8BFF"/>
<path d="M85.8728 175.422C85.8435 175.621 85.7491 175.802 85.6069 175.933C85.4647 176.063 85.2841 176.133 85.0982 176.131C84.9123 176.129 84.7334 176.054 84.5943 175.921C84.4551 175.787 84.3649 175.604 84.3401 175.404C84.3253 175.285 84.3345 175.163 84.3669 175.048C84.3993 174.932 84.4543 174.826 84.528 174.735C84.6018 174.645 84.6927 174.573 84.7944 174.524C84.8961 174.475 85.0064 174.45 85.1176 174.451C85.2289 174.453 85.3385 174.48 85.4391 174.531C85.5396 174.583 85.6288 174.657 85.7004 174.749C85.7721 174.841 85.8246 174.949 85.8543 175.065C85.8841 175.181 85.8904 175.303 85.8728 175.422V175.422Z" fill="#1A8BFF"/>
<path d="M102.373 122.315C102.371 122.566 102.276 122.806 102.11 122.981C101.944 123.157 101.721 123.254 101.489 123.251C101.375 123.25 101.263 123.224 101.158 123.175C101.054 123.126 100.959 123.055 100.88 122.966C100.802 122.877 100.74 122.771 100.699 122.656C100.659 122.541 100.639 122.418 100.643 122.294C100.646 122.048 100.739 121.813 100.902 121.64C101.064 121.468 101.283 121.373 101.511 121.375C101.625 121.374 101.738 121.398 101.843 121.445C101.948 121.492 102.044 121.561 102.124 121.648C102.205 121.736 102.268 121.84 102.311 121.954C102.354 122.069 102.375 122.191 102.373 122.315V122.315Z" fill="#1A8BFF"/>
<path d="M90.1326 90.4905C90.5058 90.4949 90.8122 90.1704 90.8168 89.7659C90.8215 89.3613 90.5227 89.0299 90.1495 89.0255C89.7764 89.0211 89.4701 89.3455 89.4654 89.7501C89.4607 90.1546 89.7594 90.4861 90.1326 90.4905Z" fill="#1A8BFF"/>
<path d="M70.5299 83.8115C70.5274 84.0248 70.4469 84.2284 70.3061 84.3775C70.1653 84.5266 69.9756 84.6091 69.779 84.6068C69.5823 84.6045 69.3946 84.5176 69.2573 84.3652C69.1199 84.2128 69.0442 84.0074 69.0466 83.7942C69.0491 83.581 69.1296 83.3774 69.2704 83.2283C69.4112 83.0791 69.6008 82.9966 69.7975 82.9989C69.9942 83.0012 70.1819 83.0881 70.3192 83.2405C70.4566 83.3929 70.5323 83.5983 70.5299 83.8115V83.8115Z" fill="#1A8BFF"/>
<path d="M29.9617 72.4539C29.9597 72.627 29.9103 72.7957 29.82 72.9387C29.7296 73.0816 29.6021 73.1923 29.4538 73.2568C29.3055 73.3214 29.1429 73.3368 28.9867 73.3012C28.8304 73.2656 28.6875 73.1805 28.5759 73.0568C28.4644 72.933 28.3893 72.7762 28.3601 72.606C28.3309 72.4358 28.3489 72.26 28.4119 72.1007C28.4749 71.9415 28.58 71.8059 28.7139 71.7113C28.8478 71.6167 29.0045 71.5672 29.1642 71.569C29.2703 71.5703 29.375 71.5941 29.4725 71.6393C29.57 71.6844 29.6582 71.7499 29.7323 71.8321C29.8063 71.9143 29.8647 72.0115 29.904 72.1182C29.9434 72.2249 29.963 72.3389 29.9617 72.4539Z" fill="#1A8BFF"/>
<path d="M100.046 61.0116C100.044 61.2182 99.9661 61.4154 99.8297 61.5599C99.6932 61.7044 99.5095 61.7843 99.319 61.7821C99.1284 61.7799 98.9466 61.6957 98.8135 61.548C98.6805 61.4004 98.607 61.2013 98.6094 60.9948C98.6118 60.7882 98.6898 60.5909 98.8262 60.4464C98.9627 60.3019 99.1464 60.222 99.3369 60.2242C99.5275 60.2265 99.7093 60.3107 99.8424 60.4583C99.9755 60.606 100.049 60.805 100.046 61.0116Z" fill="#1A8BFF"/>
<path d="M101.517 52.9298C101.514 53.1818 101.419 53.4225 101.252 53.5988C101.086 53.775 100.862 53.8726 100.629 53.8698C100.397 53.8671 100.175 53.7644 100.013 53.5842C99.8503 53.4041 99.7608 53.1613 99.7637 52.9093C99.7666 52.6572 99.8617 52.4166 100.028 52.2403C100.195 52.064 100.419 51.9665 100.651 51.9692C100.884 51.972 101.106 52.0747 101.268 52.2548C101.43 52.435 101.52 52.6778 101.517 52.9298Z" fill="#1A8BFF"/>
<path d="M73.6887 110.976C73.4727 110.853 73.3097 110.643 73.2352 110.391C73.1606 110.139 73.1805 109.866 73.2904 109.63C73.3742 109.459 73.5028 109.319 73.66 109.227C73.8171 109.135 73.9959 109.095 74.174 109.113C74.3521 109.13 74.5216 109.204 74.6612 109.326C74.8009 109.447 74.9045 109.61 74.9592 109.795C75.0139 109.98 75.0171 110.178 74.9686 110.364C74.92 110.55 74.8218 110.717 74.6862 110.843C74.5506 110.969 74.3837 111.049 74.2062 111.073C74.0288 111.096 73.8488 111.062 73.6887 110.976Z" fill="#1A8BFF"/>
<path d="M78.9585 139.956C78.7683 139.851 78.6108 139.688 78.506 139.487C78.4012 139.286 78.3538 139.055 78.3697 138.825C78.3856 138.595 78.4642 138.375 78.5955 138.194C78.7268 138.012 78.905 137.877 79.1073 137.806C79.3097 137.734 79.5272 137.729 79.7324 137.792C79.9375 137.854 80.121 137.982 80.2597 138.157C80.3984 138.333 80.4861 138.549 80.5115 138.778C80.5369 139.007 80.499 139.24 80.4026 139.445C80.2701 139.717 80.0456 139.921 79.7762 140.017C79.5069 140.112 79.2138 140.09 78.9585 139.956V139.956Z" fill="#1A8BFF"/>
<path d="M64.3346 168.895C64.0772 168.709 63.8916 168.427 63.813 168.102C63.7344 167.778 63.7684 167.434 63.9084 167.136C64.0484 166.837 64.2847 166.605 64.5725 166.483C64.8603 166.362 65.1795 166.359 65.4695 166.475C65.6367 166.543 65.7889 166.647 65.9162 166.783C66.0435 166.918 66.1429 167.081 66.208 167.261C66.273 167.441 66.3023 167.634 66.2938 167.826C66.2852 168.019 66.2391 168.208 66.1584 168.38C66.0777 168.552 65.9644 168.703 65.8257 168.824C65.6871 168.945 65.5264 169.033 65.3541 169.081C65.1818 169.13 65.0019 169.139 64.8262 169.107C64.6505 169.074 64.4829 169.002 64.3346 168.895V168.895Z" fill="#1A8BFF"/>
<path d="M67.6926 171.574C67.5298 171.488 67.3943 171.351 67.3034 171.181C67.2125 171.011 67.1703 170.816 67.1823 170.621C67.1942 170.425 67.2598 170.238 67.3706 170.083C67.4813 169.928 67.6322 169.813 67.804 169.751C67.9757 169.69 68.1606 169.686 68.3348 169.739C68.509 169.793 68.6647 169.901 68.782 170.051C68.8993 170.201 68.9727 170.385 68.993 170.58C69.0133 170.774 68.9795 170.971 68.896 171.145C68.8437 171.26 68.7709 171.362 68.6819 171.445C68.5929 171.529 68.4894 171.592 68.3774 171.632C68.2655 171.672 68.1473 171.687 68.0298 171.677C67.9122 171.667 67.7976 171.632 67.6926 171.574V171.574Z" fill="#1A8BFF"/>
<path d="M51.7807 187.406C51.5988 187.303 51.4488 187.144 51.3498 186.95C51.2507 186.755 51.2069 186.533 51.2239 186.312C51.2409 186.09 51.318 185.879 51.4454 185.706C51.5727 185.532 51.7447 185.403 51.9397 185.335C52.1347 185.267 52.344 185.263 52.5413 185.324C52.7386 185.385 52.915 185.507 53.0484 185.676C53.1818 185.845 53.2662 186.053 53.291 186.274C53.3158 186.494 53.2799 186.718 53.1877 186.916C53.1279 187.051 53.0433 187.172 52.9391 187.27C52.835 187.368 52.7134 187.443 52.5818 187.488C52.4502 187.534 52.3113 187.551 52.1736 187.536C52.0359 187.522 51.9022 187.478 51.7807 187.406V187.406Z" fill="#1A8BFF"/>
<path d="M86.3298 23.7976C86.1383 23.6704 85.998 23.4697 85.9369 23.2356C85.8758 23.0015 85.8983 22.7512 86.0001 22.5348C86.1018 22.3183 86.2752 22.1516 86.4857 22.068C86.6961 21.9843 86.9281 21.9899 87.1353 22.0836C87.2487 22.1349 87.3511 22.211 87.4361 22.3072C87.5212 22.4034 87.587 22.5175 87.6295 22.6425C87.672 22.7675 87.6902 22.9005 87.683 23.0334C87.6758 23.1662 87.6433 23.2959 87.5877 23.4144C87.532 23.5329 87.4543 23.6375 87.3594 23.7218C87.2646 23.8061 87.1547 23.8682 87.0366 23.9041C86.9185 23.9401 86.7947 23.9492 86.6731 23.9309C86.5515 23.9126 86.4346 23.8672 86.3298 23.7976V23.7976Z" fill="#1A8BFF"/>
<path d="M50.1829 83.5578C50.0157 83.4352 49.8957 83.2504 49.8455 83.0386C49.7953 82.8267 49.8186 82.6024 49.9108 82.4082C50.0029 82.2139 50.1577 82.0633 50.3458 81.9847C50.5338 81.9061 50.742 81.905 50.931 81.9817C51.0982 82.1043 51.2183 82.2891 51.2684 82.501C51.3186 82.7128 51.2954 82.9371 51.2033 83.1313C51.1111 83.3256 50.9563 83.4762 50.7683 83.5548C50.5802 83.6334 50.3719 83.6345 50.1829 83.5578V83.5578Z" fill="#1A8BFF"/>
<path d="M54.8812 109.333C54.7101 109.243 54.5677 109.1 54.4721 108.921C54.3765 108.743 54.3321 108.538 54.3445 108.332C54.3569 108.126 54.4256 107.93 54.5418 107.767C54.658 107.604 54.8164 107.482 54.9969 107.418C55.1773 107.353 55.3714 107.349 55.5546 107.404C55.7378 107.46 55.9017 107.574 56.0252 107.731C56.1487 107.888 56.2262 108.081 56.248 108.286C56.2698 108.49 56.2348 108.697 56.1474 108.88C56.0923 109.001 56.0158 109.108 55.9222 109.196C55.8286 109.284 55.7198 109.351 55.602 109.393C55.4843 109.435 55.36 109.452 55.2363 109.441C55.1126 109.431 54.9919 109.394 54.8812 109.333V109.333Z" fill="#1A8BFF"/>
<path d="M53.1094 200.36C52.9782 200.288 52.8614 200.19 52.7657 200.069C52.67 199.949 52.5973 199.809 52.5518 199.658C52.5064 199.507 52.489 199.347 52.5009 199.189C52.5128 199.031 52.5537 198.877 52.621 198.736C52.6846 198.592 52.7744 198.464 52.885 198.359C52.9957 198.254 53.1249 198.175 53.2648 198.126C53.4047 198.077 53.5523 198.059 53.6989 198.073C53.8455 198.088 53.9879 198.134 54.1175 198.21C54.266 198.27 54.4012 198.363 54.5143 198.483C54.6273 198.604 54.7156 198.748 54.7734 198.908C54.8312 199.068 54.8572 199.239 54.8496 199.41C54.842 199.582 54.8011 199.749 54.7294 199.902C54.6578 200.055 54.557 200.189 54.4339 200.297C54.3107 200.404 54.168 200.482 54.0149 200.525C53.8619 200.568 53.7021 200.576 53.546 200.547C53.3899 200.519 53.2411 200.455 53.1094 200.36V200.36Z" fill="#1A8BFF"/>
<path d="M77.3654 84.5118C77.2889 84.4659 77.2207 84.4023 77.165 84.3249C77.1092 84.2475 77.067 84.1577 77.0406 84.0608C77.0142 83.9639 77.0043 83.8618 77.0114 83.7604C77.0185 83.659 77.0425 83.5603 77.082 83.47C77.1655 83.2934 77.3022 83.1608 77.4646 83.0988C77.6271 83.0368 77.8034 83.05 77.9583 83.1357C78.0345 83.1821 78.1022 83.2459 78.1577 83.3234C78.2131 83.4009 78.2551 83.4906 78.2815 83.5873C78.3078 83.684 78.3179 83.7859 78.311 83.8872C78.3042 83.9885 78.2807 84.0871 78.2417 84.1774C78.2028 84.2678 78.1492 84.3481 78.0841 84.4138C78.019 84.4795 77.9436 84.5293 77.8623 84.5604C77.7809 84.5914 77.6951 84.6031 77.6099 84.5948C77.5246 84.5865 77.4416 84.5583 77.3654 84.5118V84.5118Z" fill="#1A8BFF"/>
<path d="M81.4764 63.0192C81.2959 62.9037 81.1603 62.7092 81.0985 62.4771C81.0367 62.2449 81.0536 61.9935 81.1456 61.7763C81.1904 61.6692 81.253 61.5738 81.3295 61.496C81.4059 61.4181 81.4948 61.3592 81.5908 61.3228C81.6868 61.2865 81.788 61.2733 81.8884 61.2842C81.9889 61.2951 82.0866 61.3298 82.1757 61.3862C82.3578 61.4949 82.4964 61.6847 82.5613 61.9141C82.6261 62.1436 82.6119 62.394 82.5218 62.6106C82.4277 62.828 82.2654 62.9926 82.0699 63.069C81.8744 63.1454 81.6613 63.1275 81.4764 63.0192Z" fill="#1A8BFF"/>
<path d="M94.7897 39.4222C94.6882 39.3615 94.5977 39.2776 94.5234 39.1754C94.4491 39.0732 94.3924 38.9547 94.3566 38.8265C94.3208 38.6984 94.3066 38.5632 94.3147 38.4287C94.3229 38.2941 94.3533 38.1629 94.4042 38.0424C94.4551 37.9219 94.5255 37.8146 94.6114 37.7265C94.6973 37.6385 94.7969 37.5714 94.9047 37.5292C95.0125 37.4869 95.1262 37.4703 95.2395 37.4803C95.3528 37.4903 95.4633 37.5267 95.5648 37.5874C95.7699 37.7101 95.9257 37.9244 95.998 38.1831C96.0703 38.4419 96.0532 38.724 95.9504 38.9673C95.8476 39.2106 95.6677 39.3952 95.45 39.4805C95.2323 39.5658 94.9948 39.5449 94.7897 39.4222V39.4222Z" fill="#1A8BFF"/>
<path d="M47.2155 8.58699C47.0937 8.51323 46.9854 8.41169 46.8966 8.28821C46.8079 8.16473 46.7404 8.02172 46.6982 7.86737C46.656 7.71302 46.6398 7.55035 46.6505 7.38868C46.6613 7.22701 46.6987 7.06953 46.7608 6.92522C46.8919 6.64075 47.1096 6.42674 47.3694 6.32701C47.6293 6.22729 47.9115 6.24937 48.1586 6.38873C48.4042 6.53795 48.5902 6.79686 48.6754 7.1085C48.7607 7.42014 48.7384 7.75899 48.6134 8.0505C48.4883 8.342 48.2708 8.56229 48.0086 8.66291C47.7465 8.76352 47.4611 8.73621 47.2155 8.58699V8.58699Z" fill="#1A8BFF"/>
<path d="M71.7587 186.684C71.6527 186.628 71.5582 186.55 71.4809 186.453C71.4036 186.356 71.3451 186.244 71.3089 186.122C71.2727 186.001 71.2595 185.872 71.2702 185.745C71.281 185.618 71.3154 185.494 71.3713 185.382C71.4788 185.158 71.6629 184.989 71.8843 184.911C72.1056 184.833 72.3465 184.853 72.5553 184.965C72.7746 185.08 72.943 185.285 73.0234 185.534C73.1038 185.783 73.0897 186.057 72.9841 186.294C72.8785 186.531 72.6902 186.714 72.4605 186.8C72.2308 186.887 71.9785 186.871 71.7592 186.756L71.7587 186.684Z" fill="#1A8BFF"/>
<path d="M85.0769 171.215C84.9219 171.131 84.7933 171 84.7073 170.837C84.6213 170.673 84.5818 170.487 84.594 170.299C84.6062 170.112 84.6694 169.933 84.7756 169.785C84.8818 169.638 85.0262 169.527 85.1905 169.469C85.3547 169.41 85.5315 169.406 85.6983 169.456C85.8651 169.506 86.0145 169.609 86.1274 169.752C86.2404 169.894 86.3117 170.07 86.3326 170.256C86.3534 170.443 86.3228 170.631 86.2445 170.798C86.1403 171.021 85.9591 171.189 85.7404 171.268C85.5217 171.346 85.2833 171.327 85.0769 171.215V171.215Z" fill="#1A8BFF"/>
<path d="M104.526 16.3722C104.712 16.4807 104.865 16.6468 104.965 16.8495C105.065 17.0522 105.107 17.2825 105.087 17.5114C105.066 17.7403 104.983 17.9576 104.849 18.136C104.715 18.3144 104.535 18.4458 104.333 18.5138C104.13 18.5818 103.913 18.5834 103.71 18.5182C103.506 18.453 103.325 18.3241 103.19 18.1476C103.054 17.9712 102.97 17.7551 102.947 17.5264C102.924 17.2978 102.965 17.067 103.063 16.8629C103.128 16.7259 103.219 16.6043 103.328 16.5054C103.438 16.4064 103.564 16.332 103.7 16.2864C103.836 16.2407 103.979 16.2248 104.121 16.2395C104.263 16.2543 104.4 16.2993 104.526 16.3722V16.3722Z" fill="#1A8BFF"/>
<path d="M38.3055 101.467C38.3028 101.695 38.2379 101.917 38.1189 102.105C37.9999 102.294 37.8322 102.439 37.6369 102.524C37.4417 102.609 37.2276 102.63 37.0219 102.583C36.8162 102.536 36.6281 102.424 36.4813 102.261C36.3345 102.098 36.2356 101.892 36.1971 101.668C36.1587 101.444 36.1825 101.212 36.2653 101.002C36.3482 100.793 36.4866 100.614 36.6628 100.49C36.8391 100.365 37.0454 100.3 37.2557 100.302C37.5376 100.306 37.8066 100.43 38.0035 100.649C38.2004 100.867 38.309 101.162 38.3055 101.467V101.467Z" fill="#1A8BFF"/>
<path d="M104.235 73.7913C104.236 73.991 104.181 74.1864 104.079 74.3525C103.977 74.5187 103.831 74.648 103.661 74.7239C103.49 74.7998 103.303 74.8189 103.123 74.7787C102.942 74.7384 102.777 74.6407 102.649 74.498C102.52 74.3554 102.434 74.1743 102.401 73.9779C102.368 73.7816 102.39 73.5789 102.464 73.396C102.538 73.2131 102.661 73.0581 102.816 72.9511C102.972 72.8441 103.153 72.7899 103.337 72.7953C103.578 72.7981 103.808 72.9046 103.977 73.0914C104.145 73.2782 104.238 73.53 104.235 73.7913V73.7913Z" fill="#1A8BFF"/>
<path d="M98.0273 49.4988C98.0242 49.769 97.9222 50.027 97.7437 50.216C97.5652 50.405 97.325 50.5095 97.0757 50.5066C96.8265 50.5037 96.5886 50.3936 96.4146 50.2005C96.2406 50.0073 96.1445 49.747 96.1477 49.4768C96.1508 49.2066 96.2528 48.9487 96.4312 48.7597C96.6097 48.5707 96.85 48.4661 97.0992 48.469C97.2227 48.4704 97.3446 48.4983 97.458 48.5508C97.5714 48.6033 97.6742 48.6796 97.7603 48.7752C97.8465 48.8708 97.9144 48.984 97.9602 49.1081C98.0061 49.2323 98.0288 49.365 98.0273 49.4988Z" fill="#1A8BFF"/>
<path d="M95.2149 14.2716C94.7905 14.2778 94.3737 14.1342 94.0176 13.8589C93.6615 13.5835 93.382 13.1889 93.2145 12.7251C93.0471 12.2613 92.9994 11.7491 93.0773 11.2537C93.1552 10.7582 93.3553 10.3017 93.6522 9.94207C93.9491 9.58246 94.3294 9.33595 94.7448 9.23382C95.1603 9.13168 95.5923 9.1785 95.9859 9.36837C96.3795 9.55824 96.717 9.88259 96.9556 10.3003C97.1942 10.7179 97.3231 11.2101 97.3261 11.7144C97.3302 12.0477 97.2788 12.3785 97.1748 12.6878C97.0707 12.9971 96.916 13.2787 96.7198 13.5165C96.5235 13.7542 96.2895 13.9433 96.0312 14.0729C95.7729 14.2025 95.4955 14.27 95.2149 14.2716Z" fill="#F05454"/>
<path d="M76.8997 73.4767C76.3786 73.4796 75.8681 73.2989 75.4328 72.9574C74.9976 72.6159 74.657 72.1289 74.4542 71.5581C74.2515 70.9873 74.1956 70.3583 74.2937 69.7505C74.3919 69.1428 74.6395 68.5837 75.0054 68.1439C75.3713 67.7041 75.839 67.4034 76.3494 67.2797C76.8598 67.1561 77.3899 67.2151 77.8728 67.4493C78.3556 67.6836 78.7694 68.0824 79.0619 68.5955C79.3544 69.1086 79.5125 69.7129 79.5161 70.332C79.5185 70.743 79.4527 71.1504 79.3225 71.5309C79.1923 71.9113 79.0003 72.2575 78.7574 72.5495C78.5144 72.8415 78.2253 73.0737 77.9066 73.2328C77.5879 73.3918 77.2457 73.4747 76.8997 73.4767V73.4767Z" fill="#F05454"/>
<path d="M68.08 92.2827C68.5831 92.2886 69.073 92.4561 69.4878 92.764C69.9026 93.0718 70.2236 93.5063 70.4103 94.0124C70.597 94.5185 70.641 95.0735 70.5367 95.6072C70.4324 96.141 70.1844 96.6295 69.8242 97.0109C69.4641 97.3924 69.0078 97.6497 68.5132 97.7504C68.0185 97.851 67.5077 97.7904 67.0453 97.5763C66.583 97.3621 66.1898 97.004 65.9155 96.5473C65.6413 96.0906 65.4982 95.5557 65.5045 95.0104C65.513 94.279 65.7891 93.5808 66.2721 93.0693C66.755 92.5578 67.4054 92.2748 68.08 92.2827V92.2827Z" fill="#F4F4F4"/>
<path d="M54.4069 9.56628C54.4044 9.77509 54.3448 9.97848 54.2354 10.1506C54.1261 10.3227 53.972 10.4558 53.7928 10.5328C53.6136 10.6099 53.4175 10.6274 53.2293 10.5832C53.0411 10.5391 52.8693 10.4352 52.7359 10.2848C52.6025 10.1344 52.5135 9.94423 52.4802 9.73862C52.4469 9.533 52.4707 9.32116 52.5488 9.1301C52.6268 8.93903 52.7555 8.77739 52.9185 8.66569C53.0814 8.554 53.2713 8.49731 53.4638 8.50288C53.5906 8.50435 53.7157 8.53313 53.832 8.58758C53.9483 8.64203 54.0534 8.72106 54.1412 8.82003C54.229 8.919 54.2977 9.03597 54.3433 9.16409C54.3889 9.29221 54.4105 9.42892 54.4069 9.56628V9.56628Z" fill="#1A8BFF"/>
<path d="M86.3592 38.0015C86.3569 38.2008 86.2817 38.3911 86.15 38.5306C86.0184 38.67 85.8411 38.7471 85.6572 38.745C85.4719 38.7428 85.2948 38.6621 85.164 38.5201C85.0331 38.378 84.9589 38.186 84.9572 37.9851C84.9635 37.7827 85.0416 37.5907 85.1753 37.449C85.3091 37.3074 85.488 37.2272 85.6748 37.2251C85.86 37.2316 86.0354 37.3166 86.1633 37.4617C86.2912 37.6068 86.3616 37.8006 86.3592 38.0015Z" fill="#1A8BFF"/>
<path d="M65.2108 17.2867C65.2114 17.4313 65.1853 17.5747 65.1342 17.7084C65.0831 17.8421 65.008 17.9634 64.9133 18.0655C64.8185 18.1675 64.706 18.248 64.5823 18.3025C64.4586 18.3569 64.3262 18.3841 64.1928 18.3826C63.9218 18.3794 63.6632 18.2597 63.474 18.0497C63.2848 17.8397 63.1804 17.5567 63.1837 17.2629C63.1871 16.9692 63.298 16.6887 63.4921 16.4832C63.6861 16.2777 63.9473 16.1641 64.2183 16.1672C64.3518 16.1688 64.4835 16.1991 64.6059 16.2564C64.7283 16.3137 64.8389 16.3969 64.9313 16.5011C65.0237 16.6053 65.096 16.7284 65.144 16.8633C65.192 16.9981 65.2147 17.1421 65.2108 17.2867V17.2867Z" fill="#1A8BFF"/>
</svg>
