<svg xmlns="http://www.w3.org/2000/svg" xmlns:xlink="http://www.w3.org/1999/xlink" version="1.1" x="0px" y="0px" viewBox="0 0 32 40" enable-background="new 0 0 32 32" xml:space="preserve"><g display="none"><rect x="-12" y="-47.333" display="inline" fill="#000000" width="410.667" height="203.333"/></g><g><g><path d="M16,27.316l8.888-9.868h-8.691l8.691-9.649H7.112l8.69,9.649h-8.69L16,27.316z M16.5,15.617V8.798h6.142L16.5,15.617z     M15.5,8.798v6.819L9.358,8.798H15.5z M15.494,25.26l-6.135-6.812h6.135V25.26z M16.494,25.273v-6.826h6.148L16.494,25.273z"/><path d="M16,32c8.837,0,16-7.163,16-16S24.837,0,16,0S0,7.163,0,16S7.163,32,16,32z M16,1c8.271,0,15,6.729,15,15    c0,8.271-6.729,15-15,15S1,24.271,1,16C1,7.729,7.729,1,16,1z"/></g></g><g display="none"><g display="inline"><polygon points="16.494,18.447 16.494,25.273 22.642,18.447   "/><polygon points="15.494,25.26 15.494,18.447 9.358,18.447   "/><polygon points="15.5,15.618 15.5,8.798 9.358,8.798   "/><polygon points="16.5,8.798 16.5,15.617 22.642,8.798   "/><path d="M16,32c8.837,0,16-7.163,16-16S24.837,0,16,0S0,7.163,0,16S7.163,32,16,32z M7.112,7.798h17.776l-8.691,9.649h8.691    L16,27.316l-8.888-9.868h8.69L7.112,7.798z"/></g></g><g display="none"><g display="inline"><path d="M16,27.316l8.888-9.868h-8.691l8.691-9.649H7.112l8.69,9.649h-8.69L16,27.316z M17,13.568V9.798h3.395L17,13.568z     M15,9.798v3.77l-3.395-3.77H15z M14.994,23.21l-3.389-3.763h3.389V23.21z M16.994,23.224v-3.776h3.401L16.994,23.224z"/><path d="M16,32c8.837,0,16-7.163,16-16S24.837,0,16,0S0,7.163,0,16S7.163,32,16,32z M16,2c7.72,0,14,6.28,14,14    c0,7.72-6.28,14-14,14S2,23.72,2,16C2,8.28,8.28,2,16,2z"/></g></g><g display="none"><g display="inline"><path d="M16,27.316l8.888-9.868h-8.691l8.691-9.649H7.112l8.69,9.649h-8.69L16,27.316z M16.25,16.642V8.298h7.515L16.25,16.642z     M15.75,8.298v8.344L8.235,8.298H15.75z M15.744,26.284l-7.509-8.337h7.509V26.284z M16.244,26.298v-8.35h7.521L16.244,26.298z"/><path d="M16,32c8.837,0,16-7.163,16-16S24.837,0,16,0S0,7.163,0,16S7.163,32,16,32z M16,0.5c8.547,0,15.5,6.953,15.5,15.5    c0,8.547-6.953,15.5-15.5,15.5S0.5,24.547,0.5,16C0.5,7.453,7.453,0.5,16,0.5z"/></g></g><text x="0" y="47" fill="#000000" font-size="5px" font-weight="bold" font-family="'Helvetica Neue', Helvetica, Arial-Unicode, Arial, Sans-serif">Created by Alfredo @ IconsAlfredo.com</text><text x="0" y="52" fill="#000000" font-size="5px" font-weight="bold" font-family="'Helvetica Neue', Helvetica, Arial-Unicode, Arial, Sans-serif">from the Noun Project</text></svg>