<svg width="221" height="211" viewBox="0 0 221 211" fill="none" xmlns="http://www.w3.org/2000/svg">
<g filter="url(#filter0_d_226_70)">
<path d="M153.394 122.618V117.197C153.394 114.915 151.763 113.203 149.589 113.203H147.687C146.872 113.203 145.785 112.918 145.242 112.633C140.894 110.35 139.807 104.359 143.068 101.221L144.426 99.7944C146.057 98.3679 146.057 95.8003 144.426 94.0885L137.089 86.3855C135.731 84.9591 133.285 84.9591 131.655 86.3855L130.296 87.812C129.752 88.3826 128.666 89.2385 127.85 89.2385C123.503 90.3797 118.883 86.9562 118.883 82.6767V80.6797C118.883 78.3973 117.252 76.6855 115.079 76.6855H104.753C102.579 76.6855 100.948 78.3973 100.948 80.6797V82.6767C100.948 83.5326 100.676 84.6738 100.405 85.2444C98.2308 89.8091 92.5242 90.9503 89.5351 87.5268L88.1764 86.1003C86.8177 84.6738 84.3721 84.6738 82.7416 86.1003L75.4046 93.8032C74.0459 95.2297 74.0459 97.7973 75.4046 99.5091L76.7633 100.936C77.3068 101.506 78.122 102.647 78.122 103.503C79.209 108.068 75.9482 112.918 71.8721 112.918H69.9699C67.7959 112.918 66.1655 114.63 66.1655 116.912V122.333" stroke="#9A9A9A" stroke-width="2" stroke-miterlimit="10" stroke-linecap="round" stroke-linejoin="round"/>
<path d="M88.1768 122.618C88.1768 110.066 97.9594 99.7949 109.916 99.7949C121.872 99.7949 131.655 110.066 131.655 122.618" stroke="#9A9A9A" stroke-width="2" stroke-miterlimit="10" stroke-linecap="round" stroke-linejoin="round"/>
<path d="M55.5679 134.03V62.7059C55.5679 59.5677 58.0135 57 61.0027 57H158.829C161.818 57 164.264 59.5677 164.264 62.7059V134.03" stroke="#9A9A9A" stroke-width="2" stroke-miterlimit="10" stroke-linecap="round" stroke-linejoin="round"/>
<path d="M123.503 139.736H96.3286" stroke="#9A9A9A" stroke-width="2" stroke-miterlimit="10" stroke-linecap="round" stroke-linejoin="round"/>
<path d="M88.1764 134.029H47.4155C47.4155 142.018 53.3938 154 61.0025 154H158.829C166.437 154 172.416 142.018 172.416 134.029H131.655" stroke="#9A9A9A" stroke-width="2" stroke-miterlimit="10" stroke-linecap="round" stroke-linejoin="round"/>
</g>
<g filter="url(#filter1_d_226_70)">
<path d="M77.4349 177.254C36.6981 159.771 19.1202 113.15 38.1736 73.1231C57.2269 33.0965 105.696 14.8217 146.433 32.305C187.17 49.7883 204.748 96.4092 185.695 136.436C166.641 176.462 118.172 194.737 77.4349 177.254Z" stroke="#FBFBFB" stroke-opacity="0.19" shape-rendering="crispEdges"/>
</g>
<g filter="url(#filter2_d_226_70)">
<path d="M74.8505 178.254C34.1137 160.771 16.5357 114.15 35.5891 74.1231C54.6425 34.0965 103.112 15.8217 143.849 33.305C184.586 50.7883 202.164 97.4092 183.11 137.436C164.057 177.462 115.587 195.737 74.8505 178.254Z" stroke="url(#paint0_linear_226_70)" stroke-opacity="0.26" shape-rendering="crispEdges"/>
</g>
<defs>
<filter id="filter0_d_226_70" x="41.4155" y="55" width="137" height="109" filterUnits="userSpaceOnUse" color-interpolation-filters="sRGB">
<feFlood flood-opacity="0" result="BackgroundImageFix"/>
<feColorMatrix in="SourceAlpha" type="matrix" values="0 0 0 0 0 0 0 0 0 0 0 0 0 0 0 0 0 0 127 0" result="hardAlpha"/>
<feOffset dy="4"/>
<feGaussianBlur stdDeviation="2.5"/>
<feComposite in2="hardAlpha" operator="out"/>
<feColorMatrix type="matrix" values="0 0 0 0 0.207843 0 0 0 0 0.388235 0 0 0 0 0.580392 0 0 0 0.25 0"/>
<feBlend mode="normal" in2="BackgroundImageFix" result="effect1_dropShadow_226_70"/>
<feBlend mode="normal" in="SourceGraphic" in2="effect1_dropShadow_226_70" result="shape"/>
</filter>
<filter id="filter1_d_226_70" x="25.9775" y="25.1797" width="171.913" height="167.199" filterUnits="userSpaceOnUse" color-interpolation-filters="sRGB">
<feFlood flood-opacity="0" result="BackgroundImageFix"/>
<feColorMatrix in="SourceAlpha" type="matrix" values="0 0 0 0 0 0 0 0 0 0 0 0 0 0 0 0 0 0 127 0" result="hardAlpha"/>
<feOffset dy="4"/>
<feGaussianBlur stdDeviation="2"/>
<feComposite in2="hardAlpha" operator="out"/>
<feColorMatrix type="matrix" values="0 0 0 0 0 0 0 0 0 0 0 0 0 0 0 0 0 0 0.25 0"/>
<feBlend mode="normal" in2="BackgroundImageFix" result="effect1_dropShadow_226_70"/>
<feBlend mode="normal" in="SourceGraphic" in2="effect1_dropShadow_226_70" result="shape"/>
</filter>
<filter id="filter2_d_226_70" x="23.3931" y="26.1797" width="171.913" height="167.199" filterUnits="userSpaceOnUse" color-interpolation-filters="sRGB">
<feFlood flood-opacity="0" result="BackgroundImageFix"/>
<feColorMatrix in="SourceAlpha" type="matrix" values="0 0 0 0 0 0 0 0 0 0 0 0 0 0 0 0 0 0 127 0" result="hardAlpha"/>
<feOffset dy="4"/>
<feGaussianBlur stdDeviation="2"/>
<feComposite in2="hardAlpha" operator="out"/>
<feColorMatrix type="matrix" values="0 0 0 0 0.898039 0 0 0 0 0.898039 0 0 0 0 0.898039 0 0 0 1 0"/>
<feBlend mode="normal" in2="BackgroundImageFix" result="effect1_dropShadow_226_70"/>
<feBlend mode="normal" in="SourceGraphic" in2="effect1_dropShadow_226_70" result="shape"/>
</filter>
<linearGradient id="paint0_linear_226_70" x1="104.916" y1="359" x2="121.875" y2="38.6596" gradientUnits="userSpaceOnUse">
<stop stop-color="white" stop-opacity="0.06"/>
<stop offset="0.847946" stop-color="white" stop-opacity="0"/>
</linearGradient>
</defs>
</svg>
