<svg width="85" height="99" viewBox="0 0 85 99" fill="none" xmlns="http://www.w3.org/2000/svg">
<path d="M77.9924 56.579C77.9295 36.9613 61.9752 21.1091 42.3575 21.172C22.7398 21.235 6.88751 37.1893 6.95046 56.807C7.01342 76.4247 22.9677 92.277 42.5854 92.214C62.2031 92.1511 78.0554 76.1967 77.9924 56.579Z" fill="#213955"/>
<path d="M71.5453 56.5995C71.4937 40.542 58.4348 27.5666 42.3773 27.6181C26.3198 27.6697 13.3444 40.7286 13.396 56.7861C13.4475 72.8436 26.5064 85.8189 42.5639 85.7674C58.6214 85.7159 71.5968 72.6569 71.5453 56.5995Z" fill="#354A63"/>
<path d="M72.2445 86.2756C68.4056 90.1393 63.9277 93.1785 58.9344 95.3103C53.7596 97.517 48.2672 98.6421 42.606 98.6602C36.9448 98.6784 31.4453 97.5886 26.2564 95.4151C21.2496 93.3154 16.7522 90.305 12.8886 86.4661C9.02497 82.6272 5.98575 78.1493 3.85398 73.156C1.64727 67.9894 0.522161 62.4888 0.503994 56.8276C0.485826 51.1664 1.57564 45.6669 3.74911 40.478C5.84879 35.4712 8.85921 30.9738 12.6981 27.1102C16.537 23.2466 21.015 20.2073 26.0082 18.0756C30.2174 16.2769 34.6686 15.1882 39.2295 14.843L39.3329 16.165C34.9124 16.5015 30.61 17.5567 26.5328 19.2888C21.6963 21.3539 17.3586 24.2935 13.6433 28.0411C9.92793 31.7803 7.00797 36.1369 4.97391 40.9865C2.86602 46.0099 1.80871 51.3357 1.82632 56.8234C1.84393 62.311 2.9354 67.6299 5.07549 72.6397C7.14063 77.4761 10.0802 81.8139 13.8278 85.5292C17.567 89.2445 21.9236 92.1645 26.7732 94.1986C31.7966 96.3065 37.1224 97.3638 42.61 97.3462C48.0977 97.3285 53.4166 96.2371 58.4264 94.097C63.2628 92.0318 67.6006 89.0922 71.3159 85.3447L72.2445 86.2756Z" fill="#213955"/>
<path d="M84.4308 59.4592C84.4308 59.4758 84.4309 59.4923 84.4309 59.5088L84.4229 59.5915C84.3994 60.0048 84.0451 60.3117 83.6317 60.28C83.2184 60.2565 82.9115 59.9021 82.935 59.4888L82.943 59.4062C82.9664 58.9929 83.3208 58.6859 83.7342 58.7177C84.131 58.7494 84.4295 59.0708 84.4308 59.4592ZM84.4121 53.6493C84.4134 54.0377 84.1169 54.361 83.7203 54.3953C83.3071 54.4214 82.9508 54.1168 82.9247 53.7119L82.9162 53.6293C82.8818 53.2162 83.1947 52.8598 83.5996 52.8337C84.0127 52.8076 84.3691 53.1122 84.3952 53.5171L84.4037 53.5997C84.412 53.6162 84.4121 53.6327 84.4121 53.6493ZM83.623 65.2967C83.6232 65.3463 83.6151 65.4041 83.607 65.4537L83.5907 65.5364C83.5011 65.9417 83.1052 66.1909 82.7083 66.1095C82.303 66.0199 82.0538 65.624 82.1352 65.2271L82.1514 65.1444C82.2328 64.7391 82.6287 64.4817 83.0339 64.5713C83.3813 64.6528 83.6219 64.9578 83.623 65.2967ZM83.5669 47.8172C83.568 48.1643 83.3294 48.4708 82.9825 48.5463C82.5778 48.6303 82.1886 48.3836 82.0964 47.9789L82.0796 47.8963C81.9873 47.4916 82.2423 47.0941 82.647 47.0102C83.0516 46.918 83.4492 47.1729 83.5331 47.5776L83.5499 47.6602C83.5583 47.7098 83.5668 47.7676 83.5669 47.8172ZM81.9883 70.9632C81.9886 71.0458 81.9723 71.1368 81.9395 71.2195L81.9067 71.294C81.7675 71.6829 81.3383 71.8744 80.9494 71.7351C80.5605 71.5959 80.3691 71.1667 80.5083 70.7778L80.5411 70.7034C80.6804 70.3145 81.1095 70.123 81.4984 70.2623C81.8046 70.377 81.9873 70.6657 81.9883 70.9632ZM81.8959 42.1613C81.8968 42.467 81.7159 42.7486 81.4105 42.857C81.0225 42.9988 80.6004 42.8101 80.4504 42.4221L80.4254 42.3478C80.2754 41.9598 80.4723 41.5377 80.8603 41.3877C81.2483 41.2377 81.6704 41.4347 81.8204 41.8227L81.8537 41.9052C81.8788 41.9878 81.8956 42.0786 81.8959 42.1613ZM79.5592 76.3347C79.5596 76.4587 79.5269 76.5745 79.4694 76.6904L79.4283 76.7649C79.2312 77.1292 78.777 77.2629 78.421 77.0656C78.0568 76.8685 77.9231 76.4143 78.1203 76.0583L78.1613 75.9838C78.3585 75.6195 78.8044 75.4859 79.1687 75.6831C79.417 75.8145 79.5583 76.0702 79.5592 76.3347ZM79.4323 36.8054C79.4332 37.0699 79.2935 37.3265 79.046 37.4596C78.683 37.6591 78.2363 37.5283 78.0368 37.1653L77.9952 37.091C77.7957 36.728 77.9265 36.2813 78.2895 36.0818C78.6525 35.8823 79.0992 36.0131 79.2987 36.3761L79.3403 36.4503C79.4068 36.5658 79.432 36.6897 79.4323 36.8054ZM76.3933 81.3036C76.3938 81.4607 76.3447 81.6179 76.2459 81.7504L76.1966 81.8167C75.9497 82.1481 75.4871 82.2157 75.1557 81.9688C74.8243 81.7219 74.7567 81.2593 75.0036 80.9279L75.053 80.8617C75.2999 80.5303 75.7625 80.4627 76.0938 80.7096C76.2927 80.8577 76.3925 81.0805 76.3933 81.3036ZM76.2346 31.8569C76.2353 32.0801 76.1368 32.3035 75.939 32.4529C75.6092 32.7019 75.1462 32.6373 74.8972 32.3075L74.8474 32.2415C74.5984 31.9118 74.663 31.4487 74.9928 31.1997C75.3226 30.9507 75.7856 31.0154 76.0346 31.3451L76.0844 31.4111C76.184 31.543 76.2341 31.6999 76.2346 31.8569Z" fill="#213955"/>
<path d="M72.0533 26.9197L71.1224 27.8566C67.3832 24.1412 63.0266 21.2213 58.177 19.1872C54.1881 17.514 49.9781 16.4944 45.6712 16.1611L45.7744 14.8467C50.2219 15.1878 54.5642 16.24 58.6855 17.9707C63.6841 20.0704 68.1897 23.0808 72.0533 26.9197Z" fill="#213955"/>
<path d="M46.3792 15.3738C46.3861 17.5143 44.6479 19.2637 42.5074 19.2706C40.3669 19.2775 38.6175 17.5393 38.6106 15.3987C38.6037 13.2582 40.3419 11.5088 42.4824 11.502C44.623 11.4951 46.3724 13.2333 46.3792 15.3738ZM39.9329 15.3945C39.9374 16.8077 41.0899 17.9528 42.5031 17.9483C43.9164 17.9438 45.0615 16.7913 45.0569 15.3781C45.0524 13.9648 43.8999 12.8197 42.4867 12.8243C41.0735 12.8288 39.9284 13.9813 39.9329 15.3945Z" fill="#213955"/>
<path d="M42.5129 14.4714C42.011 14.4598 41.5946 14.8573 41.5831 15.3593C41.5715 15.8613 41.969 16.2776 42.471 16.2892C42.973 16.3008 43.3893 15.9033 43.4009 15.4013C43.4125 14.8993 43.0149 14.483 42.5129 14.4714Z" fill="#213955"/>
<path d="M41.6289 0.30616L41.667 12.1658L42.9893 12.1615L42.9513 0.301916L41.6289 0.30616Z" fill="#213955"/>
<path d="M39.5739 57.5057C39.5739 59.122 40.883 60.4304 42.5 60.4304C44.117 60.4304 45.4261 59.122 45.4261 57.5057C45.4261 57.0952 45.7598 56.7617 46.1704 56.7617C46.5811 56.7617 46.9148 57.0952 46.9148 57.5057C46.9148 59.9686 44.9127 61.9441 42.4743 61.9441C40.0359 61.9441 38.0338 59.943 38.0338 57.5057C38.0338 55.0428 40.0359 53.0673 42.4743 53.0673C42.885 53.0673 43.2187 53.4008 43.2187 53.8113C43.2187 54.2218 42.885 54.5553 42.4743 54.5553C40.8829 54.5553 39.5739 55.8894 39.5739 57.5057ZM45.0667 50.1938C45.1694 49.7834 44.9127 49.3729 44.5277 49.2702C43.8603 49.1163 43.193 49.0137 42.5 49.0137C37.8285 49.0137 34.0298 52.8107 34.0298 57.48C34.0298 62.1494 37.8285 65.9464 42.5 65.9464C47.1715 65.9464 50.9702 62.1494 50.9702 57.48C50.9702 56.7873 50.8932 56.1203 50.7136 55.4532C50.6109 55.0428 50.2002 54.8119 49.7895 54.9145C49.3788 55.0171 49.1479 55.4276 49.2505 55.8381C49.3789 56.3768 49.4558 56.9413 49.4558 57.5057C49.4558 61.354 46.3244 64.4584 42.5 64.4584C38.6756 64.4584 35.5441 61.3284 35.5441 57.5057C35.5441 53.6574 38.6756 50.553 42.5 50.553C43.0647 50.553 43.6294 50.63 44.1684 50.7583C44.5791 50.8353 44.9897 50.6043 45.0667 50.1938ZM53.537 53.4264C53.1263 53.5547 52.921 53.9652 53.0236 54.3757C53.3316 55.3763 53.4856 56.4538 53.4856 57.5057C53.4856 63.5604 48.5575 68.4863 42.5 68.4863C36.4425 68.4863 31.5144 63.5604 31.5144 57.5057C31.5144 51.451 36.4425 46.5251 42.5 46.5251C43.578 46.5251 44.6304 46.679 45.6314 46.9869C46.0421 47.1152 46.4528 46.8843 46.5811 46.4738C46.7094 46.0633 46.4784 45.6528 46.0677 45.5245C44.9127 45.191 43.7064 45.0114 42.5 45.0114C35.5955 45.0114 30 50.6043 30 57.5057C30 64.4071 35.5955 70 42.5 70C49.4045 70 55 64.4071 55 57.5057C55 56.2999 54.8203 55.0941 54.4867 53.9396C54.3583 53.5291 53.9476 53.2982 53.537 53.4264ZM52.6386 48.1157C52.844 48.1157 53.0236 48.0388 53.1776 47.8848L54.3326 46.7303L54.769 46.2942C55.0514 46.012 55.0514 45.5245 54.769 45.2166C54.4867 44.9344 53.9989 44.9344 53.6909 45.2166L53.2546 45.6528L52.0996 46.8073C51.8172 47.0895 51.8172 47.577 52.0996 47.8848C52.2536 48.0388 52.4589 48.1157 52.6386 48.1157ZM47.1201 51.8102V47.9105C47.1201 47.6283 47.2228 47.3461 47.4281 47.1408L49.2505 45.3193C49.5585 45.0114 50.0205 44.9088 50.4312 45.0884C50.8419 45.268 51.0986 45.6528 51.0986 46.0889V48.8854H53.8963C54.3326 48.8854 54.7434 49.142 54.8974 49.5525C55.077 49.9629 54.9743 50.4247 54.6663 50.7326L52.844 52.5542C52.6386 52.7594 52.3563 52.862 52.0739 52.862H48.1981H48.1725L43.0133 58.0188C42.8593 58.1727 42.6796 58.2497 42.4743 58.2497C42.269 58.2497 42.0893 58.1727 41.9353 58.0188C41.653 57.7366 41.653 57.2491 41.9353 56.9413L47.1201 51.8102ZM48.6345 51.374H51.9199L52.8953 50.3991H50.6879C50.0975 50.3991 49.6099 49.9116 49.6099 49.3215V47.1152L48.6345 48.0901V51.374Z" fill="#E1E1E1"/>
</svg>
