<svg width="218" height="211" viewBox="0 0 218 211" fill="none" xmlns="http://www.w3.org/2000/svg">
<g filter="url(#filter0_d_226_69)">
<path d="M74.4349 178.137C33.6981 160.653 16.1202 114.032 35.1736 74.0059C54.2269 33.9793 102.696 15.7045 143.433 33.1878C184.17 50.6711 201.748 97.292 182.695 137.319C163.641 177.345 115.172 195.62 74.4349 178.137Z" stroke="#FBFBFB" stroke-opacity="0.19" shape-rendering="crispEdges"/>
</g>
<g filter="url(#filter1_d_226_69)">
<path d="M108.151 153.995H58.3285C55.6551 153.995 53.4678 151.808 53.4678 149.135V61.642C53.4678 58.9686 55.6551 56.7812 58.3285 56.7812H160.403C163.077 56.7812 165.264 58.9686 165.264 61.642V149.135C165.264 151.808 163.077 153.995 160.403 153.995H108.151Z" stroke="#9A9A9A" stroke-width="2" stroke-miterlimit="10" stroke-linecap="round" stroke-linejoin="round"/>
<path d="M53.4678 76.2246H155.543" stroke="#9A9A9A" stroke-width="2" stroke-miterlimit="10" stroke-linecap="round" stroke-linejoin="round"/>
<path d="M89.923 68.933C91.2653 68.933 92.3534 67.8449 92.3534 66.5026C92.3534 65.1604 91.2653 64.0723 89.923 64.0723C88.5808 64.0723 87.4927 65.1604 87.4927 66.5026C87.4927 67.8449 88.5808 68.933 89.923 68.933Z" fill="#9A9A9A"/>
<path d="M80.2018 68.933C81.5441 68.933 82.6322 67.8449 82.6322 66.5026C82.6322 65.1604 81.5441 64.0723 80.2018 64.0723C78.8596 64.0723 77.7715 65.1604 77.7715 66.5026C77.7715 67.8449 78.8596 68.933 80.2018 68.933Z" fill="#9A9A9A"/>
<path d="M70.4802 68.933C71.8224 68.933 72.9105 67.8449 72.9105 66.5026C72.9105 65.1604 71.8224 64.0723 70.4802 64.0723C69.1379 64.0723 68.0498 65.1604 68.0498 66.5026C68.0498 67.8449 69.1379 68.933 70.4802 68.933Z" fill="#9A9A9A"/>
<path d="M68.0498 93.2363H87.4926" stroke="#9A9A9A" stroke-width="2" stroke-miterlimit="10" stroke-linecap="round" stroke-linejoin="round"/>
<path d="M68.0498 107.818H85.0623" stroke="#9A9A9A" stroke-width="2" stroke-miterlimit="10" stroke-linecap="round" stroke-linejoin="round"/>
<path d="M68.0498 122.4H97.214" stroke="#9A9A9A" stroke-width="2" stroke-miterlimit="10" stroke-linecap="round" stroke-linejoin="round"/>
<path d="M68.0498 136.982H75.3409" stroke="#9A9A9A" stroke-width="2" stroke-miterlimit="10" stroke-linecap="round" stroke-linejoin="round"/>
<path d="M94.7837 107.818H102.075" stroke="#9A9A9A" stroke-width="2" stroke-miterlimit="10" stroke-linecap="round" stroke-linejoin="round"/>
<path d="M124.434 129.691L117.143 122.4L124.434 115.109" stroke="#9A9A9A" stroke-width="2" stroke-miterlimit="10" stroke-linecap="round" stroke-linejoin="round"/>
<path d="M143.877 129.691L151.168 122.4L143.877 115.109" stroke="#9A9A9A" stroke-width="2" stroke-miterlimit="10" stroke-linecap="round" stroke-linejoin="round"/>
<path d="M138.53 111.465L131.239 133.338" stroke="#9A9A9A" stroke-width="2" stroke-miterlimit="10" stroke-linecap="round" stroke-linejoin="round"/>
<path d="M85.0625 136.982H102.075" stroke="#9A9A9A" stroke-width="2" stroke-miterlimit="10" stroke-linecap="round" stroke-linejoin="round"/>
</g>
<defs>
<filter id="filter0_d_226_69" x="22.9775" y="26.0625" width="171.913" height="167.199" filterUnits="userSpaceOnUse" color-interpolation-filters="sRGB">
<feFlood flood-opacity="0" result="BackgroundImageFix"/>
<feColorMatrix in="SourceAlpha" type="matrix" values="0 0 0 0 0 0 0 0 0 0 0 0 0 0 0 0 0 0 127 0" result="hardAlpha"/>
<feOffset dy="4"/>
<feGaussianBlur stdDeviation="2"/>
<feComposite in2="hardAlpha" operator="out"/>
<feColorMatrix type="matrix" values="0 0 0 0 0 0 0 0 0 0 0 0 0 0 0 0 0 0 0.25 0"/>
<feBlend mode="normal" in2="BackgroundImageFix" result="effect1_dropShadow_226_69"/>
<feBlend mode="normal" in="SourceGraphic" in2="effect1_dropShadow_226_69" result="shape"/>
</filter>
<filter id="filter1_d_226_69" x="48.4678" y="55.7812" width="121.796" height="107.215" filterUnits="userSpaceOnUse" color-interpolation-filters="sRGB">
<feFlood flood-opacity="0" result="BackgroundImageFix"/>
<feColorMatrix in="SourceAlpha" type="matrix" values="0 0 0 0 0 0 0 0 0 0 0 0 0 0 0 0 0 0 127 0" result="hardAlpha"/>
<feOffset dy="4"/>
<feGaussianBlur stdDeviation="2"/>
<feComposite in2="hardAlpha" operator="out"/>
<feColorMatrix type="matrix" values="0 0 0 0 0.207843 0 0 0 0 0.388235 0 0 0 0 0.580392 0 0 0 0.25 0"/>
<feBlend mode="normal" in2="BackgroundImageFix" result="effect1_dropShadow_226_69"/>
<feBlend mode="normal" in="SourceGraphic" in2="effect1_dropShadow_226_69" result="shape"/>
</filter>
</defs>
</svg>
