<svg width="219" height="211" viewBox="0 0 219 211" fill="none" xmlns="http://www.w3.org/2000/svg">
<g filter="url(#filter0_d_136_6240)">
<path d="M75.0194 178.137C34.2826 160.653 16.7047 114.032 35.7581 74.0059C54.8114 33.9793 103.281 15.7045 144.018 33.1878C184.755 50.6711 202.332 97.292 183.279 137.319C164.226 177.345 115.756 195.62 75.0194 178.137Z" stroke="white" stroke-opacity="0.17" shape-rendering="crispEdges"/>
</g>
<g filter="url(#filter1_d_136_6240)">
<path d="M151.266 71.3634V54.3509C151.266 51.6776 149.079 49.4902 146.405 49.4902H85.6466H78.3555L63.7734 64.0723V156.426C63.7734 159.099 65.9608 161.286 68.6341 161.286H146.405C149.079 161.286 151.266 159.099 151.266 156.426V149.135V71.3634Z" stroke="#356394" stroke-width="2" stroke-miterlimit="10" stroke-linecap="round" stroke-linejoin="round"/>
<path d="M124.532 64.0723H90.5073V78.6544H124.532V64.0723Z" stroke="#356394" stroke-width="2" stroke-miterlimit="10" stroke-linecap="round" stroke-linejoin="round"/>
<path d="M107.52 85.9453V93.2364H83.2163V100.527" stroke="#356394" stroke-width="2" stroke-miterlimit="10" stroke-linecap="round" stroke-linejoin="round"/>
<path d="M131.823 100.527V93.2363H107.52V100.527" stroke="#356394" stroke-width="2" stroke-miterlimit="10" stroke-linecap="round" stroke-linejoin="round"/>
<path d="M112.381 107.818H75.9253V119.97H112.381V107.818Z" stroke="#356394" stroke-width="2" stroke-miterlimit="10" stroke-linecap="round" stroke-linejoin="round"/>
<path d="M139.114 107.818H124.532V119.97H139.114V107.818Z" stroke="#356394" stroke-width="2" stroke-miterlimit="10" stroke-linecap="round" stroke-linejoin="round"/>
<path d="M139.114 139.414H124.532V151.566H139.114V139.414Z" stroke="#356394" stroke-width="2" stroke-miterlimit="10" stroke-linecap="round" stroke-linejoin="round"/>
<path d="M131.823 127.262V132.122" stroke="#356394" stroke-width="2" stroke-miterlimit="10" stroke-linecap="round" stroke-linejoin="round"/>
<path d="M107.52 127.262V132.122" stroke="#356394" stroke-width="2" stroke-miterlimit="10" stroke-linecap="round" stroke-linejoin="round"/>
<path d="M83.2163 127.262V132.122" stroke="#356394" stroke-width="2" stroke-miterlimit="10" stroke-linecap="round" stroke-linejoin="round"/>
<path d="M83.2163 151.566C87.2431 151.566 90.5074 148.846 90.5074 145.49C90.5074 142.134 87.2431 139.414 83.2163 139.414C79.1896 139.414 75.9253 142.134 75.9253 145.49C75.9253 148.846 79.1896 151.566 83.2163 151.566Z" stroke="#356394" stroke-width="2" stroke-miterlimit="10" stroke-linecap="round" stroke-linejoin="round"/>
<path d="M107.52 151.566C111.546 151.566 114.811 148.846 114.811 145.49C114.811 142.134 111.546 139.414 107.52 139.414C103.493 139.414 100.229 142.134 100.229 145.49C100.229 148.846 103.493 151.566 107.52 151.566Z" stroke="#356394" stroke-width="2" stroke-miterlimit="10" stroke-linecap="round" stroke-linejoin="round"/>
<path d="M71.0645 66.5027H80.7859V56.7812" stroke="#356394" stroke-width="2" stroke-miterlimit="10" stroke-linecap="round" stroke-linejoin="round"/>
</g>
<defs>
<filter id="filter0_d_136_6240" x="23.562" y="26.0625" width="171.913" height="167.199" filterUnits="userSpaceOnUse" color-interpolation-filters="sRGB">
<feFlood flood-opacity="0" result="BackgroundImageFix"/>
<feColorMatrix in="SourceAlpha" type="matrix" values="0 0 0 0 0 0 0 0 0 0 0 0 0 0 0 0 0 0 127 0" result="hardAlpha"/>
<feOffset dy="4"/>
<feGaussianBlur stdDeviation="2"/>
<feComposite in2="hardAlpha" operator="out"/>
<feColorMatrix type="matrix" values="0 0 0 0 0 0 0 0 0 0 0 0 0 0 0 0 0 0 0.25 0"/>
<feBlend mode="normal" in2="BackgroundImageFix" result="effect1_dropShadow_136_6240"/>
<feBlend mode="normal" in="SourceGraphic" in2="effect1_dropShadow_136_6240" result="shape"/>
</filter>
<filter id="filter1_d_136_6240" x="50.7734" y="42.4902" width="113.493" height="137.797" filterUnits="userSpaceOnUse" color-interpolation-filters="sRGB">
<feFlood flood-opacity="0" result="BackgroundImageFix"/>
<feColorMatrix in="SourceAlpha" type="matrix" values="0 0 0 0 0 0 0 0 0 0 0 0 0 0 0 0 0 0 127 0" result="hardAlpha"/>
<feOffset dy="6"/>
<feGaussianBlur stdDeviation="6"/>
<feComposite in2="hardAlpha" operator="out"/>
<feColorMatrix type="matrix" values="0 0 0 0 0.207843 0 0 0 0 0.388235 0 0 0 0 0.580392 0 0 0 0.25 0"/>
<feBlend mode="normal" in2="BackgroundImageFix" result="effect1_dropShadow_136_6240"/>
<feBlend mode="normal" in="SourceGraphic" in2="effect1_dropShadow_136_6240" result="shape"/>
</filter>
</defs>
</svg>
