<svg width="219" height="211" viewBox="0 0 219 211" fill="none" xmlns="http://www.w3.org/2000/svg">
<g filter="url(#filter0_d_226_67)">
<path d="M75.0194 178.137C34.2826 160.653 16.7047 114.032 35.758 74.0059C54.8114 33.9793 103.281 15.7045 144.018 33.1878C184.755 50.6711 202.332 97.292 183.279 137.319C164.226 177.345 115.756 195.62 75.0194 178.137Z" stroke="white" stroke-opacity="0.17" shape-rendering="crispEdges"/>
</g>
<g filter="url(#filter1_d_226_67)">
<path d="M108.735 153.995H58.9129C56.2396 153.995 54.0522 151.808 54.0522 149.135V61.642C54.0522 58.9686 56.2396 56.7812 58.9129 56.7812H160.988C163.661 56.7812 165.848 58.9686 165.848 61.642V149.135C165.848 151.808 163.661 153.995 160.988 153.995H108.735Z" stroke="#356394" stroke-width="2" stroke-miterlimit="10" stroke-linecap="round" stroke-linejoin="round"/>
<path d="M54.0522 76.2246H156.127" stroke="#356394" stroke-width="2" stroke-miterlimit="10" stroke-linecap="round" stroke-linejoin="round"/>
<path d="M90.5075 68.933C91.8497 68.933 92.9379 67.8449 92.9379 66.5026C92.9379 65.1604 91.8497 64.0723 90.5075 64.0723C89.1653 64.0723 88.0771 65.1604 88.0771 66.5026C88.0771 67.8449 89.1653 68.933 90.5075 68.933Z" fill="#356394"/>
<path d="M80.7863 68.933C82.1286 68.933 83.2167 67.8449 83.2167 66.5026C83.2167 65.1604 82.1286 64.0723 80.7863 64.0723C79.4441 64.0723 78.356 65.1604 78.356 66.5026C78.356 67.8449 79.4441 68.933 80.7863 68.933Z" fill="#356394"/>
<path d="M71.0646 68.933C72.4069 68.933 73.495 67.8449 73.495 66.5026C73.495 65.1604 72.4069 64.0723 71.0646 64.0723C69.7224 64.0723 68.6343 65.1604 68.6343 66.5026C68.6343 67.8449 69.7224 68.933 71.0646 68.933Z" fill="#356394"/>
<path d="M68.6343 93.2363H88.0771" stroke="#356394" stroke-width="2" stroke-miterlimit="10" stroke-linecap="round" stroke-linejoin="round"/>
<path d="M68.6343 107.818H85.6467" stroke="#356394" stroke-width="2" stroke-miterlimit="10" stroke-linecap="round" stroke-linejoin="round"/>
<path d="M68.6343 122.4H97.7985" stroke="#356394" stroke-width="2" stroke-miterlimit="10" stroke-linecap="round" stroke-linejoin="round"/>
<path d="M68.6343 136.982H75.9253" stroke="#356394" stroke-width="2" stroke-miterlimit="10" stroke-linecap="round" stroke-linejoin="round"/>
<path d="M95.3682 107.818H102.659" stroke="#356394" stroke-width="2" stroke-miterlimit="10" stroke-linecap="round" stroke-linejoin="round"/>
<path d="M125.019 129.691L117.728 122.4L125.019 115.109" stroke="#356394" stroke-width="2" stroke-miterlimit="10" stroke-linecap="round" stroke-linejoin="round"/>
<path d="M144.461 129.691L151.752 122.4L144.461 115.109" stroke="#356394" stroke-width="2" stroke-miterlimit="10" stroke-linecap="round" stroke-linejoin="round"/>
<path d="M139.115 111.465L131.824 133.338" stroke="#356394" stroke-width="2" stroke-miterlimit="10" stroke-linecap="round" stroke-linejoin="round"/>
<path d="M85.647 136.982H102.659" stroke="#356394" stroke-width="2" stroke-miterlimit="10" stroke-linecap="round" stroke-linejoin="round"/>
</g>
<defs>
<filter id="filter0_d_226_67" x="23.562" y="26.0625" width="171.913" height="167.199" filterUnits="userSpaceOnUse" color-interpolation-filters="sRGB">
<feFlood flood-opacity="0" result="BackgroundImageFix"/>
<feColorMatrix in="SourceAlpha" type="matrix" values="0 0 0 0 0 0 0 0 0 0 0 0 0 0 0 0 0 0 127 0" result="hardAlpha"/>
<feOffset dy="4"/>
<feGaussianBlur stdDeviation="2"/>
<feComposite in2="hardAlpha" operator="out"/>
<feColorMatrix type="matrix" values="0 0 0 0 0 0 0 0 0 0 0 0 0 0 0 0 0 0 0.25 0"/>
<feBlend mode="normal" in2="BackgroundImageFix" result="effect1_dropShadow_226_67"/>
<feBlend mode="normal" in="SourceGraphic" in2="effect1_dropShadow_226_67" result="shape"/>
</filter>
<filter id="filter1_d_226_67" x="49.0522" y="55.7812" width="121.796" height="107.215" filterUnits="userSpaceOnUse" color-interpolation-filters="sRGB">
<feFlood flood-opacity="0" result="BackgroundImageFix"/>
<feColorMatrix in="SourceAlpha" type="matrix" values="0 0 0 0 0 0 0 0 0 0 0 0 0 0 0 0 0 0 127 0" result="hardAlpha"/>
<feOffset dy="4"/>
<feGaussianBlur stdDeviation="2"/>
<feComposite in2="hardAlpha" operator="out"/>
<feColorMatrix type="matrix" values="0 0 0 0 0.207843 0 0 0 0 0.388235 0 0 0 0 0.580392 0 0 0 0.25 0"/>
<feBlend mode="normal" in2="BackgroundImageFix" result="effect1_dropShadow_226_67"/>
<feBlend mode="normal" in="SourceGraphic" in2="effect1_dropShadow_226_67" result="shape"/>
</filter>
</defs>
</svg>
