<svg width="218" height="221" viewBox="0 0 218 221" fill="none" xmlns="http://www.w3.org/2000/svg">
<g filter="url(#filter0_d_226_66)">
<g filter="url(#filter1_d_226_66)">
<path d="M74.4349 177.254C33.6981 159.771 16.1202 113.15 35.1736 73.1231C54.2269 33.0965 102.696 14.8217 143.433 32.305C184.17 49.7883 201.748 96.4092 182.695 136.436C163.641 176.462 115.172 194.737 74.4349 177.254Z" stroke="white" stroke-opacity="0.17" shape-rendering="crispEdges"/>
</g>
<g filter="url(#filter2_d_226_66)">
<path d="M106.936 55.1687C105.721 52.2523 102.561 51.0371 99.1586 51.0371C96.2421 51.0371 92.8396 54.9257 90.4093 57.113C89.1941 58.0851 88.222 58.8142 87.7359 58.3282C78.5006 53.9535 72.1816 62.4598 72.1816 69.2647C72.1816 71.4521 72.6677 73.6394 73.8829 75.3406" stroke="#356394" stroke-width="2" stroke-miterlimit="10" stroke-linecap="round" stroke-linejoin="round"/>
<path d="M63.1895 95.0273C64.6477 97.7007 67.5641 98.9159 70.9666 98.9159" stroke="#356394" stroke-width="2" stroke-miterlimit="10" stroke-linecap="round" stroke-linejoin="round"/>
<path d="M92.5967 154.571C92.5967 151.654 93.5688 149.467 93.5688 149.467" stroke="#356394" stroke-width="2" stroke-miterlimit="10" stroke-linecap="round" stroke-linejoin="round"/>
<path d="M74.855 137.8C77.2853 134.397 80.9308 132.453 86.7637 132.453" stroke="#356394" stroke-width="2" stroke-miterlimit="10" stroke-linecap="round" stroke-linejoin="round"/>
<path d="M84.0905 89.9219C87.2499 90.894 88.7081 95.0256 87.4929 99.1572C86.2778 103.289 82.6322 105.962 79.7158 104.99" stroke="#356394" stroke-width="2" stroke-miterlimit="10" stroke-linecap="round" stroke-linejoin="round"/>
<path d="M64.6475 116.413C66.5917 114.469 69.5081 113.254 75.341 113.254" stroke="#356394" stroke-width="2" stroke-miterlimit="10" stroke-linecap="round" stroke-linejoin="round"/>
<path d="M93.8115 137.801C98.1862 136.828 106.935 138.53 106.935 145.821" stroke="#356394" stroke-width="2" stroke-miterlimit="10" stroke-linecap="round" stroke-linejoin="round"/>
<path d="M149.224 78.9863C151.654 81.1736 153.112 84.5761 153.112 87.9786C153.112 90.652 152.383 93.0824 150.925 95.0267C154.084 97.214 155.543 100.373 155.543 104.505C155.543 109.366 153.355 114.226 149.224 116.414C151.411 118.601 152.869 121.761 152.869 125.406C152.869 128.809 151.411 131.968 149.224 134.398C148.009 135.614 146.307 136.829 144.606 137.315C143.391 137.801 141.933 138.044 140.475 138.044C139.988 138.044 139.502 138.044 139.259 138.044C140.475 139.988 141.204 142.419 141.204 144.849C141.204 151.897 135.614 157.487 128.566 157.487C125.649 157.487 123.462 156.515 121.275 154.813C121.032 159.431 117.629 163.077 113.012 163.077C109.366 163.077 106.693 161.132 106.693 158.216C106.693 161.132 104.262 163.077 100.374 163.077C95.756 163.077 92.3535 159.431 92.1105 154.813C89.9232 156.515 87.7359 157.487 84.8194 157.487C77.7714 157.487 72.1816 151.897 72.1816 144.849C72.1816 142.419 72.9107 139.988 74.1259 138.044C73.6398 138.044 73.3968 138.044 72.9107 138.044C71.4525 138.044 69.9943 137.801 68.7791 137.315C67.0779 136.586 65.3766 135.614 64.1614 134.398C61.9741 132.211 60.5159 129.052 60.5159 125.406C60.5159 122.004 61.9741 118.844 64.1614 116.414C60.759 114.226 58.3286 109.366 58.3286 104.505C58.3286 100.373 60.0299 97.457 63.1893 95.0267C61.7311 93.0824 61.002 90.652 61.002 87.9786C61.002 84.3331 62.4602 81.1736 64.8906 78.9863" stroke="#356394" stroke-width="2" stroke-miterlimit="10" stroke-linecap="round" stroke-linejoin="round"/>
<path d="M150.925 95.0273C149.467 97.7007 146.55 98.9159 143.148 98.9159" stroke="#356394" stroke-width="2" stroke-miterlimit="10" stroke-linecap="round" stroke-linejoin="round"/>
<path d="M139.259 137.8C136.829 134.397 133.183 132.453 127.351 132.453" stroke="#356394" stroke-width="2" stroke-miterlimit="10" stroke-linecap="round" stroke-linejoin="round"/>
<path d="M149.224 116.413C147.28 114.469 144.363 113.254 138.53 113.254" stroke="#356394" stroke-width="2" stroke-miterlimit="10" stroke-linecap="round" stroke-linejoin="round"/>
<path d="M120.059 137.801C115.685 136.828 106.936 138.53 106.936 145.821" stroke="#356394" stroke-width="2" stroke-miterlimit="10" stroke-linecap="round" stroke-linejoin="round"/>
<path d="M114.713 51.0371C117.629 51.0371 121.032 54.9257 123.462 57.113C124.677 58.0851 125.649 58.8142 126.136 58.3282C135.371 53.9535 141.69 62.4598 141.69 69.2647C141.69 71.4521 141.204 73.6394 139.989 75.3406" stroke="#356394" stroke-width="2" stroke-miterlimit="10" stroke-linecap="round" stroke-linejoin="round"/>
<path d="M141.203 73.3965C140.231 75.5838 137.072 80.2015 129.781 81.9027" stroke="#356394" stroke-width="2" stroke-miterlimit="10" stroke-linecap="round" stroke-linejoin="round"/>
<path d="M128.566 89.4375C125.406 90.4096 123.948 94.5412 125.163 98.6728C126.378 102.804 129.781 105.478 132.94 104.506" stroke="#356394" stroke-width="2" stroke-miterlimit="10" stroke-linecap="round" stroke-linejoin="round"/>
<path d="M97.2144 68.0488C98.9156 69.9931 102.075 72.9095 106.936 72.9095C111.796 72.9095 114.956 69.7501 116.657 68.0488" stroke="#356394" stroke-width="2" stroke-miterlimit="10" stroke-linecap="round" stroke-linejoin="round"/>
<path d="M110.338 87.7363L101.589 106.936H113.984L105.72 126.136" stroke="#356394" stroke-width="2" stroke-miterlimit="10" stroke-linecap="round" stroke-linejoin="round"/>
</g>
</g>
<defs>
<filter id="filter0_d_226_66" x="24.9775" y="25.1797" width="187.913" height="195.199" filterUnits="userSpaceOnUse" color-interpolation-filters="sRGB">
<feFlood flood-opacity="0" result="BackgroundImageFix"/>
<feColorMatrix in="SourceAlpha" type="matrix" values="0 0 0 0 0 0 0 0 0 0 0 0 0 0 0 0 0 0 127 0" result="hardAlpha"/>
<feOffset dx="10" dy="24"/>
<feGaussianBlur stdDeviation="6"/>
<feComposite in2="hardAlpha" operator="out"/>
<feColorMatrix type="matrix" values="0 0 0 0 0.207843 0 0 0 0 0.388235 0 0 0 0 0.580392 0 0 0 0.25 0"/>
<feBlend mode="normal" in2="BackgroundImageFix" result="effect1_dropShadow_226_66"/>
<feBlend mode="normal" in="SourceGraphic" in2="effect1_dropShadow_226_66" result="shape"/>
</filter>
<filter id="filter1_d_226_66" x="22.9775" y="25.1797" width="171.913" height="167.199" filterUnits="userSpaceOnUse" color-interpolation-filters="sRGB">
<feFlood flood-opacity="0" result="BackgroundImageFix"/>
<feColorMatrix in="SourceAlpha" type="matrix" values="0 0 0 0 0 0 0 0 0 0 0 0 0 0 0 0 0 0 127 0" result="hardAlpha"/>
<feOffset dy="4"/>
<feGaussianBlur stdDeviation="2"/>
<feComposite in2="hardAlpha" operator="out"/>
<feColorMatrix type="matrix" values="0 0 0 0 0 0 0 0 0 0 0 0 0 0 0 0 0 0 0.25 0"/>
<feBlend mode="normal" in2="BackgroundImageFix" result="effect1_dropShadow_226_66"/>
<feBlend mode="normal" in="SourceGraphic" in2="effect1_dropShadow_226_66" result="shape"/>
</filter>
<filter id="filter2_d_226_66" x="45.3286" y="42.0371" width="123.214" height="138.039" filterUnits="userSpaceOnUse" color-interpolation-filters="sRGB">
<feFlood flood-opacity="0" result="BackgroundImageFix"/>
<feColorMatrix in="SourceAlpha" type="matrix" values="0 0 0 0 0 0 0 0 0 0 0 0 0 0 0 0 0 0 127 0" result="hardAlpha"/>
<feOffset dy="4"/>
<feGaussianBlur stdDeviation="6"/>
<feComposite in2="hardAlpha" operator="out"/>
<feColorMatrix type="matrix" values="0 0 0 0 0.207843 0 0 0 0 0.388235 0 0 0 0 0.580392 0 0 0 0.25 0"/>
<feBlend mode="normal" in2="BackgroundImageFix" result="effect1_dropShadow_226_66"/>
<feBlend mode="normal" in="SourceGraphic" in2="effect1_dropShadow_226_66" result="shape"/>
</filter>
</defs>
</svg>
