<svg width="85" height="102" viewBox="0 0 85 102" fill="none" xmlns="http://www.w3.org/2000/svg">
<path d="M78.051 56.3685C77.9881 36.7508 62.0338 20.8985 42.4161 20.9615C22.7984 21.0244 6.9461 36.9788 7.00906 56.5965C7.07201 76.2142 23.0263 92.0664 42.644 92.0034C62.2617 91.9405 78.114 75.9862 78.051 56.3685Z" fill="#213955"/>
<path d="M71.6048 56.3892C71.5533 40.3317 58.4944 27.3563 42.4369 27.4078C26.3794 27.4593 13.404 40.5183 13.4555 56.5758C13.5071 72.6332 26.566 85.6086 42.6235 85.5571C58.681 85.5056 71.6564 72.4466 71.6048 56.3892Z" fill="#354A63"/>
<path d="M72.1139 26.7092L71.183 27.6461C67.4437 23.9308 63.0872 21.0108 58.2376 18.9767C54.2486 17.3035 50.0387 16.284 45.7317 15.9507L45.835 14.6363C50.2824 14.9774 54.6247 16.0296 58.7461 17.7602C63.7446 19.8599 68.242 22.8703 72.1139 26.7092Z" fill="#213955"/>
<path d="M84.498 56.3477C84.5162 62.0089 83.4264 67.5083 81.2529 72.6972C79.1532 77.7041 76.1428 82.2014 72.3039 86.065C68.465 89.9287 63.9871 92.9679 58.9938 95.0997C54.8837 96.8567 50.5399 97.9368 46.0947 98.3064L45.9831 96.9927C50.2878 96.6318 54.4911 95.5852 58.4775 93.8864C63.3139 91.8213 67.6517 88.8817 71.367 85.1341C75.0906 81.3866 78.0023 77.0383 80.0364 72.1887C82.1443 67.1653 83.2016 61.8395 83.184 56.3519C83.1664 50.8642 82.0749 45.5453 79.9348 40.5355C77.8697 35.6991 74.9301 31.3613 71.1825 27.646L72.1134 26.7091C75.977 30.548 79.0163 35.026 81.148 40.0192C83.3548 45.1941 84.4799 50.6865 84.498 56.3477Z" fill="#213955"/>
<path d="M39.3843 15.9544C34.9721 16.2909 30.6613 17.3461 26.5842 19.0782C21.7477 21.1434 17.41 24.083 13.6946 27.8305L12.7577 26.8996C16.5967 23.036 21.0746 19.9967 26.0679 17.865C30.277 16.0663 34.7282 14.9776 39.2891 14.6324L39.3843 15.9544Z" fill="#213955"/>
<path d="M10.3043 81.3796C10.3051 81.6028 10.2066 81.8262 10.0087 81.9756C9.67894 82.2246 9.21591 82.16 8.96691 81.8302L8.91712 81.7642C8.66812 81.4344 8.73275 80.9714 9.06254 80.7224C9.39232 80.4734 9.85535 80.538 10.1043 80.8678L10.1541 80.9338C10.2537 81.0657 10.3038 81.2226 10.3043 81.3796ZM10.137 31.8007C10.1375 31.9577 10.0884 32.1149 9.98964 32.2474L9.94026 32.3137C9.69339 32.6451 9.23078 32.7127 8.89941 32.4658C8.56803 32.2189 8.50043 31.7563 8.7473 31.425L8.79668 31.3587C9.04356 31.0273 9.50616 30.9597 9.83754 31.2066C10.0364 31.3547 10.1363 31.5775 10.137 31.8007ZM7.09008 76.4394C7.09092 76.7039 6.95125 76.9605 6.70374 77.0936C6.34073 77.2931 5.89402 77.1623 5.69451 76.7993L5.65295 76.725C5.45343 76.362 5.58423 75.9153 5.94724 75.7158C6.31024 75.5163 6.75695 75.6471 6.95647 76.0101L6.99803 76.0843C7.05622 76.1916 7.08968 76.3154 7.09008 76.4394ZM6.96274 36.7614C6.96314 36.8853 6.93046 37.0011 6.87298 37.117L6.83189 37.1915C6.63471 37.5558 6.18885 37.6895 5.82457 37.4923C5.4603 37.2951 5.32663 36.8493 5.52381 36.485L5.56489 36.4105C5.76208 36.0462 6.2162 35.9125 6.57221 36.1097C6.8206 36.2494 6.96192 36.5052 6.96274 36.7614ZM4.61829 71.0836C4.61925 71.3811 4.43836 71.671 4.14118 71.7794C3.7532 71.9211 3.3311 71.7324 3.18109 71.3444L3.14779 71.2701C3.00605 70.8822 3.19478 70.46 3.58273 70.31C3.97072 70.1683 4.39282 70.357 4.54283 70.745L4.57612 70.8193C4.60121 70.9101 4.61803 71.001 4.61829 71.0836ZM4.52539 42.1329C4.52565 42.2156 4.50942 42.3065 4.47665 42.3975L4.4521 42.472C4.31285 42.8609 3.8837 43.0523 3.49481 42.9131C3.10593 42.7738 2.91447 42.3447 3.05372 41.9558L3.08651 41.8731C3.22576 41.4842 3.65491 41.2927 4.04379 41.432C4.33342 41.5468 4.52441 41.8271 4.52539 42.1329ZM2.93071 65.436C2.9318 65.7749 2.69314 66.0897 2.34627 66.1652C1.9416 66.2574 1.54408 66.0025 1.46013 65.5978L1.44334 65.5152C1.35939 65.1105 1.60608 64.7212 2.01075 64.629C2.41545 64.5451 2.80468 64.7918 2.89689 65.1964L2.91369 65.279C2.93037 65.3286 2.93056 65.3864 2.93071 65.436ZM2.87409 47.7912C2.87425 47.8408 2.86617 47.8987 2.85807 47.9483L2.8418 48.031C2.75219 48.4363 2.36456 48.6854 1.95933 48.6041C1.55407 48.5145 1.30489 48.1268 1.38623 47.7216L1.4025 47.6389C1.49211 47.2337 1.87975 46.9845 2.28498 47.0658C2.63233 47.1391 2.87298 47.4441 2.87409 47.7912ZM2.07727 59.6039C2.07852 59.9924 1.78203 60.3156 1.38544 60.35C0.972317 60.3844 0.615936 60.0714 0.589843 59.6666L0.581315 59.5839C0.555195 59.1708 0.85984 58.8144 1.27299 58.7883C1.68613 58.7622 2.04249 59.0668 2.06861 59.48L2.07714 59.5626C2.07717 59.5709 2.07722 59.5874 2.07727 59.6039ZM2.0581 53.6287C2.05815 53.6452 2.0582 53.6617 2.05828 53.6865L2.05029 53.7692C2.02682 54.1825 1.67242 54.4894 1.25912 54.466C0.84581 54.4425 0.538884 54.0881 0.562352 53.6748L0.570349 53.5921C0.602081 53.1788 0.956473 52.8719 1.36154 52.9036C1.75827 52.9106 2.05685 53.2402 2.0581 53.6287Z" fill="#213955"/>
<path d="M39.6522 97.038L39.5573 98.3606C34.9942 98.0447 30.5362 96.9846 26.3072 95.213C21.3004 93.1133 16.8031 90.1029 12.9394 86.264L13.8703 85.3271C17.6096 89.0425 21.9661 91.9624 26.8157 93.9965C30.9122 95.7024 35.2296 96.7299 39.6522 97.038Z" fill="#213955"/>
<path d="M46.7054 97.9244C46.7123 100.065 44.9741 101.814 42.8336 101.821C40.693 101.828 38.9436 100.09 38.9368 97.9493C38.9299 95.8088 40.6681 94.0594 42.8086 94.0525C44.9491 94.0456 46.6985 95.7838 46.7054 97.9244ZM40.2591 97.945C40.2636 99.3583 41.4161 100.503 42.8293 100.499C44.2425 100.494 45.3876 99.3418 45.3831 97.9286C45.3786 96.5154 44.2261 95.3703 42.8129 95.3748C41.3996 95.3793 40.2545 96.5318 40.2591 97.945Z" fill="#213955"/>
<path d="M43.7293 97.9339C43.731 98.4381 43.3273 98.8443 42.8232 98.846C42.319 98.8476 41.9128 98.4439 41.9111 97.9398C41.9095 97.4356 42.3132 97.0294 42.8173 97.0278C43.3215 97.0261 43.7278 97.4381 43.7293 97.9339Z" fill="#213955"/>
<path d="M46.4398 15.3617C46.4467 17.5022 44.7084 19.2517 42.5679 19.2585C40.4274 19.2654 38.678 17.5272 38.6711 15.3867C38.6643 13.2461 40.4025 11.4967 42.543 11.4899C44.6835 11.483 46.4329 13.213 46.4398 15.3617ZM39.9935 15.3824C39.998 16.7957 41.1504 17.9407 42.5637 17.9362C43.9769 17.9317 45.122 16.7792 45.1175 15.366C45.1129 13.9527 43.9605 12.8077 42.5472 12.8122C41.134 12.8167 39.9889 13.9692 39.9935 15.3824Z" fill="#213955"/>
<path d="M43.4647 15.3712C43.4663 15.8753 43.0627 16.2816 42.5585 16.2832C42.0544 16.2848 41.6481 15.8812 41.6465 15.377C41.6449 14.8729 42.0485 14.4666 42.5527 14.465C43.0568 14.4634 43.4631 14.8671 43.4647 15.3712Z" fill="#213955"/>
<path d="M41.689 0.136936L41.7275 12.1536L43.0499 12.1493L43.0113 0.132692L41.689 0.136936Z" fill="#213955"/>
<path d="M53.7779 53.5941L51.5638 53.5018C51.4255 53.0637 51.2409 52.6255 51.0334 52.2103L52.5325 50.5729C52.9937 50.0655 52.9707 49.2814 52.4864 48.797L50.2031 46.5138C49.7188 46.0295 48.9347 46.0065 48.4273 46.4677L46.7898 47.9668C46.3747 47.7592 45.9365 47.5747 45.4983 47.4364L45.406 45.2223C45.383 44.5304 44.8064 44 44.1145 44H40.8857C40.1938 44 39.6403 44.5304 39.5942 45.2223L39.5019 47.4364C39.0637 47.5747 38.6255 47.7592 38.2104 47.9668L36.5729 46.4677C36.0656 46.0065 35.2814 46.0295 34.7971 46.5138L32.5139 48.797C32.0295 49.2814 32.0065 50.0655 32.4677 50.5729L33.9668 52.2103C33.7592 52.6255 33.5747 53.0637 33.4364 53.5018L31.2223 53.5941C30.5304 53.6172 30 54.1937 30 54.8856V58.1144C30 58.8063 30.5304 59.3598 31.2223 59.4059L33.4364 59.4982C33.5747 59.9363 33.7592 60.3745 33.9668 60.7897L32.4677 62.4271C32.0065 62.9345 32.0295 63.7186 32.5139 64.203L34.7971 66.4862C35.2814 66.9705 36.0656 66.9935 36.5729 66.5323L38.2104 65.0332C38.6255 65.2408 39.0637 65.4253 39.5019 65.5636L39.5942 67.7777C39.6172 68.4696 40.1938 69 40.8857 69H42.5001C42.8691 69 43.1689 68.7002 43.1689 68.3312C43.1689 67.9622 42.8691 67.6624 42.5001 67.6624H40.9549L40.8626 65.2638C40.8396 64.8487 40.5628 64.4797 40.1707 64.3644C39.6403 64.2029 39.1329 63.9954 38.6255 63.7186C38.2565 63.5111 37.8183 63.5803 37.4955 63.857L35.7196 65.4945L33.5286 63.3035L35.1661 61.5277C35.4429 61.2279 35.512 60.7666 35.3045 60.3976C35.0508 59.9133 34.8201 59.3828 34.6587 58.8524C34.5434 58.4603 34.1744 58.1836 33.7593 58.1605L31.3607 58.0683V54.9779L33.7593 54.8856C34.1744 54.8625 34.5434 54.5858 34.6587 54.1937C34.8201 53.6633 35.0277 53.1559 35.3045 52.6485C35.512 52.2795 35.4429 51.8413 35.1661 51.5185L33.5286 49.7426L35.7196 47.5517L37.4955 49.1891C37.7953 49.4659 38.2565 49.5351 38.6255 49.3275C39.1099 49.0738 39.6403 48.8432 40.1707 48.6817C40.5628 48.5664 40.8396 48.1974 40.8626 47.7823L40.9549 45.3838H44.0453L44.1376 47.7823C44.1606 48.1974 44.4374 48.5664 44.8294 48.6817C45.3599 48.8432 45.8673 49.0507 46.3747 49.3275C46.7437 49.5351 47.1819 49.4659 47.5048 49.1891L49.2806 47.5517L51.4716 49.7426L49.8341 51.5185C49.5574 51.8183 49.4882 52.2795 49.6957 52.6485C49.9494 53.1328 50.1801 53.6633 50.3415 54.1937C50.4568 54.5858 50.8258 54.8625 51.241 54.8856L53.6395 54.9779V56.5231C53.6395 56.8921 53.9393 57.1919 54.3083 57.1919C54.6773 57.1919 54.9771 56.8921 54.9771 56.5231V54.9087C55.0002 54.1707 54.4698 53.6172 53.7779 53.5941Z" fill="white"/>
<path d="M54.0313 60.1207L53.0627 60.0745C53.0165 59.9592 52.9704 59.8439 52.9243 59.7516L53.5931 59.0367C53.9621 58.6446 53.939 58.0219 53.57 57.6529L52.3477 56.4306C51.9787 56.0616 51.356 56.0385 50.9639 56.4076L50.249 57.0533C50.1336 57.0072 50.0414 56.9611 49.9261 56.9149L49.88 55.9463C49.8569 55.4159 49.4187 55.0007 48.8883 55.0007H47.1586C46.6281 55.0007 46.1899 55.4159 46.1668 55.9694L46.1207 56.938C46.0054 56.9841 45.8901 57.0303 45.7978 57.0764L45.0829 56.4076C44.6908 56.0385 44.0681 56.0616 43.6991 56.4306L42.4768 57.6529C42.1078 58.0219 42.0847 58.6446 42.4537 59.0367L43.0995 59.7516C43.0533 59.867 43.0072 59.9592 42.9611 60.0745L41.9924 60.1207C41.462 60.1437 41.0469 60.5819 41.0469 61.1124V62.8421C41.0469 63.3725 41.462 63.8107 42.0155 63.8338L42.9841 63.8799C43.0303 63.9952 43.0764 64.1105 43.1225 64.2028L42.4537 64.9177C42.0847 65.3098 42.1078 65.9325 42.4768 66.3015L43.6991 67.5238C44.0681 67.8928 44.6908 67.9159 45.0829 67.5469L45.7978 66.9011C45.9131 66.9472 46.0054 66.9934 46.1207 67.0395L46.1668 68.0081C46.1899 68.5386 46.6281 68.9537 47.1586 68.9537H48.8883C49.4187 68.9537 49.8569 68.5386 49.88 68.0081L49.9261 67.0395C50.0414 66.9934 50.1567 66.9472 50.249 66.9011L50.9639 67.5699C51.356 67.9389 51.9787 67.9159 52.3477 67.5469L53.57 66.3245C53.939 65.9555 53.9621 65.3328 53.5931 64.9408L52.9473 64.2258C52.9935 64.1105 53.0396 64.0183 53.0857 63.9029L54.0543 63.8568C54.5848 63.8338 54.9999 63.3956 54.9999 62.8651V61.1354C54.9999 60.5819 54.5848 60.1437 54.0313 60.1207ZM53.6392 62.5192L52.6475 62.5653C52.3016 62.5884 51.9787 62.819 51.8865 63.1649C51.8173 63.4186 51.7019 63.6954 51.5636 63.926C51.4021 64.2489 51.4482 64.6179 51.6789 64.8946L52.3477 65.6096L51.6097 66.3476L50.8717 65.6788C50.618 65.4481 50.2259 65.402 49.903 65.5635C49.6724 65.7018 49.3956 65.7941 49.142 65.8863C48.796 65.9786 48.5654 66.3015 48.5423 66.6474L48.4962 67.6391H47.4584L47.4122 66.6474C47.3892 66.3015 47.1586 65.9786 46.8126 65.8863C46.5589 65.8172 46.2821 65.7018 46.0515 65.5635C45.7286 65.402 45.3596 65.4481 45.0829 65.6788L44.3679 66.3476L43.6299 65.6096L44.2987 64.8946C44.5294 64.641 44.5755 64.2489 44.4141 63.926C44.2757 63.6954 44.1834 63.4186 44.0912 63.1649C43.9989 62.819 43.676 62.5884 43.3301 62.5653L42.3384 62.5192V61.4814L43.3301 61.4352C43.676 61.4122 43.9989 61.1815 44.0912 60.8356C44.1604 60.5819 44.2757 60.3052 44.4141 60.0745C44.5755 59.7517 44.5294 59.3826 44.2987 59.1059L43.6299 58.391L44.3679 57.6529L45.0829 58.3218C45.3366 58.5524 45.7286 58.5985 46.0515 58.4371C46.2821 58.2987 46.5589 58.2065 46.8126 58.1142C47.1586 58.0219 47.3892 57.6991 47.4122 57.3531L47.4584 56.3614H48.4962L48.5423 57.3531C48.5654 57.6991 48.796 58.0219 49.142 58.1142C49.3956 58.1834 49.6724 58.2987 49.903 58.4371C50.2259 58.5985 50.5949 58.5524 50.8717 58.3218L51.5866 57.6529L52.3246 58.391L51.6558 59.129C51.4252 59.3827 51.3791 59.7747 51.5405 60.0976C51.6789 60.3282 51.7711 60.605 51.8634 60.8587C51.9556 61.2046 52.2785 61.4352 52.6245 61.4583L53.6162 61.5044V62.5192H53.6392Z" fill="white"/>
<path d="M45.4983 53.4787C45.7519 53.7324 46.1902 53.7324 46.4669 53.4787C46.7206 53.225 46.7206 52.7868 46.4669 52.51C44.2759 50.3191 40.7242 50.3191 38.5563 52.51C36.3653 54.701 36.3653 58.2527 38.5563 60.4206C38.6947 60.5589 38.8561 60.6281 39.0406 60.6281C39.2251 60.6281 39.3866 60.5589 39.525 60.4206C39.7786 60.1669 39.7786 59.7287 39.525 59.4519C37.8644 57.7914 37.8644 55.1161 39.525 53.4556C41.1624 51.8412 43.8377 51.8412 45.4983 53.4787Z" fill="white"/>
<path d="M48.012 59.9592C46.8819 59.9592 45.9824 60.8817 45.9824 61.9887C45.9824 63.0958 46.905 64.0183 48.012 64.0183C49.1421 64.0183 50.0415 63.0958 50.0415 61.9887C50.0415 60.8817 49.1421 59.9592 48.012 59.9592ZM48.012 62.6806C47.643 62.6806 47.3201 62.3808 47.3201 61.9887C47.3201 61.6197 47.6199 61.2969 48.012 61.2969C48.381 61.2969 48.7039 61.5967 48.7039 61.9887C48.6808 62.3577 48.381 62.6806 48.012 62.6806Z" fill="white"/>
</svg>
