<svg width="218" height="211" viewBox="0 0 218 211" fill="none" xmlns="http://www.w3.org/2000/svg">
<g filter="url(#filter0_d_226_30)">
<path d="M74.4349 178.137C33.6981 160.653 16.1202 114.032 35.1736 74.0059C54.227 33.9793 102.696 15.7045 143.433 33.1878C184.17 50.6711 201.748 97.292 182.695 137.319C163.641 177.345 115.172 195.62 74.4349 178.137Z" stroke="#FBFBFB" stroke-opacity="0.19" shape-rendering="crispEdges"/>
</g>
<g filter="url(#filter1_d_226_30)">
<path d="M150.682 71.3634V54.3509C150.682 51.6776 148.494 49.4902 145.821 49.4902H85.0621H77.7711L63.189 64.0723V156.426C63.189 159.099 65.3763 161.286 68.0497 161.286H145.821C148.494 161.286 150.682 159.099 150.682 156.426V149.135V71.3634Z" stroke="#9A9A9A" stroke-width="2" stroke-miterlimit="10" stroke-linecap="round" stroke-linejoin="round"/>
<path d="M123.948 64.0723H89.9229V78.6544H123.948V64.0723Z" stroke="#9A9A9A" stroke-width="2" stroke-miterlimit="10" stroke-linecap="round" stroke-linejoin="round"/>
<path d="M106.935 85.9453V93.2364H82.6318V100.527" stroke="#9A9A9A" stroke-width="2" stroke-miterlimit="10" stroke-linecap="round" stroke-linejoin="round"/>
<path d="M131.239 100.527V93.2363H106.935V100.527" stroke="#9A9A9A" stroke-width="2" stroke-miterlimit="10" stroke-linecap="round" stroke-linejoin="round"/>
<path d="M111.796 107.818H75.3408V119.97H111.796V107.818Z" stroke="#9A9A9A" stroke-width="2" stroke-miterlimit="10" stroke-linecap="round" stroke-linejoin="round"/>
<path d="M138.53 107.818H123.948V119.97H138.53V107.818Z" stroke="#9A9A9A" stroke-width="2" stroke-miterlimit="10" stroke-linecap="round" stroke-linejoin="round"/>
<path d="M138.53 139.414H123.948V151.566H138.53V139.414Z" stroke="#9A9A9A" stroke-width="2" stroke-miterlimit="10" stroke-linecap="round" stroke-linejoin="round"/>
<path d="M131.239 127.262V132.122" stroke="#9A9A9A" stroke-width="2" stroke-miterlimit="10" stroke-linecap="round" stroke-linejoin="round"/>
<path d="M106.935 127.262V132.122" stroke="#9A9A9A" stroke-width="2" stroke-miterlimit="10" stroke-linecap="round" stroke-linejoin="round"/>
<path d="M82.6318 127.262V132.122" stroke="#9A9A9A" stroke-width="2" stroke-miterlimit="10" stroke-linecap="round" stroke-linejoin="round"/>
<path d="M82.6319 151.566C86.6586 151.566 89.9229 148.846 89.9229 145.49C89.9229 142.134 86.6586 139.414 82.6319 139.414C78.6051 139.414 75.3408 142.134 75.3408 145.49C75.3408 148.846 78.6051 151.566 82.6319 151.566Z" stroke="#9A9A9A" stroke-width="2" stroke-miterlimit="10" stroke-linecap="round" stroke-linejoin="round"/>
<path d="M106.935 151.566C110.962 151.566 114.226 148.846 114.226 145.49C114.226 142.134 110.962 139.414 106.935 139.414C102.908 139.414 99.644 142.134 99.644 145.49C99.644 148.846 102.908 151.566 106.935 151.566Z" stroke="#9A9A9A" stroke-width="2" stroke-miterlimit="10" stroke-linecap="round" stroke-linejoin="round"/>
<path d="M70.48 66.5027H80.2014V56.7812" stroke="#9A9A9A" stroke-width="2" stroke-miterlimit="10" stroke-linecap="round" stroke-linejoin="round"/>
</g>
<defs>
<filter id="filter0_d_226_30" x="22.9775" y="26.0625" width="171.913" height="167.199" filterUnits="userSpaceOnUse" color-interpolation-filters="sRGB">
<feFlood flood-opacity="0" result="BackgroundImageFix"/>
<feColorMatrix in="SourceAlpha" type="matrix" values="0 0 0 0 0 0 0 0 0 0 0 0 0 0 0 0 0 0 127 0" result="hardAlpha"/>
<feOffset dy="4"/>
<feGaussianBlur stdDeviation="2"/>
<feComposite in2="hardAlpha" operator="out"/>
<feColorMatrix type="matrix" values="0 0 0 0 0 0 0 0 0 0 0 0 0 0 0 0 0 0 0.25 0"/>
<feBlend mode="normal" in2="BackgroundImageFix" result="effect1_dropShadow_226_30"/>
<feBlend mode="normal" in="SourceGraphic" in2="effect1_dropShadow_226_30" result="shape"/>
</filter>
<filter id="filter1_d_226_30" x="50.189" y="42.4902" width="113.493" height="137.797" filterUnits="userSpaceOnUse" color-interpolation-filters="sRGB">
<feFlood flood-opacity="0" result="BackgroundImageFix"/>
<feColorMatrix in="SourceAlpha" type="matrix" values="0 0 0 0 0 0 0 0 0 0 0 0 0 0 0 0 0 0 127 0" result="hardAlpha"/>
<feOffset dy="6"/>
<feGaussianBlur stdDeviation="6"/>
<feComposite in2="hardAlpha" operator="out"/>
<feColorMatrix type="matrix" values="0 0 0 0 0.207843 0 0 0 0 0.388235 0 0 0 0 0.580392 0 0 0 0.25 0"/>
<feBlend mode="normal" in2="BackgroundImageFix" result="effect1_dropShadow_226_30"/>
<feBlend mode="normal" in="SourceGraphic" in2="effect1_dropShadow_226_30" result="shape"/>
</filter>
</defs>
</svg>
