<svg width="85" height="88" viewBox="0 0 85 88" fill="none" xmlns="http://www.w3.org/2000/svg">
<path d="M78.0208 41.9896C77.9578 22.3719 62.0035 6.5196 42.3858 6.58256C22.7681 6.64551 6.91583 22.5999 6.97878 42.2176C7.04174 61.8353 22.9961 77.6875 42.6138 77.6245C62.2315 77.5616 78.0837 61.6073 78.0208 41.9896Z" fill="#A4A4A4"/>
<path d="M71.5745 42.0102C71.523 25.9528 58.4641 12.9774 42.4066 13.0289C26.3491 13.0804 13.3737 26.1394 13.4253 42.1969C13.4768 58.2543 26.5357 71.2297 42.5932 71.1782C58.6507 71.1266 71.6261 58.0677 71.5745 42.0102Z" fill="#979797"/>
<path d="M72.2732 71.6863C68.4343 75.5499 63.9563 78.5892 58.9631 80.7209C54.8529 82.478 50.5174 83.5497 46.0723 83.9276L45.9606 82.6139C50.2653 82.253 54.4687 81.2064 58.4468 79.5077C63.2832 77.4425 67.621 74.5029 71.3363 70.7554L72.2732 71.6863Z" fill="#A4A4A4"/>
<path d="M84.4669 41.969C84.4851 47.6302 83.3952 53.1296 81.2218 58.3185C79.1221 63.3253 76.1117 67.8227 72.2728 71.6863L71.3359 70.7554C75.0595 67.0161 77.9712 62.6596 80.0052 57.81C82.1131 52.7866 83.1704 47.4608 83.1528 41.9732C83.1352 36.4855 82.0437 31.1666 79.9037 26.1568C77.8385 21.3204 74.8989 16.9826 71.1514 13.2673L72.0823 12.3304C75.9459 16.1693 78.9851 20.6473 81.1169 25.6405C83.3236 30.8154 84.4487 36.3077 84.4669 41.969Z" fill="#A4A4A4"/>
<path d="M67.6988 8.80708C67.6993 8.96411 67.6502 9.11306 67.5514 9.25388C67.3046 9.58525 66.842 9.65285 66.5106 9.41424L66.4443 9.36485C66.1129 9.11798 66.0453 8.65537 66.284 8.32402C66.5308 7.99264 66.9934 7.92505 67.3248 8.16366L67.3911 8.21304C67.5899 8.3529 67.698 8.57567 67.6988 8.80708ZM62.7382 5.67421C62.7386 5.78991 62.7142 5.91395 62.6484 6.02986C62.4512 6.39414 62.0054 6.52781 61.6411 6.33063L61.5666 6.28954C61.2023 6.09236 61.0687 5.64649 61.2576 5.28224C61.4548 4.91796 61.9006 4.78432 62.2649 4.97324L62.3394 5.01432C62.596 5.154 62.7373 5.40975 62.7382 5.67421ZM57.3916 3.27808C57.3918 3.36073 57.3756 3.4517 57.3428 3.53445C57.2035 3.92333 56.7744 4.11478 56.3855 3.97553L56.311 3.95099C55.9222 3.81174 55.7224 3.38262 55.8617 3.002C56.001 2.61312 56.4301 2.4134 56.8107 2.55268L56.8935 2.58546C57.1996 2.69192 57.3906 2.97229 57.3916 3.27808ZM51.7499 1.66804C51.7501 1.71763 51.742 1.76727 51.7339 1.82515C51.6525 2.23038 51.2567 2.48785 50.8514 2.39823L50.7687 2.38195C50.3635 2.30061 50.106 1.90476 50.1874 1.49953C50.2687 1.0943 50.6646 0.836829 51.0698 0.918175L51.1525 0.934414C51.5082 1.01592 51.7488 1.32093 51.7499 1.66804ZM45.9456 0.87675C45.9457 0.893279 45.9457 0.909816 45.9458 0.926346C45.9223 1.33965 45.5679 1.64657 45.1546 1.6231L45.0719 1.6151C44.6586 1.59163 44.3517 1.23723 44.3752 0.823922C44.3986 0.410615 44.753 0.103695 45.1663 0.127162L45.249 0.13517C45.6375 0.158717 45.9444 0.488317 45.9456 0.87675ZM40.0778 0.912126C40.0791 1.30056 39.7826 1.62383 39.3943 1.65814L39.3117 1.66663C38.8985 1.70102 38.5422 1.38812 38.5161 0.983239C38.4817 0.570118 38.7946 0.213727 39.1995 0.187634L39.2821 0.179096C39.6952 0.144712 40.0516 0.457648 40.0777 0.862531C40.0777 0.870795 40.0778 0.895597 40.0778 0.912126ZM34.2788 1.76543C34.2799 2.10428 34.0412 2.41912 33.6944 2.49462L33.6118 2.51139C33.2071 2.6036 32.8096 2.34868 32.7256 1.94398C32.6335 1.54757 32.8884 1.14181 33.2931 1.05787L33.3757 1.04106C33.7803 0.948849 34.1778 1.20377 34.2618 1.60847C34.2785 1.658 34.2786 1.70758 34.2788 1.76543ZM28.6642 3.43637C28.6652 3.7339 28.4843 4.02377 28.1871 4.13216L28.1128 4.16545C27.7249 4.3072 27.3028 4.11844 27.1528 3.73049C27.011 3.3425 27.1997 2.92043 27.5877 2.77043L27.662 2.7371C28.05 2.59535 28.4721 2.78411 28.6221 3.17206C28.6471 3.26289 28.664 3.35373 28.6642 3.43637ZM23.3332 5.89154C23.334 6.15601 23.1943 6.41269 22.9468 6.54572L22.8726 6.58728C22.5096 6.7868 22.0629 6.65599 21.8634 6.29299C21.6638 5.92998 21.7946 5.48326 22.1576 5.28374L22.2319 5.24218C22.5949 5.04267 23.0416 5.17347 23.2411 5.53648C23.3076 5.65197 23.3328 5.76758 23.3332 5.89154ZM18.4177 9.07269C18.4184 9.29584 18.3199 9.51927 18.1221 9.66867L18.0561 9.71848C17.7263 9.96748 17.2633 9.90286 17.0143 9.57308C16.7653 9.24329 16.8299 8.78026 17.1597 8.53126L17.2257 8.48145C17.5554 8.23245 18.0185 8.29711 18.2675 8.62689C18.3671 8.75881 18.4172 8.91567 18.4177 9.07269Z" fill="#A4A4A4"/>
<path d="M39.613 82.6509L39.5181 83.9736C34.955 83.6576 30.5052 82.5975 26.2763 80.8259C21.2695 78.7262 16.7721 75.7158 12.9085 71.8769C9.04485 68.038 6.00562 63.56 3.87385 58.5668C1.66715 53.4002 0.542037 47.8996 0.52387 42.2384C0.505702 36.5772 1.59551 31.0777 3.76898 25.8888C5.86866 20.882 8.87908 16.3846 12.718 12.521L13.6549 13.4519C9.93954 17.1911 7.01958 21.5477 4.98552 26.3973C2.87763 31.4207 1.82032 36.7465 1.83793 42.2342C1.85554 47.7218 2.94701 53.0408 5.08709 58.0505C7.15224 62.887 10.0918 67.2247 13.8394 70.94C17.5786 74.6554 21.9352 77.5753 26.7848 79.6094C30.8813 81.3235 35.1904 82.3428 39.613 82.6509Z" fill="#A4A4A4"/>
<path d="M46.6742 83.3802C46.681 85.5207 44.9428 87.2701 42.8023 87.277C40.6618 87.2838 38.9124 85.5456 38.9055 83.4051C38.8986 81.2646 40.6369 79.5152 42.7774 79.5083C44.9179 79.5014 46.6673 81.2396 46.6742 83.3802ZM40.2278 83.4009C40.2324 84.8141 41.3848 85.9592 42.7981 85.9546C44.2113 85.9501 45.3564 84.7976 45.3518 83.3844C45.3473 81.9712 44.1949 80.8261 42.7816 80.8306C41.3684 80.8352 40.2233 81.9876 40.2278 83.4009Z" fill="#A4A4A4"/>
<path d="M43.6981 83.3896C43.6997 83.8938 43.296 84.3 42.7919 84.3016C42.2878 84.3033 41.8815 83.8996 41.8799 83.3955C41.8783 82.8913 42.2819 82.4851 42.7861 82.4834C43.2902 82.4818 43.6965 82.8855 43.6981 83.3896Z" fill="#A4A4A4"/>
<path d="M41.0007 32.679C36.4081 32.679 32.6797 36.4074 32.6797 41C32.6797 45.5925 36.4081 49.3209 41.0007 49.3209C45.5933 49.3209 49.3217 45.5925 49.3217 41C49.3217 36.4074 45.5933 32.679 41.0007 32.679ZM41.0007 47.8641C37.2229 47.8641 34.1365 44.7777 34.1365 41C34.1365 37.2222 37.2229 34.1358 41.0007 34.1358C44.7784 34.1358 47.8649 37.2222 47.8649 41C47.8649 44.7777 44.8031 47.8641 41.0007 47.8641Z" fill="white"/>
<path d="M38.7776 37.7408C38.506 37.4692 38.0368 37.4692 37.7405 37.7408C35.9381 39.5433 35.9381 42.4569 37.7405 44.2346C37.8887 44.3828 38.0615 44.4569 38.259 44.4569C38.4566 44.4569 38.6294 44.3828 38.7776 44.2346C39.0492 43.963 39.0492 43.4939 38.7776 43.1976C37.543 41.963 37.543 39.963 38.7776 38.7532C39.0739 38.4815 39.0739 38.0371 38.7776 37.7408Z" fill="white"/>
<path d="M54.284 50.8272L51.0741 47.6173C52.3333 45.716 53.0494 43.4445 53.0494 41.0247C53.0494 34.3827 47.6667 29 41.0247 29C34.3827 29 29 34.3827 29 41.0247C29 47.6667 34.3827 53.0494 41.0247 53.0494C43.4691 53.0494 45.7161 52.3333 47.6173 51.0741L50.8272 54.2839C51.2963 54.7531 51.8889 55 52.5556 55C53.1975 55 53.8148 54.7531 54.284 54.2839C54.7531 53.8148 55 53.2222 55 52.5556C55 51.8889 54.7284 51.2716 54.284 50.8272ZM30.4321 41C30.4321 35.1729 35.1728 30.4321 41 30.4321C46.8272 30.4321 51.5679 35.1729 51.5679 41C51.5679 46.8272 46.8272 51.5679 41 51.5679C35.1728 51.5679 30.4321 46.8272 30.4321 41ZM53.2469 53.2469C53.0494 53.4445 52.8025 53.5432 52.5556 53.5432C52.284 53.5432 52.037 53.4445 51.8642 53.2469L48.8025 50.1852C49.2963 49.7654 49.7654 49.2963 50.2099 48.7778L53.2716 51.8395C53.4691 52.037 53.5679 52.284 53.5679 52.5309C53.5432 52.8025 53.4445 53.0494 53.2469 53.2469Z" fill="white"/>
</svg>
