<svg width="221" height="211" viewBox="0 0 221 211" fill="none" xmlns="http://www.w3.org/2000/svg">
<g filter="url(#filter0_d_226_68)">
<path d="M152.978 122.618V117.197C152.978 114.915 151.348 113.203 149.174 113.203H147.272C146.457 113.203 145.37 112.918 144.826 112.633C140.478 110.35 139.391 104.359 142.652 101.221L144.011 99.7944C145.641 98.3679 145.641 95.8003 144.011 94.0885L136.674 86.3855C135.315 84.9591 132.87 84.9591 131.239 86.3855L129.88 87.812C129.337 88.3826 128.25 89.2385 127.435 89.2385C123.087 90.3797 118.467 86.9562 118.467 82.6767V80.6797C118.467 78.3973 116.837 76.6855 114.663 76.6855H104.337C102.163 76.6855 100.533 78.3973 100.533 80.6797V82.6767C100.533 83.5326 100.261 84.6738 99.9891 85.2444C97.8152 89.8091 92.1087 90.9503 89.1196 87.5268L87.7609 86.1003C86.4022 84.6738 83.9565 84.6738 82.3261 86.1003L74.9891 93.8032C73.6304 95.2297 73.6304 97.7973 74.9891 99.5091L76.3478 100.936C76.8913 101.506 77.7065 102.647 77.7065 103.503C78.7935 108.068 75.5326 112.918 71.4565 112.918H69.5543C67.3804 112.918 65.75 114.63 65.75 116.912V122.333" stroke="#356394" stroke-width="2" stroke-miterlimit="10" stroke-linecap="round" stroke-linejoin="round"/>
<path d="M87.7612 122.618C87.7612 110.066 97.5438 99.7949 109.5 99.7949C121.457 99.7949 131.239 110.066 131.239 122.618" stroke="#356394" stroke-width="2" stroke-miterlimit="10" stroke-linecap="round" stroke-linejoin="round"/>
<path d="M55.1523 134.03V62.7059C55.1523 59.5677 57.598 57 60.5871 57H158.413C161.402 57 163.848 59.5677 163.848 62.7059V134.03" stroke="#356394" stroke-width="2" stroke-miterlimit="10" stroke-linecap="round" stroke-linejoin="round"/>
<path d="M123.087 139.736H95.9131" stroke="#356394" stroke-width="2" stroke-miterlimit="10" stroke-linecap="round" stroke-linejoin="round"/>
<path d="M87.7609 134.029H47C47 142.018 52.9783 154 60.587 154H158.413C166.022 154 172 142.018 172 134.029H131.239" stroke="#356394" stroke-width="2" stroke-miterlimit="10" stroke-linecap="round" stroke-linejoin="round"/>
</g>
<g filter="url(#filter1_d_226_68)">
<path d="M77.0194 177.254C36.2826 159.771 18.7047 113.15 37.758 73.1231C56.8114 33.0965 105.281 14.8217 146.018 32.305C186.755 49.7883 204.332 96.4092 185.279 136.436C166.226 176.462 117.756 194.737 77.0194 177.254Z" stroke="white" stroke-opacity="0.17" shape-rendering="crispEdges"/>
</g>
<g filter="url(#filter2_d_226_68)">
<path d="M74.4349 178.254C33.6981 160.771 16.1202 114.15 35.1736 74.1231C54.2269 34.0965 102.696 15.8217 143.433 33.305C184.17 50.7883 201.748 97.4092 182.695 137.436C163.641 177.462 115.172 195.737 74.4349 178.254Z" stroke="url(#paint0_linear_226_68)" stroke-opacity="0.26" shape-rendering="crispEdges"/>
</g>
<defs>
<filter id="filter0_d_226_68" x="41" y="55" width="137" height="109" filterUnits="userSpaceOnUse" color-interpolation-filters="sRGB">
<feFlood flood-opacity="0" result="BackgroundImageFix"/>
<feColorMatrix in="SourceAlpha" type="matrix" values="0 0 0 0 0 0 0 0 0 0 0 0 0 0 0 0 0 0 127 0" result="hardAlpha"/>
<feOffset dy="4"/>
<feGaussianBlur stdDeviation="2.5"/>
<feComposite in2="hardAlpha" operator="out"/>
<feColorMatrix type="matrix" values="0 0 0 0 0.207843 0 0 0 0 0.388235 0 0 0 0 0.580392 0 0 0 0.25 0"/>
<feBlend mode="normal" in2="BackgroundImageFix" result="effect1_dropShadow_226_68"/>
<feBlend mode="normal" in="SourceGraphic" in2="effect1_dropShadow_226_68" result="shape"/>
</filter>
<filter id="filter1_d_226_68" x="25.562" y="25.1797" width="171.913" height="167.199" filterUnits="userSpaceOnUse" color-interpolation-filters="sRGB">
<feFlood flood-opacity="0" result="BackgroundImageFix"/>
<feColorMatrix in="SourceAlpha" type="matrix" values="0 0 0 0 0 0 0 0 0 0 0 0 0 0 0 0 0 0 127 0" result="hardAlpha"/>
<feOffset dy="4"/>
<feGaussianBlur stdDeviation="2"/>
<feComposite in2="hardAlpha" operator="out"/>
<feColorMatrix type="matrix" values="0 0 0 0 0 0 0 0 0 0 0 0 0 0 0 0 0 0 0.25 0"/>
<feBlend mode="normal" in2="BackgroundImageFix" result="effect1_dropShadow_226_68"/>
<feBlend mode="normal" in="SourceGraphic" in2="effect1_dropShadow_226_68" result="shape"/>
</filter>
<filter id="filter2_d_226_68" x="22.9775" y="26.1797" width="171.913" height="167.199" filterUnits="userSpaceOnUse" color-interpolation-filters="sRGB">
<feFlood flood-opacity="0" result="BackgroundImageFix"/>
<feColorMatrix in="SourceAlpha" type="matrix" values="0 0 0 0 0 0 0 0 0 0 0 0 0 0 0 0 0 0 127 0" result="hardAlpha"/>
<feOffset dy="4"/>
<feGaussianBlur stdDeviation="2"/>
<feComposite in2="hardAlpha" operator="out"/>
<feColorMatrix type="matrix" values="0 0 0 0 0.898039 0 0 0 0 0.898039 0 0 0 0 0.898039 0 0 0 1 0"/>
<feBlend mode="normal" in2="BackgroundImageFix" result="effect1_dropShadow_226_68"/>
<feBlend mode="normal" in="SourceGraphic" in2="effect1_dropShadow_226_68" result="shape"/>
</filter>
<linearGradient id="paint0_linear_226_68" x1="104.5" y1="359" x2="121.46" y2="38.6596" gradientUnits="userSpaceOnUse">
<stop stop-color="white" stop-opacity="0.06"/>
<stop offset="0.847946" stop-color="white" stop-opacity="0"/>
</linearGradient>
</defs>
</svg>
