<svg width="85" height="103" viewBox="0 0 85 103" fill="none" xmlns="http://www.w3.org/2000/svg">
<path d="M77.6682 56.7187C77.6053 37.101 61.6509 21.2487 42.0332 21.3117C22.4155 21.3746 6.56329 37.329 6.62624 56.9467C6.6892 76.5644 22.6435 92.4166 42.2612 92.3537C61.8789 92.2907 77.7312 76.3364 77.6682 56.7187Z" fill="#A4A4A4"/>
<path d="M71.222 56.7394C71.1705 40.6819 58.1115 27.7065 42.0541 27.758C25.9966 27.8096 13.0212 40.8685 13.0727 56.926C13.1242 72.9834 26.1832 85.9588 42.2407 85.9073C58.2981 85.8558 71.2735 72.7968 71.222 56.7394Z" fill="#979797"/>
<path d="M84.1147 56.6979C84.1329 62.3591 83.0431 67.8586 80.8696 73.0475C78.7699 78.0543 75.7595 82.5517 71.9206 86.4153L70.9837 85.4844C74.7073 81.7451 77.619 77.3886 79.6531 72.539C81.761 67.5156 82.8183 62.1898 82.8007 56.7022C82.783 51.2145 81.6916 45.8956 79.5515 40.8858C77.4863 36.0494 74.5467 31.7116 70.7992 27.9963C67.0599 24.281 62.7034 21.361 57.8538 19.3269C53.8649 17.6537 49.6549 16.6342 45.348 16.3009L45.4512 14.9865C49.8986 15.3276 54.241 16.3798 58.3623 18.1104C63.3691 20.2101 67.8665 23.2205 71.7301 27.0594C75.5937 30.8983 78.633 35.3763 80.7647 40.3695C82.9714 45.5361 84.0965 51.0285 84.1147 56.6979Z" fill="#A4A4A4"/>
<path d="M67.8568 89.7425C67.8575 89.9657 67.7591 90.1891 67.5612 90.3385L67.4952 90.3883C67.1654 90.6373 66.7024 90.5727 66.4534 90.2429C66.2044 89.9131 66.269 89.4501 66.5988 89.2011L66.6648 89.1513C66.9946 88.9023 67.4576 88.9669 67.7066 89.2884C67.8062 89.4286 67.8563 89.5855 67.8568 89.7425ZM62.9909 92.9235C62.9917 93.1879 62.852 93.4363 62.6045 93.5776L62.5303 93.6192C62.1673 93.8187 61.7206 93.6879 61.5211 93.3332C61.3216 92.9702 61.4524 92.5235 61.8071 92.324L61.8814 92.2824C62.2444 92.0829 62.6911 92.2137 62.8906 92.5684C62.9653 92.6756 62.9905 92.7995 62.9909 92.9235ZM57.7342 95.3867C57.7352 95.6842 57.5542 95.9658 57.2571 96.0824L57.1828 96.1157C56.8031 96.2657 56.3727 96.0687 56.2228 95.6891C56.0728 95.3094 56.2697 94.879 56.6494 94.729L56.7237 94.704C57.1034 94.554 57.5338 94.7509 57.6838 95.1306C57.7171 95.2132 57.7339 95.2958 57.7342 95.3867ZM52.1859 97.0905C52.1869 97.4293 51.9565 97.7358 51.6097 97.8196L51.5271 97.8364C51.1224 97.9286 50.7249 97.6737 50.6327 97.2773C50.5405 96.8809 50.7954 96.4751 51.1918 96.3829L51.2662 96.3661C51.6626 96.2739 52.0683 96.5206 52.1605 96.9253C52.1772 96.9748 52.1857 97.0326 52.1859 97.0905Z" fill="#A4A4A4"/>
<path d="M39.0008 16.2966C34.5803 16.6331 30.2779 17.6882 26.2007 19.4204C21.3642 21.4855 17.0265 24.4251 13.3112 28.1726C9.59582 31.9119 6.67587 36.2685 4.6418 41.1181C2.53391 46.1415 1.4766 51.4673 1.49421 56.9549C1.51182 62.4426 2.6033 67.7615 4.74338 72.7712C6.80853 77.6077 9.74812 81.9454 13.4957 85.6608L12.5648 86.5976C8.70113 82.7587 5.6619 78.2808 3.53014 73.2875C1.32343 68.121 0.198318 62.6203 0.18015 56.9591C0.161983 51.2979 1.25177 45.7902 3.42527 40.6096C5.52495 35.6027 8.53536 31.1054 12.3743 27.2417C16.2132 23.3781 20.6911 20.3389 25.6844 18.2071C29.8936 16.4085 34.3447 15.3198 38.9057 14.9745L39.0008 16.2966Z" fill="#A4A4A4"/>
<path d="M34.1864 97.2227C34.1866 97.2723 34.1785 97.3301 34.1704 97.3798C34.0808 97.785 33.6849 98.0342 33.2879 97.9528L33.2052 97.9366C32.8 97.847 32.5508 97.4511 32.6321 97.0541C32.7218 96.6488 33.1177 96.3996 33.5146 96.481L33.5973 96.4973C33.9447 96.5705 34.1853 96.8756 34.1864 97.2227ZM28.5447 95.5796C28.545 95.6622 28.5287 95.7532 28.496 95.8442C28.3567 96.2331 27.9276 96.4246 27.5387 96.2853L27.4559 96.2525C27.067 96.105 26.8756 95.6841 27.0231 95.2952C27.1706 94.9063 27.5915 94.7149 27.9804 94.8624L28.0549 94.8869C28.361 94.9934 28.5437 95.2738 28.5447 95.5796ZM23.198 93.1504C23.1983 93.2744 23.1657 93.3902 23.1082 93.5061C22.911 93.8704 22.4569 94.004 22.1009 93.8068L22.0263 93.7658C21.6621 93.5686 21.5366 93.1144 21.7339 92.7584C21.931 92.3941 22.3852 92.2687 22.7412 92.4659L22.8157 92.507C23.0558 92.6385 23.1971 92.8942 23.198 93.1504ZM18.2538 89.9927C18.2543 90.1497 18.2053 90.3069 18.1065 90.4394C17.8596 90.7708 17.397 90.8384 17.0657 90.5915L16.9994 90.5422C16.668 90.2953 16.6004 89.8327 16.8473 89.5013C17.0941 89.1699 17.5567 89.1023 17.8881 89.3492L17.9544 89.3986C18.145 89.5467 18.2531 89.7695 18.2538 89.9927Z" fill="#A4A4A4"/>
<path d="M46.3216 98.0762C46.3285 100.217 44.5903 101.966 42.4498 101.973C40.3092 101.98 38.5598 100.242 38.553 98.1011C38.5461 95.9606 40.2843 94.2112 42.4248 94.2043C44.5653 94.1975 46.3148 95.9357 46.3216 98.0762ZM39.8753 98.0969C39.8798 99.5101 41.0323 100.655 42.4455 100.651C43.8588 100.646 45.0038 99.4937 44.9993 98.0805C44.9948 96.6672 43.8423 95.5221 42.4291 95.5267C41.0158 95.5312 39.8708 96.6837 39.8753 98.0969Z" fill="#A4A4A4"/>
<path d="M42.4524 97.1754C41.9504 97.1638 41.5341 97.5613 41.5225 98.0633C41.5109 98.5653 41.9085 98.9816 42.4104 98.9932C42.9124 99.0048 43.3287 98.6072 43.3403 98.1053C43.3519 97.6033 42.9544 97.187 42.4524 97.1754Z" fill="#A4A4A4"/>
<path d="M46.056 15.5052C46.0629 17.6457 44.3247 19.3951 42.1841 19.402C40.0436 19.4088 38.2942 17.6706 38.2873 15.5301C38.2805 13.3896 40.0187 11.6402 42.1592 11.6333C44.2997 11.6264 46.0491 13.3646 46.056 15.5052ZM39.6097 15.5259C39.6142 16.9391 40.7667 18.0842 42.1799 18.0796C43.5931 18.0751 44.7382 16.9226 44.7337 15.5094C44.7291 14.0962 43.5767 12.9511 42.1635 12.9556C40.7502 12.9602 39.6051 14.1126 39.6097 15.5259Z" fill="#A4A4A4"/>
<path d="M43.0809 15.5149C43.0825 16.019 42.6789 16.4253 42.1747 16.4269C41.6706 16.4285 41.2643 16.0248 41.2627 15.5207C41.2611 15.0166 41.6648 14.6103 42.1689 14.6087C42.673 14.6071 43.0793 15.0107 43.0809 15.5149Z" fill="#A4A4A4"/>
<path d="M41.3064 0.644243L41.3438 12.2972L42.6661 12.293L42.6287 0.639999L41.3064 0.644243Z" fill="#A4A4A4"/>
<path d="M54.3441 62.1162C53.9864 62.186 53.7404 62.5348 53.8075 62.9069C53.8522 63.1162 53.8522 63.3488 53.8522 63.5581C53.8522 65.8139 52.0858 67.6279 49.9392 67.6279C48.8883 67.6279 47.9044 67.2093 47.1665 66.4418C46.4287 65.6744 46.0262 64.6511 46.0262 63.5581C46.0262 62.4651 46.4287 61.4418 47.1665 60.6744C47.9044 59.9069 48.8883 59.4883 49.9392 59.4883C50.1628 59.4883 50.364 59.5116 50.5653 59.5348C50.923 59.6046 51.2584 59.3488 51.3255 58.9767C51.3926 58.6046 51.1466 58.2558 50.7889 58.186C50.5205 58.1395 50.2299 58.1162 49.9392 58.1162C48.5529 58.1162 47.2336 58.6744 46.2274 59.7209C45.2436 60.7441 44.6846 62.1162 44.6846 63.5581C44.6846 65.0232 45.2212 66.372 46.2274 67.3953C47.2112 68.4186 48.5305 69 49.9168 69C52.8013 69 55.1491 66.5581 55.1491 63.5581C55.1491 63.2558 55.1267 62.9535 55.082 62.6744C55.0597 62.3023 54.7019 62.0465 54.3441 62.1162Z" fill="white"/>
<path d="M49.939 61.8838C50.2967 61.8838 50.5874 61.5814 50.5874 61.2093C50.5874 60.8372 50.2967 60.5349 49.939 60.5349C49.1564 60.5349 48.4185 60.8605 47.8595 61.4186C47.3005 62 47.0098 62.7675 47.0098 63.5814C47.0098 64.3954 47.3228 65.1628 47.8595 65.7442C48.4185 66.3256 49.1564 66.628 49.939 66.628C51.5489 66.628 52.8681 65.2558 52.8681 63.5814C52.8681 63.2093 52.5774 62.907 52.2197 62.907C51.8619 62.907 51.5712 63.2093 51.5712 63.5814C51.5712 64.5117 50.8334 65.2559 49.9613 65.2559C49.5365 65.2559 49.1116 65.0698 48.821 64.7675C48.5079 64.4419 48.3514 64.0233 48.3514 63.5814C48.3514 63.1396 48.5303 62.6977 48.821 62.3954C49.1116 62.0465 49.5141 61.8838 49.939 61.8838Z" fill="white"/>
<path d="M43.7676 65.2559H35.2708C33.6385 65.2559 32.2969 63.8605 32.2969 62.1628V49.7442C32.2969 48.2558 33.3254 47 34.6894 46.7209V47.3489C34.6894 47.7209 34.9801 48.0233 35.3379 48.0233C35.6956 48.0233 35.9863 47.7209 35.9863 47.3489V46.6512H41.2633V47.3489C41.2633 47.7209 41.554 48.0233 41.9117 48.0233C42.2695 48.0233 42.5602 47.7209 42.5602 47.3489V46.6512H47.8372V47.3489C47.8372 47.7209 48.1278 48.0233 48.4856 48.0233C48.8434 48.0233 49.134 47.7209 49.134 47.3489V46.7209C50.498 47 51.5266 48.2558 51.5266 49.7442V56.1861C51.5266 56.5582 51.8173 56.8605 52.175 56.8605C52.5328 56.8605 52.8234 56.5582 52.8234 56.1861V49.7442C52.8234 47.4884 51.2135 45.6279 49.1117 45.3256V44.6744C49.1117 44.3023 48.821 44 48.4632 44C48.1055 44 47.8148 44.3023 47.8148 44.6744V45.2791H42.5378V44.6744C42.5378 44.3023 42.2471 44 41.8894 44C41.5316 44 41.2409 44.3023 41.2409 44.6744V45.2791H36.0087V44.6744C36.0087 44.3023 35.718 44 35.3602 44C35.0025 44 34.7118 44.3023 34.7118 44.6744V45.3256C32.6323 45.6279 31 47.4884 31 49.7442V62.1628C31 64.6279 32.923 66.628 35.2932 66.628H43.79C44.1477 66.628 44.4384 66.3256 44.4384 65.9535C44.416 65.5582 44.1254 65.2559 43.7676 65.2559Z" fill="white"/>
<path d="M36.3446 50.4419C35.7185 50.4419 35.2266 50.9535 35.2266 51.6047C35.2266 52.2559 35.7185 52.7675 36.3446 52.7675C36.9706 52.7675 37.4626 52.2559 37.4626 51.6047C37.4626 50.9535 36.9483 50.4419 36.3446 50.4419ZM36.3446 51.814C36.2328 51.814 36.1433 51.721 36.1433 51.6047C36.1433 51.4884 36.2328 51.3954 36.3446 51.3954C36.4564 51.3954 36.5458 51.4884 36.5458 51.6047C36.5235 51.721 36.4564 51.814 36.3446 51.814Z" fill="white"/>
<path d="M40.078 50.4419C39.4519 50.4419 38.96 50.9535 38.96 51.6047C38.96 52.2559 39.4519 52.7675 40.078 52.7675C40.704 52.7675 41.196 52.2559 41.196 51.6047C41.196 50.9535 40.6817 50.4419 40.078 50.4419ZM40.078 51.814C39.9662 51.814 39.8767 51.721 39.8767 51.6047C39.8767 51.4884 39.9662 51.3954 40.078 51.3954C40.1898 51.3954 40.2792 51.4884 40.2792 51.6047C40.2569 51.721 40.1898 51.814 40.078 51.814Z" fill="white"/>
<path d="M43.8123 50.4419C43.1863 50.4419 42.6943 50.9535 42.6943 51.6047C42.6943 52.2559 43.1863 52.7675 43.8123 52.7675C44.4384 52.7675 44.9303 52.2559 44.9303 51.6047C44.9303 50.9535 44.4161 50.4419 43.8123 50.4419ZM43.8123 51.814C43.7005 51.814 43.6111 51.721 43.6111 51.6047C43.6111 51.4884 43.7005 51.3954 43.8123 51.3954C43.9241 51.3954 44.0136 51.4884 44.0136 51.6047C43.9912 51.721 43.9241 51.814 43.8123 51.814Z" fill="white"/>
<path d="M47.5467 50.4419C46.9206 50.4419 46.4287 50.9535 46.4287 51.6047C46.4287 52.2559 46.9206 52.7675 47.5467 52.7675C48.1728 52.7675 48.6647 52.2559 48.6647 51.6047C48.6647 50.9535 48.1504 50.4419 47.5467 50.4419ZM47.5467 51.814C47.4349 51.814 47.3455 51.721 47.3455 51.6047C47.3455 51.4884 47.4349 51.3954 47.5467 51.3954C47.6585 51.3954 47.748 51.4884 47.748 51.6047C47.7256 51.721 47.6585 51.814 47.5467 51.814Z" fill="white"/>
<path d="M36.3446 54.7906C35.7185 54.7906 35.2266 55.3023 35.2266 55.9534C35.2266 56.6046 35.7185 57.1162 36.3446 57.1162C36.9706 57.1162 37.4626 56.6046 37.4626 55.9534C37.4626 55.3023 36.9483 54.7906 36.3446 54.7906ZM36.3446 56.1628C36.2328 56.1628 36.1433 56.0697 36.1433 55.9534C36.1433 55.8372 36.2328 55.7441 36.3446 55.7441C36.4564 55.7441 36.5458 55.8372 36.5458 55.9534C36.5458 56.0697 36.4564 56.1628 36.3446 56.1628Z" fill="white"/>
<path d="M40.078 54.7906C39.4519 54.7906 38.96 55.3023 38.96 55.9534C38.96 56.6046 39.4519 57.1162 40.078 57.1162C40.704 57.1162 41.196 56.6046 41.196 55.9534C41.196 55.3023 40.6817 54.7906 40.078 54.7906ZM40.078 56.1628C39.9662 56.1628 39.8767 56.0697 39.8767 55.9534C39.8767 55.8372 39.9662 55.7441 40.078 55.7441C40.1898 55.7441 40.2792 55.8372 40.2792 55.9534C40.2792 56.0697 40.1898 56.1628 40.078 56.1628Z" fill="white"/>
<path d="M43.8123 54.7906C43.1863 54.7906 42.6943 55.3023 42.6943 55.9534C42.6943 56.6046 43.1863 57.1162 43.8123 57.1162C44.4384 57.1162 44.9303 56.6046 44.9303 55.9534C44.9303 55.3023 44.4161 54.7906 43.8123 54.7906ZM43.8123 56.1628C43.7005 56.1628 43.6111 56.0697 43.6111 55.9534C43.6111 55.8372 43.7005 55.7441 43.8123 55.7441C43.9241 55.7441 44.0136 55.8372 44.0136 55.9534C44.0136 56.0697 43.9241 56.1628 43.8123 56.1628Z" fill="white"/>
<path d="M47.5467 54.7906C46.9206 54.7906 46.4287 55.3023 46.4287 55.9534C46.4287 56.6046 46.9206 57.1162 47.5467 57.1162C48.1728 57.1162 48.6647 56.6046 48.6647 55.9534C48.6647 55.3023 48.1504 54.7906 47.5467 54.7906ZM47.5467 56.1628C47.4349 56.1628 47.3455 56.0697 47.3455 55.9534C47.3455 55.8372 47.4349 55.7441 47.5467 55.7441C47.6585 55.7441 47.748 55.8372 47.748 55.9534C47.748 56.0697 47.6585 56.1628 47.5467 56.1628Z" fill="white"/>
<path d="M36.3446 59.1395C35.7185 59.1395 35.2266 59.6512 35.2266 60.3023C35.2266 60.9535 35.7185 61.4651 36.3446 61.4651C36.9706 61.4651 37.4626 60.9535 37.4626 60.3023C37.4626 59.6744 36.9483 59.1395 36.3446 59.1395ZM36.3446 60.5116C36.2328 60.5116 36.1433 60.4186 36.1433 60.3023C36.1433 60.186 36.2328 60.093 36.3446 60.093C36.4564 60.093 36.5458 60.186 36.5458 60.3023C36.5235 60.4186 36.4564 60.5116 36.3446 60.5116Z" fill="white"/>
<path d="M40.078 59.1395C39.4519 59.1395 38.96 59.6512 38.96 60.3023C38.96 60.9535 39.4519 61.4651 40.078 61.4651C40.704 61.4651 41.196 60.9535 41.196 60.3023C41.196 59.6744 40.6817 59.1395 40.078 59.1395ZM40.078 60.5116C39.9662 60.5116 39.8767 60.4186 39.8767 60.3023C39.8767 60.186 39.9662 60.093 40.078 60.093C40.1898 60.093 40.2792 60.186 40.2792 60.3023C40.2569 60.4186 40.1898 60.5116 40.078 60.5116Z" fill="white"/>
<path d="M43.8123 59.1395C43.1863 59.1395 42.6943 59.6512 42.6943 60.3023C42.6943 60.9535 43.1863 61.4651 43.8123 61.4651C44.4384 61.4651 44.9303 60.9535 44.9303 60.3023C44.9303 59.6744 44.4161 59.1395 43.8123 59.1395ZM43.8123 60.5116C43.7005 60.5116 43.6111 60.4186 43.6111 60.3023C43.6111 60.186 43.7005 60.093 43.8123 60.093C43.9241 60.093 44.0136 60.186 44.0136 60.3023C43.9912 60.4186 43.9241 60.5116 43.8123 60.5116Z" fill="white"/>
<path d="M55.9309 59.6744C55.7967 59.3489 55.4837 59.1395 55.1483 59.1395H54.2092V58.1628C54.2092 57.814 54.0079 57.4884 53.6949 57.3489C53.3819 57.2093 53.0017 57.2791 52.7781 57.5349L51.8614 58.4884C51.6378 58.721 51.5036 59.0465 51.5036 59.3954V61L49.5136 63.0698C49.2676 63.3256 49.2676 63.7675 49.5136 64.0465C49.6477 64.1861 49.8042 64.2558 49.9831 64.2558C50.162 64.2558 50.3185 64.1861 50.4527 64.0465L52.4427 61.9768H53.9856C54.321 61.9768 54.634 61.8372 54.8576 61.6047L55.7744 60.6512C55.998 60.3721 56.0651 60 55.9309 59.6744ZM53.9185 60.6047H52.8005V59.4419L52.9123 59.3256C52.957 59.9535 53.4266 60.4651 54.0303 60.4884L53.9185 60.6047Z" fill="white"/>
</svg>
