<svg width="219" height="221" viewBox="0 0 219 221" fill="none" xmlns="http://www.w3.org/2000/svg">
<g filter="url(#filter0_d_226_10)">
<g filter="url(#filter1_d_226_10)">
<path d="M74.8505 177.254C34.1137 159.771 16.5357 113.15 35.5891 73.1231C54.6425 33.0965 103.112 14.8217 143.849 32.305C184.586 49.7883 202.164 96.4092 183.11 136.436C164.057 176.462 115.587 194.737 74.8505 177.254Z" stroke="#FBFBFB" stroke-opacity="0.19" shape-rendering="crispEdges"/>
</g>
<g filter="url(#filter2_d_226_10)">
<path d="M107.351 55.1687C106.136 52.2523 102.977 51.0371 99.5741 51.0371C96.6577 51.0371 93.2552 54.9257 90.8248 57.113C89.6096 58.0851 88.6375 58.8142 88.1514 58.3282C78.9161 53.9535 72.5972 62.4598 72.5972 69.2647C72.5972 71.4521 73.0832 73.6394 74.2984 75.3406" stroke="#9A9A9A" stroke-width="2" stroke-miterlimit="10" stroke-linecap="round" stroke-linejoin="round"/>
<path d="M63.605 95.0273C65.0632 97.7007 67.9796 98.9159 71.3821 98.9159" stroke="#9A9A9A" stroke-width="2" stroke-miterlimit="10" stroke-linecap="round" stroke-linejoin="round"/>
<path d="M93.0122 154.571C93.0122 151.654 93.9843 149.467 93.9843 149.467" stroke="#9A9A9A" stroke-width="2" stroke-miterlimit="10" stroke-linecap="round" stroke-linejoin="round"/>
<path d="M75.2705 137.8C77.7009 134.397 81.3464 132.453 87.1792 132.453" stroke="#9A9A9A" stroke-width="2" stroke-miterlimit="10" stroke-linecap="round" stroke-linejoin="round"/>
<path d="M84.506 89.9219C87.6654 90.894 89.1236 95.0256 87.9085 99.1572C86.6933 103.289 83.0478 105.962 80.1313 104.99" stroke="#9A9A9A" stroke-width="2" stroke-miterlimit="10" stroke-linecap="round" stroke-linejoin="round"/>
<path d="M65.063 116.413C67.0073 114.469 69.9237 113.254 75.7565 113.254" stroke="#9A9A9A" stroke-width="2" stroke-miterlimit="10" stroke-linecap="round" stroke-linejoin="round"/>
<path d="M94.2271 137.801C98.6017 136.828 107.351 138.53 107.351 145.821" stroke="#9A9A9A" stroke-width="2" stroke-miterlimit="10" stroke-linecap="round" stroke-linejoin="round"/>
<path d="M149.639 78.9863C152.07 81.1736 153.528 84.5761 153.528 87.9786C153.528 90.652 152.799 93.0824 151.341 95.0267C154.5 97.214 155.958 100.373 155.958 104.505C155.958 109.366 153.771 114.226 149.639 116.414C151.827 118.601 153.285 121.761 153.285 125.406C153.285 128.809 151.827 131.968 149.639 134.398C148.424 135.614 146.723 136.829 145.022 137.315C143.806 137.801 142.348 138.044 140.89 138.044C140.404 138.044 139.918 138.044 139.675 138.044C140.89 139.988 141.619 142.419 141.619 144.849C141.619 151.897 136.029 157.487 128.981 157.487C126.065 157.487 123.878 156.515 121.69 154.813C121.447 159.431 118.045 163.077 113.427 163.077C109.782 163.077 107.108 161.132 107.108 158.216C107.108 161.132 104.678 163.077 100.789 163.077C96.1716 163.077 92.7691 159.431 92.526 154.813C90.3387 156.515 88.1514 157.487 85.235 157.487C78.1869 157.487 72.5971 151.897 72.5971 144.849C72.5971 142.419 73.3263 139.988 74.5414 138.044C74.0554 138.044 73.8123 138.044 73.3263 138.044C71.868 138.044 70.4098 137.801 69.1947 137.315C67.4934 136.586 65.7921 135.614 64.577 134.398C62.3897 132.211 60.9314 129.052 60.9314 125.406C60.9314 122.004 62.3897 118.844 64.577 116.414C61.1745 114.226 58.7441 109.366 58.7441 104.505C58.7441 100.373 60.4454 97.457 63.6048 95.0267C62.1466 93.0824 61.4175 90.652 61.4175 87.9786C61.4175 84.3331 62.8757 81.1736 65.3061 78.9863" stroke="#9A9A9A" stroke-width="2" stroke-miterlimit="10" stroke-linecap="round" stroke-linejoin="round"/>
<path d="M151.341 95.0273C149.882 97.7007 146.966 98.9159 143.563 98.9159" stroke="#9A9A9A" stroke-width="2" stroke-miterlimit="10" stroke-linecap="round" stroke-linejoin="round"/>
<path d="M139.675 137.8C137.245 134.397 133.599 132.453 127.766 132.453" stroke="#9A9A9A" stroke-width="2" stroke-miterlimit="10" stroke-linecap="round" stroke-linejoin="round"/>
<path d="M149.639 116.413C147.695 114.469 144.779 113.254 138.946 113.254" stroke="#9A9A9A" stroke-width="2" stroke-miterlimit="10" stroke-linecap="round" stroke-linejoin="round"/>
<path d="M120.475 137.801C116.1 136.828 107.351 138.53 107.351 145.821" stroke="#9A9A9A" stroke-width="2" stroke-miterlimit="10" stroke-linecap="round" stroke-linejoin="round"/>
<path d="M115.128 51.0371C118.045 51.0371 121.447 54.9257 123.878 57.113C125.093 58.0851 126.065 58.8142 126.551 58.3282C135.786 53.9535 142.105 62.4598 142.105 69.2647C142.105 71.4521 141.619 73.6394 140.404 75.3406" stroke="#9A9A9A" stroke-width="2" stroke-miterlimit="10" stroke-linecap="round" stroke-linejoin="round"/>
<path d="M141.619 73.3965C140.647 75.5838 137.487 80.2015 130.196 81.9027" stroke="#9A9A9A" stroke-width="2" stroke-miterlimit="10" stroke-linecap="round" stroke-linejoin="round"/>
<path d="M128.981 89.4375C125.822 90.4096 124.364 94.5412 125.579 98.6728C126.794 102.804 130.196 105.478 133.356 104.506" stroke="#9A9A9A" stroke-width="2" stroke-miterlimit="10" stroke-linecap="round" stroke-linejoin="round"/>
<path d="M97.6299 68.0488C99.3311 69.9931 102.491 72.9095 107.351 72.9095C112.212 72.9095 115.371 69.7501 117.073 68.0488" stroke="#9A9A9A" stroke-width="2" stroke-miterlimit="10" stroke-linecap="round" stroke-linejoin="round"/>
<path d="M110.754 87.7363L102.004 106.936H114.399L106.136 126.136" stroke="#9A9A9A" stroke-width="2" stroke-miterlimit="10" stroke-linecap="round" stroke-linejoin="round"/>
</g>
</g>
<defs>
<filter id="filter0_d_226_10" x="25.3931" y="25.1797" width="187.913" height="195.199" filterUnits="userSpaceOnUse" color-interpolation-filters="sRGB">
<feFlood flood-opacity="0" result="BackgroundImageFix"/>
<feColorMatrix in="SourceAlpha" type="matrix" values="0 0 0 0 0 0 0 0 0 0 0 0 0 0 0 0 0 0 127 0" result="hardAlpha"/>
<feOffset dx="10" dy="24"/>
<feGaussianBlur stdDeviation="6"/>
<feComposite in2="hardAlpha" operator="out"/>
<feColorMatrix type="matrix" values="0 0 0 0 0.207843 0 0 0 0 0.388235 0 0 0 0 0.580392 0 0 0 0.25 0"/>
<feBlend mode="normal" in2="BackgroundImageFix" result="effect1_dropShadow_226_10"/>
<feBlend mode="normal" in="SourceGraphic" in2="effect1_dropShadow_226_10" result="shape"/>
</filter>
<filter id="filter1_d_226_10" x="23.3931" y="25.1797" width="171.913" height="167.199" filterUnits="userSpaceOnUse" color-interpolation-filters="sRGB">
<feFlood flood-opacity="0" result="BackgroundImageFix"/>
<feColorMatrix in="SourceAlpha" type="matrix" values="0 0 0 0 0 0 0 0 0 0 0 0 0 0 0 0 0 0 127 0" result="hardAlpha"/>
<feOffset dy="4"/>
<feGaussianBlur stdDeviation="2"/>
<feComposite in2="hardAlpha" operator="out"/>
<feColorMatrix type="matrix" values="0 0 0 0 0 0 0 0 0 0 0 0 0 0 0 0 0 0 0.25 0"/>
<feBlend mode="normal" in2="BackgroundImageFix" result="effect1_dropShadow_226_10"/>
<feBlend mode="normal" in="SourceGraphic" in2="effect1_dropShadow_226_10" result="shape"/>
</filter>
<filter id="filter2_d_226_10" x="45.7441" y="42.0371" width="123.214" height="138.039" filterUnits="userSpaceOnUse" color-interpolation-filters="sRGB">
<feFlood flood-opacity="0" result="BackgroundImageFix"/>
<feColorMatrix in="SourceAlpha" type="matrix" values="0 0 0 0 0 0 0 0 0 0 0 0 0 0 0 0 0 0 127 0" result="hardAlpha"/>
<feOffset dy="4"/>
<feGaussianBlur stdDeviation="6"/>
<feComposite in2="hardAlpha" operator="out"/>
<feColorMatrix type="matrix" values="0 0 0 0 0.207843 0 0 0 0 0.388235 0 0 0 0 0.580392 0 0 0 0.25 0"/>
<feBlend mode="normal" in2="BackgroundImageFix" result="effect1_dropShadow_226_10"/>
<feBlend mode="normal" in="SourceGraphic" in2="effect1_dropShadow_226_10" result="shape"/>
</filter>
</defs>
</svg>
