<svg width="60" height="60" viewBox="0 0 60 60" fill="none" xmlns="http://www.w3.org/2000/svg">
<path d="M14 4H12V6H14V4Z" fill="white"/>
<path d="M18 4H16V6H18V4Z" fill="white"/>
<path d="M22 4H20V6H22V4Z" fill="white"/>
<path d="M1 60H32C32.1978 60 32.391 59.9413 32.5555 59.8314C32.7199 59.7215 32.848 59.5654 32.9237 59.3827C32.9993 59.2 33.0192 58.999 32.9806 58.805C32.942 58.611 32.8468 58.4329 32.707 58.293L1.707 27.293C1.56715 27.1532 1.38898 27.058 1.19503 27.0194C1.00108 26.9809 0.800045 27.0007 0.617345 27.0764C0.434646 27.152 0.278483 27.2802 0.168598 27.4446C0.0587141 27.609 4.22243e-05 27.8023 0 28V59C0 59.2652 0.105357 59.5196 0.292893 59.7071C0.48043 59.8947 0.734784 60 1 60ZM2 30.414L29.586 58H2V30.414Z" fill="white"/>
<path d="M17.707 52.293L7.707 42.293C7.56715 42.1532 7.38898 42.058 7.19503 42.0194C7.00108 41.9809 6.80005 42.0007 6.61735 42.0764C6.43465 42.152 6.27848 42.2802 6.1686 42.4446C6.05871 42.609 6.00004 42.8023 6 43V53C6 53.2652 6.10536 53.5196 6.29289 53.7071C6.48043 53.8947 6.73478 54 7 54H17C17.1978 54 17.391 53.9413 17.5555 53.8314C17.7199 53.7215 17.848 53.5654 17.9237 53.3827C17.9993 53.2 18.0192 52.999 17.9806 52.805C17.942 52.611 17.8468 52.4329 17.707 52.293ZM8 52V45.414L14.586 52H8Z" fill="white"/>
<path d="M58.878 8.536C59.5959 7.81806 59.9993 6.84432 59.9993 5.829C59.9993 4.81368 59.5959 3.83994 58.878 3.122C58.1601 2.40406 57.1863 2.00072 56.171 2.00072C55.1557 2.00072 54.1819 2.40406 53.464 3.122L51.964 4.622C51.871 3.36792 51.3081 2.19516 50.3878 1.33823C49.4674 0.481295 48.2575 0.00336161 47 0H13C11.6744 0.00158786 10.4036 0.528882 9.46622 1.46622C8.52888 2.40356 8.00159 3.6744 8 5V31H10V5C10 4.20435 10.3161 3.44129 10.8787 2.87868C11.4413 2.31607 12.2044 2 13 2H47C47.7956 2 48.5587 2.31607 49.1213 2.87868C49.6839 3.44129 50 4.20435 50 5V6.586L40.586 16H33.236C32.5236 14.1759 31.3368 12.5751 29.7985 11.3633C28.2603 10.1514 26.4262 9.37236 24.486 9.1067C22.5458 8.84104 20.5698 9.0984 18.7624 9.85217C16.955 10.6059 15.3816 11.8288 14.2051 13.3942C13.0285 14.9597 12.2914 16.811 12.07 18.7567C11.8485 20.7025 12.1508 22.6721 12.9455 24.4619C13.7402 26.2517 14.9985 27.7968 16.5903 28.9375C18.1821 30.0781 20.0497 30.7729 22 30.95V35C22 35.2652 22.1054 35.5196 22.2929 35.7071C22.4804 35.8946 22.7348 36 23 36H45C45.2652 36 45.5196 35.8946 45.7071 35.7071C45.8946 35.5196 46 35.2652 46 35V21.414L50 17.414V38H27C26.7348 38 26.4804 38.1054 26.2929 38.2929C26.1054 38.4804 26 38.7348 26 39V47C26 47.2652 26.1054 47.5196 26.2929 47.7071C26.4804 47.8946 26.7348 48 27 48H50V49C50 49.7956 49.6839 50.5587 49.1213 51.1213C48.5587 51.6839 47.7956 52 47 52H31V54H47C48.3256 53.9984 49.5964 53.4711 50.5338 52.5338C51.4711 51.5964 51.9984 50.3256 52 49V48H59C59.2652 48 59.5196 47.8946 59.7071 47.7071C59.8946 47.5196 60 47.2652 60 47V39C60 38.7348 59.8946 38.4804 59.7071 38.2929C59.5196 38.1054 59.2652 38 59 38H52V15.414L58.878 8.536ZM54.878 4.536C55.0464 4.36017 55.2483 4.21973 55.4717 4.12294C55.6951 4.02615 55.9357 3.97494 56.1791 3.97233C56.4226 3.96971 56.6642 4.01574 56.8896 4.10771C57.1151 4.19969 57.3199 4.33575 57.4921 4.50793C57.6642 4.6801 57.8003 4.88492 57.8923 5.11038C57.9843 5.33584 58.0303 5.57739 58.0277 5.82087C58.0251 6.06435 57.9738 6.30485 57.8771 6.52828C57.7803 6.75171 57.6398 6.95356 57.464 7.122L57 7.586L54.414 5L54.878 4.536ZM32 20C31.997 22.2126 31.1799 24.3468 29.7046 25.9957C28.2292 27.6446 26.1987 28.693 24 28.941V18H31.768C31.9201 18.6558 31.998 19.3267 32 20ZM22 17V28.941C20.4471 28.77 18.9655 28.1977 17.7009 27.2804C16.4363 26.3631 15.4322 25.1324 14.7875 23.7094C14.1428 22.2863 13.8795 20.72 14.0237 19.1644C14.1679 17.6088 14.7146 16.1175 15.6099 14.8373C16.5052 13.557 17.7184 12.5318 19.1301 11.8626C20.5417 11.1934 22.1033 10.9032 23.6612 11.0205C25.219 11.1378 26.7195 11.6586 28.015 12.5317C29.3106 13.4048 30.3565 14.6001 31.05 16H23C22.7348 16 22.4804 16.1054 22.2929 16.2929C22.1054 16.4804 22 16.7348 22 17ZM44 34H24V30.95C25.5248 30.8166 27.0047 30.3651 28.3443 29.6247C29.6839 28.8843 30.8535 27.8714 31.7777 26.6513C32.7018 25.4312 33.3601 24.0309 33.7099 22.5409C34.0598 21.0508 34.0936 19.5039 33.809 18H38.586L36.293 20.293C36.1531 20.4323 36.0581 20.6103 36.02 20.804L35.02 25.804C34.991 25.949 34.9946 26.0987 35.0304 26.2422C35.0662 26.3856 35.1334 26.5194 35.2271 26.6338C35.3208 26.7482 35.4388 26.8404 35.5724 26.9037C35.7061 26.967 35.8521 26.9999 36 27C36.0672 27.0006 36.1343 26.9939 36.2 26.98L41.2 25.98C41.3937 25.9419 41.5717 25.8469 41.711 25.707L44 23.414V34ZM37.614 23.028L38.972 24.386L37.272 24.725L37.614 23.028ZM54 40V42H56V40H58V46H28V40H30V42H32V40H34V42H36V40H38V42H40V40H42V42H44V40H46V42H48V40H50V42H52V40H54ZM41 23.586L38.414 21L53 6.414L55.586 9L41 23.586Z" fill="white"/>
</svg>
