<svg id="visual" viewBox="0 0 900 600" width="900" height="600" xmlns="http://www.w3.org/2000/svg" xmlns:xlink="http://www.w3.org/1999/xlink" version="1.1"><rect x="0" y="0" width="900" height="600" fill="#033030"></rect><path d="M0 85L21.5 81C43 77 86 69 128.8 64.3C171.7 59.7 214.3 58.3 257.2 61.8C300 65.3 343 73.7 385.8 82.5C428.7 91.3 471.3 100.7 514.2 108C557 115.3 600 120.7 642.8 119.7C685.7 118.7 728.3 111.3 771.2 106.7C814 102 857 100 878.5 99L900 98L900 0L878.5 0C857 0 814 0 771.2 0C728.3 0 685.7 0 642.8 0C600 0 557 0 514.2 0C471.3 0 428.7 0 385.8 0C343 0 300 0 257.2 0C214.3 0 171.7 0 128.8 0C86 0 43 0 21.5 0L0 0Z" fill="#011818" stroke-linecap="round" stroke-linejoin="miter"></path></svg>